<?xml version="1.0" encoding="UTF-8"?>
<svg width="100pt" height="100pt" version="1.1" viewBox="0 0 100 100" xmlns="http://www.w3.org/2000/svg">
 <path d="m90.199 75h-4.6016l-14.496-15h1.6016c2.6992 0 4.8008-2.1992 4.8008-4.8008l-0.003906-10.398c0-2.6992-2.1992-4.8008-4.8008-4.8008h-4.6016l-14.496-15h1.6016c2.6992 0 4.8008-2.1992 4.8008-4.8008l-0.003906-10.398c0-2.6016-2.1992-4.8008-4.8008-4.8008h-10.398c-2.6016 0-4.8008 2.1992-4.8008 4.8008v10.398c0 2.6992 2.1992 4.8008 4.8008 4.8008h1.6016l-14.504 15h-4.6016c-2.6992 0-4.8008 2.1992-4.8008 4.8008v10.398c0 2.6992 2.1992 4.8008 4.8008 4.8008h1.6016l-14.5 15h-4.5977c-2.6016 0-4.8008 2.1992-4.8008 4.8008v10.398c0 2.6016 2.1992 4.8008 4.8008 4.8008h10.398c2.6992 0 4.8008-2.1992 4.8008-4.8008v-10.398c0-2.6992-2.1992-4.8008-4.8008-4.8008h-1.6016l13.898-14.301 13.902 14.301h-1.6016c-2.6992 0-4.8008 2.1992-4.8008 4.8008v10.398c0 2.6992 2.1992 4.8008 4.8008 4.8008h10.398c2.6992 0 4.8008-2.1992 4.8008-4.8008l0.003906-10.398c0-2.6992-2.1992-4.8008-4.8008-4.8008h-4.6016l-14.496-15h1.6016c2.6992 0 4.8008-2.1992 4.8008-4.8008l-0.003906-10.398c0-2.6992-2.1992-4.8008-4.8008-4.8008h-1.6016l13.902-14.398 13.898 14.398h-1.6016c-2.6992 0-4.8008 2.1992-4.8008 4.8008v10.398c0 2.6992 2.1992 4.8008 4.8008 4.8008h4.6016l14.602 15h-1.6016c-2.6992 0-4.8008 2.1992-4.8008 4.8008v10.398c0 2.6992 2.1992 4.8008 4.8008 4.8008h10.398c2.6992 0 4.8008-2.1992 4.8008-4.8008l0.003906-10.398c-0.10156-2.6016-2.3008-4.8008-4.9023-4.8008zm-68.199 4.8008v10.398c0 1-0.80078 1.8008-1.8008 1.8008h-10.398c-1 0-1.8008-0.80078-1.8008-1.8008v-10.398c0-1 0.80078-1.8008 1.8008-1.8008h10.398c1 0 1.8008 0.80078 1.8008 1.8008zm35 0v10.398c0 1-0.80078 1.8008-1.8008 1.8008h-10.398c-1 0-1.8008-0.80078-1.8008-1.8008v-10.398c0-1 0.80078-1.8008 1.8008-1.8008h10.398c1 0 1.8008 0.80078 1.8008 1.8008zm-17.5-35v10.398c0 1-0.80078 1.8008-1.8008 1.8008h-10.398c-1 0-1.8008-0.80078-1.8008-1.8008v-10.398c0-1 0.80078-1.8008 1.8008-1.8008h10.398c1 0 1.8008 0.80078 1.8008 1.8008zm3.5-24.602v-10.398c0-1 0.80078-1.8008 1.8008-1.8008h10.398c1 0 1.8008 0.80078 1.8008 1.8008v10.398c0 1-0.80078 1.8008-1.8008 1.8008h-10.398c-1 0-1.8008-0.80078-1.8008-1.8008zm17.5 35v-10.398c0-1 0.80078-1.8008 1.8008-1.8008h10.398c1 0 1.8008 0.80078 1.8008 1.8008v10.398c0 1-0.80078 1.8008-1.8008 1.8008h-10.398c-1 0-1.8008-0.80078-1.8008-1.8008zm31.5 35c0 1-0.80078 1.8008-1.8008 1.8008h-10.398c-1 0-1.8008-0.80078-1.8008-1.8008v-10.398c0-1 0.80078-1.8008 1.8008-1.8008h10.398c1 0 1.8008 0.80078 1.8008 1.8008z"/>
</svg>
