<?xml version="1.0" encoding="UTF-8"?>
<svg width="100pt" height="100pt" version="1.1" viewBox="0 0 100 100" xmlns="http://www.w3.org/2000/svg">
 <g fill-rule="evenodd">
  <path d="m56.551 76.527c1.3281 5.1523 7.2539 3.0547 11.43 4.9258 7.2305 3.2422 17.895-2.5156 26.035 5.3633 3.5078 3.3945-2.0273-1.4727-7.8398-1.7695-9.75-0.49609-9.8711-0.77344-6.8633 6.4141 2.1836 5.2109-2.4609-1.4492-4.1602-4.3203-1.4609-2.4688-5.7227-2.2812-9.4609-2.6562-0.8125-0.082031-8.8477-1.7148-7.6602-0.34766 6.8789 6.3438 7.6406 8.3555 14.426 12.871 5.6602 3.7656-2.9648 0.38281-6.2617-1.9375-3.0352-2.1367-1.6484 0.37891-1.2109 3.6562 0.078125 0.5625-0.30469 1.9883-0.92578 0.71094-1.2344-2.5508-1.1445-8.6523-7.418-11.828-1.7305-0.875-4.1289-1.9844-6.4805-5.2773-1.6289 0.050781-2.582 3.5781-3.1641 4.9492-0.41797 0.98047 3.582 12.637 0.39062 8.7734-2.7656-3.3477 0.33984-11.355-11.438 0.82422-7.082 7.3242-3.2383 0.058594 0.85547-4.3672 0.96484-1.043 7.4727-6.957 6.168-9.6406-4.6484 4.7227-7.5625 1.0078-16.957 8.0039l-7.8516 5.4453 9.2109-10.59c-4.4766-2.9648-16.445 3.4023-17.793 3.293 4.4336-5.6328 15.082-6.0352 22.32-6.7305 10.719-2.1406 13.75-12.984 15.023-22.109 2.2109-16.203-10.5-17-18.074-26.25-3.3359-4.0742-13.672-4.7891-8.9688-4.6953 10.062 0.19531 5.6367 3.7617 3.2383-13.332l1.9336 5.5234c0.60547 1.2969 6.4727-6.6445 3.5703-2.1797-1.168 1.8008-3.7266 2.2148-1.6094 7.3203 4.2031 10.148 19.629 15.637 20.73 15.32 1.5234-0.4375 1.668-7.2695-3.0781-14.367-1.7695-3.8164-6.9609-8.3125-6.3164-13.227 1.0117 3.3594 3.332 5.6719 4.0312 6.9414 1.2188 2.2188 1.2188 1.3477 6.1875-2.4258l0.046876 0.55859-2.8672 2.625c-1.6953 2.9727 1.7891 6.543 4.6797 9.3633 3.8633 3.7695 2.8086 0.56641 8.8789-3.8203 4.3047-3.1133 6.4766-6.3711 4.0977-12.484 0.24219-0.21875 0.53516-0.10547 0.95703 0.68359l1.6289 5.2734c1.875-1.6094 6.3398-5.5938 5.5586-8.3594-0.11328-0.40625 5.7227-0.41016-10.945 16.957-7.1875 7.4883-9.9844 20.23-4.8281 19.41 13.172-2.0938 8.4609 0.5 20.926-2.7188 3.6523-0.94141 9.5977 0.48438 6.9141 0.51172-5.0508 0.054688-11.086 1.8672-10.359 2.6367 1.7305 1.0703 4.7969 2.2969 5.1875 3.2109-4.6055-1.0352-4.8047-3.0664-12.809-2.0781-4.707 0.58203-9.2383 2.3516-9.043 7.9883 0.097656 2.8828-1.9648 10.469-0.035156 17.957z"/>
  <path d="m21.844 7.332c3.3438 2.3516 3.2578 5.7773 0.96094 7.9531-1.7617-2.8789 0.53516-3.6016-0.48828-6.2812 0.71875 2.7969-1.3789 3.4023 0 6.2812-3.6484-1.6055-0.56641-6-0.47656-7.9531z"/>
  <path d="m13.734 14.996c3.2969-2.4141 6.5156-1.2344 7.8438 1.6367-3.293 0.74609-3.2383-1.6602-6.1094-1.5469 2.875 0.21484 2.7812 2.3984 5.9531 2.0117-2.6914 2.9414-5.8633-1.3867-7.6875-2.0938z"/>
  <path d="m15.152 21.094c2.2227-3.4258 5.6562-3.4648 7.9141-1.2578-2.8086 1.8672-3.6211-0.40234-6.2578 0.71875 2.7656-0.82031 3.4531 1.2539 6.2812-0.23438-1.4727 3.707-5.9766 0.78516-7.9336 0.76953z"/>
  <path d="m28.484 8.6211c1.9727 3.5781 0.39062 6.6211-2.6211 7.5742-0.32031-3.3594 2.0625-3.0039 2.3203-5.8594-0.58203 2.8281-2.7383 2.4531-2.7578 5.6484-2.5781-3.043 2.125-5.6406 3.0625-7.3594z"/>
  <path d="m34.438 11.152c1.0742 3.9453-1.1836 6.5273-4.3359 6.7383 0.48047-3.3398 2.7109-2.4258 3.6328-5.1445-1.2305 2.6094-3.2344 1.7383-4.0078 4.8359-1.7852-3.5625 3.3945-4.9805 4.7109-6.4258z"/>
  <path d="m9.5781 27.348c3.2969-2.4141 6.5156-1.2344 7.8438 1.6367-3.293 0.74609-3.2383-1.6602-6.1094-1.5469 2.875 0.21484 2.7812 2.3984 5.9531 2.0117-2.6914 2.9414-5.8633-1.3867-7.6875-2.0938z"/>
  <path d="m12.734 34.789c3.6758 1.7891 6.6328 0.050782 7.4258-3.0078-3.3711-0.14453-2.8906 2.2148-5.7305 2.6133 2.793-0.72656 2.3086-2.8555 5.5-3.0391-3.1719-2.418-5.5234 2.4102-7.1914 3.4336z"/>
  <path d="m19.766 39.168c3.9453-1.0586 5.043-4.3086 3.6367-7.1406-2.6445 2.0977-0.73047 3.5664-2.6133 5.7305 1.6328-2.3789-0.12891-3.6719 2.1602-5.9023-3.9766 0.25781-2.5898 5.4414-3.1797 7.3086z"/>
  <path d="m17.781 22.328c4.0742 0.26953 5.7852 3.2422 4.957 6.293-3.0039-1.543-1.4141-3.3555-3.6836-5.1133 2.0625 2.0156 0.58984 3.625 3.2656 5.3672-3.9492 0.52734-3.6016-4.832-4.543-6.5469z"/>
  <path d="m33.996 27.184c-0.42188-4.0664-3.457-5.6602-6.4766-4.7188 1.6562 2.9375 3.4062 1.2852 5.2461 3.4883-2.0938-1.9883-3.6484-0.45312-5.4883-3.0625-0.375 3.9688 4.9648 3.418 6.7148 4.293z"/>
  <path d="m37.34 20.336c-2.4727-3.2539-5.8945-3.0391-7.9844-0.66797 2.9414 1.6523 3.5781-0.66797 6.2969 0.25391-2.8203-0.61328-3.3516 1.5078-6.2812 0.23438 1.7383 3.5859 6.0195 0.33984 7.9688 0.17969z"/>
  <path d="m77.059 4.2578c1.0703 3.9453-1.1836 6.5273-4.3359 6.7383 0.48047-3.3398 2.7109-2.4258 3.6367-5.1445-1.2344 2.6094-3.2344 1.7383-4.0078 4.8359-1.7812-3.5664 3.3945-4.9805 4.7109-6.4297z"/>
  <path d="m65.922 4.9805c4.0781 0.24219 5.8047 3.207 4.9961 6.2617-3.0078-1.5234-1.4336-3.3477-3.7148-5.0898 2.0781 2 0.60938 3.6211 3.2969 5.3477-3.9492 0.54688-3.6289-4.8125-4.582-6.5195z"/>
  <path d="m63.125 10.578c3.9023-1.2188 6.5664 0.9375 6.8984 4.0781-3.3594-0.35547-2.5273-2.6172-5.2773-3.4414 2.6523 1.1328 1.8555 3.168 4.9844 3.8281-3.4961 1.9141-5.1016-3.207-6.6016-4.4648z"/>
  <path d="m81.348 9.4844c-0.76172 4.0117-3.9219 5.3438-6.8516 4.1562 1.8984-2.7891 3.5039-0.99219 5.5234-3.0312-2.2539 1.8008-3.6719 0.14453-5.7266 2.5859-0.039063-3.9883 5.2344-2.9844 7.0508-3.7148z"/>
  <path d="m79.574 16.121c-1.6914 3.7188-5.0781 4.2695-7.6406 2.418 2.5039-2.2617 3.6367-0.14062 6.082-1.6406-2.6133 1.2188-3.6016-0.73047-6.1719 1.1641 0.90234-3.8828 5.793-1.668 7.7305-1.9414z"/>
  <path d="m76.148 26.047c0.17578-4.082-2.5977-6.1016-5.7188-5.6094 1.2109 3.1523 3.1836 1.7695 4.6836 4.2148-1.7773-2.2695-3.5391-0.97656-4.9844-3.8281-0.94922 3.875 4.4141 4.1055 6.0195 5.2227z"/>
  <path d="m57.934 8.4922c4.0781 0.24219 5.8047 3.207 4.9961 6.2617-3.0078-1.5234-1.4336-3.3477-3.7148-5.0898 2.0781 2 0.60938 3.6211 3.2969 5.3477-3.9492 0.54688-3.6289-4.8125-4.582-6.5195z"/>
  <path d="m55.141 18.129c2.4727-3.2539 5.8945-3.0391 7.9844-0.66797-2.9414 1.6523-3.5781-0.66797-6.2969 0.25391 2.8203-0.61328 3.3516 1.5078 6.2812 0.23438-1.7383 3.5859-6.0195 0.33984-7.9688 0.17969z"/>
  <path d="m35.438 5.7383c3.875 1.3047 4.7656 4.6133 3.1875 7.3555-2.5078-2.2578-0.50781-3.6055-2.2539-5.8867 1.4805 2.4766-0.35938 3.6562 1.7852 6.0234-3.957-0.50391-2.2461-5.5938-2.7188-7.4883z"/>
  <path d="m43.473 7.625c2.2539 3.4102 0.91797 6.5703-2.0117 7.7539-0.58594-3.3242 1.8164-3.1562 1.8438-6.0234-0.35547 2.8633-2.5312 2.6602-2.2969 5.8477-2.8086-2.832 1.6719-5.793 2.4648-7.582z"/>
  <path d="m46.168 12.219c-3.3594 2.3281-3.293 5.7617-1.0117 7.9492 1.7773-2.8711-0.51562-3.6055 0.52344-6.2812-0.73047 2.7891 1.3633 3.4102-0.039063 6.2812 3.6602-1.5859 0.60156-5.9961 0.52344-7.9531z"/>
  <path d="m52.516 10.867c-3.9961 0.85937-5.2539 4.0469-3.9961 6.9453 2.7422-1.9648 0.91406-3.5234 2.9023-5.5938-1.75 2.2891-0.054687 3.6758-2.4531 5.7852 3.9844-0.050781 2.8633-5.3047 3.5469-7.1367z"/>
  <path d="m57.055 20.73c-2.2227-3.4258-5.6562-3.4688-7.9141-1.2578 2.8086 1.8672 3.6211-0.40234 6.2578 0.71875-2.7656-0.82031-3.4531 1.2539-6.2812-0.23438 1.4727 3.707 5.9766 0.78516 7.9336 0.76953z"/>
  <path d="m51.602 28.484c0.98828-3.9648-1.3203-6.5-4.4805-6.6406 0.55469 3.3281 2.7656 2.3711 3.7461 5.0664-1.2852-2.582-3.2734-1.668-4.1133-4.75-1.7031 3.6016 3.5039 4.9023 4.8516 6.3242z"/>
  <path d="m92.465 44.133c-1.6914 3.7188-5.0781 4.2695-7.6406 2.418 2.5039-2.2617 3.6367-0.14062 6.082-1.6406-2.6133 1.2188-3.6016-0.73047-6.1719 1.1641 0.90234-3.8828 5.793-1.668 7.7305-1.9414z"/>
  <path d="m83.43 37.582c2.9844 2.793 2.418 6.1758-0.15234 8.0078-1.3438-3.0977 1.0312-3.4922 0.39062-6.2891 0.32031 2.8672-1.8398 3.1758-0.87109 6.2227-3.3906-2.0977 0.27734-6.0234 0.63281-7.9414z"/>
  <path d="m76.348 37.762c3.7812 1.5469 4.457 4.9141 2.7031 7.543-2.3555-2.418-0.27734-3.6289-1.8672-6.0195 1.3164 2.5664-0.59375 3.625 1.3945 6.125-3.9141-0.75781-1.8789-5.7266-2.2266-7.6484z"/>
  <path d="m89.246 53.293c-4.0469 0.55078-6.3164-2.0195-6.1211-5.1758 3.25 0.91016 2.0586 3.0039 4.6289 4.2734-2.4258-1.5625-1.3047-3.4336-4.2734-4.6016 3.7656-1.3086 4.4961 4.0117 5.7617 5.5039z"/>
  <path d="m83.121 54.766c-3.9844-0.91406-5.1992-4.1172-3.8984-7 2.7188 2 0.86328 3.5391 2.8242 5.6328-1.7188-2.3164-0.007813-3.6758-2.375-5.8164 3.9844 0.10938 2.7891 5.3398 3.4492 7.1875z"/>
  <path d="m83.035 59.074c-4.0469 0.55078-6.3164-2.0195-6.1211-5.1758 3.25 0.91016 2.0586 3.0039 4.6289 4.2734-2.4258-1.5625-1.3047-3.4336-4.2734-4.6016 3.7656-1.3086 4.4961 4.0117 5.7617 5.5039z"/>
  <path d="m74.203 60.242c-3.0508-2.7148-2.5742-6.1133-0.046875-8.0117 1.418 3.0625-0.94531 3.5156-0.23438 6.2969-0.39062-2.8594 1.7656-3.2227 0.71875-6.2422 3.4414 2.0117-0.125 6.0234-0.4375 7.957z"/>
  <path d="m80.57 33.055c-1.6914 3.7188-5.0781 4.2695-7.6406 2.418 2.5039-2.2617 3.6367-0.14062 6.082-1.6406-2.6133 1.2188-3.6016-0.73047-6.1719 1.1641 0.90234-3.8828 5.793-1.668 7.7305-1.9414z"/>
  <path d="m76.957 30.09c-3.4336 2.2109-6.5781 0.83984-7.7344-2.0977 3.3281-0.54688 3.1328 1.8516 6.0039 1.9102-2.8594-0.38672-2.6328-2.5625-5.8203-2.3633 2.8633-2.7773 5.7695 1.7383 7.5469 2.5508z"/>
  <path d="m68.457 34.461c1.6094-3.7539-0.26172-6.6289-3.3594-7.2773 0.015625 3.375 2.3477 2.7812 2.8828 5.6016-0.85938-2.7539-2.9648-2.168-3.2969-5.3477-2.2617 3.2852 2.6719 5.4062 3.7695 7.0234z"/>
  <path d="m74.078 38.715c-3.9961 0.85938-5.2539 4.0469-3.9961 6.9453 2.7422-1.9648 0.91406-3.5234 2.9023-5.5938-1.75 2.293-0.054687 3.6758-2.4531 5.7852 3.9844-0.050781 2.8633-5.3047 3.5469-7.1367z"/>
  <path d="m62.762 38.566c-3.3281-2.3711-3.2227-5.7969-0.91797-7.9609 1.7422 2.8906-0.55859 3.5977 0.44922 6.2852-0.69922-2.8008 1.4023-3.3945 0.039062-6.2812 3.6406 1.6289 0.53125 6.0039 0.42969 7.957z"/>
  <path d="m84.145 23.172c-3.0391 2.7305-6.3633 1.8711-7.9688-0.84766 3.1992-1.0703 3.3906 1.332 6.2305 0.9375-2.8828 0.070312-3.0039-2.1133-6.1211-1.4141 2.3867-3.1992 5.9727 0.79688 7.8594 1.3242z"/>
  <path d="m85.512 29.492c-3.4336 2.2148-6.5781 0.84375-7.7344-2.0977 3.3281-0.54688 3.1328 1.8516 6.0039 1.9141-2.8594-0.38672-2.6328-2.5625-5.8203-2.3633 2.8633-2.7773 5.7695 1.7383 7.5469 2.5508z"/>
  <path d="m50.445 3.0977c-3.9961 0.85938-5.2539 4.0469-3.9961 6.9453 2.7422-1.9648 0.91406-3.5234 2.9023-5.5938-1.75 2.2891-0.054687 3.6758-2.4531 5.7852 3.9844-0.050781 2.8633-5.3047 3.5469-7.1367z"/>
  <path d="m55.293 7.332c2.9883 2.7852 2.4336 6.168-0.13281 8.0117-1.3477-3.0938 1.0234-3.4922 0.375-6.2891 0.32812 2.8672-1.8359 3.1836-0.85938 6.2227-3.3945-2.0938 0.26172-6.0234 0.61328-7.9453z"/>
  <path d="m90.047 33.055c-1.6914 3.7188-5.0781 4.2695-7.6406 2.418 2.5039-2.2617 3.6367-0.14062 6.082-1.6406-2.6133 1.2188-3.6016-0.73047-6.1719 1.1641 0.90234-3.8828 5.793-1.668 7.7305-1.9414z"/>
  <path d="m29.562 3.3789c3.875 1.3047 4.7656 4.6133 3.1875 7.3555-2.5078-2.2578-0.50781-3.6055-2.2539-5.8867 1.4805 2.4766-0.35938 3.6562 1.7852 6.0234-3.957-0.50391-2.2461-5.5938-2.7188-7.4883z"/>
  <path d="m7.3086 22.051c3.2969-2.4141 6.5156-1.2344 7.8438 1.6367-3.293 0.74609-3.2383-1.6602-6.1094-1.5469 2.875 0.21484 2.7812 2.3984 5.9531 2.0117-2.6914 2.9414-5.8633-1.3867-7.6875-2.0938z"/>
  <path d="m24.723 43.191c3.9453-1.0586 5.043-4.3086 3.6367-7.1406-2.6445 2.0977-0.73047 3.5664-2.6133 5.7305 1.6328-2.3789-0.12891-3.6719 2.1602-5.9023-3.9766 0.25781-2.5898 5.4414-3.1797 7.3086z"/>
  <path d="m16.641 45.156c3.9766 0.93359 6.4805-1.4102 6.582-4.5664-3.3242 0.59766-2.332 2.7969-5.0156 3.8125 2.5625-1.3242 1.6211-3.2969 4.6914-4.1758-3.625-1.6602-4.8555 3.5664-6.2578 4.9336z"/>
  <path d="m11.863 41.762c3.9766 0.93359 6.4805-1.4102 6.582-4.5664-3.3242 0.59766-2.332 2.7969-5.0156 3.8125 2.5625-1.3242 1.6211-3.2969 4.6914-4.1758-3.625-1.6602-4.8555 3.5664-6.2578 4.9336z"/>
  <path d="m4.8867 33.156c3.2969 2.4141 6.5156 1.2344 7.8438-1.6367-3.293-0.74609-3.2383 1.6602-6.1094 1.5469 2.875-0.21484 2.7812-2.3984 5.9531-2.0117-2.6914-2.9414-5.8633 1.3867-7.6875 2.0938z"/>
  <path d="m35.438 27.438c3.875 1.3047 4.7656 4.6133 3.1875 7.3555-2.5078-2.2578-0.50781-3.6055-2.2539-5.8867 1.4805 2.4766-0.35938 3.6562 1.7852 6.0234-3.957-0.50391-2.2461-5.5938-2.7188-7.4883z"/>
  <path d="m34.711 24.074c3.2969-2.4141 6.5156-1.2344 7.8438 1.6367-3.293 0.74609-3.2383-1.6602-6.1094-1.5469 2.875 0.21484 2.7812 2.3984 5.9531 2.0117-2.6914 2.9414-5.8633-1.3867-7.6875-2.0938z"/>
  <path d="m63.035 0.97656c2.9883 2.7852 2.4336 6.168-0.13281 8.0117-1.3477-3.0938 1.0234-3.4922 0.375-6.2891 0.32812 2.8672-1.8359 3.1836-0.85938 6.2227-3.3945-2.0938 0.26172-6.0234 0.61328-7.9453z"/>
  <path d="m54.461 0.56641c4.0781 0.24219 5.8047 3.207 4.9961 6.2617-3.0078-1.5234-1.4336-3.3477-3.7148-5.0898 2.0781 2 0.60937 3.6211 3.2969 5.3477-3.9492 0.54687-3.6289-4.8125-4.582-6.5195z"/>
  <path d="m43.211 0c-3.875 1.3047-4.7656 4.6133-3.1875 7.3555 2.5078-2.2578 0.50781-3.6055 2.2539-5.8867-1.4805 2.4766 0.35938 3.6562-1.7852 6.0234 3.957-0.50391 2.2461-5.5938 2.7188-7.4883z"/>
 </g>
</svg>
