<?xml version="1.0" encoding="UTF-8"?>
<svg width="100pt" height="100pt" version="1.1" viewBox="0 0 100 100" xmlns="http://www.w3.org/2000/svg">
 <g>
  <path d="m95.312 40.625c2.5859 0 4.6875-2.1016 4.6875-4.6875v-31.25c0-2.5859-2.1016-4.6875-4.6875-4.6875h-31.25c-2.5859 0-4.6875 2.1016-4.6875 4.6875v11.852l-3.582-3.582c-0.44531-0.44531-1.1172-0.57812-1.7031-0.33984-0.58594 0.24219-0.96484 0.8125-0.96484 1.4453v1.5625h-12.5v-10.938c0-2.5859-2.1016-4.6875-4.6875-4.6875h-31.25c-2.5859 0-4.6875 2.1016-4.6875 4.6875v31.25c0 2.5859 2.1016 4.6875 4.6875 4.6875h31.25c2.5859 0 4.6875-2.1016 4.6875-4.6875v-10.938h12.5v1.5625c0 0.63281 0.37891 1.2031 0.96484 1.4453 0.19141 0.078126 0.39453 0.11719 0.59766 0.11719 0.40625 0 0.80469-0.16016 1.1055-0.45703l3.582-3.582v11.852c0 2.5859 2.1016 4.6875 4.6875 4.6875h10.938v12.5h-1.5625c-0.63281 0-1.2031 0.38281-1.4453 0.96484-0.24219 0.58594-0.10938 1.2578 0.33984 1.7031l3.582 3.582h-11.852c-2.5859 0-4.6875 2.1016-4.6875 4.6875v10.938h-12.5v-1.5625c0-0.63281-0.37891-1.2031-0.96484-1.4453-0.58203-0.24219-1.2578-0.10938-1.7031 0.33984l-3.582 3.582v-11.852c0-2.5859-2.1016-4.6875-4.6875-4.6875h-31.25c-2.5859 0-4.6875 2.1016-4.6875 4.6875v31.25c0 2.5859 2.1016 4.6875 4.6875 4.6875h31.25c2.5859 0 4.6875-2.1016 4.6875-4.6875v-11.852l3.582 3.582c0.30078 0.29688 0.69922 0.45703 1.1055 0.45703 0.20312 0 0.40625-0.039062 0.59766-0.11719 0.58594-0.24219 0.96484-0.8125 0.96484-1.4453v-1.5625h12.5v10.938c0 2.5859 2.1016 4.6875 4.6875 4.6875h31.25c2.5859 0 4.6875-2.1016 4.6875-4.6875v-31.25c0-2.5859-2.1016-4.6875-4.6875-4.6875h-11.852l3.582-3.582c0.44531-0.44531 0.58203-1.1172 0.33984-1.7031-0.24219-0.58203-0.8125-0.96484-1.4453-0.96484h-1.5625v-12.5zm-57.812-4.6875c0 0.85938-0.69922 1.5625-1.5625 1.5625h-31.25c-0.86328 0-1.5625-0.70312-1.5625-1.5625v-31.25c0-0.85938 0.69922-1.5625 1.5625-1.5625h31.25c0.86328 0 1.5625 0.70312 1.5625 1.5625zm18.648-13.047c-0.21875-0.59375-0.78906-1.0156-1.4609-1.0156h-14.062v-3.125h14.062c0.67188 0 1.2422-0.42188 1.4609-1.0156l2.5781 2.5781zm-18.648 72.422c0 0.85938-0.69922 1.5625-1.5625 1.5625h-31.25c-0.86328 0-1.5625-0.70312-1.5625-1.5625v-31.25c0-0.85938 0.69922-1.5625 1.5625-1.5625h31.25c0.86328 0 1.5625 0.70312 1.5625 1.5625zm7.8125-14.062c-0.67188 0-1.2422 0.42188-1.4648 1.0156l-2.5742-2.5781 2.5781-2.5781c0.21875 0.59375 0.78906 1.0156 1.4609 1.0156h14.062v3.125zm51.562-17.188v31.25c0 0.85938-0.69922 1.5625-1.5625 1.5625h-31.25c-0.86328 0-1.5625-0.70312-1.5625-1.5625v-31.25c0-0.85938 0.69922-1.5625 1.5625-1.5625h31.25c0.86328 0 1.5625 0.70312 1.5625 1.5625zm-34.375-28.125v-31.25c0-0.85938 0.69922-1.5625 1.5625-1.5625h31.25c0.86328 0 1.5625 0.70312 1.5625 1.5625v31.25c0 0.85938-0.69922 1.5625-1.5625 1.5625h-31.25c-0.86328 0-1.5625-0.70312-1.5625-1.5625zm19.766 20.215-2.5781 2.5742-2.5781-2.5781c0.59375-0.21875 1.0156-0.78906 1.0156-1.4609v-14.062h3.125v14.062c0 0.67188 0.42188 1.2422 1.0156 1.4648z"/>
  <path d="m20.312 67.188c-6.8906 0-12.5 5.6094-12.5 12.5s5.6094 12.5 12.5 12.5 12.5-5.6094 12.5-12.5-5.6094-12.5-12.5-12.5zm0 21.875c-5.1719 0-9.375-4.2031-9.375-9.375s4.2031-9.375 9.375-9.375 9.375 4.2031 9.375 9.375-4.2031 9.375-9.375 9.375z"/>
  <path d="m23.895 75.457-5.1445 5.1445-2.0195-2.0195c-0.60938-0.60938-1.5977-0.60938-2.2109 0-0.60938 0.60938-0.60938 1.5977 0 2.2109l3.125 3.125c0.30469 0.30469 0.70703 0.45703 1.1055 0.45703s0.80078-0.15234 1.1055-0.45703l6.25-6.25c0.60938-0.60938 0.60938-1.5977 0-2.2109-0.61328-0.60938-1.5977-0.60938-2.2109 0z"/>
  <path d="m28.125 18.75h-1.7852c-0.14844-0.57031-0.37109-1.1016-0.66406-1.5938l1.2656-1.2617c0.60938-0.60938 0.60938-1.6016 0-2.2109s-1.5977-0.60938-2.2109 0l-1.2656 1.2656c-0.49219-0.29297-1.0234-0.51953-1.5898-0.66406v-1.7852c0-0.86328-0.69922-1.5625-1.5625-1.5625s-1.5625 0.69922-1.5625 1.5625v1.7852c-0.56641 0.14844-1.1016 0.37109-1.5938 0.66406l-1.2656-1.2656c-0.60938-0.60938-1.5977-0.60938-2.2109 0-0.60938 0.60938-0.60938 1.6016 0 2.2109l1.2656 1.2656c-0.28906 0.48828-0.51562 1.0195-0.66016 1.5898h-1.7891c-0.86328 0-1.5625 0.69922-1.5625 1.5625s0.69922 1.5625 1.5625 1.5625h1.7891c0.14844 0.56641 0.37109 1.0977 0.66406 1.5898l-1.2656 1.2656c-0.60938 0.60938-0.60938 1.6016 0 2.2109 0.30469 0.30469 0.70312 0.45703 1.1055 0.45703 0.39844 0 0.80078-0.15234 1.1055-0.45703l1.2656-1.2656c0.49219 0.29297 1.0273 0.51562 1.5938 0.66406l-0.003906 1.7852c0 0.86328 0.69922 1.5625 1.5625 1.5625s1.5625-0.69922 1.5625-1.5625v-1.7852c0.56641-0.14844 1.1016-0.37109 1.5938-0.66406l1.2656 1.2656c0.30469 0.30469 0.70312 0.45703 1.1055 0.45703 0.39844 0 0.80078-0.15234 1.1055-0.45703 0.60938-0.60938 0.60938-1.5977 0-2.2109l-1.2656-1.2656c0.29297-0.49219 0.51562-1.0273 0.66406-1.5938h1.7812c0.86328 0 1.5625-0.69922 1.5625-1.5625 0-0.85938-0.69922-1.5586-1.5625-1.5586zm-7.8125 4.6875c-1.7227 0-3.125-1.4023-3.125-3.125s1.4023-3.125 3.125-3.125 3.1211 1.3984 3.125 3.1172v0.003906 0.007812c-0.003906 1.7227-1.4023 3.1211-3.125 3.1211z"/>
  <path d="m78.125 26.34v1.7852c0 0.86328 0.69922 1.5625 1.5625 1.5625s1.5625-0.69922 1.5625-1.5625v-1.7852c0.56641-0.14844 1.1016-0.37109 1.5938-0.66406l1.2656 1.2656c0.30469 0.30469 0.70312 0.45703 1.1055 0.45703 0.39844 0 0.80078-0.15234 1.1055-0.45703 0.60938-0.60938 0.60938-1.5977 0-2.2109l-1.2656-1.2656c0.29297-0.49219 0.51562-1.0273 0.66406-1.5938l1.7812 0.003906c0.86328 0 1.5625-0.69922 1.5625-1.5625s-0.69922-1.5625-1.5625-1.5625h-1.7852c-0.14844-0.57031-0.37109-1.1016-0.66406-1.5938l1.2617-1.2617c0.60938-0.60938 0.60938-1.6016 0-2.2109s-1.5977-0.60938-2.2109 0l-1.2656 1.2656c-0.49219-0.28906-1.0234-0.51562-1.5898-0.66016l0.003906-1.7891c0-0.86328-0.69922-1.5625-1.5625-1.5625s-1.5625 0.69922-1.5625 1.5625v1.7852c-0.56641 0.14844-1.1016 0.37109-1.5938 0.66406l-1.2656-1.2656c-0.60938-0.60938-1.5977-0.60938-2.2109 0-0.60938 0.60938-0.60938 1.6016 0 2.2109l1.2656 1.2656c-0.28906 0.49219-0.51562 1.0234-0.66406 1.5938l-1.7812-0.003906c-0.86328 0-1.5625 0.69922-1.5625 1.5625s0.69922 1.5625 1.5625 1.5625h1.7852c0.14844 0.56641 0.37109 1.0977 0.66406 1.5898l-1.2656 1.2656c-0.60938 0.60938-0.60938 1.6016 0 2.2109 0.30469 0.30469 0.70312 0.45703 1.1055 0.45703 0.39844 0 0.80078-0.15234 1.1055-0.45703l1.2656-1.2656c0.49219 0.29297 1.0234 0.51953 1.5898 0.66406zm1.5625-9.1523c1.7188 0 3.1211 1.3984 3.125 3.1172v0.003906 0.003906c-0.003906 1.7227-1.4062 3.1211-3.125 3.1211-1.7227 0-3.125-1.4023-3.125-3.125 0-1.7188 1.4023-3.1211 3.125-3.1211z"/>
  <path d="m78.125 71.688v1.7852c-0.56641 0.14844-1.1016 0.37109-1.5938 0.66406l-1.2656-1.2656c-0.60938-0.60938-1.5977-0.60938-2.2109 0-0.60938 0.60938-0.60938 1.5977 0 2.2109l1.2656 1.2656c-0.28906 0.49219-0.51562 1.0234-0.66406 1.5898h-1.7891c-0.86328 0-1.5625 0.69922-1.5625 1.5625s0.69922 1.5625 1.5625 1.5625h1.7852c0.14844 0.56641 0.37109 1.0977 0.66406 1.5898l-1.2656 1.2656c-0.60938 0.60938-0.60938 1.6016 0 2.2109 0.30469 0.30469 0.70312 0.45703 1.1055 0.45703 0.39844 0 0.80078-0.15234 1.1055-0.45703l1.2656-1.2656c0.49219 0.29297 1.0273 0.51562 1.5938 0.66406v1.7852c0 0.86328 0.69922 1.5625 1.5625 1.5625 0.86328 0 1.5625-0.69922 1.5625-1.5625v-1.7852c0.56641-0.14844 1.1016-0.37109 1.5938-0.66406l1.2656 1.2656c0.30469 0.30469 0.70312 0.45703 1.1055 0.45703 0.39844 0 0.80078-0.15234 1.1055-0.45703 0.60938-0.60938 0.60938-1.6016 0-2.2109l-1.2656-1.2656c0.29297-0.49219 0.51562-1.0273 0.66406-1.5938h1.7852c0.86328 0 1.5625-0.69922 1.5625-1.5625 0-0.86328-0.69922-1.5625-1.5625-1.5625h-1.7852c-0.14844-0.57031-0.37109-1.1016-0.66406-1.5938l1.2617-1.2656c0.60938-0.60938 0.60938-1.6016 0-2.2109s-1.5977-0.60938-2.2109 0l-1.2656 1.2656c-0.49219-0.28906-1.0234-0.51562-1.5898-0.66016v-1.7852c0-0.86328-0.69922-1.5625-1.5625-1.5625-0.85938 0.003906-1.5586 0.70312-1.5586 1.5664zm4.6875 7.8047v0.003906 0.003906c-0.003906 1.7227-1.4062 3.1211-3.125 3.1211-1.7227 0-3.125-1.4023-3.125-3.125s1.4023-3.125 3.125-3.125c1.7227 0.003906 3.1211 1.4023 3.125 3.1211z"/>
 </g>
</svg>
