<?xml version="1.0" encoding="UTF-8"?>
<svg width="1200pt" height="1200pt" version="1.1" viewBox="0 0 1200 1200" xmlns="http://www.w3.org/2000/svg">
 <g>
  <path d="m1031.2 37.5h-675c-4.6484 0.011719-9.125 1.75-12.562 4.875l-187.5 168.75c-3.9297 3.543-6.1758 8.5859-6.1875 13.875v918.75c0 4.9727 1.9766 9.7422 5.4922 13.258 3.5156 3.5156 8.2852 5.4922 13.258 5.4922h56.25v-37.5h-37.5v-881.25h168.75c4.9727 0 9.7422-1.9766 13.258-5.4922 3.5156-3.5156 5.4922-8.2852 5.4922-13.258v-150h637.5v993.75c0 14.918-5.9258 29.227-16.477 39.773-10.547 10.551-24.855 16.477-39.773 16.477h-618.75v37.5h618.75c24.863 0 48.711-9.8789 66.293-27.457 17.578-17.582 27.457-41.43 27.457-66.293v-1012.5c0-4.9727-1.9766-9.7422-5.4922-13.258-3.5156-3.5156-8.2852-5.4922-13.258-5.4922zm-813.56 168.75 119.81-107.81v107.81z"/>
  <path d="m616.12 121.69c-3.3789-5.6914-9.5078-9.1836-16.125-9.1836s-12.746 3.4922-16.125 9.1836l-225 375c-2.2617 3.8125-3.0977 8.3047-2.3633 12.676 0.73828 4.3711 2.9961 8.3398 6.3828 11.203 3.3828 2.8633 7.6719 4.4336 12.105 4.4336h262.5v-37.5h-229.31l191.81-319.88 191.81 319.88h-41.812v37.5h75c4.4336 0 8.7227-1.5703 12.105-4.4336 3.3867-2.8633 5.6445-6.832 6.3828-11.203 0.73438-4.3711-0.10156-8.8633-2.3633-12.676z"/>
  <path d="m243.75 562.5c-4.9727 0-9.7422 1.9766-13.258 5.4922-3.5156 3.5156-5.4922 8.2852-5.4922 13.258v112.5c0 4.9727 1.9766 9.7422 5.4922 13.258 3.5156 3.5156 8.2852 5.4922 13.258 5.4922h112.5c4.9727 0 9.7422-1.9766 13.258-5.4922 3.5156-3.5156 5.4922-8.2852 5.4922-13.258v-112.5c0-4.9727-1.9766-9.7422-5.4922-13.258-3.5156-3.5156-8.2852-5.4922-13.258-5.4922zm93.75 112.5h-75v-75h75z"/>
  <path d="m225 881.25c0 4.9727 1.9766 9.7422 5.4922 13.258 3.5156 3.5156 8.2852 5.4922 13.258 5.4922h112.5c4.9727 0 9.7422-1.9766 13.258-5.4922 3.5156-3.5156 5.4922-8.2852 5.4922-13.258v-112.5c0-4.9727-1.9766-9.7422-5.4922-13.258-3.5156-3.5156-8.2852-5.4922-13.258-5.4922h-112.5c-4.9727 0-9.7422 1.9766-13.258 5.4922-3.5156 3.5156-5.4922 8.2852-5.4922 13.258zm37.5-93.75h75v75h-75z"/>
  <path d="m375 1068.8v-112.5c0-4.9727-1.9766-9.7422-5.4922-13.258-3.5156-3.5156-8.2852-5.4922-13.258-5.4922h-112.5c-4.9727 0-9.7422 1.9766-13.258 5.4922-3.5156 3.5156-5.4922 8.2852-5.4922 13.258v112.5c0 4.9727 1.9766 9.7422 5.4922 13.258 3.5156 3.5156 8.2852 5.4922 13.258 5.4922h112.5c4.9727 0 9.7422-1.9766 13.258-5.4922 3.5156-3.5156 5.4922-8.2852 5.4922-13.258zm-37.5-18.75h-75v-75h75z"/>
  <path d="m412.5 675h562.5v37.5h-562.5z"/>
  <path d="m412.5 862.5h562.5v37.5h-562.5z"/>
  <path d="m412.5 1050h562.5v37.5h-562.5z"/>
  <path d="m581.25 225h37.5v150h-37.5z"/>
  <path d="m581.25 412.5h37.5v37.5h-37.5z"/>
  <path d="m262.5 1125h37.5v37.5h-37.5z"/>
  <path d="m675 487.5h37.5v37.5h-37.5z"/>
 </g>
</svg>
