<?xml version="1.0" encoding="UTF-8"?>
<svg width="1200pt" height="1200pt" version="1.1" viewBox="0 0 1200 1200" xmlns="http://www.w3.org/2000/svg">
 <g>
  <path d="m937.5 454.69c20.074-0.019531 38.617-10.738 48.656-28.125 3.3477-5.8125 3.3438-12.969-0.015625-18.773-3.3555-5.8086-9.5547-9.3789-16.266-9.375-6.707 0.003907-12.902 3.5859-16.25 9.3984-3.3672 5.7383-9.5195 9.2617-16.172 9.2617s-12.805-3.5234-16.172-9.2617c-3.3477-5.8125-9.543-9.3945-16.25-9.3984-6.7109-0.003906-12.91 3.5664-16.266 9.375-3.3594 5.8047-3.3633 12.961-0.015625 18.773 4.9414 8.5547 12.047 15.66 20.605 20.598 8.5586 4.9375 18.266 7.5352 28.145 7.5273z"/>
  <path d="m84.938 820.78c-0.34766 1.3789-0.53516 2.7969-0.5625 4.2188v225.66c0.17188 9.832 4.1992 19.203 11.211 26.094 7.0156 6.8906 16.457 10.75 26.289 10.75h243.75c9.832 0 19.273-3.8594 26.289-10.75 7.0117-6.8906 11.039-16.262 11.211-26.094v-223.41c0-6.6992-3.5742-12.887-9.375-16.238-5.8008-3.3477-12.949-3.3477-18.75 0-5.8008 3.3516-9.375 9.5391-9.375 16.238v147.75h-131.25c-6.6992 0-12.887 3.5742-16.238 9.375-3.3477 5.8008-3.3477 12.949 0 18.75 3.3516 5.8008 9.5391 9.375 16.238 9.375h131.25v37.5l-243.75 0.65625v-200.53c5.6484 1.9219 11.566 2.9375 17.531 3 10.594-0.039062 20.973-2.9883 30-8.5312 15.133-9.5312 25.254-25.289 27.629-43.016 2.3711-17.727-3.25-35.594-15.348-48.766l-38.25-41.344c-1.0977-2.1211-0.76172-4.6992 0.84375-6.4688 4.6055-4.875 6.2617-11.832 4.3438-18.258-1.918-6.4258-7.1172-11.34-13.641-12.891-6.5234-1.5508-13.379 0.49219-17.984 5.3672-6.2578 6.7344-10.227 15.277-11.336 24.402-1.1133 9.125 0.69141 18.371 5.1484 26.41 0.9375 1.5938 43.312 48.281 43.312 48.281 4.6719 5.0469 6.7773 11.953 5.7188 18.75-0.83984 6.3789-4.4375 12.07-9.8438 15.562-3.6914 2.3047-8.043 3.3164-12.371 2.875s-8.3867-2.3086-11.535-5.3125c-0.65625-0.46875-87.375-97.688-87.375-97.688-1.8008-2.1055-1.8008-5.207 0-7.3125l68.812-70.875c21.262-22.305 50.746-34.91 81.562-34.875h193.78c19.605-0.10547 38.285-8.3555 51.562-22.781l11.25-12.188c7.0234-7.5352 11.168-17.309 11.699-27.594 0.53125-10.289-2.582-20.438-8.793-28.656l-0.9375-1.125-35.625-40.219 40.781-6c2.875-0.46094 5.6016-1.582 7.9688-3.2812l63 73.031c1.8359 2.2695 1.8359 5.5117 0 7.7812l-88.594 92.531c-9.3867 9.6914-22.145 15.398-35.625 15.938l-15.188 1.2188c-4.8086 0.24219-9.3398 2.3203-12.656 5.8125s-5.1641 8.1211-5.1562 12.938v65.625c0 6.6992 3.5742 12.887 9.375 16.238 5.8008 3.3477 12.949 3.3477 18.75 0 5.8008-3.3516 9.375-9.5391 9.375-16.238v-48.094c22.227-1.8242 42.977-11.848 58.219-28.125l88.312-92.156c7.2969-7.7344 11.531-17.859 11.914-28.488 0.37891-10.625-3.125-21.027-9.8516-29.262l-72.938-84.375c17.812-6.6562 36-10.594 48.844-6.2812 18 6 23.344 16.312 30.094 29.344 8.5312 16.406 19.781 38.25 56.25 38.25 5.3047-0.03125 10.598-0.44141 15.844-1.2188 33.469-4.7812 42.188-35.625 48.469-58.125 2.7188-9.375 6.8438-24.375 11.344-26.156 0.75 0 6.2812-1.7812 21.938 5.625v27.844l-65.625 76.031c-6.5508 8.2344-9.9023 18.559-9.4375 29.066 0.46875 10.512 4.7188 20.5 11.969 28.121l88.312 92.156c15.242 16.277 35.992 26.301 58.219 28.125v48c0 6.6992 3.5742 12.887 9.375 16.238 5.8008 3.3477 12.949 3.3477 18.75 0 5.8008-3.3516 9.375-9.5391 9.375-16.238v-65.625c0.007812-4.8164-1.8398-9.4453-5.1562-12.938s-7.8477-5.5703-12.656-5.8125l-15.281-1.5c-13.52-0.67578-26.25-6.5547-35.531-16.406l-88.312-92.156c-1.7812-1.9922-2.0859-4.9023-0.75-7.2188l59.719-69.281 50.25 7.4062-33.469 37.5-0.9375 1.125c-6.1016 8.1719-9.1562 18.215-8.6445 28.398 0.51562 10.184 4.5664 19.867 11.457 27.383l11.344 12.281c13.293 14.391 31.973 22.609 51.562 22.688h193.59c30.816-0.035156 60.301 12.57 81.562 34.875l68.812 70.875c1.7344 1.7383 2.1172 4.4102 0.9375 6.5625 0 0-87.281 98.062-88.5 99-3.1719 2.7031-7.1094 4.3477-11.262 4.6992-4.1523 0.35547-8.3125-0.60156-11.895-2.7305-5.5977-3.5234-9.3125-9.375-10.125-15.938-1.0586-6.7969 1.0469-13.703 5.7188-18.75l40.031-43.312c1.2773-1.668 2.4336-3.4219 3.4688-5.25 4.375-8.0117 6.1133-17.195 4.9688-26.25s-5.1133-17.52-11.344-24.188c-4.6055-4.875-11.461-6.918-17.984-5.3672-6.5234 1.5508-11.723 6.4648-13.641 12.891-1.918 6.4258-0.26172 13.383 4.3438 18.258 1.5469 1.6719 1.9492 4.1055 1.0312 6.1875l-38.25 41.344c-12.121 13.188-17.75 31.086-15.359 48.84s12.555 33.523 27.734 43.035c9.0078 5.4961 19.352 8.4141 29.906 8.4375 5.9609-0.046875 11.875-1.0273 17.531-2.9062l-0.1875 201.09-243.75 0.65625v-38.156h131.25c6.6992 0 12.887-3.5742 16.238-9.375 3.3477-5.8008 3.3477-12.949 0-18.75-3.3516-5.8008-9.5391-9.375-16.238-9.375h-131.25v-147.75c0-6.6992-3.5742-12.887-9.375-16.238-5.8008-3.3477-12.949-3.3477-18.75 0-5.8008 3.3516-9.375 9.5391-9.375 16.238v223.41c0.17188 9.832 4.1992 19.203 11.211 26.094 7.0156 6.8906 16.457 10.75 26.289 10.75h243.75c9.832 0 19.273-3.8594 26.289-10.75 7.0117-6.8906 11.039-16.262 11.211-26.094v-225.66c-0.027344-1.4219-0.21484-2.8398-0.5625-4.2188l75-84.375c6.5742-8.1758 9.9375-18.469 9.4531-28.949s-4.7773-20.422-12.078-27.957l-68.812-70.875c-28.332-29.566-67.52-46.266-108.47-46.219h-193.03c-9.207-0.19531-17.914-4.2422-24-11.156l-11.438-12.375c-1.7812-2-2.0469-4.9297-0.65625-7.2188 0 0 47.438-54.188 48.188-55.5h3.0938c22.535 30.355 57.066 49.523 94.75 52.586 37.68 3.0664 74.855-10.266 102-36.586 27.145-26.316 41.621-63.059 39.723-100.82-1.8984-37.762-19.984-72.867-49.633-96.332-29.645-23.461-67.969-33-105.15-26.176-37.188 6.8281-69.621 29.359-89 61.824l-96.469 14.344c-4.4883 0.65625-8.5859 2.918-11.535 6.3672-2.9453 3.4492-4.543 7.8477-4.4961 12.383-11.348-4.207-23.797-4.3711-35.25-0.46875-22.125 8.4375-28.781 32.062-34.031 51-6.1875 22.031-9.375 30-17.719 31.125-22.969 3.2812-25.312-1.0312-33.656-17.156-9.4336-22.645-28.254-40.066-51.562-47.719-21.844-7.3125-47.906-2.4375-71.531 6v-22.969c0.046875-4.5352-1.5508-8.9336-4.4961-12.383-2.9492-3.4492-7.0469-5.7109-11.535-6.3672l-76.406-11.344c-18.848-33.164-51.195-56.488-88.613-63.895-37.422-7.4102-76.215 1.8281-106.28 25.305-30.066 23.48-48.426 58.879-50.309 96.977-1.8789 38.102 12.91 75.133 40.52 101.46 27.605 26.324 65.301 39.336 103.27 35.645 37.969-3.6914 72.449-23.715 94.473-54.863 1.1211 2.0195 2.375 3.9609 3.75 5.8125l0.9375 1.2188 44.719 50.531c1.3828 2.3398 1.0781 5.3047-0.75 7.3125l-11.156 12.188c-6.168 6.7383-14.863 10.613-24 10.688h-193.5c-40.965-0.019531-80.152 16.711-108.47 46.312l-68.812 70.875c-7.3672 7.6797-11.648 17.801-12.027 28.434-0.38281 10.637 3.168 21.035 9.9648 29.223zm852.56-516.09c24.863 0 48.711 9.8789 66.293 27.457 17.578 17.582 27.457 41.43 27.457 66.293s-9.8789 48.711-27.457 66.293c-17.582 17.578-41.43 27.457-66.293 27.457s-48.711-9.8789-66.293-27.457c-17.578-17.582-27.457-41.43-27.457-66.293s9.8789-48.711 27.457-66.293c17.582-17.578 41.43-27.457 66.293-27.457zm-187.5 75 59.156-8.8125c-4.6367 21.43-3.7656 43.684 2.5312 64.688l-61.688-9zm-424.78-46.875c-4.082 3.5391-6.4375 8.6641-6.4688 14.062v79.875l-33.094-8.0625c-6.5156-1.5898-13.383 0.41406-18.02 5.2617-4.6328 4.8438-6.332 11.797-4.4531 18.234 1.8828 6.4375 7.0508 11.383 13.566 12.973l43.125 10.5c0.57812 1.7031 1.3984 3.3125 2.4375 4.7812-18.645 15.582-42.613 23.32-66.848 21.578-24.238-1.7461-46.852-12.828-63.074-30.922-16.223-18.09-24.789-41.773-23.887-66.059 0.89844-24.281 11.191-47.266 28.707-64.109 17.516-16.84 40.891-26.223 65.188-26.168 24.301 0.054688 47.629 9.5391 65.07 26.461-0.78516 0.44531-1.5352 0.94531-2.25 1.5zm31.031 104.81v-69l75 11.156v46.875z"/>
 </g>
</svg>
