<?xml version="1.0" encoding="UTF-8"?>
<svg width="1200pt" height="1200pt" version="1.1" viewBox="0 0 1200 1200" xmlns="http://www.w3.org/2000/svg">
 <g fill-rule="evenodd">
  <path d="m811.74 196.74h208.71c7.7539 0 14.047-6.293 14.047-14.047s-6.293-14.047-14.047-14.047h-208.71c-7.7539 0-14.047 6.293-14.047 14.047s6.293 14.047 14.047 14.047z"/>
  <path d="m453.2 481.11h-253.18c-7.7539 0-14.047 6.2969-14.047 14.047 0 7.7539 6.293 14.047 14.047 14.047h253.18c7.75 0 14.047-6.293 14.047-14.047 0-7.75-6.2969-14.047-14.047-14.047z"/>
  <path d="m811.74 300.48h169.55c7.7539 0 14.047-6.293 14.047-14.047s-6.293-14.047-14.047-14.047h-169.55c-7.7539 0-14.047 6.293-14.047 14.047s6.293 14.047 14.047 14.047z"/>
  <path d="m405.71 606.96h-205.68c-7.7539 0-14.047 6.293-14.047 14.047 0 7.7539 6.293 14.047 14.047 14.047h205.68c7.75 0 14.047-6.293 14.047-14.047 0-7.7539-6.2969-14.047-14.047-14.047z"/>
  <path d="m786.66 908.75c0-4.957-2.6094-9.5469-6.875-12.078-4.2617-2.5312-9.543-2.625-13.891-0.25-14.488 7.9062-31.066 12.359-48.574 12.359h-236.13c-17.516 0-34.086-4.4531-48.574-12.359-4.3516-2.3711-9.6328-2.2773-13.898 0.25-4.2617 2.5312-6.875 7.1172-6.875 12.078v89.641c0 36.934 14.676 72.352 40.785 98.469 26.117 26.117 61.535 40.785 98.469 40.785h96.316c36.934 0 72.355-14.668 98.469-40.785 26.117-26.117 40.785-61.531 40.785-98.469v-89.641zm-28.09 21.402v68.238c0 29.484-11.711 57.758-32.559 78.605-20.848 20.844-49.125 32.559-78.605 32.559h-96.316c-29.48 0-57.758-11.711-78.602-32.559-20.848-20.848-32.562-49.125-32.562-78.605v-68.238c12.996 4.3633 26.883 6.7188 41.258 6.7188h236.13c14.379 0 28.258-2.3555 41.254-6.7148v-0.003906z"/>
  <path d="m441.98 1049.5c-4.6523 0.69531-8.6445 3.6719-10.645 7.9297-1.9961 4.2578-1.7305 9.2305 0.71094 13.254 5.7383 9.457 12.629 18.266 20.574 26.215 26.117 26.117 61.535 40.785 98.469 40.785h96.316c36.934 0 72.355-14.668 98.469-40.785 7.9492-7.9492 14.84-16.758 20.578-26.215 2.4414-4.0234 2.707-8.9961 0.71094-13.254-2-4.2578-5.9961-7.2305-10.648-7.9297-46.945-7.0039-100.47-10.98-157.27-10.98-56.789 0-110.32 3.9766-157.27 10.98zm27.68 24.605c39.754-4.8281 83.57-7.4961 129.59-7.4961 46.023 0 89.84 2.668 129.59 7.4961-0.92188 0.98828-1.8633 1.9688-2.8281 2.9297-20.848 20.844-49.125 32.559-78.605 32.559h-96.316c-29.48 0-57.758-11.711-78.602-32.559l-2.8281-2.9297z"/>
  <path d="m694.57 259.32c-0.003906 6.1719-0.51953 12.328-1.5508 18.414l-15.055 88.957c-2.5352 14.996 2.3477 30.293 13.102 41.043 10.75 10.754 26.047 15.637 41.043 13.102l79.82-13.512c8.2383-1.3906 16.605-1.8438 24.945-1.3477h0.027344c72.301 4.1445 144.59 2.5977 216.88-4.7227 0.03125-0.003906 0.0625-0.007812 0.09375-0.011719 47.559-5.1406 83.602-45.293 83.602-93.133 0.17578-44.656 0.17578-102.38 0.17578-147.11 0.003907-47.953-36.148-88.203-83.828-93.32-0.039062-0.003907-0.082031-0.007813-0.12109-0.011719-91.742-9.0469-183.47-9.0508-275.19 0.17578-0.03125 0.003906-0.0625 0.003906-0.09375 0.007812-47.59 5.1133-83.676 45.281-83.676 93.145-0.11328 29.551-0.15234 64.863-0.16016 98.324zm28.09 0.011719c0.007812-33.43 0.050781-68.707 0.16016-98.281v-0.054687c0-33.504 25.25-61.621 58.559-65.215 89.82-9.0352 179.64-9.0234 269.47-0.17188 33.395 3.6055 58.707 31.797 58.699 65.391 0 44.688 0 102.38-0.17188 147.05-0.003906 0.019531-0.003906 0.035156-0.003906 0.054687 0 33.484-25.219 61.586-58.5 65.203-70.785 7.1641-141.57 8.6797-212.38 4.6211-10.43-0.61719-20.926-0.046875-31.254 1.6992l-79.828 13.504c-6.0273 1.0195-12.172-0.9375-16.496-5.2617-4.3242-4.3203-6.2812-10.469-5.2617-16.496 5.3164-31.414 11.953-70.648 15.051-88.957 1.2891-7.6328 1.9414-15.352 1.9453-23.086z"/>
  <path d="m592.36 588.11c-0.011719-40.59-0.058594-83.422-0.19922-119.34 0-56.48-42.621-103.92-98.832-109.96-0.03125-0.003906-0.0625-0.007812-0.089844-0.007812-111.07-11.172-222.14-11.168-333.23-0.21094-0.039062 0.003906-0.082031 0.007812-0.12109 0.007812-56.32 6.0508-99.023 53.586-99.016 110.23 0 54.246 0 124.27 0.20703 178.5 0 56.445 42.574 103.87 98.746 109.95 0.03125 0.003906 0.0625 0.007813 0.09375 0.011719 87.531 8.8633 175.07 10.738 262.61 5.7227h0.027344c10.34-0.60938 20.719-0.050781 30.934 1.6719l96.832 16.387c17.23 2.918 34.812-2.6914 47.172-15.051s17.969-29.941 15.051-47.172l-18.262-107.91c-1.2773-7.5469-1.918-15.184-1.9219-22.832zm-28.09 0.007813c0.003906 9.2188 0.77734 18.418 2.3203 27.504 3.7578 22.215 11.812 69.809 18.258 107.91 1.4023 8.2656-1.2891 16.695-7.2188 22.625-5.9297 5.9297-14.359 8.6211-22.625 7.2227l-96.836-16.387c-12.305-2.082-24.812-2.7539-37.273-2.0195-86.023 4.9258-172.06 3.0859-258.09-5.6211-41.898-4.5547-73.641-39.93-73.641-82.07v-0.058594c-0.20703-54.191-0.20703-124.18-0.20703-178.39v-0.003907c-0.003906-42.273 31.852-77.754 73.879-82.293 109.19-10.766 218.36-10.773 327.53 0.20703 41.922 4.5195 73.703 39.91 73.703 82.082v0.054687c0.14062 35.883 0.18359 78.68 0.19922 119.23z"/>
  <path d="m231.48 363.72c-0.82422 4.2344 0.34766 8.6172 3.168 11.875 2.8281 3.2617 6.9922 5.0469 11.301 4.8359 81.492-3.9453 162.95-1.875 244.42 6.3203 41.918 4.5273 73.699 39.914 73.699 82.082v0.054688c0.14063 35.883 0.18359 78.68 0.19922 119.23 0.003907 9.2188 0.77734 18.418 2.3203 27.504 3.7578 22.215 11.812 69.809 18.258 107.91 1.4023 8.2656-1.2891 16.695-7.2188 22.625-5.9297 5.9297-14.359 8.6211-22.625 7.2227l-96.836-16.387c-12.305-2.082-24.812-2.7539-37.273-2.0195-21.07 1.2031-42.168 2.0078-63.273 2.3984-3.9766 0.070313-7.7344 1.8281-10.34 4.8359-2.6094 3.0039-3.8203 6.9727-3.3359 10.922l8.5898 69.914c7.9805 64.988 63.176 113.82 128.66 113.82h236.13c65.473 0 120.67-48.828 128.66-113.82 3.2188-26.188 6.5352-53.211 9.8164-75.203 0.019531-0.12109 0.03125-0.23828 0.050781-0.35938 3.2773-26.66 14.18-51.812 31.402-72.426 0.003906-0.003906 0.011718-0.007812 0.019531-0.019531 54.094-64.953 86.648-148.47 86.648-239.53 0-14.738-0.85547-29.277-2.5156-43.594-0.83984-7.2461-7.0938-12.645-14.387-12.418-39.496 1.2227-78.996 0.69141-118.5-1.5742-10.43-0.61719-20.926-0.046876-31.254 1.6992l-79.828 13.504c-6.0273 1.0195-12.172-0.9375-16.496-5.2617-4.3242-4.3203-6.2812-10.469-5.2617-16.496 5.3164-31.414 11.953-70.648 15.051-88.957 1.2891-7.6328 1.9414-15.352 1.9453-23.086 0.007813-33.43 0.050782-68.707 0.16016-98.281v-0.054687c0-19.352 8.4219-36.902 21.949-48.973 3.6172-3.2266 5.3125-8.0859 4.4961-12.859-0.82422-4.7773-4.0469-8.7891-8.5312-10.625-43.672-17.844-91.438-27.676-141.48-27.676-182.21 0-334.21 130.36-367.77 302.86zm31.453-12.129c37.57-150.79 173.99-262.63 336.32-262.63 39.262 0 77.012 6.5391 112.22 18.598-10.59 15.219-16.742 33.672-16.742 53.441-0.11328 29.551-0.15234 64.863-0.16016 98.324-0.003906 6.1719-0.51953 12.328-1.5508 18.414l-15.055 88.957c-2.5352 14.996 2.3477 30.293 13.102 41.043 10.75 10.754 26.047 15.637 41.043 13.102l79.82-13.512c8.2383-1.3906 16.605-1.8438 24.945-1.3477h0.027344c35.949 2.0586 71.891 2.7148 107.84 1.9492 0.71875 9.1055 1.082 18.305 1.082 27.59 0 84.227-30.109 161.47-80.145 221.55-20.668 24.734-33.766 54.93-37.707 86.945-3.2852 22.035-6.6328 49.242-9.875 75.613-6.25 50.902-49.488 89.152-100.77 89.152h-236.13c-51.289 0-94.52-38.246-100.78-89.152l-6.6953-54.527c16.273-0.45312 32.539-1.1523 48.809-2.082h0.027344c10.34-0.60938 20.719-0.050781 30.934 1.6719l96.832 16.387c17.23 2.918 34.812-2.6914 47.172-15.051s17.969-29.941 15.051-47.172l-18.262-107.91c-1.2773-7.5469-1.918-15.184-1.9219-22.832-0.011719-40.59-0.058593-83.422-0.19922-119.34 0-56.48-42.621-103.92-98.832-109.96-0.03125-0.003906-0.0625-0.007812-0.089843-0.007812-76.758-7.7227-153.52-10.102-230.3-7.2227z"/>
 </g>
</svg>
