<?xml version="1.0" encoding="UTF-8"?>
<svg width="100pt" height="100pt" version="1.1" viewBox="0 0 100 100" xmlns="http://www.w3.org/2000/svg">
 <path d="m78.801 76.168-0.14844 0.17188c-0.24609 0.26562-0.50391 0.53516-0.76562 0.80078-0.12891 0.12891-0.24609 0.26172-0.37891 0.39453-0.39844 0.39844-0.8125 0.79688-1.2461 1.207-0.027344 0.027343-0.050781 0.050781-0.074219 0.074218-7.1641 6.5312-16.461 10.129-26.188 10.129-21.445 0-38.891-17.473-38.891-38.945 0-9.6953 3.5859-18.992 10.098-26.172 0.37891-0.42188 0.78125-0.84375 1.2148-1.2891 0.43359-0.4375 0.89453-0.88672 1.3945-1.3594 7.1641-6.5312 16.461-10.129 26.184-10.129 21.445 0 38.891 17.473 38.891 38.945 0 9.6953-3.5859 18.988-10.09 26.168zm-2.0391-3.4453-49.484-49.484c6.3359-5.418 14.371-8.3945 22.727-8.3945 19.352 0 35.098 15.77 35.098 35.152 0 8.3359-2.9531 16.363-8.3398 22.723zm-26.758-59.773c-9.1602 0-17.949 3.3867-24.75 9.543l-0.73828 0.66797 52.332 52.332 0.66797-0.74609c6.1172-6.8203 9.4805-15.609 9.4805-24.746 0-20.43-16.594-37.051-36.992-37.051zm22.727 63.812c-6.3359 5.418-14.367 8.3906-22.727 8.3906-19.352 0-35.098-15.77-35.098-35.152 0-8.3359 2.957-16.363 8.3398-22.723l49.48 49.484zm-50.234-51.508c-6.1133 6.8203-9.4805 15.609-9.4805 24.746 0 20.43 16.598 37.051 36.992 37.051 9.1602 0 17.949-3.3867 24.75-9.543l0.73828-0.66797-52.328-52.332zm27.512-16.098c-10.195 0-19.945 3.7734-27.473 10.633-0.52344 0.49219-1.0117 0.96484-1.4648 1.4258-0.45312 0.46484-0.875 0.90625-1.2695 1.3477-6.8242 7.5312-10.582 17.273-10.582 27.441 0 22.523 18.297 40.844 40.789 40.844 10.195 0 19.949-3.7734 27.473-10.637 1-0.93359 1.8906-1.832 2.7266-2.7422l0.24609-0.28906v-0.003907c6.668-7.4922 10.34-17.125 10.34-27.172 0-22.523-18.297-40.844-40.789-40.844z"/>
</svg>
