<?xml version="1.0" encoding="UTF-8"?>
<svg width="100pt" height="100pt" version="1.1" viewBox="0 0 100 100" xmlns="http://www.w3.org/2000/svg">
 <path d="m50 4.2344c-25.234 0-45.766 20.531-45.766 45.766s20.531 45.766 45.766 45.766 45.766-20.531 45.766-45.766-20.531-45.766-45.766-45.766zm37.102 45.766c0 8.668-3 16.668-8 23l-52.102-52.133c6.332-5 14.301-8 23-8 20.465 0.03125 37.102 16.668 37.102 37.133zm-74.203 0c0-8.668 3-16.668 8-23l52.102 52.133c-6.332 5-14.301 8-23 8-20.465-0.03125-37.102-16.668-37.102-37.133z"/>
</svg>
