<?xml version="1.0" encoding="UTF-8"?>
<svg width="100pt" height="100pt" version="1.1" viewBox="0 0 100 100" xmlns="http://www.w3.org/2000/svg">
 <path d="m36.855 41.363 2.8828 3.9102c0.16797 0.22656 0.24609 0.49609 0.24219 0.75781l8.9492-8.2812c0.25-0.23047 0.57422-0.33984 0.89062-0.32812 0.31641 0.011719 0.63281 0.14453 0.86328 0.39453l3.3008 3.5625c0.23047 0.25 0.33984 0.57422 0.32812 0.89062 0 0.011719 0 0.027344-0.003906 0.039063l6.2969-8.1367c0.21094-0.26953 0.50781-0.42969 0.82422-0.47266 0.31641-0.039063 0.64453 0.039062 0.91797 0.25l3.8398 2.9727c0.26953 0.21094 0.42969 0.51172 0.47266 0.82422 0.015625 0.11719 0.011719 0.23828-0.007812 0.35938l3.4023-7.0625c0.14844-0.30859 0.41016-0.52734 0.70703-0.63281 0.30078-0.10547 0.64062-0.097656 0.94922 0.050782l4.375 2.1094c0.30859 0.14844 0.52734 0.41016 0.63281 0.70703 0.10547 0.30078 0.097656 0.64062-0.050781 0.94922l-16.828 34.938c-0.14844 0.30859-0.41016 0.52734-0.70703 0.63281-0.30078 0.10547-0.64062 0.097656-0.94922-0.050781l-4.375-2.1094c-0.30859-0.14844-0.52734-0.41016-0.63281-0.70703-0.10547-0.30078-0.097656-0.64063 0.050781-0.94922l13.113-27.23-23.668 30.574c-0.21094 0.26953-0.50781 0.42969-0.82422 0.47266-0.31641 0.039063-0.64453-0.039063-0.91797-0.25l-3.8398-2.9727c-0.26953-0.21094-0.42969-0.50781-0.46875-0.82422-0.039063-0.31641 0.039062-0.64453 0.25-0.91797l16.188-20.91-27.602 25.547c-0.25 0.23047-0.57422 0.33984-0.89062 0.32812s-0.62891-0.14453-0.86328-0.39453l-3.3008-3.5625c-0.23047-0.25-0.33984-0.57422-0.32812-0.89062 0.011719-0.31641 0.14453-0.63281 0.39453-0.86328l16.301-15.09-28.516 21.012c-0.27344 0.20313-0.60938 0.27344-0.92188 0.22656s-0.60938-0.21484-0.8125-0.48828l-2.8828-3.9102c-0.20312-0.27344-0.27344-0.60938-0.22656-0.92188s0.21484-0.60937 0.48828-0.8125l31.219-23.004c0.27344-0.20312 0.60937-0.27344 0.92187-0.22656s0.60938 0.21484 0.8125 0.49219zm51.105-12.457h4.8555c0.34375 0 0.65234 0.14062 0.87891 0.36328 0.22656 0.22656 0.36328 0.53516 0.36328 0.87891v38.781c0 0.34375-0.14062 0.65234-0.36328 0.87891-0.22656 0.22656-0.53516 0.36328-0.87891 0.36328h-4.8555c-0.34375 0-0.65234-0.14062-0.87891-0.36328-0.22656-0.22656-0.36328-0.53516-0.36328-0.87891v-38.781c0-0.34375 0.14062-0.65234 0.36328-0.87891 0.22656-0.22656 0.53516-0.36328 0.87891-0.36328zm4.9688 20.973-1.0391-0.003906c-0.41797 0-0.47266-0.67578 0-0.67578l1.0391 0.003906v-19.059c0-0.03125-0.011719-0.058593-0.035157-0.078125-0.019531-0.019531-0.046875-0.035156-0.078125-0.035156h-4.8555c-0.03125 0-0.058594 0.011719-0.078126 0.035156-0.019531 0.019532-0.035156 0.050782-0.035156 0.078125v19.055l2.4805 0.003906c0.14844 0 0.26953 0.15234 0.26953 0.33594 0 0.1875-0.12109 0.33594-0.26953 0.33594l-2.4805-0.003906v19.051c0 0.03125 0.011719 0.058594 0.035156 0.078125 0.019532 0.019531 0.050782 0.035156 0.078126 0.035156h4.8555c0.03125 0 0.058594-0.011718 0.078125-0.035156 0.019531-0.019531 0.035157-0.050781 0.035157-0.078125v-19.047zm-13.762-21.281 4.7539 0.99219c0.33594 0.070312 0.60938 0.26953 0.78516 0.53516s0.24609 0.59766 0.17578 0.93359l-7.9375 37.957c-0.070312 0.33594-0.26953 0.60938-0.53516 0.78516s-0.59766 0.24609-0.93359 0.17578l-4.7539-0.99219c-0.33594-0.070313-0.60938-0.26953-0.78516-0.53516s-0.24609-0.59766-0.17578-0.93359l7.9375-37.957c0.070312-0.33594 0.26953-0.60938 0.53516-0.78516 0.26562-0.17578 0.59766-0.24609 0.93359-0.17578zm0.57031 21.547-1.0195-0.21875c-0.41016-0.085937-0.32422-0.75781 0.13672-0.66016l1.0195 0.21875 3.9023-18.652c0.007812-0.03125 0-0.058593-0.015625-0.085937-0.015625-0.023438-0.039063-0.042969-0.070313-0.050782l-4.7539-0.99219c-0.03125-0.007813-0.058594 0-0.085938 0.015625-0.023437 0.015625-0.042968 0.039062-0.050781 0.070312l-3.8984 18.648 2.4258 0.51172c0.14453 0.03125 0.23438 0.20312 0.19531 0.38672-0.039063 0.18359-0.1875 0.30469-0.33203 0.27344l-2.4258-0.51172-3.8984 18.648c-0.007813 0.03125 0 0.058594 0.015624 0.085937 0.015626 0.023438 0.039063 0.042969 0.070313 0.050781l4.7539 0.99219c0.03125 0.007812 0.058594 0 0.085938-0.015625 0.023437-0.015625 0.042969-0.039063 0.050781-0.070313l3.8984-18.645zm-12.656 1.375-0.9375-0.45703c-0.37891-0.18359-0.13281-0.8125 0.29297-0.60938l0.9375 0.45703 8.2695-17.168c0.011719-0.027344 0.015625-0.058594 0.003907-0.085938-0.007813-0.027344-0.03125-0.050781-0.058594-0.066406l-4.375-2.1094c-0.027344-0.011719-0.058594-0.015625-0.085938-0.003907-0.027344 0.007813-0.050781 0.03125-0.066406 0.058594l-8.2695 17.164 2.2305 1.082c0.13281 0.066406 0.17969 0.25391 0.097656 0.42188-0.082032 0.16797-0.25391 0.25-0.39062 0.1875l-2.2305-1.082-8.2656 17.164c-0.011719 0.027344-0.015625 0.058594-0.003906 0.085938 0.007812 0.027344 0.03125 0.050781 0.058593 0.066406l4.375 2.1094c0.027344 0.011719 0.058594 0.015625 0.085938 0.003906 0.027344-0.007812 0.050781-0.03125 0.066406-0.058593zm-13.648 2.0586-0.82031-0.64062c-0.33203-0.25781 0.039063-0.82422 0.41406-0.53516l0.82031 0.64062 11.664-15.07c0.019531-0.023437 0.027343-0.054687 0.023437-0.082031s-0.019531-0.054687-0.042968-0.074219l-3.8398-2.9727c-0.023438-0.019531-0.054688-0.027344-0.082032-0.023438-0.027343 0.003907-0.054687 0.019532-0.074218 0.042969l-11.664 15.066 1.957 1.5234c0.11719 0.089844 0.12109 0.28516 0.007813 0.43359-0.11328 0.14844-0.30078 0.19141-0.42188 0.10156l-1.957-1.5234-11.664 15.066c-0.019531 0.023438-0.027344 0.054688-0.023437 0.082031 0.003906 0.027344 0.019531 0.054688 0.042969 0.074219l3.8398 2.9727c0.023438 0.019532 0.054688 0.027344 0.082031 0.023438 0.027344-0.003906 0.054688-0.019532 0.074219-0.042969l11.66-15.062zm-14.773 2.1289-0.70312-0.76562c-0.28516-0.30859 0.17188-0.80469 0.49609-0.45703l0.70312 0.76562 13.984-12.945c0.023437-0.019532 0.035156-0.050782 0.035156-0.078126 0-0.027343-0.007812-0.058593-0.027343-0.082031l-3.3008-3.5625c-0.019531-0.023437-0.050781-0.035156-0.078125-0.035156-0.027343 0-0.058593 0.007813-0.082031 0.027344l-13.984 12.941 1.6797 1.8242c0.10156 0.10938 0.074219 0.30078-0.0625 0.42578-0.13672 0.125-0.32812 0.14062-0.42969 0.03125l-1.6797-1.8242-13.98 12.941c-0.023438 0.019532-0.035157 0.050782-0.035157 0.078126 0 0.027343 0.007813 0.058593 0.027344 0.082031l3.3008 3.5625c0.019531 0.023437 0.050781 0.035156 0.078124 0.035156 0.027344 0 0.058594-0.007813 0.082032-0.027344l13.98-12.938zm-15.746 2.0938-0.61328-0.83984c-0.25-0.33594 0.26172-0.78125 0.54297-0.39844l0.61328 0.83984 15.344-11.305c0.023438-0.019531 0.039063-0.046875 0.042969-0.074218 0.003906-0.027344 0-0.058594-0.019531-0.082032l-2.8828-3.9102c-0.019531-0.023438-0.046875-0.039062-0.074218-0.042969-0.027344-0.003906-0.058594 0-0.082032 0.019531l-15.34 11.301 1.4688 2c0.089844 0.12109 0.039063 0.30859-0.10937 0.41797-0.14844 0.10938-0.34375 0.10156-0.43359-0.015624l-1.4688-2-15.34 11.301c-0.023438 0.019531-0.039062 0.046875-0.042969 0.074219-0.003906 0.027343 0 0.058593 0.019531 0.082031l2.8828 3.9102c0.019531 0.023437 0.046875 0.039063 0.074219 0.042969s0.058594 0 0.082031-0.019532l15.336-11.297z"/>
</svg>
