<?xml version="1.0" encoding="UTF-8"?>
<svg width="100pt" height="100pt" version="1.1" viewBox="0 0 100 100" xmlns="http://www.w3.org/2000/svg">
 <g>
  <path d="m79.008 11.559l-6.1094-10.949-7.9297 14.887-5.7422 1.6094v30.188l26.32 20.781v-58.348zm-6.0664-6.3906l3.9023 6.9961-8.9648 2.5156zm7.7148 11.008v12.527l-6.8242 10.895-4.5547-16.137-5.1562 10.535-0.003906-13.18zm-16.539 28.75v-5.9531l4.6055-9.418 4.3438 15.379 7.5898-12.113v25.164z"/>
  <path d="m44.18 33.332c3.5742-0.71484 5.8984-4.2344 5.1758-7.8477-0.72656-3.6211-4.2227-5.9648-7.8008-5.2461-3.582 0.71875-5.8984 4.2227-5.1719 7.8438 0.72266 3.6133 4.2148 5.9688 7.7969 5.25"/>
  <path d="m15.035 46.281l14.441-14.344c0.92969-0.99219 2.0586-1.4922 3.3867-1.4922 1.3945 0 3.7148 1.0195 4.3984 3.1484l3.1797 11.375 1.8164-5.9219c0.57422-1.7148 2.4219-2.6406 4.1445-2.0664 1.7148 0.57422 2.6406 2.4297 2.0664 4.1445l-4.7773 14.297c-0.44531 1.3359-1.6992 2.2344-3.1055 2.2344h-0.011719c-1.4141-0.007812-2.6641-0.91797-3.1016-2.2617l-2.9219-8.9805-9.5586 9.6328v33.766c0 1.5273-0.53125 2.8047-1.5938 3.8398-1.0625 1.0273-2.3555 1.5391-3.8828 1.5391-1.4609 0-2.7227-0.51562-3.7852-1.5391-1.0625-1.0312-1.5938-2.3125-1.5938-3.8398l0.003906-41.336c0-0.86719 0.29688-1.5938 0.89453-2.1953z"/>
  <path d="m76.043 96.297h-5.3789v-32.25c0-0.79688-0.57031-1.4766-1.3555-1.6133-0.78125-0.12891-1.5508 0.3125-1.8203 1.0586-1.0586 2.9258-3.6055 7.9531-5.9609 8.9766-0.48047 0.21094-0.88281 0.21875-1.3125 0.035156-2.9258-1.2539-5.4414-10.219-6.3008-16.188-0.12109-0.85156-0.88672-1.4648-1.7344-1.3984-0.85547 0.0625-1.5195 0.77344-1.5195 1.6328v28.973h-5.082c-0.90625 0-1.6367 0.73437-1.6367 1.6367s0.73047 1.6367 1.6367 1.6367h13.441c0.90234 0 1.6367-0.73047 1.6367-1.6367 0-0.90234-0.73047-1.6367-1.6367-1.6367h-5.0859v-16.293c1.2383 2.8906 2.875 5.3711 4.9922 6.2812 1.2578 0.53906 2.6094 0.52344 3.9102-0.042969 1.7734-0.77344 3.3203-2.5352 4.5547-4.4297v25.254h-5.3789c-0.90234 0-1.6367 0.73438-1.6367 1.6367 0 0.90234 0.73047 1.6367 1.6367 1.6367h14.031c0.90234 0 1.6367-0.73047 1.6367-1.6367 0-0.90234-0.73438-1.6328-1.6367-1.6328z"/>
 </g>
</svg>
