<?xml version="1.0" encoding="UTF-8"?>
<svg width="100pt" height="100pt" version="1.1" viewBox="0 0 100 100" xmlns="http://www.w3.org/2000/svg">
 <g>
  <path d="m93.75 23.438h-1.5625c-0.011719-2.3516-1.7656-4.332-4.0977-4.625l3.6406-3.6406 2.0195-2.0234c1.0039-1 1.5664-2.3594 1.5625-3.7734s-0.56641-2.7695-1.5625-3.7734l-2.4766-2.4766c-1-1.0039-2.3594-1.5664-3.7734-1.5625s-2.7695 0.56641-3.7734 1.5625l-2.0195 2.0156-13.605 13.609h-10.559c-1.2461-0.003906-2.4375 0.49219-3.3164 1.3711-2.3633 2.2617-6.0898 2.2617-8.457 0-0.87891-0.87891-2.0703-1.375-3.3164-1.3711h-29.953c-2.5898 0-4.6875 2.0977-4.6875 4.6875h-1.5625c-2.5898 0-4.6875 2.0977-4.6875 4.6875v62.5c0.003906 4.3125 3.5 7.8086 7.8125 7.8125h81.25c4.3125-0.003906 7.8086-3.5 7.8125-7.8125v-62.5c0-2.5898-2.0977-4.6875-4.6875-4.6875zm-6.25-1.5625c0.41406 0 0.8125 0.16406 1.1055 0.45703s0.45703 0.69141 0.45703 1.1055v62.5c0 0.41406-0.16406 0.8125-0.45703 1.1055s-0.69141 0.45703-1.1055 0.45703h-35.938v-39.609l9.3164-4.1406h23.496c0.41406 0 0.8125-0.16406 1.1055-0.45703s0.45703-0.69141 0.45703-1.1055v-12.5c0-0.41406-0.16406-0.8125-0.45703-1.1055s-0.69141-0.45703-1.1055-0.45703h-5.6016l6.25-6.25zm-4.6875-13.414 1.6953 1.6953-24.352 24.348-1.6953-1.6914zm-18.75 29.953-1.6953-1.6953 24.352-24.352 1.6953 1.6953zm11.586-7.1641h7.1641v9.375h-16.539zm-14.301 8.8711-2.3438 1.043-3.2812-3.2891 1.043-2.3438zm-7 0.8125 1.5898 1.5898-2.8594 1.2695zm31.59-35.598c0.875-0.83203 2.25-0.83203 3.125 0l2.4766 2.4766c0.41406 0.41406 0.64844 0.97656 0.64844 1.5625s-0.23438 1.1484-0.64844 1.5625l-0.91406 0.91406-5.6016-5.6016zm-29.5 16.996c0.29297-0.29297 0.69141-0.45703 1.1055-0.45703h7.4336l-9.832 9.832c-0.13281 0.13672-0.23828 0.29297-0.3125 0.46875h-0.007812l-0.019531 0.042969-3.2422 7.2969v-14.656c1.8477-0.31641 3.5508-1.2031 4.875-2.5273zm-45.5 1.1055c0-0.86328 0.69922-1.5625 1.5625-1.5625h29.953c0.41406 0 0.8125 0.16406 1.1055 0.45703 1.3242 1.3281 3.0312 2.2109 4.8789 2.5273v62.641h-35.938c-0.86328 0-1.5625-0.69922-1.5625-1.5625zm84.375 67.188c0 2.5898-2.0977 4.6875-4.6875 4.6875h-81.25c-2.5898 0-4.6875-2.0977-4.6875-4.6875v-62.5c0-0.86328 0.69922-1.5625 1.5625-1.5625h1.5625v59.375c0 2.5898 2.0977 4.6875 4.6875 4.6875h75c2.5898 0 4.6875-2.0977 4.6875-4.6875v-59.375h1.5625c0.41406 0 0.8125 0.16406 1.1055 0.45703s0.45703 0.69141 0.45703 1.1055z"/>
  <path d="m15.625 43.75h28.125c0.41406 0 0.8125-0.16406 1.1055-0.45703s0.45703-0.69141 0.45703-1.1055v-12.5c0-0.41406-0.16406-0.8125-0.45703-1.1055s-0.69141-0.45703-1.1055-0.45703h-28.125c-0.86328 0-1.5625 0.69922-1.5625 1.5625v12.5c0 0.41406 0.16406 0.8125 0.45703 1.1055s0.69141 0.45703 1.1055 0.45703zm1.5625-12.5h25v9.375h-25z"/>
  <path d="m15.625 56.25h28.125c0.41406 0 0.8125-0.16406 1.1055-0.45703s0.45703-0.69141 0.45703-1.1055v-6.25c0-0.41406-0.16406-0.8125-0.45703-1.1055s-0.69141-0.45703-1.1055-0.45703h-28.125c-0.86328 0-1.5625 0.69922-1.5625 1.5625v6.25c0 0.41406 0.16406 0.8125 0.45703 1.1055s0.69141 0.45703 1.1055 0.45703zm1.5625-6.25h25v3.125h-25z"/>
  <path d="m84.375 46.875h-28.125c-0.86328 0-1.5625 0.69922-1.5625 1.5625v6.25c0 0.41406 0.16406 0.8125 0.45703 1.1055s0.69141 0.45703 1.1055 0.45703h28.125c0.41406 0 0.8125-0.16406 1.1055-0.45703s0.45703-0.69141 0.45703-1.1055v-6.25c0-0.41406-0.16406-0.8125-0.45703-1.1055s-0.69141-0.45703-1.1055-0.45703zm-1.5625 6.25h-25v-3.125h25z"/>
  <path d="m17.188 59.375h25v3.125h-25z"/>
  <path d="m17.188 65.625h25v3.125h-25z"/>
  <path d="m17.188 71.875h25v3.125h-25z"/>
  <path d="m57.812 59.375h25v3.125h-25z"/>
  <path d="m57.812 65.625h25v3.125h-25z"/>
  <path d="m57.812 71.875h25v3.125h-25z"/>
 </g>
</svg>
