<?xml version="1.0" encoding="UTF-8"?>
<svg width="100pt" height="100pt" version="1.1" viewBox="0 0 100 100" xmlns="http://www.w3.org/2000/svg">
 <path d="m48.801 78.5c0.80078 0 1.5 0.69922 1.5 1.5s-0.69922 1.5-1.5 1.5h-20c-0.80078 0-1.5-0.69922-1.5-1.5s0.69922-1.5 1.5-1.5zm-24-22c-0.80078 0-1.5 0.69922-1.5 1.5s0.69922 1.5 1.5 1.5 1.5-0.69922 1.5-1.5-0.69922-1.5-1.5-1.5zm0 14.699c-0.80078 0-1.5 0.69922-1.5 1.5s0.69922 1.5 1.5 1.5 1.5-0.69922 1.5-1.5-0.69922-1.5-1.5-1.5zm0 7.3008c-0.80078 0-1.5 0.69922-1.5 1.5s0.69922 1.5 1.5 1.5 1.5-0.69922 1.5-1.5-0.69922-1.5-1.5-1.5zm0-14.699c-0.80078 0-1.5 0.69922-1.5 1.5s0.69922 1.5 1.5 1.5 1.5-0.69922 1.5-1.5-0.69922-1.5-1.5-1.5zm32.5 17.699c0.80078 0 1.5-0.69922 1.5-1.5s-0.69922-1.5-1.5-1.5-1.5 0.69922-1.5 1.5 0.59766 1.5 1.5 1.5zm-5.5-1.5c0 0.80078 0.69922 1.5 1.5 1.5s1.5-0.69922 1.5-1.5-0.69922-1.5-1.5-1.5-1.5 0.69922-1.5 1.5zm10.801 0.69922c-0.80078-0.5-1.6016-1.1992-2.3008-1.8008-0.30078 0.30078-0.60156 0.69922-0.60156 1.1992 0 0.80078 0.69922 1.5 1.5 1.5 0.69922-0.097656 1.1992-0.39844 1.4023-0.89844zm-33.801-9.5c-0.80078 0-1.5 0.69922-1.5 1.5s0.69922 1.5 1.5 1.5h27.898c-0.5-1-1-2-1.3008-3zm0-7.3984c-0.80078 0-1.5 0.69922-1.5 1.5s0.69922 1.5 1.5 1.5h25.602c-0.10156-0.60156-0.10156-1.3008-0.10156-1.8984 0-0.39844 0-0.69922 0.10156-1.1016zm-1.5-5.8008c0 0.80078 0.69922 1.5 1.5 1.5h26.199c0.30078-1 0.69922-2 1.1992-3h-27.398c-0.90234 0-1.5 0.69922-1.5 1.5zm44.199 25.801c-0.80078 2.6992-3.3008 4.6992-6.1992 4.6992h-44c-3.6016 0-6.5-2.8984-6.5-6.5v-64c0-3.6016 2.8984-6.5 6.5-6.5h44c3.6016 0 6.5 2.8984 6.5 6.5v28c0.5 0 1-0.10156 1.5-0.10156s1 0 1.5 0.10156v-28c0-5.1992-4.3008-9.5-9.5-9.5h-44c-5.1992 0-9.5 4.3008-9.5 9.5v64c0 5.1992 4.3008 9.5 9.5 9.5h44c4.6016 0 8.5-3.3008 9.3008-7.6016-0.39844 0-0.89844 0.10156-1.3008 0.10156-0.60156-0.10156-1.1992-0.10156-1.8008-0.19922zm18.301-18.902c0 9.1016-7.3984 16.5-16.5 16.5-9.1016 0-16.5-7.3984-16.5-16.5 0-9.1016 7.3984-16.5 16.5-16.5 9.0977 0 16.5 7.4023 16.5 16.5zm-3 0c0-7.3984-6.1016-13.5-13.5-13.5-7.3984 0-13.5 6.1016-13.5 13.5 0 7.3984 6.1016 13.5 13.5 13.5 7.3984 0 13.5-6 13.5-13.5zm-2.5-4.5977c-0.69922-0.5-1.6016-0.39844-2.1016 0.30078l-1.1016 1.5c-0.60156-1.6992-1.6016-3.1992-3.1016-4.3008-1.8984-1.5-4.3008-2.1016-6.6992-1.6992-2.3984 0.30078-4.5 1.6016-5.8984 3.5-1.5 1.8984-2.1016 4.3008-1.6992 6.6992 0.30078 2.3984 1.6016 4.5 3.5 5.8984 1.6016 1.1992 3.5 1.8008 5.3984 1.8008 1.5 0 3-0.39844 4.3008-1.1016 0.69922-0.39844 1-1.3008 0.60156-2-0.39844-0.69922-1.3008-1-2-0.60156-2.1016 1.1016-4.6016 1-6.5-0.5-1.3008-1-2.1016-2.3984-2.3008-4s0.19922-3.1992 1.1992-4.3984c1-1.1992 2.3984-2.1016 4-2.3008 1.6016-0.19922 3.1992 0.19922 4.3984 1.1992 0.89844 0.69922 1.5 1.6016 1.8984 2.6016l-1.6992-1.3008c-0.69922-0.5-1.6016-0.39844-2.1016 0.30078-0.5 0.69922-0.39844 1.6016 0.30078 2.1016l5.6992 4.3008 4.3008-5.6992c0.40625-0.90234 0.30469-1.8008-0.39453-2.3008zm-60.902-13.102v-1.8008h0.60156l0.69922-2h-3.3008v10.602h1c-0.10156 0-0.19922 0-0.30078-0.10156-0.5-0.19922-0.80078-0.80078-0.60156-1.3008zm4.9023-3.8008h-1.5l-0.69922 2h0.19922v6.6016h-2.6016l-0.5 1.3008c-0.10156 0.39844-0.5 0.69922-0.89844 0.69922h5.8984v-10.602zm7.8984-12h1.3008v-6.1016h-6.8984v12.102h1.3984l0.5-0.69922v-9.3984h3v5.1016zm-5.5977 8v14.602h6.8984v-20.602h-0.30078l-1.6992 2.5v16.102h-3v-12.602zm12.5-9l1.3984-2h-4.6992v3h2v-1zm-3.3008 3v20.602h6.8984v-24.699h-0.39844l-1.5 2.1992v20.5h-3v-18.602zm15.699-13.699l0.39844 0.39844v-6.0977h-6.8984v13.301h2v-11.301h3v6.6016zm-6.5 9.6016v24.699h6.8984v-30.898l-2 3.6016v25.297h-3v-22.699zm15.398-5.4023c0.19922-0.19922 0.30078-0.5 0.10156-0.69922s-0.5-0.30078-0.69922-0.10156l-3.3008 2.1992-4.8984-4.6992-4 7.3008h-6.1016l-2.8984 4.1016h-6.1016l-4.1992 6h-5.1016l-5.3008 15c-0.10156 0.30078 0 0.5 0.30078 0.60156h0.19922c0.19922 0 0.39844-0.10156 0.5-0.30078l5.1016-14.301h4.8984l4.1992-6h6.1016l2.8984-4.1016h6.1992l3.6992-6.6016 4.6016 4.3984zm0.70312 23.902v-22.902h-1.3008l-3 2h2.3008v22c0.69922-0.39844 1.2969-0.79688 2-1.0977zm-4.9023 3.3984v-24.301l-2-1.8984v28.398c0.60156-0.79688 1.3008-1.5 2-2.1992z"/>
</svg>
