<?xml version="1.0" encoding="UTF-8"?>
<svg width="100pt" height="100pt" version="1.1" viewBox="0 0 100 100" xmlns="http://www.w3.org/2000/svg">
 <g stroke="#000">
  <path transform="translate(-236.2 -610.94)" d="m337.92 703.25h-97.809v-83.242" fill="none" stroke-width="1.5"/>
  <path transform="matrix(-.45 5.5e-17 -5.5e-17 -.45 102.75 92.306)" d="m8.7147 4.0306-10.92-4.0104 10.92-4.0191c-1.7448 2.3698-1.7274 5.6163 0 8.0295z" fill-rule="evenodd" stroke-linejoin="round" stroke-width=".625"/>
  <path transform="matrix(1.8e-17 .3 -.3 1.8e-17 3.9119 10.863)" d="m0.0016125 0.0057833 5-5-17.5 5 17.5 5z" fill-rule="evenodd"/>
  <path transform="translate(-236.2 -610.94)" d="m271.64 665.35c0 1.4609-2.1953 1.4609-2.1953 0 0-1.4648 2.1953-1.4648 2.1953 0" stroke-linejoin="round" stroke-width=".997"/>
  <path transform="translate(-236.2 -610.94)" d="m279.38 670.71c0 1.4609-2.1953 1.4609-2.1953 0 0-1.4648 2.1953-1.4648 2.1953 0" stroke-linejoin="round" stroke-width=".997"/>
  <path transform="translate(-236.2 -610.94)" d="m261.61 674.44c0 1.4609-2.1953 1.4609-2.1953 0 0-1.4609 2.1953-1.4609 2.1953 0" stroke-linejoin="round" stroke-width=".997"/>
  <path transform="translate(-236.2 -610.94)" d="m291.44 665.23c0 1.4609-2.1914 1.4609-2.1914 0 0-1.4609 2.1914-1.4609 2.1914 0" stroke-linejoin="round" stroke-width=".997"/>
  <path transform="translate(-236.2 -610.94)" d="m279.82 656.45c0 1.4609-2.1914 1.4609-2.1914 0 0-1.4609 2.1914-1.4609 2.1914 0" stroke-linejoin="round" stroke-width=".997"/>
  <path transform="translate(-236.2 -610.94)" d="m286.4 677.29c0 1.4609-2.1953 1.4609-2.1953 0 0-1.4609 2.1953-1.4609 2.1953 0" stroke-linejoin="round" stroke-width=".997"/>
  <path transform="translate(-236.2 -610.94)" d="m260.52 688.69c0 1.4609-2.1914 1.4609-2.1914 0 0-1.4648 2.1914-1.4648 2.1914 0" stroke-linejoin="round" stroke-width=".997"/>
  <path transform="translate(-236.2 -610.94)" d="m297.14 652.28c0 1.4609-2.1953 1.4609-2.1953 0 0-1.4609 2.1953-1.4609 2.1953 0" stroke-linejoin="round" stroke-width=".997"/>
  <path transform="translate(-236.2 -610.94)" d="m283.98 646.8c0 1.4648-2.1953 1.4648-2.1953 0 0-1.4609 2.1953-1.4609 2.1953 0" stroke-linejoin="round" stroke-width=".997"/>
  <path transform="translate(-236.2 -610.94)" d="m286.62 660.18c0 1.4609-2.1953 1.4609-2.1953 0 0-1.4648 2.1953-1.4648 2.1953 0" stroke-linejoin="round" stroke-width=".997"/>
  <path transform="translate(-236.2 -610.94)" d="m305.04 659.52c0 1.4609-2.1914 1.4609-2.1914 0 0-1.4609 2.1914-1.4609 2.1914 0" stroke-linejoin="round" stroke-width=".997"/>
  <path transform="translate(-236.2 -610.94)" d="m304.6 649c0 1.4609-2.1953 1.4609-2.1953 0 0-1.4609 2.1953-1.4609 2.1953 0" stroke-linejoin="round" stroke-width=".997"/>
  <path transform="translate(-236.2 -610.94)" d="m297.8 670.93c0 1.4609-2.1914 1.4609-2.1914 0 0-1.4648 2.1914-1.4648 2.1914 0" stroke-linejoin="round" stroke-width=".997"/>
  <path transform="translate(-236.2 -610.94)" d="m278.5 682.33c0 1.4648-2.1914 1.4648-2.1914 0 0-1.4609 2.1914-1.4609 2.1914 0" stroke-linejoin="round" stroke-width=".997"/>
  <path transform="translate(-236.2 -610.94)" d="m270.39 687.16c0 1.4609-2.1953 1.4609-2.1953 0 0-1.4648 2.1953-1.4648 2.1953 0" stroke-linejoin="round" stroke-width=".997"/>
  <path transform="translate(-236.2 -610.94)" d="m272.14 677.29c0 1.4609-2.1953 1.4609-2.1953 0 0-1.4609 2.1953-1.4609 2.1953 0" stroke-linejoin="round" stroke-width=".997"/>
  <path transform="translate(-236.2 -610.94)" d="m313.38 653.38c0 1.4609-2.1953 1.4609-2.1953 0 0-1.4609 2.1953-1.4609 2.1953 0" stroke-linejoin="round" stroke-width=".997"/>
  <path transform="translate(-236.2 -610.94)" d="m299.34 642.64c0 1.4609-2.1914 1.4609-2.1914 0 0-1.4648 2.1914-1.4648 2.1914 0" stroke-linejoin="round" stroke-width=".997"/>
  <path transform="translate(-236.2 -610.94)" d="m291 641.76c0 1.4609-2.1953 1.4609-2.1953 0 0-1.4609 2.1953-1.4609 2.1953 0" stroke-linejoin="round" stroke-width=".997"/>
  <path transform="translate(-236.2 -610.94)" d="m310.52 640.22c0 1.4609-2.1953 1.4609-2.1953 0 0-1.4609 2.1953-1.4609 2.1953 0" stroke-linejoin="round" stroke-width=".997"/>
  <path transform="translate(-236.2 -610.94)" d="m317.1 647.24c0 1.4609-2.1914 1.4609-2.1914 0 0-1.4648 2.1914-1.4648 2.1914 0" stroke-linejoin="round" stroke-width=".997"/>
  <path transform="translate(-236.2 -610.94)" d="m307.67 634.74c0 1.4648-2.1914 1.4648-2.1914 0 0-1.4609 2.1914-1.4609 2.1914 0" stroke-linejoin="round" stroke-width=".997"/>
  <path transform="translate(-236.2 -610.94)" d="m264.02 665.66c0 1.4648-2.1914 1.4648-2.1914 0 0-1.4609 2.1914-1.4609 2.1914 0" stroke-linejoin="round" stroke-width=".997"/>
  <path transform="translate(-236.2 -610.94)" d="m271.92 658.64c0 1.4648-2.1953 1.4648-2.1953 0 0-1.4609 2.1953-1.4609 2.1953 0" stroke-linejoin="round" stroke-width=".997"/>
  <path transform="translate(-236.2 -610.94)" d="m317.98 638.69c0 1.4609-2.1953 1.4609-2.1953 0 0-1.4609 2.1953-1.4609 2.1953 0" stroke-linejoin="round" stroke-width=".997"/>
  <path transform="translate(-236.2 -610.94)" d="m297.36 660.62c0 1.4609-2.1914 1.4609-2.1914 0 0-1.4648 2.1914-1.4648 2.1914 0" stroke-linejoin="round" stroke-width=".997"/>
  <path transform="translate(-236.2 -610.94)" d="m287.05 671.58c0 1.4648-2.1914 1.4648-2.1914 0 0-1.4609 2.1914-1.4609 2.1914 0" stroke-linejoin="round" stroke-width=".997"/>
  <path transform="translate(-236.2 -610.94)" d="m289.03 651.41c0 1.4609-2.1914 1.4609-2.1914 0 0-1.4648 2.1914-1.4648 2.1914 0" stroke-linejoin="round" stroke-width=".997"/>
  <path transform="translate(-236.2 -610.94)" d="m259.64 681.89c0 1.4648-2.1914 1.4648-2.1914 0 0-1.4609 2.1914-1.4609 2.1914 0" stroke-linejoin="round" stroke-width=".997"/>
  <path transform="translate(-236.2 -610.94)" d="m249.59 693.84 72.16-65.801" fill="none" stroke-width="2.5"/>
 </g>
</svg>
