<?xml version="1.0" encoding="UTF-8"?>
<svg width="100pt" height="100pt" version="1.1" viewBox="0 0 100 100" xmlns="http://www.w3.org/2000/svg">
 <g>
  <path d="m12.691 62.695c-5.1328 0-9.7617-3.0938-11.727-7.8359s-0.88281-10.203 2.75-13.836c3.6289-3.6289 9.0898-4.7148 13.832-2.75 4.7461 1.9648 7.8359 6.5938 7.8359 11.727-0.007812 7.0078-5.6836 12.684-12.691 12.695zm0-22.262c-3.8711 0-7.3594 2.3281-8.8398 5.9062-1.4844 3.5742-0.66406 7.6914 2.0742 10.43 2.7344 2.7344 6.8516 3.5547 10.426 2.0703 3.5781-1.4805 5.9102-4.9688 5.9062-8.8398-0.003906-5.2812-4.2852-9.5625-9.5664-9.5664z"/>
  <path d="m12.691 96.629c-5.1328 0-9.7617-3.0898-11.727-7.8359-1.9648-4.7422-0.87891-10.203 2.75-13.832 3.6289-3.6328 9.0898-4.7188 13.836-2.7539 4.7422 1.9688 7.8359 6.5977 7.832 11.73-0.007812 7.0078-5.6836 12.684-12.691 12.691zm0-22.262c-3.8711 0-7.3594 2.332-8.8398 5.9062-1.4805 3.5781-0.66406 7.6914 2.0742 10.43 2.7344 2.7383 6.8516 3.5547 10.426 2.0742 3.5781-1.4805 5.9062-4.9688 5.9062-8.8398-0.007812-5.2812-4.2852-9.5547-9.5664-9.5625z"/>
  <path d="m12.691 40.434c-0.86328 0-1.5625-0.69922-1.5625-1.5625v-11.684c0-0.86328 0.69922-1.5625 1.5625-1.5625 0.86328 0 1.5625 0.69922 1.5625 1.5625v11.68c0.003906 0.41406-0.16016 0.8125-0.45703 1.1055-0.29297 0.29297-0.69141 0.46094-1.1055 0.46094z"/>
  <path d="m12.691 74.375c-0.86328 0-1.5625-0.69922-1.5625-1.5625v-11.68c0-0.86328 0.69922-1.5625 1.5625-1.5625 0.86328 0 1.5625 0.69922 1.5625 1.5625v11.68c0 0.41406-0.16406 0.8125-0.45703 1.1055s-0.69141 0.45703-1.1055 0.45703z"/>
  <path d="m12.691 28.75c-5.1328 0-9.7617-3.0938-11.727-7.8359-1.9648-4.7422-0.87891-10.199 2.7539-13.832 3.6289-3.6289 9.0859-4.7148 13.832-2.75 4.7422 1.9648 7.832 6.5938 7.832 11.727-0.007812 7.0039-5.6836 12.684-12.691 12.691zm0-22.258c-3.8672 0-7.3555 2.3281-8.8398 5.9062-1.4805 3.5742-0.66016 7.6875 2.0742 10.426 2.7383 2.7344 6.8516 3.5547 10.426 2.0742 3.5781-1.4844 5.9062-4.9727 5.9062-8.8398-0.007812-5.2812-4.2852-9.5586-9.5664-9.5625z"/>
  <path d="m98.438 26.844h-68.035c-0.86328 0-1.5625-0.69922-1.5625-1.5625v-18.438c0-0.86328 0.69922-1.5625 1.5625-1.5625h68.035c0.41406 0 0.8125 0.16406 1.1055 0.45703s0.45703 0.69141 0.45703 1.1055v18.438c0 0.41406-0.16406 0.8125-0.45703 1.1055s-0.69141 0.45703-1.1055 0.45703zm-66.473-3.125h64.91v-15.312h-64.91z"/>
  <path d="m98.438 60.812h-68.035c-0.86328 0-1.5625-0.69922-1.5625-1.5625v-18.438c0-0.86328 0.69922-1.5625 1.5625-1.5625h68.035c0.41406 0 0.8125 0.16406 1.1055 0.45703s0.45703 0.69141 0.45703 1.1055v18.438c0 0.41406-0.16406 0.8125-0.45703 1.1055s-0.69141 0.45703-1.1055 0.45703zm-66.473-3.125h64.91v-15.312h-64.91z"/>
  <path d="m98.438 94.719h-68.035c-0.86328 0-1.5625-0.69922-1.5625-1.5625v-18.438c0-0.86328 0.69922-1.5625 1.5625-1.5625h68.035c0.41406 0 0.8125 0.16406 1.1055 0.45703s0.45703 0.69141 0.45703 1.1055v18.438c0 0.86328-0.69922 1.5625-1.5625 1.5625zm-66.473-3.125h64.91v-15.312h-64.91z"/>
  <path d="m90 17.625h-51.93c-0.86328 0-1.5625-0.69922-1.5625-1.5625s0.69922-1.5625 1.5625-1.5625h51.93c0.86328 0 1.5625 0.69922 1.5625 1.5625s-0.69922 1.5625-1.5625 1.5625z"/>
  <path d="m90 51.562h-51.93c-0.86328 0-1.5625-0.69922-1.5625-1.5625s0.69922-1.5625 1.5625-1.5625h51.93c0.86328 0 1.5625 0.69922 1.5625 1.5625s-0.69922 1.5625-1.5625 1.5625z"/>
  <path d="m90 85.5h-51.93c-0.86328 0-1.5625-0.69922-1.5625-1.5625s0.69922-1.5625 1.5625-1.5625h51.93c0.86328 0 1.5625 0.69922 1.5625 1.5625s-0.69922 1.5625-1.5625 1.5625z"/>
 </g>
</svg>
