<?xml version="1.0" encoding="UTF-8"?>
<svg width="100pt" height="100pt" version="1.1" viewBox="0 0 100 100" xmlns="http://www.w3.org/2000/svg">
 <g>
  <path d="m20 25c-0.10156 0.60156-0.19922 1.1992-0.19922 1.8008 0 5 4.1016 9 9.1016 9s9-4.1016 9-9.1016c0-1.5-0.39844-2.8984-1.1016-4.1016 3.3008-1 5.3008-2.1992 5.1992-3.1992-0.19922-1.1016-3.1992-1.6992-7.5-1.6016l-4-7.1992c0-0.10156-0.10156-0.10156-0.10156-0.19922l-3.8984-4.1016c-0.10156-0.10156-0.19922-0.10156-0.30078-0.19922l-7.3008-3.5c-0.39844-0.19922-0.80078-0.10156-1.1016 0.19922s-0.30078 0.80078-0.10156 1.1016l3.1016 4.5 1 3.8984-1.1992 7.5c-4.1016 1.1016-6.8008 2.5-6.6016 3.6016 0.20312 1 2.5039 1.5 6.0039 1.6016z"/>
  <path d="m40.398 61c-2-2.1016-3.1016-5-2.8984-7.8984l0.39844-6.8008h16c2 0 3.8008-1.3008 4.1016-3.3008 0.39844-2.5-1.5-4.6016-3.8984-4.6016h-29.602c-4.1992 0-8.1016 2-10.602 5.3984l-8.1992 11.203c-1.1992 1.6016-1.1992 3.8008 0.19922 5.3008 0.80078 0.80078 1.8008 1.1992 2.8984 1.1992 1.1992 0 2.3984-0.60156 3.1992-1.6016l8.1016-11 0.39844 4.8008c0.19922 2.6992-0.69922 5.3984-2.3984 7.5l-6.5 7.8008c-0.80078 1-0.60156 2.5 0.5 3.1992 1.5 0.89844 3.6992 2 6.3984 2.8984l-2.8984 16.801c-0.39844 2.3008 0.89844 4.6992 3.1016 5.3984 0.39844 0.10156 0.89844 0.19922 1.3008 0.19922 2.1992 0 4.1016-1.6016 4.5-3.8008l3-17.102c0.89844 0 1.8008-0.10156 2.6992-0.19922 1.1992-0.19922 2.3008-0.39844 3.3984-0.69922l1.3984 2.6992 0.80078 14.898c0.10156 2.3984 2.1016 4.3008 4.5 4.3008h0.30078c2.5-0.10156 4.3984-2.1992 4.3008-4.6992l-0.80078-15.898c0-0.60156-0.19922-1.3008-0.5-1.8984l-1.3984-2.6992c1.6016-0.80078 2.8984-1.6016 3.8984-2.1992 1.1016-0.69922 1.3008-2.3008 0.39844-3.1992z"/>
  <path d="m95.102 63.5c0-1.8008-1.5-3.3008-3.3008-3.3008h-37c-1.8008 0-3.3008 1.5-3.3008 3.3008s1.5 3.3008 3.3008 3.3008h1.1992c-1 2.6016-1.5 5.6016-1.5 8.6016 0 12.199 3.1016 22.102 18.898 22.102 15.699 0 18.801-9.8984 18.801-22.102 0-3-0.5-6-1.5-8.6016h1.1016c1.8008 0 3.3008-1.5 3.3008-3.3008zm-18.703 28.398h-0.19922c-1 0-1.8984-0.80078-2-1.8008-0.19922-1.0977 0.69922-2.0977 1.8008-2.1992 3.8008-0.39844 6.3008-1.3008 6.6992-10.102 0-1.1016 1.1016-2 2.1016-1.8984 1.1016 0 2 1 1.8984 2.1016-0.39844 9.3984-3.3008 13.301-10.301 13.898z"/>
  <path d="m73.699 37.898c0 5.3359-8 5.3359-8 0 0-5.332 8-5.332 8 0"/>
  <path d="m66.699 56c2.6992 0 4.8008-2.1016 4.8008-4.8008 0-2.6016-2.1016-4.8008-4.8008-4.8008-2.6016 0-4.8008 2.1016-4.8008 4.8008 0 2.6016 2.1016 4.8008 4.8008 4.8008z"/>
  <path d="m79.5 50.898c2.5 0 4.5-2 4.5-4.5s-2-4.5-4.5-4.5-4.5 2-4.5 4.5 2 4.5 4.5 4.5z"/>
 </g>
</svg>
