<?xml version="1.0" encoding="UTF-8" standalone="no"?>
<svg
   width="100pt"
   height="100pt"
   version="1.1"
   viewBox="0 0 100 100"
   id="svg838"
   sodipodi:docname="np_witch_ban.svg"
   inkscape:version="1.1.2 (b8e25be8, 2022-02-05)"
   xmlns:inkscape="http://www.inkscape.org/namespaces/inkscape"
   xmlns:sodipodi="http://sodipodi.sourceforge.net/DTD/sodipodi-0.dtd"
   xmlns="http://www.w3.org/2000/svg"
   xmlns:svg="http://www.w3.org/2000/svg">
  <defs
     id="defs842" />
  <sodipodi:namedview
     id="namedview840"
     pagecolor="#ffffff"
     bordercolor="#666666"
     borderopacity="1.0"
     inkscape:pageshadow="2"
     inkscape:pageopacity="0.0"
     inkscape:pagecheckerboard="0"
     inkscape:document-units="pt"
     showgrid="false"
     inkscape:zoom="2.8356385"
     inkscape:cx="63.301441"
     inkscape:cy="42.318512"
     inkscape:window-width="1292"
     inkscape:window-height="682"
     inkscape:window-x="482"
     inkscape:window-y="224"
     inkscape:window-maximized="0"
     inkscape:current-layer="svg838" />
  <g
     id="g1066"
     transform="translate(3.4383791,35.177263)">
    <g
       id="g836"
       transform="matrix(0.60921651,0,0,0.60921651,15.300337,-14.70066)">
      <path
         d="m 20,25 c -0.10156,0.60156 -0.19922,1.1992 -0.19922,1.8008 0,5 4.1016,9 9.1016,9 5,0 9,-4.1016 9,-9.1016 0,-1.5 -0.39844,-2.8984 -1.1016,-4.1016 3.3008,-1 5.3008,-2.1992 5.1992,-3.1992 -0.19922,-1.1016 -3.1992,-1.6992 -7.5,-1.6016 l -4,-7.1992 c 0,-0.10156 -0.10156,-0.10156 -0.10156,-0.19922 l -3.8984,-4.1016 C 26.39846,6.19522 26.3008,6.19522 26.19924,6.09756 l -7.3008,-3.5 C 18.5,2.39834 18.09766,2.496 17.79684,2.79678 17.49602,3.09756 17.49606,3.59756 17.69528,3.89838 l 3.1016,4.5 1,3.8984 -1.1992,7.5 c -4.1016,1.1016 -6.8008,2.5 -6.6016,3.6016 0.20312,1 2.5039,1.5 6.0039,1.6016 z"
         id="path824" />
      <path
         d="m 40.398,61 c -2,-2.1016 -3.1016,-5 -2.8984,-7.8984 l 0.39844,-6.8008 h 16 c 2,0 3.8008,-1.3008 4.1016,-3.3008 0.39844,-2.5 -1.5,-4.6016 -3.8984,-4.6016 h -29.602 c -4.1992,0 -8.1016,2 -10.602,5.3984 l -8.1992,11.203 c -1.1992,1.6016 -1.1992,3.8008 0.19922,5.3008 0.80078,0.80078 1.8008,1.1992 2.8984,1.1992 1.1992,0 2.3984,-0.60156 3.1992,-1.6016 l 8.1016,-11 0.39844,4.8008 c 0.19922,2.6992 -0.69922,5.3984 -2.3984,7.5 l -6.5,7.8008 c -0.80078,1 -0.60156,2.5 0.5,3.1992 1.5,0.89844 3.6992,2 6.3984,2.8984 l -2.8984,16.801 c -0.39844,2.3008 0.89844,4.6992 3.1016,5.3984 0.39844,0.10156 0.89844,0.19922 1.3008,0.19922 2.1992,0 4.1016,-1.6016 4.5,-3.8008 l 3,-17.102 c 0.89844,0 1.8008,-0.10156 2.6992,-0.19922 1.1992,-0.19922 2.3008,-0.39844 3.3984,-0.69922 l 1.3984,2.6992 0.80078,14.898 c 0.10156,2.3984 2.1016,4.3008 4.5,4.3008 h 0.30078 c 2.5,-0.10156 4.3984,-2.1992 4.3008,-4.6992 l -0.80078,-15.898 c 0,-0.60156 -0.19922,-1.3008 -0.5,-1.8984 l -1.3984,-2.6992 c 1.6016,-0.80078 2.8984,-1.6016 3.8984,-2.1992 1.1016,-0.69922 1.3008,-2.3008 0.39844,-3.1992 z"
         id="path826" />
      <path
         d="m 95.102,63.5 c 0,-1.8008 -1.5,-3.3008 -3.3008,-3.3008 h -37 c -1.8008,0 -3.3008,1.5 -3.3008,3.3008 0,1.8008 1.5,3.3008 3.3008,3.3008 h 1.1992 c -1,2.6016 -1.5,5.6016 -1.5,8.6016 0,12.199 3.1016,22.102 18.898,22.102 15.699,0 18.801,-9.8984 18.801,-22.102 0,-3 -0.5,-6 -1.5,-8.6016 h 1.1016 c 1.8008,0 3.3008,-1.5 3.3008,-3.3008 z M 76.399,91.898 h -0.19922 c -1,0 -1.8984,-0.80078 -2,-1.8008 -0.19922,-1.0977 0.69922,-2.0977 1.8008,-2.1992 3.8008,-0.39844 6.3008,-1.3008 6.6992,-10.102 0,-1.1016 1.1016,-2 2.1016,-1.8984 1.1016,0 2,1 1.8984,2.1016 -0.39844,9.3984 -3.3008,13.301 -10.301,13.898 z"
         id="path828" />
      <path
         d="m 73.699,37.898 c 0,5.3359 -8,5.3359 -8,0 0,-5.332 8,-5.332 8,0"
         id="path830" />
      <path
         d="m 66.699,56 c 2.6992,0 4.8008,-2.1016 4.8008,-4.8008 0,-2.6016 -2.1016,-4.8008 -4.8008,-4.8008 -2.6016,0 -4.8008,2.1016 -4.8008,4.8008 0,2.6016 2.1016,4.8008 4.8008,4.8008 z"
         id="path832" />
      <path
         d="m 79.5,50.898 c 2.5,0 4.5,-2 4.5,-4.5 0,-2.5 -2,-4.5 -4.5,-4.5 -2.5,0 -4.5,2 -4.5,4.5 0,2.5 2,4.5 4.5,4.5 z"
         id="path834" />
    </g>
    <path
       d="m 45.738046,-29.979572 c 25.234,0 45.766,20.5310004 45.766,45.766 0,25.235 -20.531,45.766 -45.766,45.766 -25.235,0 -45.76600026,-20.531 -45.76600026,-45.766 0,-25.2349996 20.53100026,-45.766 45.76600026,-45.766 z m -37.1020003,45.766 c 0,8.668 3.0000003,16.668 8.0000003,23 l 52.102,-52.133 c -6.332,-5 -14.301,-8 -23,-8 -20.465,0.03125 -37.1020003,16.668 -37.1020003,37.133 z m 74.2030003,0 c 0,-8.668 -3,-16.66800001 -8,-22.9999996 l -52.102,52.1329996 c 6.332,5 14.301,8 23,8 20.465,-0.03125 37.102,-16.668 37.102,-37.133 z"
       id="path1013"
       style="fill:#ff0000" />
  </g>
</svg>
