<?xml version="1.0" encoding="UTF-8" standalone="no"?>
<!-- Created with Inkscape (http://www.inkscape.org/) -->

<svg
   width="92.000435mm"
   height="84.049004mm"
   viewBox="0 0 92.000435 84.049004"
   version="1.1"
   id="svg5"
   inkscape:version="1.2.1 (9c6d41e, 2022-07-14)"
   sodipodi:docname="pixel_volume.svg"
   inkscape:export-filename="pixel_volume.png"
   inkscape:export-xdpi="96"
   inkscape:export-ydpi="96"
   xmlns:inkscape="http://www.inkscape.org/namespaces/inkscape"
   xmlns:sodipodi="http://sodipodi.sourceforge.net/DTD/sodipodi-0.dtd"
   xmlns="http://www.w3.org/2000/svg"
   xmlns:svg="http://www.w3.org/2000/svg">
  <sodipodi:namedview
     id="namedview7"
     pagecolor="#ffffff"
     bordercolor="#666666"
     borderopacity="1.0"
     inkscape:showpageshadow="2"
     inkscape:pageopacity="0.0"
     inkscape:pagecheckerboard="0"
     inkscape:deskcolor="#d1d1d1"
     inkscape:document-units="mm"
     showgrid="true"
     inkscape:zoom="3.5615745"
     inkscape:cx="171.69373"
     inkscape:cy="149.93369"
     inkscape:window-width="2638"
     inkscape:window-height="1278"
     inkscape:window-x="248"
     inkscape:window-y="143"
     inkscape:window-maximized="0"
     inkscape:current-layer="layer1">
    <inkscape:grid
       type="axonomgrid"
       id="grid134"
       gridanglex="7"
       gridanglez="42"
       spacingy="0.5"
       originx="-65.778203"
       originy="-115.60012" />
  </sodipodi:namedview>
  <defs
     id="defs2">
    <marker
       style="overflow:visible"
       id="Arrow4"
       refX="0"
       refY="0"
       orient="auto-start-reverse"
       inkscape:stockid="Arrow4"
       markerWidth="5"
       markerHeight="6"
       viewBox="0 0 5 6"
       inkscape:isstock="true"
       inkscape:collect="always"
       preserveAspectRatio="xMidYMid">
      <path
         style="fill:context-stroke;fill-rule:evenodd;stroke:none"
         d="m 1,0 -3,3 h -2 l 3,-3 -3,-3 h 2 z"
         id="path1741" />
    </marker>
    <marker
       style="overflow:visible"
       id="RoundedArrow"
       refX="4"
       refY="0"
       orient="auto-start-reverse"
       inkscape:stockid="RoundedArrow"
       markerWidth="6.1347523"
       markerHeight="5.9304948"
       viewBox="0 0 6.1347524 5.9304951"
       inkscape:isstock="true"
       inkscape:collect="always"
       preserveAspectRatio="xMidYMid">
      <path
         transform="scale(0.7)"
         d="m -0.21114562,-4.1055728 6.42229122,3.21114561 a 1,1 90 0 1 0,1.78885438 L -0.21114562,4.1055728 A 1.236068,1.236068 31.717474 0 1 -2,3 v -6 a 1.236068,1.236068 148.28253 0 1 1.78885438,-1.1055728 z"
         style="fill:context-stroke;fill-rule:evenodd;stroke:none"
         id="path1367" />
    </marker>
    <marker
       style="overflow:visible"
       id="RoundedArrow-6"
       refX="4"
       refY="0"
       orient="auto-start-reverse"
       inkscape:stockid="RoundedArrow"
       markerWidth="6.1347523"
       markerHeight="5.9304948"
       viewBox="0 0 6.1347524 5.9304951"
       inkscape:isstock="true"
       inkscape:collect="always"
       preserveAspectRatio="xMidYMid">
      <path
         transform="scale(0.7)"
         d="m -0.21114562,-4.1055728 6.42229122,3.21114561 a 1,1 90 0 1 0,1.78885438 L -0.21114562,4.1055728 A 1.236068,1.236068 31.717474 0 1 -2,3 v -6 a 1.236068,1.236068 148.28253 0 1 1.78885438,-1.1055728 z"
         style="fill:context-stroke;fill-rule:evenodd;stroke:none"
         id="path1367-3" />
    </marker>
    <marker
       style="overflow:visible"
       id="RoundedArrow-6-3"
       refX="4"
       refY="0"
       orient="auto-start-reverse"
       inkscape:stockid="RoundedArrow"
       markerWidth="6.1347523"
       markerHeight="5.9304948"
       viewBox="0 0 6.1347524 5.9304951"
       inkscape:isstock="true"
       inkscape:collect="always"
       preserveAspectRatio="xMidYMid">
      <path
         transform="scale(0.7)"
         d="m -0.21114562,-4.1055728 6.42229122,3.21114561 a 1,1 90 0 1 0,1.78885438 L -0.21114562,4.1055728 A 1.236068,1.236068 31.717474 0 1 -2,3 v -6 a 1.236068,1.236068 148.28253 0 1 1.78885438,-1.1055728 z"
         style="fill:context-stroke;fill-rule:evenodd;stroke:none"
         id="path1367-3-0" />
    </marker>
    <marker
       style="overflow:visible"
       id="Arrow4-4"
       refX="0"
       refY="0"
       orient="auto-start-reverse"
       inkscape:stockid="Arrow4"
       markerWidth="5"
       markerHeight="6"
       viewBox="0 0 5 6"
       inkscape:isstock="true"
       inkscape:collect="always"
       preserveAspectRatio="xMidYMid">
      <path
         style="fill:context-stroke;fill-rule:evenodd;stroke:none"
         d="m 1,0 -3,3 h -2 l 3,-3 -3,-3 h 2 z"
         id="path1741-5" />
    </marker>
  </defs>
  <g
     inkscape:label="Layer 1"
     inkscape:groupmode="layer"
     id="layer1"
     transform="translate(-65.778201,-115.60013)">
    <path
       style="fill:#999999;stroke:#000000;stroke-width:0.264583px;stroke-linecap:butt;stroke-linejoin:miter;stroke-opacity:1"
       d="m 73.43251,140.10662 24.433423,3.00005 12.216717,-10.99998 -24.433428,-3.00004 z"
       id="path967"
       sodipodi:nodetypes="ccccc" />
    <path
       id="path1065"
       style="fill:#afc6e9;stroke:#000000;stroke-width:0.264583px;stroke-linecap:butt;stroke-linejoin:miter;stroke-opacity:1"
       d="m 97.865972,166.97185 c -0.165671,0.0772 -0.331366,0.15107 -0.49196,0.22325 -0.166162,0.0747 -0.326687,0.14801 -0.476456,0.22221 -0.07488,0.0371 -0.147311,0.0742 -0.216008,0.11213 -0.0687,0.0379 -0.133704,0.0764 -0.19482,0.11576 -0.06112,0.0393 -0.118391,0.0795 -0.170532,0.12092 -0.05214,0.0414 -0.0993,0.0841 -0.141077,0.12816 -0.166175,0.0714 -0.333537,0.1466 -0.502295,0.22376 -0.168758,0.0771 -0.338706,0.15612 -0.510046,0.23513 -0.171341,0.079 -0.343876,0.15815 -0.517798,0.23512 -0.173923,0.077 -0.349562,0.15218 -0.526066,0.22325 -0.176505,0.0711 -0.354215,0.13818 -0.533301,0.19947 -0.08954,0.0306 -0.179563,0.0599 -0.269751,0.0873 -0.09019,0.0275 -0.180467,0.0532 -0.271301,0.077 -0.09083,0.0238 -0.181889,0.0454 -0.273369,0.0651 -0.09148,0.0197 -0.183311,0.0372 -0.275435,0.0522 -0.09212,0.015 -0.184733,0.0278 -0.277502,0.0377 -0.09277,0.01 -0.185638,0.0169 -0.279053,0.0212 -0.138406,-0.0165 -0.277411,-0.0308 -0.416512,-0.0434 -0.139101,-0.0126 -0.278357,-0.0234 -0.418063,-0.0326 -0.139705,-0.009 -0.279911,-0.0165 -0.420129,-0.0227 -0.140218,-0.006 -0.280523,-0.0113 -0.421163,-0.015 -0.281279,-0.007 -0.563525,-0.0101 -0.845943,-0.0103 -0.282418,-2.8e-4 -0.565182,0.002 -0.84801,0.005 -0.107078,-3.4e-4 -0.213194,-0.003 -0.319361,-0.007 -0.106166,-0.004 -0.212294,-0.01 -0.31781,-0.017 -0.211031,-0.0141 -0.420979,-0.0332 -0.630969,-0.0532 -0.20999,-0.0201 -0.419939,-0.0413 -0.630969,-0.0599 -0.21103,-0.0186 -0.423019,-0.0346 -0.637171,-0.0444 -0.158848,-0.0133 -0.316699,-0.0276 -0.473872,-0.0434 -0.157174,-0.0159 -0.313498,-0.0331 -0.469222,-0.0517 -0.155725,-0.0186 -0.311104,-0.0385 -0.465605,-0.0599 -0.154501,-0.0214 -0.308485,-0.0448 -0.461987,-0.0692 -0.153503,-0.0245 -0.306674,-0.0504 -0.459404,-0.078 -0.15273,-0.0276 -0.304636,-0.0569 -0.45682,-0.0879 -0.152183,-0.0309 -0.304441,-0.0633 -0.456302,-0.0977 -0.151862,-0.0344 -0.303504,-0.0705 -0.45527,-0.10852 -0.06078,-0.008 -0.121578,-0.0201 -0.182418,-0.0346 -0.06084,-0.0145 -0.121911,-0.0321 -0.182934,-0.0522 -0.06102,-0.0201 -0.122126,-0.0426 -0.183452,-0.0677 -0.06132,-0.0251 -0.122738,-0.0527 -0.184484,-0.0822 -0.06175,-0.0294 -0.123748,-0.0609 -0.186036,-0.0941 -0.06229,-0.0331 -0.124637,-0.0677 -0.187585,-0.10387 -0.125895,-0.0723 -0.253673,-0.15031 -0.382922,-0.23099 -0.12925,-0.0807 -0.260217,-0.16415 -0.393775,-0.24805 -0.133558,-0.0839 -0.269424,-0.16812 -0.408244,-0.25011 -0.138819,-0.082 -0.280779,-0.16172 -0.425813,-0.23668 -0.07252,-0.0375 -0.145892,-0.0738 -0.220142,-0.10852 -0.07425,-0.0348 -0.149208,-0.0683 -0.225309,-0.0997 -0.14411,-0.0624 -0.291914,-0.12054 -0.442351,-0.17621 -0.150436,-0.0557 -0.303371,-0.10841 -0.458369,-0.16072 -0.309998,-0.1046 -0.627501,-0.20596 -0.945162,-0.31729 -0.158831,-0.0557 -0.31784,-0.11383 -0.47594,-0.17622 -0.07905,-0.0312 -0.157625,-0.0636 -0.236162,-0.0971 -0.07854,-0.0335 -0.156808,-0.0682 -0.234611,-0.10438 -0.0778,-0.0362 -0.155179,-0.0738 -0.232027,-0.11318 -0.07685,-0.0394 -0.153254,-0.0805 -0.228926,-0.1235 -0.07567,-0.043 -0.150516,-0.0879 -0.224793,-0.13488 -0.07428,-0.047 -0.147998,-0.0959 -0.220658,-0.14728 -0.05561,-0.0467 -0.11224,-0.0894 -0.170016,-0.12764 -0.05778,-0.0383 -0.116475,-0.0723 -0.176216,-0.10283 -0.05974,-0.0305 -0.120393,-0.0571 -0.181901,-0.0806 -0.06151,-0.0235 -0.123994,-0.0437 -0.187069,-0.061 -0.06307,-0.0172 -0.12676,-0.0317 -0.191203,-0.0434 -0.06444,-0.0117 -0.129725,-0.0205 -0.195337,-0.0274 -0.06561,-0.007 -0.131856,-0.0121 -0.198437,-0.015 -0.06658,-0.003 -0.13367,-0.004 -0.201022,-0.003 -0.134703,8.7e-4 -0.270621,0.007 -0.40721,0.0171 -0.0438,0.003 -0.08788,0.007 -0.131775,0.0109 v 27.74456 l 24.433651,3.00033 z" />
    <path
       id="path1811"
       style="fill:#e9c6af;stroke:#000000;stroke-width:0.264583px;stroke-linecap:butt;stroke-linejoin:miter;stroke-opacity:1"
       d="m 73.432321,140.10683 v 24.75508 c 0.04389,-0.004 0.08797,-0.008 0.131775,-0.0109 0.136589,-0.01 0.272507,-0.0162 0.40721,-0.0171 0.06735,-4.4e-4 0.13444,2.3e-4 0.201022,0.003 0.06658,0.003 0.132825,0.008 0.198437,0.015 0.06561,0.007 0.130894,0.0157 0.195337,0.0274 0.06444,0.0117 0.128128,0.0262 0.191203,0.0434 0.06308,0.0172 0.125561,0.0375 0.187069,0.061 0.06151,0.0235 0.122159,0.0501 0.181901,0.0806 0.05974,0.0305 0.11844,0.0646 0.176216,0.10283 0.05778,0.0383 0.114405,0.0809 0.170016,0.12764 0.07266,0.0514 0.146381,0.10032 0.220658,0.14728 0.07428,0.047 0.14912,0.0919 0.224793,0.13488 0.07567,0.043 0.152078,0.0841 0.228926,0.1235 0.07685,0.0394 0.154225,0.0769 0.232027,0.11318 0.0778,0.0362 0.156075,0.0709 0.234611,0.10438 0.07854,0.0335 0.157112,0.066 0.236162,0.0971 0.1581,0.0624 0.317109,0.12056 0.47594,0.17622 0.317661,0.11133 0.635164,0.21269 0.945162,0.31729 0.154998,0.0523 0.307933,0.10505 0.458369,0.16072 0.150437,0.0557 0.298241,0.11382 0.442351,0.17621 0.0761,0.0314 0.151059,0.065 0.225309,0.0997 0.07425,0.0348 0.147624,0.071 0.220142,0.10852 0.145034,0.075 0.286994,0.15469 0.425813,0.23668 0.13882,0.082 0.274686,0.16622 0.408244,0.25011 0.133558,0.0839 0.264525,0.16737 0.393775,0.24805 0.129249,0.0807 0.257027,0.15866 0.382922,0.23099 0.06295,0.0362 0.125298,0.0708 0.187585,0.10387 0.06229,0.0331 0.124289,0.0646 0.186036,0.0941 0.06175,0.0294 0.123159,0.0571 0.184484,0.0822 0.06133,0.0251 0.122429,0.0476 0.183452,0.0677 0.06102,0.0201 0.122095,0.0377 0.182934,0.0522 0.06084,0.0145 0.121642,0.0263 0.182418,0.0346 0.151766,0.038 0.303408,0.0741 0.45527,0.10852 0.151861,0.0344 0.304119,0.0667 0.456302,0.0977 0.152184,0.0309 0.30409,0.0602 0.45682,0.0879 0.15273,0.0276 0.305901,0.0536 0.459404,0.078 0.153502,0.0245 0.307486,0.0478 0.461987,0.0692 0.154501,0.0215 0.30988,0.0414 0.465605,0.0599 0.155724,0.0186 0.312048,0.0358 0.469222,0.0517 0.157173,0.0159 0.315024,0.0301 0.473872,0.0434 0.214152,0.01 0.426141,0.0258 0.637171,0.0444 0.21103,0.0187 0.420979,0.0399 0.630969,0.0599 0.20999,0.0201 0.419938,0.0392 0.630969,0.0532 0.105516,0.007 0.211644,0.0129 0.31781,0.017 0.106167,0.004 0.212283,0.007 0.319361,0.007 0.282828,-0.003 0.565592,-0.005 0.84801,-0.005 0.282418,2.8e-4 0.564664,0.003 0.845943,0.0103 0.14064,0.004 0.280945,0.009 0.421163,0.015 0.140218,0.006 0.280424,0.0136 0.420129,0.0227 0.139706,0.009 0.278962,0.0199 0.418063,0.0326 0.139101,0.0126 0.278106,0.0269 0.416512,0.0434 0.09341,-0.004 0.186283,-0.0113 0.279053,-0.0212 0.09277,-0.01 0.185378,-0.0227 0.277502,-0.0377 0.09212,-0.015 0.183956,-0.0325 0.275435,-0.0522 0.09148,-0.0197 0.182535,-0.0413 0.273369,-0.0651 0.09083,-0.0238 0.181113,-0.0495 0.271301,-0.077 0.09019,-0.0275 0.180208,-0.0567 0.269751,-0.0873 0.179086,-0.0613 0.356796,-0.1284 0.533301,-0.19947 0.176504,-0.0711 0.352143,-0.14627 0.526066,-0.22325 0.173922,-0.077 0.346457,-0.15612 0.517798,-0.23512 0.17134,-0.079 0.341288,-0.15798 0.510046,-0.23513 0.168758,-0.0772 0.33612,-0.15233 0.502295,-0.22376 0.04178,-0.0441 0.08893,-0.0868 0.141077,-0.12816 0.05214,-0.0414 0.109416,-0.0816 0.170532,-0.12092 0.06112,-0.0393 0.126123,-0.0778 0.19482,-0.11576 0.0687,-0.0379 0.141123,-0.075 0.216008,-0.11213 0.149769,-0.0742 0.310294,-0.14753 0.476456,-0.22221 0.160594,-0.0722 0.326289,-0.14604 0.49196,-0.22325 v -23.86521 z" />
    <path
       id="path1067"
       style="fill:#87aade;stroke:#000000;stroke-width:0.264583px;stroke-linecap:butt;stroke-linejoin:miter;stroke-opacity:1"
       d="m 110.0828,159.63949 c -0.0331,-0.003 -0.0667,-0.007 -0.0987,-0.007 -0.0483,7e-4 -0.0952,0.005 -0.14108,0.0129 -0.0459,0.008 -0.091,0.0186 -0.13487,0.032 -0.0439,0.0135 -0.0866,0.0294 -0.12868,0.0475 -0.0421,0.0181 -0.0834,0.0384 -0.12402,0.0599 -0.0812,0.0431 -0.15991,0.092 -0.2372,0.14211 -0.0773,0.0501 -0.15305,0.10112 -0.22892,0.14883 -0.0379,0.0239 -0.0756,0.0467 -0.11369,0.0682 -0.0381,0.0215 -0.0762,0.0419 -0.11472,0.0599 -0.0385,0.018 -0.0776,0.0337 -0.11679,0.047 -0.0392,0.0134 -0.0791,0.0245 -0.11937,0.032 -0.3133,0.046 -0.59649,0.0904 -0.86403,0.13333 -0.26755,0.043 -0.51914,0.0842 -0.76895,0.12402 -0.2498,0.0398 -0.49802,0.0781 -0.75809,0.11472 -0.26007,0.0366 -0.5321,0.0716 -0.83044,0.10491 -0.26827,0.12864 -0.63838,0.30769 -1.03974,0.49919 -0.40135,0.19151 -0.83386,0.3954 -1.22731,0.57464 -0.0922,0.06 -0.18182,0.12286 -0.26872,0.18759 -0.0869,0.0647 -0.17103,0.13151 -0.25321,0.2005 -0.0822,0.069 -0.16224,0.14011 -0.2403,0.21291 -0.0781,0.0728 -0.15391,0.14713 -0.22841,0.22324 -0.0745,0.0761 -0.1476,0.1541 -0.21911,0.23306 -0.0715,0.079 -0.14174,0.15897 -0.21084,0.2403 -0.13818,0.16265 -0.27214,0.32993 -0.40411,0.49919 -0.26392,0.33853 -0.51998,0.68627 -0.78651,1.02836 -0.13327,0.17105 -0.269,0.34073 -0.40979,0.50695 -0.0704,0.0831 -0.141841,0.16531 -0.214979,0.2465 -0.07314,0.0812 -0.147824,0.16099 -0.224276,0.23978 -0.02024,0.0379 -0.04215,0.0754 -0.06511,0.11162 -0.02296,0.0362 -0.04736,0.0713 -0.07286,0.10593 -0.05101,0.0692 -0.106772,0.13527 -0.166915,0.19844 -0.06014,0.0632 -0.12435,0.12362 -0.192236,0.18138 -0.06789,0.0578 -0.139188,0.1129 -0.213424,0.16589 -0.07424,0.053 -0.151284,0.10362 -0.230477,0.15244 -0.07919,0.0488 -0.160639,0.0958 -0.243396,0.14108 -0.08276,0.0453 -0.167253,0.0889 -0.252181,0.13126 -0.08493,0.0424 -0.17061,0.0834 -0.256315,0.1235 -0.0057,0.003 -0.01131,0.005 -0.01705,0.008 v 28.63495 l 12.216829,-11.00036 z" />
    <path
       id="path1814"
       style="fill:#d38d5f;stroke:#000000;stroke-width:0.264583px;stroke-linecap:butt;stroke-linejoin:miter;stroke-opacity:1"
       d="m 110.0828,132.1068 -12.216828,10.99984 v 23.86521 c 0.0057,-0.003 0.01131,-0.005 0.01705,-0.008 0.08571,-0.0401 0.171388,-0.0811 0.256315,-0.1235 0.08493,-0.0424 0.169424,-0.086 0.252181,-0.13126 0.08276,-0.0453 0.164203,-0.0923 0.243396,-0.14108 0.07919,-0.0488 0.156241,-0.0995 0.230477,-0.15244 0.07424,-0.053 0.145538,-0.10812 0.213424,-0.16589 0.06789,-0.0578 0.132093,-0.11821 0.192236,-0.18138 0.06014,-0.0632 0.115908,-0.12924 0.166915,-0.19844 0.0255,-0.0346 0.04991,-0.0697 0.07286,-0.10593 0.02296,-0.0362 0.04487,-0.0737 0.06511,-0.11162 0.07645,-0.0788 0.151138,-0.1586 0.224276,-0.23978 0.07314,-0.0812 0.144577,-0.16339 0.214978,-0.2465 0.14079,-0.16622 0.27652,-0.3359 0.40979,-0.50695 0.26653,-0.34209 0.52259,-0.68983 0.78652,-1.02836 0.13196,-0.16926 0.26592,-0.33654 0.40411,-0.49919 0.0691,-0.0813 0.13933,-0.16134 0.21084,-0.2403 0.0715,-0.079 0.14461,-0.15694 0.2191,-0.23306 0.0745,-0.0761 0.15036,-0.15044 0.22841,-0.22324 0.0781,-0.0728 0.15811,-0.14391 0.2403,-0.21291 0.0822,-0.069 0.16632,-0.13578 0.25321,-0.2005 0.0869,-0.0647 0.17655,-0.12761 0.26872,-0.18759 0.39345,-0.17924 0.82596,-0.38313 1.22732,-0.57464 0.40135,-0.1915 0.77146,-0.37055 1.03973,-0.49919 0.29834,-0.0333 0.57037,-0.0683 0.83044,-0.10491 0.26007,-0.0366 0.50829,-0.0749 0.75809,-0.11472 0.24981,-0.0398 0.5014,-0.0811 0.76895,-0.12402 0.26754,-0.0429 0.55073,-0.0873 0.86403,-0.13333 0.0403,-0.008 0.0801,-0.0187 0.11937,-0.032 0.0392,-0.0134 0.0783,-0.029 0.11679,-0.047 0.0385,-0.018 0.0767,-0.0384 0.11472,-0.0599 0.038,-0.0215 0.0757,-0.0444 0.11369,-0.0682 0.0759,-0.0477 0.15163,-0.0988 0.22892,-0.14883 0.0773,-0.0501 0.15597,-0.099 0.2372,-0.14211 0.0406,-0.0216 0.0819,-0.0418 0.12402,-0.0599 0.0421,-0.0181 0.0848,-0.0341 0.12868,-0.0475 0.0438,-0.0135 0.0889,-0.0244 0.13487,-0.032 0.0459,-0.008 0.0927,-0.0122 0.14108,-0.0129 0.0319,-4.7e-4 0.0656,0.004 0.0987,0.007 z" />
    <path
       style="fill:none;stroke:#000000;stroke-width:0.264583px;stroke-linecap:butt;stroke-linejoin:miter;stroke-opacity:1;marker-start:url(#RoundedArrow);marker-end:url(#RoundedArrow)"
       d="M 112.68932,159.01503 V 185.0567"
       id="path1073"
       sodipodi:nodetypes="cc" />
    <text
       xml:space="preserve"
       style="font-size:5.64444px;line-height:1.25;font-family:sans-serif;stroke-width:0.264583"
       x="117.11502"
       y="162.29517"
       id="text1430"><tspan
         sodipodi:role="line"
         id="tspan1428"
         style="stroke-width:0.264583"
         x="117.11502"
         y="162.29517">d ~ gray level </tspan></text>
    <path
       style="fill:none;stroke:#000000;stroke-width:0.264583px;stroke-linecap:butt;stroke-linejoin:miter;stroke-opacity:1;marker-start:url(#RoundedArrow-6);marker-end:url(#RoundedArrow-6)"
       d="M 112.52599,129.9067 88.092564,126.90665"
       id="path1073-6"
       sodipodi:nodetypes="cc" />
    <path
       style="fill:none;stroke:#000000;stroke-width:0.264583px;stroke-linecap:butt;stroke-linejoin:miter;stroke-opacity:1;marker-start:url(#RoundedArrow-6-3);marker-end:url(#RoundedArrow-6-3)"
       d="M 83.20588,128.80664 70.989168,139.80662"
       id="path1073-6-8"
       sodipodi:nodetypes="cc" />
    <text
       xml:space="preserve"
       style="font-size:5.64444px;line-height:1.25;font-family:sans-serif;stroke-width:0.264583"
       x="70.479294"
       y="121.59507"
       id="text1666"><tspan
         sodipodi:role="line"
         id="tspan1664"
         style="stroke-width:0.264583"
         x="70.479294"
         y="121.59507">pixel size</tspan></text>
    <path
       style="fill:none;stroke:#000000;stroke-width:0.264583px;stroke-linecap:butt;stroke-linejoin:miter;stroke-opacity:1;marker-end:url(#Arrow4)"
       d="m 76.364519,123.46663 c -1.954672,4.25999 0.977337,9.62 0.977337,9.62"
       id="path1817" />
    <path
       style="fill:none;stroke:#000000;stroke-width:0.264583px;stroke-linecap:butt;stroke-linejoin:miter;stroke-opacity:1;marker-end:url(#Arrow4-4)"
       d="m 97.760244,120.5183 c 4.663086,0.47317 4.992376,6.68838 4.992376,6.68838"
       id="path1817-8"
       sodipodi:nodetypes="cc" />
  </g>
</svg>
