<?xml version="1.0" encoding="UTF-8" standalone="no"?>
<!-- Created with Inkscape (http://www.inkscape.org/) -->

<svg
   width="201.07817mm"
   height="46.154518mm"
   viewBox="0 0 201.07817 46.154518"
   version="1.1"
   id="svg5"
   inkscape:version="1.2-alpha1 (b6a15bb, 2022-02-23)"
   sodipodi:docname="all_icons-computing.svg"
   xmlns:inkscape="http://www.inkscape.org/namespaces/inkscape"
   xmlns:sodipodi="http://sodipodi.sourceforge.net/DTD/sodipodi-0.dtd"
   xmlns="http://www.w3.org/2000/svg"
   xmlns:svg="http://www.w3.org/2000/svg">
  <sodipodi:namedview
     id="namedview7"
     pagecolor="#ffffff"
     bordercolor="#666666"
     borderopacity="1.0"
     inkscape:pageshadow="2"
     inkscape:pageopacity="0.0"
     inkscape:pagecheckerboard="0"
     inkscape:deskcolor="#d1d1d1"
     inkscape:document-units="mm"
     showgrid="false"
     inkscape:zoom="1.2250489"
     inkscape:cx="336.72125"
     inkscape:cy="102.85304"
     inkscape:window-width="1728"
     inkscape:window-height="1052"
     inkscape:window-x="0"
     inkscape:window-y="65"
     inkscape:window-maximized="0"
     inkscape:current-layer="layer1" />
  <defs
     id="defs2" />
  <g
     inkscape:label="Layer 1"
     inkscape:groupmode="layer"
     id="layer1"
     transform="translate(-7.3743226,-13.168418)">
    <g
       id="g21"
       transform="matrix(0.14476093,0,0,0.14476093,44.206746,12.99595)">
      <path
         d="m 34.922,73.406 v -0.0039 l 3.3203,-3.2695 c 0,-0.0039 0.0039,-0.0039 0.0039,-0.0039 l 0.0039,-0.0039 5.9258,-5.8359 c 1.1641,-1.1484 1.8125,-2.6797 1.8242,-4.3164 0.01172,-1.6367 -0.61328,-3.1797 -1.7617,-4.3438 -1.1602,-1.1797 -2.707,-1.8242 -4.3633,-1.8242 -1.6172,0 -3.1445,0.625 -4.2969,1.7617 l -33.246,32.754 c -2.4062,2.3711 -2.4336,6.2539 -0.0625,8.6562 1.1602,1.1797 2.7109,1.8242 4.3633,1.8242 1.6172,0 3.1445,-0.625 4.2969,-1.7617 l 23.992,-23.637 c -0.0039,0.0078 0,0.0039 0,0.0039 z m -3.8867,-7.7422 2.9805,3.0234 -0.47656,0.46875 -2.9805,-3.0234 z m 7.3516,-7.2461 c 0.39844,-0.39453 0.92969,-0.60938 1.4883,-0.60938 0.57422,0 1.1094,0.22656 1.5117,0.63281 0.39844,0.40234 0.61328,0.9375 0.60938,1.5039 -0.0039,0.56641 -0.23047,1.0977 -0.63281,1.4961 l -4.5039,4.4375 -2.9805,-3.0234 z m -30.27,35.777 c -0.80859,0.79297 -2.2031,0.78516 -3,-0.02344 -0.82031,-0.83203 -0.8125,-2.1797 0.023437,-3 l 22.566,-22.234 2.9805,3.0234 z"
         id="path9" />
      <path
         d="m 17.18,49.031 -1.2891,4.1914 c -0.22266,0.72656 -0.01563,1.5195 0.53906,2.043 0.55469,0.52344 1.3555,0.6875 2.0703,0.42188 l 4.1133,-1.5273 3.5898,2.5195 c 0.34375,0.24219 0.74609,0.36328 1.1484,0.36328 0.32813,0 0.66016,-0.08203 0.95703,-0.24609 0.66797,-0.36328 1.0703,-1.0781 1.0391,-1.8398 l -0.17969,-4.3828 3.5078,-2.6328 c 0.60938,-0.45703 0.90625,-1.2188 0.76562,-1.9688 -0.14063,-0.75 -0.69531,-1.3516 -1.4258,-1.5586 l -4.2227,-1.1797 -1.4219,-4.1484 c -0.24609,-0.71875 -0.88281,-1.2383 -1.6367,-1.3359 -0.75389,-0.0976 -1.5,0.24219 -1.9219,0.875 l -2.4297,3.6523 -4.3867,0.07031 c -0.76172,0.01172 -1.4492,0.45312 -1.7734,1.1445 -0.32422,0.6875 -0.23438,1.5 0.23828,2.0977 z m 4.3125,-2.7656 c 0.65625,-0.01172 1.2695,-0.34375 1.6328,-0.89062 l 0.76562,-1.1523 0.44922,1.3086 c 0.21484,0.62109 0.71875,1.1016 1.3555,1.2773 l 1.3359,0.37109 -1.1055,0.83203 c -0.52734,0.39453 -0.82422,1.0234 -0.79688,1.6836 l 0.05859,1.3867 -1.1328,-0.79688 c -0.34375,-0.23828 -0.74219,-0.36328 -1.1484,-0.36328 -0.23438,0 -0.47266,0.03906 -0.69531,0.125 l -1.2969,0.48047 0.40625,-1.3242 C 21.512,48.574 21.387,47.89041 20.97684,47.37481 l -0.85937,-1.0859 z"
         id="path11" />
      <path
         d="m 63.387,56.309 -3.125,-0.875 -1.0547,-3.0703 c -0.24609,-0.71875 -0.88281,-1.2383 -1.6367,-1.3359 -0.75781,-0.09375 -1.5,0.24219 -1.9219,0.875 l -1.7969,2.7031 -3.2461,0.05078 c -0.76172,0.01172 -1.4492,0.45312 -1.7734,1.1445 -0.32422,0.6875 -0.23438,1.5 0.23828,2.0977 l 2.0156,2.5469 -0.95313,3.1055 c -0.22266,0.72656 -0.01562,1.5195 0.53906,2.0391 0.55469,0.52344 1.3555,0.68359 2.0703,0.42188 l 3.043,-1.1328 2.6523,1.8672 c 0.34375,0.24219 0.74609,0.36328 1.1484,0.36328 0.32812,0 0.65625,-0.08203 0.95703,-0.24219 0.66797,-0.36328 1.0703,-1.0781 1.0391,-1.8398 l -0.13281,-3.2422 2.5938,-1.9492 c 0.60938,-0.45703 0.90625,-1.2227 0.76562,-1.9688 -0.13281,-0.75 -0.6875,-1.3516 -1.4219,-1.5586 z m -5.1758,2.9062 c -0.52734,0.39453 -0.82422,1.0234 -0.79688,1.6836 l 0.01172,0.24609 -0.19922,-0.14062 c -0.34375,-0.23828 -0.74219,-0.36328 -1.1484,-0.36328 -0.23438,0 -0.47266,0.03906 -0.69531,0.125 l -0.23047,0.08594 0.07031,-0.23437 c 0.19141,-0.62891 0.0625,-1.3125 -0.34375,-1.8281 l -0.15234,-0.19141 0.24609,-0.0039 c 0.65625,-0.01172 1.2695,-0.34375 1.6328,-0.89453 l 0.13672,-0.20312 0.07812,0.23047 c 0.21484,0.62109 0.71875,1.1016 1.3516,1.2773 l 0.23438,0.06641 z"
         id="path13" />
      <path
         d="M 49.684,80.008 45.3949,78.8088 43.9496,74.594 c -0.24609,-0.71875 -0.88281,-1.2383 -1.6367,-1.3359 -0.75391,-0.09766 -1.5,0.24219 -1.9219,0.875 l -2.4688,3.7109 -4.4531,0.07031 c -0.76172,0.01172 -1.4492,0.45313 -1.7773,1.1445 -0.32422,0.6875 -0.23438,1.5 0.23828,2.0977 l 2.7656,3.4922 -1.3086,4.2578 c -0.22266,0.72656 -0.01563,1.5195 0.53906,2.043 0.55469,0.52344 1.3555,0.6875 2.0703,0.42188 l 4.1758,-1.5508 3.6445,2.5625 c 0.34375,0.24219 0.74609,0.36328 1.1484,0.36328 0.32812,0 0.66016,-0.08203 0.96094,-0.24609 0.66797,-0.36328 1.0703,-1.0781 1.0391,-1.8398 l -0.18359,-4.4492 3.5625,-2.6758 c 0.60938,-0.45703 0.90625,-1.2227 0.76562,-1.9688 -0.14062,-0.75 -0.69531,-1.3555 -1.4258,-1.5586 z m -6.1445,3.6328 c -0.52734,0.39453 -0.82422,1.0234 -0.79687,1.6836 l 0.05859,1.4531 -1.1875,-0.83594 c -0.33984,-0.23828 -0.74219,-0.36328 -1.1484,-0.36328 -0.23438,0 -0.46875,0.03906 -0.69531,0.125 l -1.3633,0.50781 0.42578,-1.3906 c 0.19141,-0.62891 0.06641,-1.3125 -0.34375,-1.8281 l -0.90234,-1.1406 1.4531,-0.02344 c 0.65625,-0.01172 1.2695,-0.34375 1.6328,-0.89453 l 0.80469,-1.2109 0.47266,1.375 c 0.21484,0.62109 0.71875,1.1016 1.3555,1.2773 l 1.3984,0.39062 z"
         id="path15" />
      <path
         d="M 97.492,1.1914 H 36.133 c -1.1055,0 -2,0.89453 -2,2 v 41.574 c 0,1.1055 0.89453,2 2,2 h 61.359 c 1.1055,0 2,-0.89453 2,-2 V 3.1914 c 0,-1.1016 -0.89453,-2 -2,-2 z m -2,4 v 19.91 L 81.84,12.8944 c -0.03516,-0.03125 -0.07813,-0.05469 -0.11719,-0.08594 -0.05469,-0.04297 -0.10938,-0.08594 -0.16797,-0.12109 -0.05469,-0.03516 -0.11328,-0.0625 -0.17188,-0.08984 -0.05859,-0.02734 -0.11719,-0.05859 -0.17969,-0.08203 -0.0625,-0.02344 -0.125,-0.03906 -0.1875,-0.05469 -0.0625,-0.01563 -0.12109,-0.03516 -0.18359,-0.04297 -0.06641,-0.01172 -0.12891,-0.01563 -0.19531,-0.01953 -0.0625,-0.0039 -0.125,-0.0078 -0.1875,-0.0078 -0.06641,0 -0.12891,0.01172 -0.19531,0.01953 -0.0625,0.0078 -0.12109,0.01563 -0.18359,0.02734 -0.06641,0.01563 -0.12891,0.03516 -0.19141,0.05859 -0.05859,0.01953 -0.11719,0.03906 -0.17578,0.0625 -0.0625,0.02734 -0.12109,0.0625 -0.18359,0.09766 -0.05469,0.03125 -0.10547,0.05859 -0.16016,0.09375 -0.05859,0.03906 -0.11328,0.08984 -0.16406,0.13672 -0.03516,0.03125 -0.07422,0.05469 -0.10547,0.08594 l -12.367,12.367 -9.8867,-8.6602 c -0.03906,-0.03516 -0.08594,-0.05859 -0.125,-0.08984 -0.05469,-0.04297 -0.10938,-0.08594 -0.16797,-0.12109 -0.05859,-0.03516 -0.12109,-0.0625 -0.18359,-0.08984 -0.05469,-0.02734 -0.10938,-0.05469 -0.16406,-0.07422 -0.06641,-0.02344 -0.13672,-0.03906 -0.20703,-0.05859 -0.05469,-0.01172 -0.10938,-0.02734 -0.16406,-0.03516 -0.07031,-0.01172 -0.14062,-0.01563 -0.21094,-0.01563 -0.05859,-0.0039 -0.11328,-0.0078 -0.17188,-0.0039 -0.07031,0.0039 -0.13672,0.01563 -0.20703,0.02344 -0.05859,0.0078 -0.11719,0.01563 -0.17578,0.02734 -0.06641,0.01562 -0.13672,0.03906 -0.20312,0.0625 -0.05469,0.01953 -0.10938,0.03516 -0.16406,0.0625 -0.06641,0.03125 -0.13281,0.07031 -0.19531,0.10937 -0.03906,0.02344 -0.08203,0.03906 -0.12109,0.06641 l -16.242,11.387 v -22.738 z m -57.359,27.625 17.25,-12.094 8.5078,7.4531 -14.594,14.594 h -11.164 z m 16.82,9.9531 25.629,-25.629 14.91,13.332 v 12.297 z"
         id="path17" />
      <path
         d="m 44.945,17.387 c 3.25,0 5.8984,-2.6445 5.8984,-5.8984 0,-3.25 -2.6445,-5.8945 -5.8984,-5.8945 -3.2539,0 -5.8984,2.6445 -5.8984,5.8945 0,3.25 2.6445,5.8984 5.8984,5.8984 z m 0,-7.7969 c 1.0469,0 1.8984,0.85156 1.8984,1.8945 0,1.0469 -0.85156,1.8984 -1.8984,1.8984 -1.0469,0 -1.8984,-0.85156 -1.8984,-1.8984 0,-1.043 0.85156,-1.8945 1.8984,-1.8945 z"
         id="path19" />
    </g>
    <path
       d="m 114.14982,21.478492 -2.73627,-4.748302 c -0.13006,-0.23185 -0.37662,-0.376612 -0.65143,-0.376612 -0.27481,0 -0.52137,0.144762 -0.65141,0.376612 l -1.14339,1.968457 h -1.47641 c -0.0724,-1.867127 -1.60714,-3.358308 -3.48903,-3.358308 -1.92547,0 -3.50307,1.563563 -3.50307,3.503071 0,1.881891 1.49118,3.416647 3.35831,3.489028 v 2.041417 c 0,0.419575 0.33306,0.752641 0.75263,0.752641 h 4.90711 c 0.41958,0 0.75264,-0.333066 0.75264,-0.752641 l 4.1e-4,-1.766518 h 3.21355 c 0.27481,0 0.52137,-0.144762 0.65142,-0.376607 0.14476,-0.231288 0.14476,-0.520808 0.0147,-0.752078 z m -10.29279,-2.026654 v 2.099034 c -1.43291,-0.07238 -2.59093,-1.259302 -2.59093,-2.721652 0,-1.505223 1.21576,-2.73569 2.72165,-2.73569 1.46237,0 2.64926,1.14338 2.72164,2.590932 h -2.09961 c -0.41957,0.01416 -0.75264,0.347194 -0.75264,0.767347 z m 5.66044,4.907106 -4.89307,0.01469 -0.0147,-4.907106 3.90855,-0.01469 -1.15809,2.011889 c -0.13006,0.23185 -0.13006,0.521369 0,0.75264 0.13007,0.23185 0.37661,0.376612 0.65142,0.376612 h 1.49119 v 1.765936 z m -1.49119,-2.50451 2.72165,-4.719496 2.7357,4.704731 z"
       id="path36"
       style="stroke-width:0.144761" />
    <g
       id="g345"
       transform="matrix(0.14476093,0,0,0.14476093,25.564518,12.656068)">
      <path
         d="M 46.875,67.188 H 50 v 3.125 h -3.125 z"
         id="path319" />
      <path
         d="m 73.438,89.062 h 3.125 v 3.125 h -3.125 z"
         id="path321" />
      <path
         d="m 70.312,67.188 h 3.125 v 3.125 h -3.125 z"
         id="path323" />
      <path
         d="m 87.5,76.562 h 3.125 v 3.125 H 87.5 Z"
         id="path325" />
      <path
         d="m 62.5,56.25 h 3.125 v 3.125 H 62.5 Z"
         id="path327" />
      <path
         d="M 94.941,54.754 66.191,27.922 c 0.58594,-1.2695 0.57812,-2.7305 -0.01953,-3.9883 l 13.453,-13.453 c 0.44531,-0.44922 0.57812,-1.1211 0.33594,-1.7031 -0.24219,-0.58594 -0.8125,-0.96484 -1.4414,-0.96484 h -8.8398 c -0.41406,0 -0.8125,0.16406 -1.1055,0.45703 l -9.0273,9.0273 c -1.793,-0.85547 -3.9297,-0.48828 -5.3359,0.91797 l -4.418,4.418 c -1.4062,1.4062 -1.7734,3.543 -0.91797,5.3359 l -9.0273,9.0273 c -0.29297,0.29297 -0.45703,0.69141 -0.45703,1.1055 v 8.8398 c 0,0.62891 0.37891,1.1992 0.96484,1.4414 0.58203,0.24219 1.2539,0.10938 1.7031,-0.33594 l 13.445,-13.445 v -0.0039 c 1.2656,0.60156 2.7305,0.60938 4,0.01953 l 26.828,28.746 c 1.1211,1.2109 2.6953,1.9102 4.3477,1.9336 h 0.10937 c 2.5,-0.0039 4.7461,-1.5312 5.6641,-3.8594 0.91406,-2.3281 0.31641,-4.9805 -1.5117,-6.6875 z M 70.328,10.938 h 4.418 l -10.59,10.59 -2.2109,-2.207 z m -27.812,27.812 8.3828,-8.3828 2.207,2.2109 -10.59,10.59 z m 13.906,-7.2773 -4.418,-4.418 v -0.0039 c -0.61328,-0.60938 -0.61328,-1.5977 0,-2.207 l 4.418,-4.418 v -0.0039 c 0.60938,-0.60938 1.5977,-0.60938 2.2109,0 l 4.418,4.4219 c 0.60938,0.60938 0.60938,1.5977 0,2.2109 l -4.418,4.418 c -0.29687,0.29297 -0.69141,0.45703 -1.1055,0.45703 -0.41406,0 -0.8125,-0.16406 -1.1055,-0.45703 z m 36.461,29.832 c -0.57031,0.56641 -1.3477,0.87891 -2.1484,0.86719 -0.80469,-0.01563 -1.5703,-0.35547 -2.1172,-0.94141 l -26.711,-28.617 2.2852,-2.2852 28.617,26.707 c 0.58984,0.55078 0.92969,1.3164 0.94141,2.1172 0.01563,0.80469 -0.30078,1.582 -0.86719,2.1484 z"
         id="path329" />
      <path
         d="m 4.6875,96.875 h 37.5 c 0.41406,0 0.8125,-0.16406 1.1055,-0.45703 0.293,-0.29297 0.45703,-0.69141 0.45703,-1.1055 v -35.938 h 5.6016 l 10.023,10.023 v 4.0391 h -4.6875 c -0.41406,0 -0.8125,0.16406 -1.1055,0.45703 l -4.6875,4.6875 c -0.29297,0.29297 -0.45703,0.69141 -0.45703,1.1055 v 4.6875 h 3.125 V 80.335 l 3.7734,-3.7734 h 4.957 l 6.25,6.25 -3.582,3.582 h -0.0039 c -0.29297,0.29297 -0.45703,0.69141 -0.45703,1.1055 v 3.125 h 3.125 v -2.4766 l 3.7734,-3.7734 h 8.082 l 4.2305,4.2305 h -0.0039 c 0.14844,0.14844 0.32812,0.26562 0.52344,0.34375 l 6.832,2.7344 v 5.1914 h 3.125 v -6.25 c 0,-0.64062 -0.39062,-1.2148 -0.98047,-1.4492 l -7.5156,-3.0078 -4.4609,-4.4609 c -0.29297,-0.29297 -0.69141,-0.45703 -1.1055,-0.45703 h -8.7266 l -6.8984,-6.8984 v -5.6016 c 0,-0.41406 -0.16406,-0.8125 -0.45703,-1.1055 l -10.938,-10.938 c -0.29297,-0.29297 -0.69141,-0.45703 -1.1055,-0.45703 h -6.25 v -4.6875 h -3.125 v 35.938 h -34.375 v -75 h 34.375 v 17.188 h 3.125 v -18.75 c 0,-0.41406 -0.16406,-0.8125 -0.45703,-1.1055 -0.29297,-0.293 -0.69141,-0.45703 -1.1055,-0.45703 h -37.5 c -0.86328,0 -1.5625,0.69922 -1.5625,1.5625 v 84.375 c 0,0.41406 0.16406,0.8125 0.45703,1.1055 0.29297,0.293 0.69141,0.45703 1.1055,0.45703 z m 35.938,-6.25 V 93.75 H 6.2505 v -3.125 z"
         id="path331" />
      <path
         d="M 35.938,37.5 V 18.75 c 0,-0.41406 -0.16406,-0.8125 -0.45703,-1.1055 -0.29297,-0.293 -0.69141,-0.45703 -1.1055,-0.45703 h -21.875 c -0.86328,0 -1.5625,0.69922 -1.5625,1.5625 v 18.75 c 0,0.41406 0.16406,0.8125 0.45703,1.1055 0.29297,0.293 0.69141,0.45703 1.1055,0.45703 h 21.875 c 0.41406,0 0.8125,-0.16406 1.1055,-0.45703 0.293,-0.29297 0.45703,-0.69141 0.45703,-1.1055 z m -3.125,-1.5625 h -18.75 v -15.625 h 18.75 z"
         id="path333" />
      <path
         d="m 31.25,42.188 h 3.125 v 3.125 H 31.25 Z"
         id="path335" />
      <path
         d="m 25,42.188 h 3.125 v 3.125 H 25 Z"
         id="path337" />
      <path
         d="m 18.75,42.188 h 3.125 v 3.125 H 18.75 Z"
         id="path339" />
      <path
         d="m 32.277,59.266 -2.2891,2.2891 v -0.0039 c -3.8867,-2.9023 -9.2148,-2.9023 -13.102,0 l -2.2891,-2.2852 -2.207,2.207 2.2891,2.2891 H 14.675 c -2.9023,3.8867 -2.9023,9.2148 0,13.102 l -2.2852,2.2891 2.2109,2.2109 2.2891,-2.2891 h -0.0039 c 3.8867,2.9023 9.2148,2.9023 13.102,0 l 2.2891,2.2891 2.2109,-2.2109 -2.2891,-2.2891 c 2.9023,-3.8867 2.9023,-9.2148 0,-13.102 l 2.2891,-2.2891 z m -8.8398,3.2344 c 1.5312,-0.0039 3.0312,0.44531 4.3086,1.293 l -4.3086,4.3086 -4.3086,-4.3086 c 1.2773,-0.84766 2.7773,-1.2969 4.3086,-1.293 z m -7.8125,7.8125 c -0.0039,-1.5312 0.44531,-3.0312 1.293,-4.3086 l 4.3086,4.3086 -4.3086,4.3086 c -0.84766,-1.2773 -1.2969,-2.7773 -1.293,-4.3086 z m 7.8125,7.8125 c -1.5312,0.0039 -3.0312,-0.44531 -4.3086,-1.293 l 4.3086,-4.3086 4.3086,4.3086 c -1.2773,0.84766 -2.7773,1.2969 -4.3086,1.293 z m 7.8125,-7.8125 c 0.0039,1.5312 -0.44531,3.0312 -1.293,4.3086 l -4.3086,-4.3086 4.3086,-4.3086 c 0.84766,1.2773 1.2969,2.7773 1.293,4.3086 z"
         id="path341" />
      <path
         d="m 12.5,48.438 h 21.875 v 3.125 H 12.5 Z"
         id="path343" />
    </g>
    <g
       id="g409"
       transform="matrix(0.14476093,0,0,0.14476093,118.77646,12.995904)">
      <path
         d="M 97.621,87.625 H 6.023 c 4.6953,-2.75 9.543,-5.3828 14.633,-8.1289 24.652,-13.309 52.598,-28.395 73.715,-66.258 0.26953,-0.48047 0.09766,-1.0938 -0.38672,-1.3594 -0.48047,-0.26953 -1.0898,-0.09766 -1.3594,0.38672 -20.832,37.352 -48.504,52.289 -72.918,65.469 -5.6992,3.0742 -11.098,6.0078 -16.328,9.1328 v -75.492 c 0,-0.55078 -0.44922,-1 -1,-1 -0.55078,0 -1,0.44922 -1,1 v 77.25 c 0,0.02734 0.011719,0.04297 0.015625,0.07031 0.00391,0.06641 0.023438,0.12891 0.039063,0.19531 0.019531,0.06641 0.039062,0.12891 0.066406,0.1875 0.011719,0.02344 0.011719,0.04687 0.023438,0.06641 0.015624,0.02734 0.042968,0.03516 0.058593,0.05469 0.070313,0.09766 0.15234,0.17578 0.25391,0.23828 0.035156,0.02344 0.0625,0.05078 0.10156,0.06641 0.13281,0.06641 0.28125,0.11328 0.44141,0.11328 h 95.242 c 0.55078,0 1,-0.44922 1,-1 -0.0039,-0.54297 -0.44531,-0.99219 -1,-0.99219 z"
         id="path367" />
      <path
         d="m 41.797,41.223 c 1.6914,0 3.0625,-1.375 3.0625,-3.0625 0,-1.6875 -1.375,-3.0625 -3.0625,-3.0625 -1.6914,0 -3.0625,1.375 -3.0625,3.0625 -0.0039,1.6875 1.3711,3.0625 3.0625,3.0625 z m 0,-4.1289 c 0.58594,0 1.0625,0.47656 1.0625,1.0625 0,0.58594 -0.47656,1.0625 -1.0625,1.0625 -0.58594,0 -1.0625,-0.47656 -1.0625,-1.0625 -0.0039,-0.58594 0.47266,-1.0625 1.0625,-1.0625 z"
         id="path369" />
      <path
         d="m 52.711,39.16 c 1.6914,0 3.0625,-1.375 3.0625,-3.0625 0,-1.6914 -1.375,-3.0625 -3.0625,-3.0625 -1.6875,0 -3.0625,1.375 -3.0625,3.0625 0,1.6875 1.375,3.0625 3.0625,3.0625 z m 0,-4.1289 c 0.58984,0 1.0625,0.47656 1.0625,1.0625 0,0.58594 -0.47656,1.0625 -1.0625,1.0625 -0.58594,0 -1.0625,-0.47656 -1.0625,-1.0625 0,-0.58594 0.47656,-1.0625 1.0625,-1.0625 z"
         id="path371" />
      <path
         d="m 45.523,46.223 c 0,1.6914 1.375,3.0625 3.0625,3.0625 1.6914,0 3.0625,-1.375 3.0625,-3.0625 0,-1.6875 -1.375,-3.0625 -3.0625,-3.0625 -1.6914,0 -3.0625,1.375 -3.0625,3.0625 z m 4.125,0 c 0,0.58594 -0.47656,1.0625 -1.0625,1.0625 -0.58594,0 -1.0625,-0.47656 -1.0625,-1.0625 0,-0.58594 0.47656,-1.0625 1.0625,-1.0625 0.58594,0 1.0625,0.47656 1.0625,1.0625 z"
         id="path373" />
      <path
         d="m 47.203,30.855 c 1.6914,0 3.0625,-1.375 3.0625,-3.0625 0,-1.6914 -1.375,-3.0625 -3.0625,-3.0625 -1.6875,0 -3.0625,1.375 -3.0625,3.0625 0,1.6875 1.3711,3.0625 3.0625,3.0625 z m 0,-4.1289 c 0.58594,0 1.0625,0.47656 1.0625,1.0625 0,0.58594 -0.47656,1.0625 -1.0625,1.0625 -0.58594,0 -1.0625,-0.47656 -1.0625,-1.0625 -0.0039,-0.58203 0.47656,-1.0625 1.0625,-1.0625 z"
         id="path375" />
      <path
         d="m 62.543,33.871 c 1.6914,0 3.0625,-1.375 3.0625,-3.0625 0,-1.6914 -1.375,-3.0625 -3.0625,-3.0625 -1.6875,0 -3.0625,1.375 -3.0625,3.0625 0,1.6875 1.375,3.0625 3.0625,3.0625 z m 0,-4.1289 c 0.58984,0 1.0625,0.47656 1.0625,1.0625 0,0.58594 -0.47656,1.0625 -1.0625,1.0625 -0.58594,0 -1.0625,-0.47656 -1.0625,-1.0625 0,-0.58203 0.47656,-1.0625 1.0625,-1.0625 z"
         id="path377" />
      <path
         d="m 36.375,33.875 c 1.6914,0 3.0625,-1.375 3.0625,-3.0625 0,-1.6914 -1.375,-3.0625 -3.0625,-3.0625 -1.6875,0 -3.0625,1.375 -3.0625,3.0625 0,1.6836 1.375,3.0625 3.0625,3.0625 z m 0,-4.1289 c 0.58594,0 1.0625,0.47656 1.0625,1.0625 0,0.58594 -0.47656,1.0625 -1.0625,1.0625 -0.58594,0 -1.0625,-0.47656 -1.0625,-1.0625 0,-0.58594 0.48047,-1.0625 1.0625,-1.0625 z"
         id="path379" />
      <path
         d="m 36.375,50.473 c 1.6914,0 3.0625,-1.375 3.0625,-3.0625 0,-1.6875 -1.375,-3.0625 -3.0625,-3.0625 -1.6875,0 -3.0625,1.375 -3.0625,3.0625 0,1.6875 1.375,3.0625 3.0625,3.0625 z m 0,-4.1289 c 0.58594,0 1.0625,0.47656 1.0625,1.0625 0,0.58594 -0.47656,1.0625 -1.0625,1.0625 -0.58594,0 -1.0625,-0.47656 -1.0625,-1.0625 0,-0.58594 0.48047,-1.0625 1.0625,-1.0625 z"
         id="path381" />
      <path
         d="m 27.875,42.039 c 1.6914,0 3.0625,-1.375 3.0625,-3.0625 0,-1.6914 -1.375,-3.0625 -3.0625,-3.0625 -1.6875,0 -3.0625,1.375 -3.0625,3.0625 0,1.6875 1.375,3.0625 3.0625,3.0625 z m 0,-4.1289 c 0.58594,0 1.0625,0.47656 1.0625,1.0625 0,0.58594 -0.47656,1.0625 -1.0625,1.0625 -0.58594,0 -1.0625,-0.47656 -1.0625,-1.0625 0,-0.58594 0.48047,-1.0625 1.0625,-1.0625 z"
         id="path383" />
      <path
         d="m 37.441,55.645 c 0,1.6914 1.375,3.0625 3.0625,3.0625 1.6914,0 3.0625,-1.375 3.0625,-3.0625 0,-1.6914 -1.375,-3.0664 -3.0625,-3.0664 -1.6875,0 -3.0625,1.375 -3.0625,3.0664 z m 4.125,0 c 0,0.58594 -0.47656,1.0625 -1.0625,1.0625 -0.58594,0 -1.0625,-0.47656 -1.0625,-1.0625 0,-0.58984 0.47656,-1.0664 1.0625,-1.0664 0.58594,0 1.0625,0.47656 1.0625,1.0664 z"
         id="path385" />
      <path
         d="m 26.867,56.641 c 1.6914,0 3.0625,-1.375 3.0625,-3.0625 0,-1.6914 -1.375,-3.0664 -3.0625,-3.0664 -1.6875,0 -3.0625,1.375 -3.0625,3.0664 0,1.6914 1.375,3.0625 3.0625,3.0625 z m 0,-4.1289 c 0.58594,0 1.0625,0.47656 1.0625,1.0664 0,0.58594 -0.47656,1.0625 -1.0625,1.0625 -0.58594,0 -1.0625,-0.47656 -1.0625,-1.0625 0,-0.58984 0.47656,-1.0664 1.0625,-1.0664 z"
         id="path387" />
      <path
         d="m 18.609,49.289 c 1.6914,0 3.0625,-1.375 3.0625,-3.0625 0,-1.6914 -1.375,-3.0664 -3.0625,-3.0664 -1.6875,0 -3.0625,1.375 -3.0625,3.0664 -0.0039,1.6875 1.3711,3.0625 3.0625,3.0625 z m 0,-4.1289 c 0.58594,0 1.0625,0.47656 1.0625,1.0664 0,0.58594 -0.47656,1.0625 -1.0625,1.0625 -0.58594,0 -1.0625,-0.47656 -1.0625,-1.0625 -0.0039,-0.58984 0.47656,-1.0664 1.0625,-1.0664 z"
         id="path389" />
      <path
         d="m 60.48,45.16 c 1.6914,0 3.0625,-1.375 3.0625,-3.0625 0,-1.6914 -1.375,-3.0625 -3.0625,-3.0625 -1.6875,0 -3.0625,1.375 -3.0625,3.0625 0,1.6875 1.375,3.0625 3.0625,3.0625 z m 0,-4.1289 c 0.58984,0 1.0625,0.47656 1.0625,1.0625 0,0.58594 -0.47656,1.0625 -1.0625,1.0625 -0.58594,0 -1.0625,-0.47656 -1.0625,-1.0625 0,-0.58594 0.47656,-1.0625 1.0625,-1.0625 z"
         id="path391" />
      <path
         d="m 26.867,68.055 c 1.6914,0 3.0625,-1.375 3.0625,-3.0625 0,-1.6914 -1.375,-3.0664 -3.0625,-3.0664 -1.6875,0 -3.0625,1.375 -3.0625,3.0664 0,1.6914 1.375,3.0625 3.0625,3.0625 z m 0,-4.1289 c 0.58594,0 1.0625,0.47656 1.0625,1.0664 0,0.58594 -0.47656,1.0625 -1.0625,1.0625 -0.58594,0 -1.0625,-0.47656 -1.0625,-1.0625 0,-0.58984 0.47656,-1.0664 1.0625,-1.0664 z"
         id="path393" />
      <path
         d="m 76.141,72.059 c 0.19531,0.19531 0.45312,0.29297 0.70703,0.29297 0.25781,0 0.51172,-0.09766 0.70703,-0.29297 l 3.1836,-3.1836 c 0.39062,-0.39062 0.39062,-1.0234 0,-1.4141 l -3.1836,-3.1836 c -0.39063,-0.39062 -1.0234,-0.39062 -1.4141,0 l -3.1836,3.1836 c -0.39062,0.39062 -0.39062,1.0234 0,1.4141 z m 0.71094,-5.6562 1.7695,1.7695 -1.7695,1.7695 -1.7695,-1.7695 z"
         id="path395" />
      <path
         d="m 75.004,61.887 c 0.25781,0 0.51172,-0.09766 0.70703,-0.29297 l 3.1836,-3.1797 c 0.1875,-0.1875 0.29297,-0.44141 0.29297,-0.70703 0,-0.26562 -0.10547,-0.51953 -0.29297,-0.70703 l -3.1836,-3.1836 c -0.375,-0.375 -1.0391,-0.375 -1.4141,0 l -3.1836,3.1836 c -0.1875,0.1875 -0.29297,0.44141 -0.29297,0.70703 0,0.26562 0.10547,0.51953 0.29297,0.70703 l 3.1836,3.1797 c 0.19141,0.19531 0.44922,0.29297 0.70703,0.29297 z m 0,-5.9492 1.7695,1.7695 -1.7695,1.7656 -1.7695,-1.7656 z"
         id="path397" />
      <path
         d="m 66.438,66.348 -3.1836,-3.1836 c -0.39062,-0.39062 -1.0234,-0.39062 -1.4141,0 l -3.1836,3.1836 c -0.39062,0.39062 -0.39062,1.0234 0,1.4141 l 3.1836,3.1836 c 0.19531,0.19531 0.45312,0.29297 0.70703,0.29297 0.25781,0 0.51172,-0.09766 0.70703,-0.29297 l 3.1836,-3.1836 c 0.38672,-0.39062 0.38672,-1.0234 0,-1.4141 z m -3.8906,2.4727 -1.7695,-1.7695 1.7695,-1.7695 1.7695,1.7695 z"
         id="path399" />
      <path
         d="m 67.086,79.574 c 0.19531,0.19531 0.45312,0.29297 0.70703,0.29297 0.25781,0 0.51172,-0.09766 0.70703,-0.29297 l 3.1836,-3.1836 c 0.39062,-0.39062 0.39062,-1.0234 0,-1.4141 l -3.1836,-3.1836 c -0.39062,-0.39062 -1.0234,-0.39062 -1.4141,0 l -3.1836,3.1836 c -0.39062,0.39063 -0.39062,1.0234 0,1.4141 z m 0.70703,-5.6562 1.7695,1.7695 -1.7695,1.7695 -1.7695,-1.7695 z"
         id="path401" />
      <path
         d="m 52.008,70.648 -3.1836,3.1797 c -0.1875,0.1875 -0.29297,0.44141 -0.29297,0.70703 0,0.26562 0.10547,0.51953 0.29297,0.70703 l 3.1836,3.1836 c 0.1875,0.1875 0.44141,0.29297 0.70703,0.29297 0.26562,0 0.51953,-0.10547 0.70703,-0.29297 l 3.1836,-3.1836 c 0.1875,-0.1875 0.29297,-0.44141 0.29297,-0.70703 0,-0.26562 -0.10547,-0.51953 -0.29297,-0.70703 l -3.1836,-3.1797 c -0.39062,-0.39063 -1.0273,-0.39063 -1.4141,0 z m 0.70313,5.6562 -1.7695,-1.7695 1.7695,-1.7656 1.7695,1.7656 z"
         id="path403" />
      <path
         d="m 86.797,61.598 c 0.19531,0.19531 0.45312,0.29297 0.70703,0.29297 0.25781,0 0.51172,-0.09766 0.70703,-0.29297 l 3.1836,-3.1836 c 0.39062,-0.39062 0.39062,-1.0234 0,-1.4141 l -3.1836,-3.1836 c -0.39063,-0.39062 -1.0234,-0.39062 -1.4141,0 l -3.1797,3.1836 c -0.39063,0.39062 -0.39063,1.0234 0,1.4141 z m 0.70703,-5.6562 1.7695,1.7695 -1.7695,1.7695 -1.7695,-1.7695 z"
         id="path405" />
      <path
         d="m 83.211,50.406 c 0.25781,0 0.51172,-0.09766 0.70703,-0.29297 l 3.1836,-3.1836 c 0.39063,-0.39063 0.39063,-1.0234 0,-1.4141 l -3.1836,-3.1836 c -0.39062,-0.39062 -1.0234,-0.39062 -1.4141,0 l -3.1836,3.1836 c -0.39062,0.39062 -0.39062,1.0234 0,1.4141 l 3.1836,3.1836 c 0.19922,0.19531 0.45312,0.29297 0.70703,0.29297 z m 0,-5.9492 1.7695,1.7695 -1.7695,1.7695 -1.7695,-1.7695 z"
         id="path407" />
    </g>
    <g
       id="g449"
       transform="matrix(0.14476093,0,0,0.14476093,81.489628,12.994833)">
      <path
         d="m 93.621,75.953 -2.4844,-0.34766 c -0.27344,-0.86328 -0.60547,-1.6836 -1.0156,-2.4531 l 1.5,-2.0156 c 0.33203,-0.45312 0.28906,-1.0898 -0.10547,-1.4844 l -4.3633,-4.3633 c -0.39453,-0.39453 -1.0312,-0.4375 -1.4844,-0.10547 l -2.0156,1.5 c -0.77344,-0.41016 -1.6055,-0.74219 -2.4531,-1.0156 l -0.34766,-2.4844 c -0.07422,-0.5625 -0.5625,-0.96875 -1.1211,-0.96875 h -6.1523 c -0.5625,0 -1.0469,0.41016 -1.1211,0.96875 l -0.34766,2.4844 c -0.86328,0.27344 -1.6836,0.60547 -2.4531,1.0156 l -2,-1.5 c -0.45312,-0.33203 -1.0742,-0.28906 -1.4844,0.10547 l -4.3633,4.3633 c -0.39453,0.39453 -0.4375,1.0312 -0.10547,1.4844 l 1.5,2.0156 c -0.41016,0.78906 -0.75781,1.6055 -1.0156,2.4531 l -2.4844,0.34766 c -0.5625,0.07422 -0.96875,0.5625 -0.96875,1.1211 v 6.1523 c 0,0.5625 0.41016,1.0469 0.96875,1.1211 l 2.4844,0.34766 c 0.27344,0.84766 0.60547,1.668 1.0156,2.4531 l -1.5,2.0156 c -0.33203,0.45313 -0.28906,1.0898 0.10547,1.4844 l 4.3633,4.3633 c 0.39453,0.39453 1.0312,0.4375 1.4844,0.10547 l 2.0156,-1.5 c 0.78906,0.41016 1.6055,0.74219 2.4531,1.0156 l 0.34766,2.4844 c 0.07422,0.5625 0.5625,0.96875 1.1211,0.96875 h 6.1523 c 0.5625,0 1.0469,-0.41016 1.1211,-0.96875 l 0.34766,-2.4844 c 0.84766,-0.25781 1.668,-0.60547 2.4531,-1.0156 l 2.0156,1.5 c 0.45312,0.33203 1.0742,0.28906 1.4844,-0.10547 l 4.3633,-4.3633 c 0.39453,-0.39453 0.4375,-1.0312 0.10547,-1.4844 l -1.5,-2.0156 c 0.41016,-0.77344 0.74219,-1.5898 1.0156,-2.4531 l 2.4844,-0.34766 c 0.5625,-0.07422 0.96875,-0.5625 0.96875,-1.1211 v -6.1523 c 0,-0.55859 -0.42188,-1.0273 -0.98438,-1.1211 z m -1.2891,6.3047 -2.2422,0.31641 c -0.45312,0.0625 -0.81641,0.39453 -0.9375,0.83203 -0.31641,1.1953 -0.77344,2.2891 -1.3477,3.2734 -0.24219,0.39453 -0.21094,0.89453 0.0625,1.2578 l 1.3477,1.8047 -2.9688,2.9688 -1.8047,-1.3477 c -0.36328,-0.27344 -0.84766,-0.30469 -1.2578,-0.07422 -1.0312,0.60547 -2.1367,1.0625 -3.2891,1.3633 -0.4375,0.12109 -0.77344,0.48438 -0.83203,0.9375 l -0.31641,2.2422 h -4.1836 l -0.31641,-2.2422 c -0.0625,-0.45312 -0.39453,-0.81641 -0.83203,-0.9375 -1.1523,-0.30469 -2.2578,-0.75781 -3.2891,-1.3633 -0.39453,-0.22656 -0.89453,-0.19531 -1.2578,0.07422 l -1.8047,1.3477 -2.9688,-2.9688 1.3477,-1.8047 c 0.27344,-0.36328 0.30469,-0.86328 0.07422,-1.2578 -0.60547,-1.0312 -1.0625,-2.1367 -1.3633,-3.2891 -0.12109,-0.4375 -0.48438,-0.77344 -0.9375,-0.83203 L 60.97234,82.242 v -4.1836 l 2.2422,-0.31641 c 0.45312,-0.0625 0.81641,-0.39453 0.9375,-0.83203 0.30469,-1.1523 0.75781,-2.2422 1.3633,-3.2891 0.22656,-0.39453 0.19531,-0.89453 -0.07422,-1.2578 l -1.3477,-1.8047 2.9688,-2.9688 1.8047,1.3477 c 0.36328,0.27344 0.86328,0.30469 1.2578,0.0625 0.98438,-0.58984 2.0898,-1.0469 3.2734,-1.3477 0.4375,-0.12109 0.77344,-0.48438 0.83203,-0.9375 l 0.31641,-2.2422 h 4.1836 l 0.31641,2.2422 c 0.0625,0.45312 0.39453,0.81641 0.83203,0.9375 1.1836,0.30469 2.2734,0.75781 3.2734,1.3477 0.39453,0.22656 0.89453,0.21094 1.2578,-0.0625 l 1.8047,-1.3477 2.9688,2.9688 -1.3477,1.8047 c -0.27344,0.36328 -0.30469,0.86328 -0.0625,1.2578 0.58984,0.98438 1.0469,2.0898 1.3477,3.2734 0.12109,0.4375 0.48438,0.77344 0.9375,0.83203 l 2.2422,0.31641 0.0039,4.2148 z"
         id="path439" />
      <path
         d="m 76.668,72.152 c -4.4102,0 -8,3.5898 -8,8.0156 0,4.4102 3.5898,8 8,8 4.4258,0 8.0156,-3.5898 8.0156,-8 0,-4.4258 -3.6094,-8.0156 -8.0156,-8.0156 z m 0,13.742 c -3.168,0 -5.7266,-2.5742 -5.7266,-5.7266 0,-3.168 2.5742,-5.7422 5.7266,-5.7422 3.168,0 5.7422,2.5742 5.7422,5.7422 0,3.1641 -2.5781,5.7266 -5.7422,5.7266 z"
         id="path441" />
      <path
         d="m 60.805,51.742 v 3.7891 c 0,0.62109 0.51562,1.1367 1.1367,1.1367 0.62108,0 1.1367,-0.51562 1.1367,-1.1367 V 51.742 h 6.4375 v 3.7891 c 0,0.62109 0.51562,1.1367 1.1367,1.1367 0.62108,0 1.1367,-0.51562 1.1367,-1.1367 V 51.742 h 6.4375 v 3.7891 c 0,0.62109 0.51563,1.1367 1.1367,1.1367 0.62109,0 1.1367,-0.51562 1.1367,-1.1367 V 51.742 h 2.6055 c 3.1211,0 5.6523,-2.5312 5.6523,-5.6523 v -2.6055 h 3.7891 c 0.62109,0 1.1367,-0.51562 1.1367,-1.1367 0,-0.62108 -0.51562,-1.1367 -1.1367,-1.1367 H 88.758 v -6.4375 h 3.7891 c 0.62109,0 1.1367,-0.51563 1.1367,-1.1367 0,-0.62109 -0.51562,-1.1367 -1.1367,-1.1367 H 88.758 v -6.4375 h 3.7891 c 0.62109,0 1.1367,-0.51562 1.1367,-1.1367 0,-0.62109 -0.51562,-1.1367 -1.1367,-1.1367 H 88.758 v -6.4375 h 3.7891 c 0.62109,0 1.1367,-0.51562 1.1367,-1.1367 0,-0.62108 -0.51562,-1.1367 -1.1367,-1.1367 H 88.758 V 12.4843 C 88.758,9.3632 86.2268,6.832 83.1057,6.832 H 80.5002 V 3.0312 c 0,-0.62109 -0.51562,-1.1367 -1.1367,-1.1367 -0.62109,0 -1.1367,0.51562 -1.1367,1.1367 V 6.8203 H 71.7893 V 3.0312 c 0,-0.62109 -0.51562,-1.1367 -1.1367,-1.1367 -0.62108,0 -1.1367,0.51562 -1.1367,1.1367 V 6.8203 H 63.0784 L 63.0745,3.0312 c 0,-0.62109 -0.51562,-1.1367 -1.1367,-1.1367 -0.62108,0 -1.1328,0.51562 -1.1328,1.1367 V 6.8203 H 54.3675 L 54.3636,3.0312 c 0,-0.62109 -0.51562,-1.1367 -1.1367,-1.1367 -0.62109,0 -1.1367,0.51562 -1.1367,1.1367 v 3.7891 h -2.5898 c -3.1211,0 -5.6523,2.5312 -5.6523,5.6523 v 2.6055 H 40.059 c -0.62109,0 -1.1367,0.51562 -1.1367,1.1367 0,0.62108 0.51562,1.1367 1.1367,1.1367 h 3.7891 V 23.789 H 40.059 c -0.62109,0 -1.1367,0.51563 -1.1367,1.1367 0,0.62109 0.51562,1.1367 1.1367,1.1367 h 3.7891 v 6.4375 H 40.059 c -0.62109,0 -1.1367,0.51562 -1.1367,1.1367 0,0.62109 0.51562,1.1367 1.1367,1.1367 h 3.7891 v 6.4375 H 40.059 c -0.62109,0 -1.1367,0.51562 -1.1367,1.1367 0,0.62108 0.51562,1.1367 1.1367,1.1367 h 3.7891 v 2.6055 c 0,3.1211 2.5312,5.6523 5.6523,5.6523 h 2.5898 v 3.7891 c 0,0.62109 0.51562,1.1367 1.1367,1.1367 0.62109,0 1.1367,-0.51562 1.1367,-1.1367 V 51.742 Z M 46.106,46.0897 v -33.605 c 0,-1.8633 1.5156,-3.3789 3.3789,-3.3789 h 33.605 c 1.8633,0 3.3789,1.5156 3.3789,3.3789 v 33.605 c 0,1.8633 -1.5156,3.3789 -3.3789,3.3789 h -33.59 c -1.8633,0 -3.3945,-1.5156 -3.3945,-3.3789 z"
         id="path443" />
      <path
         d="m 78.59,42.711 c 0.62109,0 1.1367,-0.51563 1.1367,-1.1367 v -15.559 c 0,-0.30469 -0.12109,-0.58984 -0.33203,-0.80469 l -9.0312,-9.0312 c -0.21094,-0.21094 -0.5,-0.33203 -0.80469,-0.33203 h -15.559 c -0.62109,0 -1.1367,0.51562 -1.1367,1.1367 v 24.59 c 0,0.62109 0.51562,1.1367 1.1367,1.1367 z M 55.137,18.121 H 69.09 l 8.3633,8.3633 v 13.953 h -22.316 z"
         id="path445" />
      <path
         d="m 41.637,81.91 c -5.0312,6.1367 -13,6.9844 -13.074,7 h -0.01563 c -1.5625,0.15234 -3.2266,0.42578 -4.9375,0.71094 -0.74219,0.12109 -1.4844,0.24219 -2.2266,0.36328 -2.8047,0.4375 -4.4844,-0.86328 -5.4258,-2.0312 -1.3164,-1.6523 -1.6953,-3.832 -1.2734,-4.8789 1.2266,-3.0742 0.51562,-4.4102 -0.92578,-5.4531 -0.94141,-0.66797 -1.4531,-1.332 -1.4531,-1.8633 0,-0.54687 0.5625,-0.98437 0.5625,-0.98437 0.39453,-0.27344 0.57422,-0.77344 0.4375,-1.2266 -0.12109,-0.46875 -0.53125,-0.80469 -1.0156,-0.83203 -0.53125,-0.03125 -0.91016,-0.18359 -1,-0.36328 -0.15234,-0.31641 0.07422,-1 0.30469,-1.2891 0.0625,-0.07422 0.13672,-0.16797 0.24219,-0.27344 0.53125,-0.57422 1.3945,-1.5469 1.1055,-2.8047 -0.22656,-0.96875 -1.0898,-1.7422 -2.6367,-2.332 -2.5469,-0.98438 -2.5469,-2.3047 -2.5469,-2.3164 0.03125,-0.22656 0.015626,-0.34766 -0.089843,-0.5625 -0.10547,-1.0742 3.1836,-5.5312 5.332,-7.5156 3.8047,-3.5156 3.832,-8.6523 3.832,-9 -1.5742,-13.137 3.2266,-19.562 3.3047,-19.668 6.3789,-9.2422 14.758,-12.805 20.652,-14.152 0.60547,-0.13672 1,-0.75781 0.84766,-1.3633 -0.13672,-0.60547 -0.74219,-1 -1.3633,-0.84766 -6.2891,1.4375 -15.227,5.2422 -21.969,15.031 -0.22656,0.28906 -5.4258,7.1367 -3.7422,21.152 0,0.04687 -0.0625,4.3789 -3.1055,7.1953 -0.07422,0.0625 -6.8477,6.8164 -5.9531,9.832 0.046875,0.83203 0.53125,3 3.9844,4.332 1.0312,0.41016 1.2266,0.71094 1.2422,0.71094 -0.03125,0.18359 -0.41016,0.60547 -0.57422,0.78906 -0.15234,0.16797 -0.27344,0.30469 -0.37891,0.4375 -0.54688,0.72656 -1.1367,2.3047 -0.54688,3.6055 0.18359,0.39453 0.5,0.83203 1.0742,1.168 -0.15234,0.36328 -0.27344,0.78906 -0.27344,1.2578 -0.01563,1.3164 0.78906,2.5742 2.3633,3.7266 0.57422,0.41016 0.98438,0.71094 0.15234,2.7891 -0.78906,1.9844 -0.10547,4.9844 1.6211,7.1367 1.8477,2.3047 4.5312,3.3164 7.5469,2.8477 0.75781,-0.12109 1.5156,-0.24219 2.2578,-0.36328 4.8945,-0.81641 9.5156,-1.5898 10.773,0.69531 1.7266,3.1836 2.1523,4.6953 2.1523,4.6953 0.13672,0.5 0.58984,0.84766 1.0898,0.84766 0.08984,0 0.19531,-0.01563 0.28906,-0.04687 0.60547,-0.16797 0.96875,-0.78906 0.80469,-1.3945 -0.01563,-0.07422 -0.46875,-1.7266 -2.3633,-5.1953 -0.48438,-0.87891 -1.1523,-1.4844 -1.9844,-1.9102 2.7734,-1.1367 6.0156,-3.0312 8.6367,-6.2109 0.39453,-0.48438 0.33203,-1.1953 -0.15234,-1.6055 -0.47656,-0.38672 -1.1875,-0.32422 -1.582,0.16016 z"
         id="path447" />
    </g>
    <g
       id="g493"
       transform="matrix(0.14476093,0,0,0.14476093,62.835663,12.995269)">
      <path
         d="m 18,79.301 c 0,6.1328 -9.1992,6.1328 -9.1992,0 0,-6.1328 9.1992,-6.1328 9.1992,0"
         id="path463" />
      <path
         d="m 15.102,85.199 h -3.3984 c -2.5,0 -4.5,1.8008 -4.8008,4.3008 l -0.5,4 c -0.10156,0.5 0.30078,1 0.80078,1.1016 2,0.39844 4.1016,0.60156 6.1992,0.60156 0.69922,0 1.3008,0 2,-0.10156 l 0.5,-3.6992 c 0.19922,-2 1.1992,-3.6992 2.6992,-4.8984 -1,-0.80469 -2.2031,-1.3047 -3.5,-1.3047 z"
         id="path465" />
      <path
         d="m 41.199,79.301 c 0,6.1328 -9.1992,6.1328 -9.1992,0 0,-6.1328 9.1992,-6.1328 9.1992,0"
         id="path467" />
      <path
         d="m 38.301,85.199 h -3.3984 c -1.3008,0 -2.5,0.5 -3.3984,1.3984 1.3984,1.1992 2.3984,2.8984 2.6992,4.8984 l 0.5,3.6992 c 0.60156,0.10156 1.3008,0.10156 2,0.10156 2.1992,0 4.3008,-0.19922 6.1992,-0.60156 0.5,-0.10156 0.80078,-0.60156 0.80078,-1.1016 l -0.5,-4 c -0.40234,-2.5938 -2.5039,-4.3945 -4.9023,-4.3945 z"
         id="path469" />
      <path
         d="m 26.699,87.5 h -3.3984 c -2.5,0 -4.5,1.8008 -4.8008,4.3008 l -0.5,4 c -0.10156,0.5 0.30078,1 0.80078,1.1016 2,0.39844 4.1016,0.60156 6.1992,0.60156 2.1992,0 4.3008,-0.19922 6.1992,-0.60156 0.5,-0.10156 0.80078,-0.60156 0.80078,-1.1016 l -0.5,-4 C 31.19898,89.3008 29.10136,87.5 26.69896,87.5 Z"
         id="path471" />
      <path
         d="m 29.602,81.699 c 0,6.1328 -9.2031,6.1328 -9.2031,0 0,-6.1328 9.2031,-6.1328 9.2031,0"
         id="path473" />
      <path
         d="m 68,79.301 c 0,6.1328 -9.1992,6.1328 -9.1992,0 0,-6.1328 9.1992,-6.1328 9.1992,0"
         id="path475" />
      <path
         d="m 65.102,85.199 h -3.3984 c -2.5,0 -4.5,1.8008 -4.8008,4.3008 l -0.5,4 c -0.10156,0.5 0.30078,1 0.80078,1.1016 2,0.39844 4.1016,0.60156 6.1992,0.60156 0.69922,0 1.3008,0 2,-0.10156 l 0.5,-3.6992 c 0.19922,-2 1.1992,-3.6992 2.6992,-4.8984 -0.90234,-0.80469 -2.1016,-1.3047 -3.5,-1.3047 z"
         id="path477" />
      <path
         d="m 91.199,79.301 c 0,6.1328 -9.1992,6.1328 -9.1992,0 0,-6.1328 9.1992,-6.1328 9.1992,0"
         id="path479" />
      <path
         d="M 93.199,89.5 C 92.89822,87 90.8006,85.1992 88.3982,85.1992 h -3.3984 c -1.3008,0 -2.5,0.5 -3.3984,1.3984 1.3984,1.1992 2.3984,2.8984 2.6992,4.8984 l 0.5,3.6992 c 0.60156,0.10156 1.3008,0.10156 2,0.10156 2.1992,0 4.3008,-0.19922 6.1992,-0.60156 0.5,-0.10156 0.80078,-0.60156 0.80078,-1.1016 z"
         id="path481" />
      <path
         d="m 76.699,87.5 h -3.3984 c -2.5,0 -4.5,1.8008 -4.8008,4.3008 l -0.5,4 c -0.10156,0.5 0.30078,1 0.80078,1.1016 2,0.39844 4.1016,0.60156 6.1992,0.60156 2.1992,0 4.3008,-0.19922 6.1992,-0.60156 0.5,-0.10156 0.80078,-0.60156 0.80078,-1.1016 l -0.5,-4 C 81.30054,89.3008 79.19896,87.5 76.69896,87.5 Z"
         id="path483" />
      <path
         d="m 79.602,81.699 c 0,6.1328 -9.2031,6.1328 -9.2031,0 0,-6.1328 9.2031,-6.1328 9.2031,0"
         id="path485" />
      <path
         d="m 23.699,72.301 c 0.30078,0.39844 0.80078,0.60156 1.3008,0.60156 0.50002,0 1,-0.19922 1.3008,-0.60156 l 4.1016,-5.5 c 0.39844,-0.5 0.39844,-1.1016 0.10156,-1.6016 -0.30078,-0.5 -0.80078,-0.89844 -1.3984,-0.89844 h -2.1992 v -3.3984 c 0,-1.1992 1,-2.3008 2.3008,-2.3008 h 41.801 c 1.1992,0 2.3008,1 2.3008,2.3008 v 3.3984 h -2.1992 c -0.60156,0 -1.1016,0.30078 -1.3984,0.89844 -0.30078,0.5 -0.19922,1.1992 0.10156,1.6016 l 4.1016,5.5 c 0.30078,0.39844 0.80078,0.60156 1.3008,0.60156 0.50002,0 1,-0.19922 1.3008,-0.60156 l 4.1016,-5.5 c 0.39844,-0.5 0.39844,-1.1016 0.10156,-1.6016 -0.30078,-0.5 -0.80078,-0.89844 -1.3984,-0.89844 h -2.1992 v -3.3984 c 0,-3.3008 -2.6992,-6.1016 -6.1016,-6.1016 h -19 l -0.01953,-7.8008 c 9.5,-1 16.898,-9 16.898,-18.699 0,-3.5 -1,-6.8008 -2.6992,-9.6016 l -2.6992,2.6992 c 1.1016,2.1016 1.6992,4.3984 1.6992,6.8984 0,8.3008 -6.8008,15.102 -15.102,15.102 -8.3008,0 -15.102,-6.8008 -15.102,-15.102 0,-8.3984 6.8008,-15.102 15.102,-15.102 2.5,0 4.8984,0.60156 6.8984,1.6992 l 2.6992,-2.6992 c -2.8008,-1.6992 -6.1016,-2.6992 -9.6016,-2.6992 -10.398,0 -18.801,8.5 -18.801,18.801 0,9.8008 7.3984,17.801 16.898,18.699 v 7.8008 h -19 c -3.3008,0 -6.1016,2.6992 -6.1016,6.1016 v 3.3984 h -2.1992 c -0.60156,0 -1.1016,0.30078 -1.3984,0.89844 -0.30078,0.5 -0.19922,1.1992 0.10156,1.6016 z"
         id="path487" />
      <path
         d="m 50,20.199 c 0.5,0 0.89844,0 1.3984,0.10156 l 3,-3 c -1.3008,-0.60156 -2.8008,-0.80078 -4.3008,-0.80078 -6.5,0 -11.699,5.3008 -11.699,11.699 -0.09766,6.6016 5.1016,11.801 11.602,11.801 6.5004,0 11.699,-5.3008 11.699,-11.699 0,-1.5 -0.30078,-3 -0.80078,-4.3008 l -3,3 c 0.10156,0.39844 0.10156,0.89844 0.10156,1.3984 0,4.3984 -3.6016,8.1016 -8,8.1016 -4.3984,0 -8,-3.8008 -8,-8.1992 0,-4.5 3.6016,-8.1016 8,-8.1016 z"
         id="path489" />
      <path
         d="m 50,23.699 c -2.6016,0 -4.6016,2.1016 -4.6016,4.6016 0,2.5 2.1016,4.6016 4.6016,4.6016 2.6016,0 4.6016,-2.1016 4.6016,-4.6016 0,-0.60156 -0.10156,-1.1992 -0.30078,-1.6992 l 12.5,-12.5 h 3.8008 c 0.39844,0 0.69922,-0.10156 1,-0.39844 l 3.8008,-3.8008 c 0.39844,-0.39844 0.5,-1 0.30078,-1.5 -0.19922,-0.5 -0.69922,-0.89844 -1.3008,-0.89844 h -3.6992 l -0.0039,-3.6055 c 0,-0.60156 -0.30078,-1.1016 -0.89844,-1.3008 -0.5,-0.19922 -1.1016,-0.10156 -1.5,0.30078 l -3.8008,3.8008 c -0.30078,0.30078 -0.39844,0.60156 -0.39844,1 v 3.8008 l -12.402,12.5 c -0.5,-0.19922 -1.0977,-0.30078 -1.6992,-0.30078 z"
         id="path491" />
    </g>
    <g
       id="g733"
       transform="matrix(0.14476093,0,0,0.14476093,137.41912,12.995086)">
      <path
         d="m 18.77,23.695 v 51.641 h 63.477 l -1.4219,-1.125 c -0.67578,-0.53516 -0.78906,-1.5156 -0.25781,-2.1875 0.53516,-0.67578 1.5156,-0.78906 2.1914,-0.25781 l 4.8789,3.8672 c 0.83594,0.66016 0.83203,1.875 0,2.5352 l -4.8789,3.8672 c -0.67578,0.53516 -1.6562,0.41797 -2.1914,-0.25781 -0.53125,-0.67578 -0.41797,-1.6562 0.25781,-2.1875 l 1.4219,-1.125 H 17.208 c -0.86328,0 -1.5625,-0.69922 -1.5625,-1.5625 v -53.215 l -1.1328,1.4258 c -0.53516,0.67578 -1.5156,0.78906 -2.1875,0.25781 -0.67578,-0.53516 -0.78906,-1.5156 -0.25781,-2.1914 l 3.9102,-4.9375 c 0.69531,-0.875 1.8359,-0.76953 2.5,0.07031 l 3.8555,4.8672 c 0.53516,0.67578 0.41797,1.6562 -0.25781,2.1914 -0.67578,0.53125 -1.6562,0.41797 -2.1875,-0.25781 l -1.1211,-1.4141 z"
         fill-rule="evenodd"
         id="path725" />
      <path
         d="m 78.309,78.133 c 0.77344,0.38281 1.707,0.0625 2.0859,-0.70703 0.38281,-0.77344 0.0625,-1.707 -0.70703,-2.0859 -6.0625,-3.0117 -11.297,-15.395 -15.934,-26.367 -4.457,-10.539 -8.3984,-19.867 -13.145,-19.859 h -0.01953 -0.01953 v -0.0078 c -0.05078,0 -0.10547,0.0039 -0.15625,0.0078 -4.6758,0.19141 -8.582,9.4297 -12.988,19.855 -4.6367,10.973 -9.8711,23.352 -15.934,26.367 -0.77344,0.38281 -1.0898,1.3164 -0.70703,2.0859 0.38281,0.77344 1.3164,1.0898 2.0859,0.70703 7.0977,-3.5273 12.574,-16.477 17.426,-27.953 3.9922,-9.4453 7.5312,-17.816 10.195,-17.949 0.03906,0.0039 0.07812,0.0039 0.11719,0.0039 v -0.0078 c 2.6719,-0.03125 6.2422,8.4141 10.273,17.953 4.8516,11.477 10.324,24.426 17.426,27.953 z"
         id="path727" />
      <path
         d="m 61.637,76.484 c 0,0.86328 0.69922,1.5625 1.5625,1.5625 0.86328,0 1.5625,-0.69922 1.5625,-1.5625 V 51.675 c 0,-0.86328 -0.69922,-1.5625 -1.5625,-1.5625 -0.86328,0 -1.5625,0.69922 -1.5625,1.5625 z"
         id="path729" />
      <path
         d="m 36.418,76.484 c 0,0.86328 0.69922,1.5625 1.5625,1.5625 0.86328,0 1.5625,-0.69922 1.5625,-1.5625 V 51.675 c 0,-0.86328 -0.69922,-1.5625 -1.5625,-1.5625 -0.86328,0 -1.5625,0.69922 -1.5625,1.5625 z"
         id="path731" />
    </g>
    <g
       id="g756"
       transform="matrix(0.14476093,0,0,0.14476093,156.06123,12.995345)">
      <path
         d="M 53.332,48.621 V 28.332 h -6.6641 v 23.047 l 12.758,12.762 4.7148,-4.7148 z"
         id="path746" />
      <path
         d="m 50,10 c -22.09,0 -40,17.91 -40,40 0,1.125 0.07813,2.2344 0.16797,3.332 h 13.164 v -6.668 h -6.5 c 0.66406,-6.7031 3.3164,-12.82 7.3594,-17.758 l 4.5898,4.5898 4.7148,-4.7148 -4.5938,-4.5898 c 4.9414,-4.043 11.055,-6.6953 17.758,-7.3594 v 6.5 h 6.668 v -6.5 c 6.707,0.66406 12.82,3.3164 17.758,7.3594 l -4.5977,4.5938 4.7188,4.7148 4.5938,-4.5938 c 4.043,4.9414 6.6953,11.055 7.3594,17.762 h -6.4961 v 6.668 h 6.4961 c -0.66406,6.707 -3.3203,12.82 -7.3594,17.762 l -4.5938,-4.5977 -4.7148,4.7188 4.5938,4.5938 c -4.9375,4.0391 -11.051,6.6914 -17.758,7.3555 v -6.4961 h -6.668 v 13.164 c 1.1055,0.08594 2.2148,0.16406 3.3398,0.16406 22.094,0 40,-17.906 40,-40 0,-22.09 -17.906,-40 -40,-40 z"
         id="path748" />
      <path
         d="M 40,90 23.332,86.668 V 83.3321 H 40 Z"
         id="path750" />
      <path
         d="M 40,66.668 16.668,63.3321 v -3.332 H 40 Z"
         id="path752" />
      <path
         d="M 30,78.332 10,75 v -3.332 h 20 z"
         id="path754" />
    </g>
    <g
       id="g890"
       transform="matrix(0.14476093,0,0,0.14476093,174.70965,12.987349)">
      <path
         d="m 62.648,14.41 c -7.3945,-0.625 -14.652,2.0312 -19.906,7.2852 -3.8086,3.8086 -6.2695,8.75 -7.0664,14.055 -5.2812,0.78516 -10.227,3.2344 -14.086,7.0977 -4.1914,4.1914 -6.7734,9.7539 -7.2734,15.668 -0.5625,6.6953 1.5117,13.211 5.8477,18.348 4.3359,5.1367 10.414,8.2734 17.105,8.8359 7.3984,0.62891 14.656,-2.0273 19.91,-7.2852 3.8047,-3.8047 6.2656,-8.75 7.0625,-14.055 5.2812,-0.78516 10.227,-3.2344 14.086,-7.0977 4.1875,-4.1875 6.7734,-9.7539 7.2734,-15.672 1.168,-13.82 -9.1289,-26.012 -22.953,-27.18 z m -7.0859,62.371 c -4.5977,4.5977 -11.109,7.2109 -18.094,6.6211 -12.582,-1.0586 -21.918,-12.117 -20.859,-24.699 0.47266,-5.5938 2.9219,-10.551 6.6055,-14.23 3.2734,-3.2734 7.5273,-5.5156 12.227,-6.3359 -0.34766,6.4258 1.707,12.637 5.875,17.574 4.332,5.1328 10.41,8.2734 17.105,8.8359 1.1641,0.10156 2.3281,0.10547 3.4805,0.04687 -0.83203,4.7539 -3.1133,8.9609 -6.3398,12.188 z m 6.6172,-14.535 c -1.1719,0.08203 -2.3555,0.10938 -3.5625,0.0078 -12.48,-1.0508 -21.754,-11.945 -20.867,-24.398 1.168,-0.08203 2.3516,-0.10938 3.5586,-0.0078 12.48,1.0547 21.754,11.945 20.871,24.398 z m 21.137,-20.848 c -0.47266,5.5977 -2.9258,10.555 -6.6055,14.238 -3.2734,3.2734 -7.5312,5.5156 -12.227,6.3359 0.72266,-13.504 -9.4219,-25.27 -22.984,-26.414 -1.1641,-0.09766 -2.3242,-0.10547 -3.4766,-0.04297 0.83203,-4.7578 3.1133,-8.9648 6.3398,-12.191 4.5977,-4.5977 11.109,-7.2109 18.09,-6.6211 12.582,1.0586 21.922,12.113 20.863,24.695 z"
         id="path874" />
      <path
         d="m 49.383,64.734 c -1.6758,-0.73828 -3.2734,-1.6445 -4.7734,-2.707 -0.92578,-0.65625 -1.8164,-1.3672 -2.6602,-2.1445 -0.85938,-0.78906 -1.6914,-1.6133 -2.4609,-2.5156 -0.01953,-0.02344 -0.04297,-0.04297 -0.0625,-0.06641 -0.54297,-0.64062 -1.043,-1.3086 -1.5195,-1.9883 -0.55078,-0.78516 -1.0469,-1.6016 -1.5078,-2.4336 -0.36328,-0.65625 -0.69922,-1.3242 -1.0078,-2.0078 -0.35547,-0.78125 -0.67188,-1.5781 -0.94922,-2.3906 -0.22266,-0.64844 -0.41797,-1.3047 -0.59375,-1.9688 -0.20312,-0.77344 -0.37109,-1.5586 -0.50781,-2.3477 -0.10938,-0.64453 -0.19531,-1.293 -0.25781,-1.9453 -0.03125,-0.3125 -0.07813,-0.62109 -0.09766,-0.93359 -0.66797,0.21875 -1.3164,0.47656 -1.957,0.76172 -1.0547,0.46875 -2.0625,1.0273 -3.0195,1.6719 -0.92187,0.61719 -1.793,1.3164 -2.6094,2.0859 -0.14844,0.14062 -0.29688,0.27344 -0.44141,0.41797 -0.4375,0.4375 -0.84766,0.89062 -1.2383,1.3594 -0.57422,0.6875 -1.0859,1.4219 -1.5625,2.1797 -0.375,0.59375 -0.71875,1.2031 -1.0312,1.832 -0.35938,0.72266 -0.68359,1.4648 -0.95312,2.2266 -0.21875,0.61328 -0.40234,1.2383 -0.55859,1.875 -0.1875,0.74609 -0.32422,1.5078 -0.42578,2.2734 -0.03906,0.31641 -0.09375,0.62891 -0.12109,0.94531 -0.02734,0.32031 -0.02344,0.64063 -0.03516,0.96094 -0.03125,0.77344 -0.01953,1.5469 0.03906,2.3086 0.05078,0.65234 0.12891,1.3008 0.23828,1.9414 0.13672,0.79688 0.3125,1.582 0.54297,2.3516 0.19922,0.67188 0.43359,1.3359 0.70313,1.9844 0.34375,0.82812 0.75391,1.6289 1.207,2.4062 0.41016,0.70312 0.87109,1.3789 1.3711,2.0391 0.22266,0.29297 0.42969,0.59375 0.67188,0.87891 0.48437,0.57031 1,1.1055 1.5352,1.6172 0.83594,0.79688 1.7305,1.5117 2.6758,2.1445 1.9648,1.3242 4.1445,2.2812 6.4648,2.8516 1.043,0.25781 2.1016,0.45312 3.1914,0.54687 1.0625,0.08984 2.1211,0.06641 3.168,-0.0078 2.3906,-0.17188 4.7148,-0.75391 6.8828,-1.7305 1.0469,-0.46875 2.0547,-1.0234 3.0117,-1.668 0.91797,-0.61719 1.7891,-1.3164 2.6094,-2.0859 0.15234,-0.14453 0.31641,-0.26953 0.46484,-0.41406 0.43359,-0.43359 0.82422,-0.89844 1.2148,-1.3672 0.58203,-0.69141 1.1211,-1.4102 1.6016,-2.168 0.375,-0.59375 0.71094,-1.2109 1.0195,-1.8359 0.35938,-0.72266 0.67578,-1.4648 0.94141,-2.2266 0.04687,-0.13281 0.10937,-0.26172 0.15625,-0.39453 -0.17969,-0.01172 -0.35547,-0.02344 -0.53125,-0.03906 -3.0938,-0.26172 -6.0625,-1.0547 -8.8281,-2.2734 z"
         id="path876" />
      <path
         d="m 43.816,51.051 11.133,-3.5117 c -0.60547,-0.72266 -1.2578,-1.4102 -1.9609,-2.0469 l -10.527,3.3203 c 0.40234,0.77734 0.85547,1.5234 1.3555,2.2383 z"
         id="path878" />
      <path
         d="m 47.914,42.133 -7.1289,2.25 c 0.20703,0.82813 0.46875,1.6328 0.77734,2.418 l 9.3477,-2.9492 c -0.94922,-0.65234 -1.9453,-1.2305 -2.9961,-1.7188 z"
         id="path880" />
      <path
         d="m 41.102,40.309 c -0.30078,-0.02344 -0.60547,-0.04297 -0.92578,-0.05078 0.02344,0.66016 0.08594,1.3164 0.17578,1.9648 l 4.1641,-1.3125 c -1.1055,-0.29297 -2.2422,-0.5 -3.4141,-0.60156 z"
         id="path882" />
      <path
         d="m 58.824,59.797 c 0.30078,0.02344 0.60547,0.04297 0.92578,0.05078 -0.01953,-0.52344 -0.07422,-1.043 -0.13281,-1.5586 l -3.4414,1.0859 c 0.86328,0.1875 1.7422,0.34375 2.6484,0.42188 z"
         id="path884" />
      <path
         d="m 52.566,58.215 6.6836,-2.1094 c -0.19141,-0.83203 -0.44922,-1.6367 -0.74219,-2.4297 l -9.0664,2.8594 c 0.98438,0.64453 2.0273,1.207 3.125,1.6797 z"
         id="path886" />
      <path
         d="m 47.281,54.918 10.355,-3.2656 c -0.38672,-0.77734 -0.80469,-1.5352 -1.2812,-2.2578 l -11.098,3.5 c 0.62891,0.71875 1.3008,1.3984 2.0234,2.0234 z"
         id="path888" />
    </g>
    <g
       id="g1241"
       transform="matrix(0.32000048,0,0,0.32000048,177.45233,28.323047)">
      <path
         d="M 23.438,46.875 H 34.376 V 50 c 0,2.5898 2.0977,4.6875 4.6875,4.6875 h 21.875 c 2.5898,0 4.6875,-2.0977 4.6875,-4.6875 v -3.125 h 10.938 c 5.1758,0 9.375,-4.1992 9.375,-9.375 0,-5.1758 -4.1992,-9.375 -9.375,-9.375 h -0.32422 c 1.2422,-2.4141 1.8906,-5.0938 1.8867,-7.8125 0,-5.6406 -2.7695,-10.922 -7.4062,-14.133 -4.6367,-3.2109 -10.555,-3.9414 -15.836,-1.9531 -5.2773,1.9844 -9.2461,6.4375 -10.617,11.906 -3.8516,-3.6445 -9.5039,-4.6484 -14.371,-2.5508 -4.8711,2.0977 -8.0234,6.8945 -8.0195,12.199 0.02344,0.83203 0.23828,1.6523 0.625,2.3906 -4.9727,0.5 -8.6758,4.8086 -8.4258,9.7969 0.25,4.9883 4.3672,8.9062 9.3633,8.9062 z M 62.5,50 c 0,0.41406 -0.16406,0.8125 -0.45703,1.1055 -0.29297,0.293 -0.69141,0.45703 -1.1055,0.45703 h -21.875 c -0.86328,0 -1.5625,-0.69922 -1.5625,-1.5625 v -12.5 c 0,-0.86328 0.69922,-1.5625 1.5625,-1.5625 h 21.875 c 0.41406,0 0.8125,0.16406 1.1055,0.45703 0.293,0.29297 0.45703,0.69141 0.45703,1.1055 z M 23.438,31.25 h 1.5625 c 0.50781,0 0.98438,-0.24609 1.2773,-0.66406 0.29297,-0.41406 0.36328,-0.94922 0.19141,-1.4258 -0.20703,-0.53516 -0.45312,-1.0547 -0.73828,-1.5508 -0.36719,-0.55078 -0.61719,-1.1758 -0.73047,-1.8281 0.0078,-4.6016 3.1094,-8.6211 7.5586,-9.7969 4.4453,-1.1758 9.1289,0.78125 11.414,4.7734 0.34766,0.60938 1.0586,0.91406 1.7383,0.74219 0.67969,-0.17188 1.1641,-0.77734 1.1797,-1.4805 0.08203,-4.5 2.3125,-8.6914 6.0039,-11.273 3.6875,-2.5781 8.3906,-3.2344 12.648,-1.7656 4.2539,1.4688 7.5508,4.8867 8.8594,9.1953 1.3125,4.3086 0.48438,8.9805 -2.2305,12.574 -0.35547,0.47266 -0.41406,1.1055 -0.14844,1.6367 0.26562,0.52734 0.80469,0.86328 1.3984,0.86328 h 3.1406 c 3.4531,0 6.25,2.7969 6.25,6.25 0,3.4531 -2.7969,6.25 -6.25,6.25 h -10.938 v -6.25 c 0,-2.5898 -2.0977,-4.6875 -4.6875,-4.6875 h -21.875 c -2.5898,0 -4.6875,2.0977 -4.6875,4.6875 v 6.25 h -10.938 c -3.4531,0 -6.25,-2.7969 -6.25,-6.25 0,-3.4531 2.7969,-6.25 6.25,-6.25 z"
         id="path1219" />
      <path
         d="M 35.156,21.875 V 18.75 c -3.5664,0 -6.5703,2.668 -6.9844,6.2109 l 3.1055,0.36328 c 0.23047,-1.9648 1.8984,-3.4492 3.8789,-3.4492 z"
         id="path1221" />
      <path
         d="m 68.75,20.312 h 3.125 C 71.867188,14.2729 66.9766,9.382 60.937,9.374 v 3.125 c 4.3125,0.0039 7.8086,3.5 7.8125,7.8125 z"
         id="path1223" />
      <path
         d="m 89.062,75 h 3.125 v -4.6875 c 0,-0.41406 -0.16406,-0.8125 -0.45703,-1.1055 -0.29297,-0.293 -0.69141,-0.45703 -1.1055,-0.45703 h -4.6875 v 3.125 h 3.125 z"
         id="path1225" />
      <path
         d="M 92.188,64.062 H 70.313 c -2.5898,0 -4.6875,2.0977 -4.6875,4.6875 v 15.625 c 0,2.5898 2.0977,4.6875 4.6875,4.6875 h 6.0156 l -1.1641,5.9492 c -0.08984,0.46094 0.03125,0.93359 0.32813,1.293 0.29687,0.36328 0.73828,0.57031 1.207,0.57031 h 9.1016 c 0.46875,0 0.91016,-0.20703 1.207,-0.57031 0.29688,-0.35938 0.41797,-0.83203 0.32813,-1.293 l -1.1641,-5.9492 h 6.0156 c 2.5898,0 4.6875,-2.0977 4.6875,-4.6875 v -15.625 c 0,-2.5898 -2.0977,-4.6875 -4.6875,-4.6875 z m -21.875,3.125 h 21.875 c 0.41406,0 0.8125,0.16406 1.1055,0.45703 0.293,0.29297 0.45703,0.69141 0.45703,1.1055 v 10.938 h -25 v -10.938 c 0,-0.86328 0.69922,-1.5625 1.5625,-1.5625 z m 13.594,26.562 h -5.3125 l 0.91797,-4.6875 h 3.4727 z m 8.2812,-7.8125 h -21.875 c -0.86328,0 -1.5625,-0.69922 -1.5625,-1.5625 v -1.5625 h 25 v 1.5625 c 0,0.41406 -0.16406,0.8125 -0.45703,1.1055 -0.29297,0.293 -0.69141,0.45703 -1.1055,0.45703 z"
         id="path1227" />
      <path
         d="m 26.562,75 h 3.125 v -4.6875 c 0,-0.41406 -0.16406,-0.8125 -0.45703,-1.1055 -0.29297,-0.293 -0.69141,-0.45703 -1.1055,-0.45703 h -4.6875 v 3.125 h 3.125 z"
         id="path1229" />
      <path
         d="M 29.688,64.062 H 7.813 c -2.5898,0 -4.6875,2.0977 -4.6875,4.6875 v 15.625 c 0,2.5898 2.0977,4.6875 4.6875,4.6875 h 6.0156 l -1.1641,5.9492 c -0.08984,0.46094 0.03125,0.93359 0.32813,1.293 0.29687,0.36328 0.73828,0.57031 1.207,0.57031 h 9.1016 c 0.46875,0 0.91016,-0.20703 1.207,-0.57031 0.29688,-0.35938 0.41797,-0.83203 0.32813,-1.293 l -1.1641,-5.9492 h 6.0156 c 2.5898,0 4.6875,-2.0977 4.6875,-4.6875 v -15.625 c 0,-2.5898 -2.0977,-4.6875 -4.6875,-4.6875 z M 7.813,67.187 h 21.875 c 0.41406,0 0.8125,0.16406 1.1055,0.45703 0.293,0.29297 0.45703,0.69141 0.45703,1.1055 v 10.938 h -25 v -10.938 c 0,-0.86328 0.69922,-1.5625 1.5625,-1.5625 z m 13.594,26.562 h -5.3125 l 0.91797,-4.6875 h 3.4727 z m 8.2812,-7.8125 H 7.8132 c -0.86328,0 -1.5625,-0.69922 -1.5625,-1.5625 v -1.5625 h 25 v 1.5625 c 0,0.41406 -0.16406,0.8125 -0.45703,1.1055 -0.29297,0.293 -0.69141,0.45703 -1.1055,0.45703 z"
         id="path1231" />
      <path
         d="M 66.93,58.25 C 67.06672,57.77734 66.97687,57.26953 66.68,56.875 66.38312,56.48047 65.92219,56.25 65.43,56.25 H 53.125 c -0.86328,0 -1.5625,0.69922 -1.5625,1.5625 h -3.125 c 0,-0.41406 -0.16406,-0.8125 -0.45703,-1.1055 -0.29297,-0.293 -0.69141,-0.45703 -1.1055,-0.45703 h -12.305 c -0.49219,0 -0.95312,0.23047 -1.25,0.625 -0.29687,0.39453 -0.38672,0.90234 -0.25,1.375 l 0.71094,2.4375 c 0.58984,1.9961 2.418,3.3672 4.5,3.375 h 23.438 c 2.082,-0.0078 3.9102,-1.3789 4.5,-3.375 z m -28.648,2.6875 c -0.69531,-0.0039 -1.3047,-0.46094 -1.5,-1.125 L 36.657,59.375 h 8.6562 c 0,0.41406 0.16406,0.8125 0.45703,1.1055 0.29297,0.293 0.69141,0.45703 1.1055,0.45703 z m 24.938,-1.125 c -0.19531,0.66406 -0.80469,1.1211 -1.5,1.125 h -8.5938 c 0.41406,0 0.8125,-0.16406 1.1055,-0.45703 0.293,-0.29297 0.45703,-0.69141 0.45703,-1.1055 h 8.6562 z"
         id="path1233" />
      <path
         d="m 59.375,37.5 h -4.6875 v 3.125 h 3.125 v 3.125 h 3.125 v -4.6875 c 0,-0.41406 -0.16406,-0.8125 -0.45703,-1.1055 -0.29297,-0.293 -0.69141,-0.45703 -1.1055,-0.45703 z"
         id="path1235" />
      <path
         d="m 18.75,53.125 c -0.86328,0 -1.5625,0.69922 -1.5625,1.5625 v 6.25 h 3.125 V 56.25 h 7.8125 c 0.41406,0 0.8125,-0.16406 1.1055,-0.45703 0.293,-0.29297 0.45703,-0.69141 0.45703,-1.1055 v -4.6875 h -3.125 v 3.125 z"
         id="path1237" />
      <path
         d="m 82.812,60.938 v -6.25 c 0,-0.41406 -0.16406,-0.8125 -0.45703,-1.1055 -0.29297,-0.293 -0.69141,-0.45703 -1.1055,-0.45703 h -7.8125 v -3.125 h -3.125 v 4.6875 c 0,0.41406 0.16406,0.8125 0.45703,1.1055 0.29297,0.293 0.69141,0.45703 1.1055,0.45703 h 7.8125 v 4.6875 z"
         id="path1239" />
    </g>
    <g
       id="g2129"
       transform="matrix(0.14476093,0,0,0.14476093,6.9221329,12.995371)">
      <path
         d="M 95.312,84.375 H 90.6245 V 37.5 h -3.125 v 46.875 h -24.352 c -1.832,-0.0039 -3.5859,0.72266 -4.8789,2.0195 -0.70703,0.71094 -1.6641,1.1094 -2.668,1.1055 h -11.203 c -1.0039,0.0039 -1.9609,-0.39453 -2.668,-1.1055 -1.293,-1.2969 -3.0469,-2.0234 -4.8789,-2.0195 H 12.4987 V 39.063 c 0.0039,-2.5859 2.1016,-4.6836 4.6875,-4.6875 h 4.6875 v -3.125 h -4.6875 c -4.3125,0.0039 -7.8086,3.5 -7.8125,7.8125 V 84.375 H 4.6862 c -0.86328,0 -1.5625,0.69922 -1.5625,1.5625 v 3.125 c 0.00391,4.3125 3.5,7.8086 7.8125,7.8125 h 78.125 c 4.3125,-0.0039 7.8086,-3.5 7.8125,-7.8125 v -3.125 c 0,-0.41406 -0.16406,-0.8125 -0.45703,-1.1055 -0.29297,-0.293 -0.69141,-0.45703 -1.1055,-0.45703 z m -1.5625,4.6875 C 93.7456,91.6484 91.6479,93.7461 89.062,93.75 H 10.937 C 8.3511,93.746094 6.2534,91.6484 6.2495,89.0625 V 87.5 h 30.602 c 1.0039,-0.0039 1.9609,0.39453 2.668,1.1055 1.293,1.2969 3.0469,2.0234 4.8789,2.0195 h 11.207 -0.0039 c 1.832,0.0039 3.5859,-0.72266 4.8789,-2.0195 0.70703,-0.71094 1.6641,-1.1094 2.668,-1.1055 h 30.602 z"
         id="path2097" />
      <path
         d="m 50,62.5 h 3.125 V 81.25 H 50 Z"
         id="path2099" />
      <path
         d="m 25,62.5 h 3.125 V 81.25 H 25 Z"
         id="path2101" />
      <path
         d="M 53.125,35.938 V 21.876 C 53.1211,16.7002 48.9258,12.5049 43.75,12.501 H 34.375 C 29.1992,12.5049 25.0039,16.7002 25,21.876 v 14.062 c 0,4.25 1.9258,8.2734 5.2383,10.938 H 25 c -5.1758,0.0078 -9.3672,4.1992 -9.375,9.375 v 25 h 3.125 v -25 c 0.0039,-3.4492 2.8008,-6.2461 6.25,-6.25 h 5.207 l 7.4102,17.789 h 0.0039 c 0.24219,0.58203 0.8125,0.96094 1.4414,0.96094 0.6289,0 1.1992,-0.37891 1.4414,-0.96094 L 47.918,50.001 h 5.207 c 3.4492,0.0039 6.2461,2.8008 6.25,6.25 v 8.9023 l -2.8633,4.293 2.6016,1.7344 3.125,-4.6875 2.6602,-3.9922 h 6.9766 l -10.312,13.75 c -0.88672,1.1758 -2.2773,1.8711 -3.75,1.875 v 3.125 c 2.457,-0.0039 4.7695,-1.1641 6.25,-3.125 l 11.719,-15.625 h 5.4688 c 0.76562,0 1.4141,-0.55078 1.543,-1.3047 l 1.5625,-9.375 c 0.07422,-0.45312 -0.05469,-0.91797 -0.35156,-1.2695 -0.29688,-0.34766 -0.73047,-0.55078 -1.1914,-0.55078 h -5.8711 c 0.01172,-1.2383 -0.46875,-2.4297 -1.3398,-3.3086 -0.87109,-0.88281 -2.0586,-1.3789 -3.2969,-1.3789 -1.8281,0 -3.4844,1.0781 -4.2305,2.75 l -5.3867,12.117 -0.1875,0.28516 v -4.2148 c -0.0078,-5.1758 -4.1992,-9.3672 -9.375,-9.375 h -5.2383 c 3.3125,-2.6641 5.2383,-6.6875 5.2383,-10.938 z M 70.93,49.333 c 0.24219,-0.54297 0.78125,-0.89453 1.375,-0.89453 0.48437,0 0.94141,0.23438 1.2227,0.625 0.28125,0.39453 0.35938,0.89844 0.20703,1.3555 l -0.21484,0.64844 -0.0039,0.0039 c -0.15625,0.47656 -0.07813,1 0.21875,1.4062 0.29297,0.40625 0.76172,0.64844 1.2656,0.64844 h 5.9688 l -1.043,6.25 h -13.457 z M 28.125,21.876 c 0.0039,-3.4492 2.8008,-6.2461 6.25,-6.25 h 9.375 c 3.4492,0.0039 6.2461,2.8008 6.25,6.25 v 2.668 c -2.2539,-0.72266 -4.0273,-2.4766 -4.7656,-4.7227 -0.17188,-0.51562 -0.59766,-0.90234 -1.125,-1.0273 -0.52734,-0.12496 -1.082,0.03125 -1.4648,0.41406 l -1.5117,1.5117 c -1.6133,1.6172 -3.9297,2.3203 -6.168,1.8672 -2.3359,-0.47266 -4.7656,-0.08594 -6.8398,1.0898 z m 0,14.062 v -8.5391 l 1.0977,-0.73438 c 1.5078,-1.0078 3.3516,-1.375 5.1289,-1.0117 3.2344,0.64844 6.5781,-0.34766 8.9297,-2.6602 1.4414,2.3594 3.7578,4.0586 6.4453,4.7227 l 0.27344,0.07031 v 8.1523 c 0,6.0391 -4.8984,10.938 -10.938,10.938 -6.0396,0 -10.938,-4.8984 -10.938,-10.938 z M 37.5,50 v 9.375 L 33.5938,50 Z m 3.125,9.375 V 50 h 3.9062 z"
         id="path2103" />
      <path
         d="m 33.508,40.363 c 3.3633,2.25 7.7461,2.25 11.109,0 l -1.7344,-2.6016 c -2.3125,1.5469 -5.3281,1.5469 -7.6406,0 z"
         id="path2105" />
      <path
         d="m 33.594,34.375 c 0.94922,0 1.8008,-0.57031 2.1641,-1.4453 0.36328,-0.87891 0.16406,-1.8867 -0.50781,-2.5547 -0.66797,-0.67188 -1.6758,-0.87109 -2.5547,-0.50781 -0.875,0.36328 -1.4453,1.2148 -1.4453,2.1641 0,1.293 1.0508,2.3438 2.3438,2.3438 z"
         id="path2107" />
      <path
         d="m 44.531,34.375 c 0.94922,0 1.8008,-0.57031 2.1641,-1.4453 0.36328,-0.87891 0.16406,-1.8867 -0.50781,-2.5547 -0.66797,-0.67188 -1.6758,-0.87109 -2.5547,-0.50781 -0.875,0.36328 -1.4453,1.2148 -1.4453,2.1641 0,1.293 1.0508,2.3438 2.3438,2.3438 z"
         id="path2109" />
      <path
         d="m 37.5,71.875 h 3.125 V 75 H 37.5 Z"
         id="path2111" />
      <path
         d="m 37.5,78.125 h 3.125 V 81.25 H 37.5 Z"
         id="path2113" />
      <path
         d="M 90.625,3.125 H 62.5 c -3.4492,0.00391 -6.2461,2.8008 -6.25,6.25 v 18.75 c 0.0039,3.4492 2.8008,6.2461 6.25,6.25 h 7.8125 v 6.25 c 0,0.60547 0.35156,1.1562 0.89844,1.4141 0.55078,0.25781 1.1992,0.17578 1.6641,-0.21484 l 8.9414,-7.4492 h 8.8086 c 3.4492,-0.0039 6.2461,-2.8008 6.25,-6.25 v -18.75 c -0.0039,-3.4492 -2.8008,-6.2461 -6.25,-6.25 z m 3.125,25 c -0.0039,1.7266 -1.3984,3.1211 -3.125,3.125 H 81.25 c -0.36719,0 -0.71875,0.12891 -1,0.36328 l -6.8125,5.6758 v -4.4766 c 0,-0.41406 -0.16406,-0.8125 -0.45703,-1.1055 -0.29297,-0.293 -0.69141,-0.45703 -1.1055,-0.45703 h -9.375 c -1.7266,-0.0039 -3.1211,-1.3984 -3.125,-3.125 v -18.75 c 0.0039,-1.7266 1.3984,-3.1211 3.125,-3.125 h 28.125 c 1.7266,0.00391 3.1211,1.3984 3.125,3.125 z"
         id="path2115" />
      <path
         d="m 64.062,10.938 h 15.625 v 3.125 H 64.062 Z"
         id="path2117" />
      <path
         d="m 82.812,10.938 h 6.25 v 3.125 h -6.25 z"
         id="path2119" />
      <path
         d="m 64.062,17.188 h 25 v 3.125 h -25 z"
         id="path2121" />
      <path
         d="m 64.062,23.438 h 25 v 3.125 h -25 z"
         id="path2123" />
      <path
         d="m 18.75,40.625 h 3.125 V 37.5 h -4.6875 c -0.86328,0 -1.5625,0.69922 -1.5625,1.5625 v 6.25 h 3.125 z"
         id="path2125" />
      <path
         d="m 81.25,78.125 h -4.6875 v 3.125 h 6.25 c 0.41406,0 0.8125,-0.16406 1.1055,-0.45703 0.293,-0.29297 0.45703,-0.69141 0.45703,-1.1055 v -6.25 h -3.125 z"
         id="path2127" />
    </g>
  </g>
</svg>
