<?xml version="1.0" encoding="UTF-8" standalone="no"?>
<!-- Created with Inkscape (http://www.inkscape.org/) -->

<svg
   width="160.98363mm"
   height="83.067032mm"
   viewBox="-2 -2 172.4817 89"
   version="1.1"
   id="svg1"
   inkscape:version="1.3.2 (091e20e, 2023-11-25)"
   sodipodi:docname="ambiguous_transmission.svg"
   xmlns:inkscape="http://www.inkscape.org/namespaces/inkscape"
   xmlns:sodipodi="http://sodipodi.sourceforge.net/DTD/sodipodi-0.dtd"
   xmlns="http://www.w3.org/2000/svg"
   xmlns:svg="http://www.w3.org/2000/svg"
   xmlns:ns10="http://www.iki.fi/pav/software/textext/">
  <sodipodi:namedview
     id="namedview1"
     pagecolor="#ffffff"
     bordercolor="#666666"
     borderopacity="1.0"
     inkscape:showpageshadow="2"
     inkscape:pageopacity="0.0"
     inkscape:pagecheckerboard="0"
     inkscape:deskcolor="#d1d1d1"
     inkscape:document-units="mm"
     showgrid="true"
     inkscape:zoom="1.3549874"
     inkscape:cx="354.98486"
     inkscape:cy="463.84196"
     inkscape:window-width="3008"
     inkscape:window-height="1692"
     inkscape:window-x="0"
     inkscape:window-y="0"
     inkscape:window-maximized="0"
     inkscape:current-layer="layer1">
    <inkscape:grid
       id="grid1"
       units="px"
       originx="-11.17316"
       originy="-5.3984022"
       spacingx="0.26458333"
       spacingy="0.26458334"
       empcolor="#0099e5"
       empopacity="0.30196078"
       color="#0099e5"
       opacity="0.14901961"
       empspacing="5"
       dotted="false"
       gridanglex="30"
       gridanglez="30"
       visible="true" />
  </sodipodi:namedview>
  <defs
     id="defs1">
    <marker
       style="overflow:visible"
       id="RoundedArrow"
       refX="0"
       refY="0"
       orient="auto-start-reverse"
       inkscape:stockid="Rounded arrow"
       markerWidth="1"
       markerHeight="1"
       viewBox="0 0 1 1"
       inkscape:isstock="true"
       inkscape:collect="always"
       preserveAspectRatio="xMidYMid">
      <path
         transform="scale(0.7)"
         d="m -0.21114562,-4.1055728 6.42229122,3.21114561 a 1,1 90 0 1 0,1.78885438 L -0.21114562,4.1055728 A 1.236068,1.236068 31.717474 0 1 -2,3 v -6 a 1.236068,1.236068 148.28253 0 1 1.78885438,-1.1055728 z"
         style="fill:context-stroke;fill-rule:evenodd;stroke:none"
         id="path8" />
    </marker>
    <g
       id="id-27f8484b-0af7-4afd-bc69-11ed923e11dd-0">
      <g
         id="id-5cb717aa-69d2-4088-a124-3aac474d847b-5">
        <path
           d="M 3.734375,-6.046875 C 3.8125,-6.40625 3.84375,-6.5 4.640625,-6.5 c 0.234375,0 0.3125,0 0.3125,-0.1875 0,-0.125 -0.109375,-0.125 -0.140625,-0.125 -0.296875,0 -1.03125,0.03125 -1.328125,0.03125 -0.296875,0 -1.015625,-0.03125 -1.328125,-0.03125 -0.0625,0 -0.1875,0 -0.1875,0.203125 C 1.96875,-6.5 2.046875,-6.5 2.25,-6.5 c 0.40625,0 0.6875,0 0.6875,0.1875 0,0.046875 0,0.078125 -0.03125,0.15625 l -1.34375,5.375 c -0.09375,0.375 -0.109375,0.46875 -0.90625,0.46875 -0.234375,0 -0.3125,0 -0.3125,0.203125 C 0.34375,0 0.453125,0 0.484375,0 0.78125,0 1.5,-0.03125 1.796875,-0.03125 2.09375,-0.03125 2.828125,0 3.125,0 c 0.078125,0 0.203125,0 0.203125,-0.1875 0,-0.125 -0.078125,-0.125 -0.296875,-0.125 -0.1875,0 -0.234375,0 -0.421875,-0.015625 -0.21875,-0.015625 -0.25,-0.0625 -0.25,-0.171875 0,-0.078125 0.015625,-0.15625 0.03125,-0.234375 z m 0,0"
           id="id-c83bc342-1a1c-40f3-9052-f8eb956fb523-2" />
      </g>
      <g
         id="id-bab20fff-9ba4-44bf-b4ce-452eb78ea7d0-2">
        <path
           d="m 1.859375,-2.296875 c 0.296875,0 1.03125,-0.03125 1.53125,-0.234375 0.703125,-0.296875 0.75,-0.890625 0.75,-1.03125 0,-0.4375 -0.375,-0.84375 -1.0625,-0.84375 -1.109375,0 -2.625,0.96875 -2.625,2.71875 0,1.015625 0.59375,1.796875 1.578125,1.796875 1.421875,0 2.25,-1.0625 2.25,-1.171875 0,-0.0625 -0.046875,-0.140625 -0.109375,-0.140625 -0.0625,0 -0.078125,0.03125 -0.140625,0.109375 -0.78125,0.984375 -1.875,0.984375 -1.984375,0.984375 -0.78125,0 -0.875,-0.84375 -0.875,-1.15625 0,-0.125 0.015625,-0.421875 0.15625,-1.03125 z m -0.46875,-0.21875 C 1.78125,-4.03125 2.8125,-4.1875 3.078125,-4.1875 c 0.453125,0 0.734375,0.296875 0.734375,0.625 0,1.046875 -1.59375,1.046875 -2.015625,1.046875 z m 0,0"
           id="id-b06a2262-59f5-4b2a-b8c0-cab1fc98fa6f-7" />
      </g>
      <g
         id="id-a1720436-856b-4e66-af8f-e4e4dc3fcb3b-3">
        <path
           d="m 6.84375,-3.265625 c 0.15625,0 0.34375,0 0.34375,-0.1875 C 7.1875,-3.65625 7,-3.65625 6.859375,-3.65625 h -5.96875 c -0.140625,0 -0.328125,0 -0.328125,0.203125 0,0.1875 0.1875,0.1875 0.328125,0.1875 z m 0.015625,1.9375 c 0.140625,0 0.328125,0 0.328125,-0.203125 0,-0.1875 -0.1875,-0.1875 -0.34375,-0.1875 H 0.890625 c -0.140625,0 -0.328125,0 -0.328125,0.1875 0,0.203125 0.1875,0.203125 0.328125,0.203125 z m 0,0"
           id="id-2790929d-0f51-4af9-8343-ae9c31d59f46-7" />
      </g>
      <g
         id="id-a36628c8-8b95-446b-b065-42ff58f27111-9">
        <path
           d="M 3.59375,-2.21875 C 3.59375,-2.984375 3.5,-3.546875 3.1875,-4.03125 2.96875,-4.34375 2.53125,-4.625 1.984375,-4.625 c -1.625,0 -1.625,1.90625 -1.625,2.40625 0,0.5 0,2.359375 1.625,2.359375 1.609375,0 1.609375,-1.859375 1.609375,-2.359375 z M 1.984375,-0.0625 c -0.328125,0 -0.75,-0.1875 -0.890625,-0.75 C 1,-1.21875 1,-1.796875 1,-2.3125 1,-2.828125 1,-3.359375 1.09375,-3.734375 1.25,-4.28125 1.6875,-4.4375 1.984375,-4.4375 c 0.375,0 0.734375,0.234375 0.859375,0.640625 0.109375,0.375 0.125,0.875 0.125,1.484375 0,0.515625 0,1.03125 -0.09375,1.46875 -0.140625,0.640625 -0.609375,0.78125 -0.890625,0.78125 z m 0,0"
           id="id-e28cd332-fa49-4b0e-a6df-397531a63ae5-0" />
      </g>
      <g
         id="id-552ce237-45a2-4f72-8790-5fb57ec7e248-2">
        <path
           d="m 5.1875,-1.578125 c 0.109375,0 0.28125,0 0.28125,-0.15625 0,-0.1875 -0.171875,-0.1875 -0.28125,-0.1875 H 1.03125 c -0.109375,0 -0.28125,0 -0.28125,0.171875 0,0.171875 0.15625,0.171875 0.28125,0.171875 z m 0,0"
           id="id-33b7c2e2-4f6a-41ff-8308-9911241dc57b-3" />
      </g>
      <g
         id="id-a8c6e11b-1583-4380-b722-b638284d47e9-9">
        <path
           d="M 1.578125,-1.734375 C 1.578125,-2 1.375,-2.140625 1.1875,-2.140625 c -0.234375,0 -0.40625,0.1875 -0.40625,0.390625 0,0.25 0.203125,0.40625 0.390625,0.40625 0.234375,0 0.40625,-0.1875 0.40625,-0.390625 z m 0,0"
           id="id-b4844b1d-421c-4802-82bf-0c3a1997f8a7-9" />
      </g>
      <g
         id="id-4c35e917-dae1-4186-8729-6b2dae299258-7">
        <path
           d="m 3.8125,-0.984375 c 0.640625,-0.65625 0.890625,-1.59375 0.890625,-1.65625 0,-0.09375 -0.078125,-0.09375 -0.109375,-0.09375 C 4.5,-2.734375 4.5,-2.71875 4.453125,-2.5625 4.328125,-2.109375 4.09375,-1.671875 3.796875,-1.296875 3.796875,-1.40625 3.78125,-1.875 3.765625,-1.9375 3.65625,-2.625 3.140625,-3.078125 2.4375,-3.078125 c -1.015625,0 -2,0.953125 -2,1.9375 0,0.640625 0.46875,1.203125 1.265625,1.203125 0.640625,0 1.21875,-0.28125 1.609375,-0.578125 0.171875,0.5 0.515625,0.578125 0.734375,0.578125 0.40625,0 0.65625,-0.328125 0.65625,-0.484375 C 4.703125,-0.5 4.609375,-0.5 4.578125,-0.5 c -0.09375,0 -0.109375,0.03125 -0.125,0.0625 -0.09375,0.265625 -0.3125,0.3125 -0.390625,0.3125 -0.09375,0 -0.21875,0 -0.25,-0.859375 z M 3.265625,-0.75 C 2.578125,-0.1875 2,-0.125 1.734375,-0.125 c -0.46875,0 -0.71875,-0.3125 -0.71875,-0.78125 0,-0.1875 0.09375,-0.953125 0.453125,-1.4375 C 1.796875,-2.765625 2.1875,-2.875 2.4375,-2.875 c 0.546875,0 0.71875,0.53125 0.765625,0.96875 0.046875,0.296875 0.03125,0.796875 0.0625,1.15625 z m 0,0"
           id="id-996bcf52-cc44-4185-bacc-a31aeafae489-0" />
      </g>
      <g
         id="id-daf21033-3874-4100-82c9-1e75f90dd3e8-3">
        <path
           d="M 3.984375,-4.625 C 3.984375,-4.640625 4,-4.734375 4,-4.734375 4,-4.78125 3.984375,-4.84375 3.890625,-4.84375 3.75,-4.84375 3.171875,-4.78125 3,-4.765625 c -0.046875,0 -0.15625,0.015625 -0.15625,0.15625 0,0.09375 0.109375,0.09375 0.1875,0.09375 0.328125,0 0.328125,0.0625 0.328125,0.109375 0,0.046875 0,0.09375 -0.015625,0.15625 L 2.9375,-2.65625 c -0.140625,-0.234375 -0.375,-0.421875 -0.71875,-0.421875 -0.890625,0 -1.796875,0.984375 -1.796875,1.984375 0,0.6875 0.453125,1.15625 1.0625,1.15625 0.375,0 0.703125,-0.203125 0.984375,-0.484375 C 2.59375,0 3,0.0625 3.1875,0.0625 c 0.25,0 0.421875,-0.140625 0.546875,-0.359375 0.15625,-0.28125 0.25,-0.671875 0.25,-0.703125 0,-0.09375 -0.09375,-0.09375 -0.109375,-0.09375 -0.109375,0 -0.109375,0.03125 -0.15625,0.21875 C 3.625,-0.53125 3.5,-0.125 3.203125,-0.125 3.03125,-0.125 2.96875,-0.28125 2.96875,-0.46875 c 0,-0.125 0.015625,-0.1875 0.046875,-0.28125 z M 2.5,-0.875 C 2.453125,-0.671875 2.296875,-0.53125 2.140625,-0.40625 2.078125,-0.34375 1.796875,-0.125 1.5,-0.125 c -0.265625,0 -0.515625,-0.1875 -0.515625,-0.671875 0,-0.375 0.203125,-1.140625 0.375,-1.421875 0.3125,-0.5625 0.671875,-0.65625 0.859375,-0.65625 0.484375,0 0.625,0.53125 0.625,0.609375 0,0.015625 -0.015625,0.078125 -0.015625,0.09375 z m 0,0"
           id="id-6b137bd3-a469-451a-b7e8-4213bb69538f-9" />
      </g>
      <g
         id="id-4b0ff8ba-f15b-4234-a3b0-3d8714f5eea2-8">
        <path
           d="M 1.984375,-3.171875 C 1.984375,-3.3125 1.96875,-3.3125 1.796875,-3.3125 1.453125,-3 0.890625,-3 0.796875,-3 H 0.71875 v 0.21875 h 0.078125 c 0.109375,0 0.4375,-0.015625 0.734375,-0.140625 v 2.5 c 0,0.140625 0,0.203125 -0.53125,0.203125 H 0.75 V 0 c 0.265625,-0.015625 0.71875,-0.015625 1,-0.015625 0.296875,0 0.734375,0 1.015625,0.015625 v -0.21875 h -0.25 c -0.53125,0 -0.53125,-0.0625 -0.53125,-0.203125 z m 0,0"
           id="id-27dbc442-819e-46c7-a285-bbfc61db1f5e-6" />
      </g>
    </g>
    <defs
       id="id-597c0764-a2ca-437a-a4a7-524fecd1302c-9">
      <g
         id="g16">
        <g
           id="g6">
          <path
             d="M 3.734375,-6.046875 C 3.8125,-6.40625 3.84375,-6.5 4.640625,-6.5 c 0.234375,0 0.3125,0 0.3125,-0.1875 0,-0.125 -0.109375,-0.125 -0.140625,-0.125 -0.296875,0 -1.03125,0.03125 -1.328125,0.03125 -0.296875,0 -1.015625,-0.03125 -1.328125,-0.03125 -0.0625,0 -0.1875,0 -0.1875,0.203125 C 1.96875,-6.5 2.046875,-6.5 2.25,-6.5 c 0.40625,0 0.6875,0 0.6875,0.1875 0,0.046875 0,0.078125 -0.03125,0.15625 l -1.34375,5.375 c -0.09375,0.375 -0.109375,0.46875 -0.90625,0.46875 -0.234375,0 -0.3125,0 -0.3125,0.203125 C 0.34375,0 0.453125,0 0.484375,0 0.78125,0 1.5,-0.03125 1.796875,-0.03125 2.09375,-0.03125 2.828125,0 3.125,0 c 0.078125,0 0.203125,0 0.203125,-0.1875 0,-0.125 -0.078125,-0.125 -0.296875,-0.125 -0.1875,0 -0.234375,0 -0.421875,-0.015625 -0.21875,-0.015625 -0.25,-0.0625 -0.25,-0.171875 0,-0.078125 0.015625,-0.15625 0.03125,-0.234375 z m 0,0"
             id="path6" />
        </g>
        <g
           id="g7">
          <path
             d="m 1.859375,-2.296875 c 0.296875,0 1.03125,-0.03125 1.53125,-0.234375 0.703125,-0.296875 0.75,-0.890625 0.75,-1.03125 0,-0.4375 -0.375,-0.84375 -1.0625,-0.84375 -1.109375,0 -2.625,0.96875 -2.625,2.71875 0,1.015625 0.59375,1.796875 1.578125,1.796875 1.421875,0 2.25,-1.0625 2.25,-1.171875 0,-0.0625 -0.046875,-0.140625 -0.109375,-0.140625 -0.0625,0 -0.078125,0.03125 -0.140625,0.109375 -0.78125,0.984375 -1.875,0.984375 -1.984375,0.984375 -0.78125,0 -0.875,-0.84375 -0.875,-1.15625 0,-0.125 0.015625,-0.421875 0.15625,-1.03125 z m -0.46875,-0.21875 C 1.78125,-4.03125 2.8125,-4.1875 3.078125,-4.1875 c 0.453125,0 0.734375,0.296875 0.734375,0.625 0,1.046875 -1.59375,1.046875 -2.015625,1.046875 z m 0,0"
             id="path7" />
        </g>
        <g
           id="g9">
          <path
             d="m 6.84375,-3.265625 c 0.15625,0 0.34375,0 0.34375,-0.1875 C 7.1875,-3.65625 7,-3.65625 6.859375,-3.65625 h -5.96875 c -0.140625,0 -0.328125,0 -0.328125,0.203125 0,0.1875 0.1875,0.1875 0.328125,0.1875 z m 0.015625,1.9375 c 0.140625,0 0.328125,0 0.328125,-0.203125 0,-0.1875 -0.1875,-0.1875 -0.34375,-0.1875 H 0.890625 c -0.140625,0 -0.328125,0 -0.328125,0.1875 0,0.203125 0.1875,0.203125 0.328125,0.203125 z m 0,0"
             id="path9" />
        </g>
        <g
           id="g10">
          <path
             d="M 3.59375,-2.21875 C 3.59375,-2.984375 3.5,-3.546875 3.1875,-4.03125 2.96875,-4.34375 2.53125,-4.625 1.984375,-4.625 c -1.625,0 -1.625,1.90625 -1.625,2.40625 0,0.5 0,2.359375 1.625,2.359375 1.609375,0 1.609375,-1.859375 1.609375,-2.359375 z M 1.984375,-0.0625 c -0.328125,0 -0.75,-0.1875 -0.890625,-0.75 C 1,-1.21875 1,-1.796875 1,-2.3125 1,-2.828125 1,-3.359375 1.09375,-3.734375 1.25,-4.28125 1.6875,-4.4375 1.984375,-4.4375 c 0.375,0 0.734375,0.234375 0.859375,0.640625 0.109375,0.375 0.125,0.875 0.125,1.484375 0,0.515625 0,1.03125 -0.09375,1.46875 -0.140625,0.640625 -0.609375,0.78125 -0.890625,0.78125 z m 0,0"
             id="path10" />
        </g>
        <g
           id="g11">
          <path
             d="m 5.1875,-1.578125 c 0.109375,0 0.28125,0 0.28125,-0.15625 0,-0.1875 -0.171875,-0.1875 -0.28125,-0.1875 H 1.03125 c -0.109375,0 -0.28125,0 -0.28125,0.171875 0,0.171875 0.15625,0.171875 0.28125,0.171875 z m 0,0"
             id="path11" />
        </g>
        <g
           id="g12">
          <path
             d="M 1.578125,-1.734375 C 1.578125,-2 1.375,-2.140625 1.1875,-2.140625 c -0.234375,0 -0.40625,0.1875 -0.40625,0.390625 0,0.25 0.203125,0.40625 0.390625,0.40625 0.234375,0 0.40625,-0.1875 0.40625,-0.390625 z m 0,0"
             id="path12" />
        </g>
        <g
           id="g13">
          <path
             d="m 3.8125,-0.984375 c 0.640625,-0.65625 0.890625,-1.59375 0.890625,-1.65625 0,-0.09375 -0.078125,-0.09375 -0.109375,-0.09375 C 4.5,-2.734375 4.5,-2.71875 4.453125,-2.5625 4.328125,-2.109375 4.09375,-1.671875 3.796875,-1.296875 3.796875,-1.40625 3.78125,-1.875 3.765625,-1.9375 3.65625,-2.625 3.140625,-3.078125 2.4375,-3.078125 c -1.015625,0 -2,0.953125 -2,1.9375 0,0.640625 0.46875,1.203125 1.265625,1.203125 0.640625,0 1.21875,-0.28125 1.609375,-0.578125 0.171875,0.5 0.515625,0.578125 0.734375,0.578125 0.40625,0 0.65625,-0.328125 0.65625,-0.484375 C 4.703125,-0.5 4.609375,-0.5 4.578125,-0.5 c -0.09375,0 -0.109375,0.03125 -0.125,0.0625 -0.09375,0.265625 -0.3125,0.3125 -0.390625,0.3125 -0.09375,0 -0.21875,0 -0.25,-0.859375 z M 3.265625,-0.75 C 2.578125,-0.1875 2,-0.125 1.734375,-0.125 c -0.46875,0 -0.71875,-0.3125 -0.71875,-0.78125 0,-0.1875 0.09375,-0.953125 0.453125,-1.4375 C 1.796875,-2.765625 2.1875,-2.875 2.4375,-2.875 c 0.546875,0 0.71875,0.53125 0.765625,0.96875 0.046875,0.296875 0.03125,0.796875 0.0625,1.15625 z m 0,0"
             id="path13" />
        </g>
        <g
           id="g14">
          <path
             d="M 3.984375,-4.625 C 3.984375,-4.640625 4,-4.734375 4,-4.734375 4,-4.78125 3.984375,-4.84375 3.890625,-4.84375 3.75,-4.84375 3.171875,-4.78125 3,-4.765625 c -0.046875,0 -0.15625,0.015625 -0.15625,0.15625 0,0.09375 0.109375,0.09375 0.1875,0.09375 0.328125,0 0.328125,0.0625 0.328125,0.109375 0,0.046875 0,0.09375 -0.015625,0.15625 L 2.9375,-2.65625 c -0.140625,-0.234375 -0.375,-0.421875 -0.71875,-0.421875 -0.890625,0 -1.796875,0.984375 -1.796875,1.984375 0,0.6875 0.453125,1.15625 1.0625,1.15625 0.375,0 0.703125,-0.203125 0.984375,-0.484375 C 2.59375,0 3,0.0625 3.1875,0.0625 c 0.25,0 0.421875,-0.140625 0.546875,-0.359375 0.15625,-0.28125 0.25,-0.671875 0.25,-0.703125 0,-0.09375 -0.09375,-0.09375 -0.109375,-0.09375 -0.109375,0 -0.109375,0.03125 -0.15625,0.21875 C 3.625,-0.53125 3.5,-0.125 3.203125,-0.125 3.03125,-0.125 2.96875,-0.28125 2.96875,-0.46875 c 0,-0.125 0.015625,-0.1875 0.046875,-0.28125 z M 2.5,-0.875 C 2.453125,-0.671875 2.296875,-0.53125 2.140625,-0.40625 2.078125,-0.34375 1.796875,-0.125 1.5,-0.125 c -0.265625,0 -0.515625,-0.1875 -0.515625,-0.671875 0,-0.375 0.203125,-1.140625 0.375,-1.421875 0.3125,-0.5625 0.671875,-0.65625 0.859375,-0.65625 0.484375,0 0.625,0.53125 0.625,0.609375 0,0.015625 -0.015625,0.078125 -0.015625,0.09375 z m 0,0"
             id="path14" />
        </g>
        <g
           id="g15">
          <path
             d="M 1.984375,-3.171875 C 1.984375,-3.3125 1.96875,-3.3125 1.796875,-3.3125 1.453125,-3 0.890625,-3 0.796875,-3 H 0.71875 v 0.21875 h 0.078125 c 0.109375,0 0.4375,-0.015625 0.734375,-0.140625 v 2.5 c 0,0.140625 0,0.203125 -0.53125,0.203125 H 0.75 V 0 c 0.265625,-0.015625 0.71875,-0.015625 1,-0.015625 0.296875,0 0.734375,0 1.015625,0.015625 v -0.21875 h -0.25 c -0.53125,0 -0.53125,-0.0625 -0.53125,-0.203125 z m 0,0"
             id="path15" />
        </g>
      </g>
    </defs>
  </defs>
  <g
     inkscape:label="Layer 1"
     inkscape:groupmode="layer"
     id="layer1"
     transform="translate(-11.173161,-5.3984021)">
    <rect
       style="fill:#dcdcdc;fill-opacity:1;stroke:#323232;stroke-width:0.1;stroke-linecap:round;stroke-dasharray:none;stroke-opacity:1"
       id="rect3"
       width="42.333332"
       height="31.750002"
       x="22.817553"
       y="-97.000885"
       ry="0.42061454"
       transform="rotate(90)" />
    <rect
       style="fill:#646464;fill-opacity:1;stroke:#323232;stroke-width:0.1;stroke-linecap:round;stroke-dasharray:none;stroke-opacity:1"
       id="rect1"
       width="10.583333"
       height="10.583333"
       x="28.109219"
       y="-91.709221"
       ry="0.42061454"
       transform="rotate(90)" />
    <rect
       style="fill:#c8c8c8;fill-opacity:1;stroke:#323232;stroke-width:0.1;stroke-linecap:round;stroke-dasharray:none;stroke-opacity:1"
       id="rect2"
       width="11.024"
       height="21.711182"
       x="48.879738"
       y="-92.253731"
       ry="0.28316396"
       transform="rotate(90)" />
    <path
       style="fill:none;stroke:#000000;stroke-width:0.264583px;stroke-linecap:butt;stroke-linejoin:miter;stroke-opacity:1;marker-start:url(#RoundedArrow);marker-end:url(#RoundedArrow)"
       d="M 91.659216,17.575886 H 81.075882"
       id="path4" />
    <text
       xml:space="preserve"
       style="font-size:5.64444px;line-height:1.25;font-family:sans-serif;stroke-width:0.264583"
       x="84.715286"
       y="12.298779"
       id="text4"><tspan
         sodipodi:role="line"
         id="tspan4"
         style="stroke-width:0.264583"
         x="84.715286"
         y="12.298779">d</tspan></text>
    <text
       xml:space="preserve"
       style="font-size:5.64444px;line-height:1.25;font-family:sans-serif;stroke-width:0.264583"
       x="78.069008"
       y="78.796089"
       id="text4-9"><tspan
         sodipodi:role="line"
         id="tspan4-5"
         style="stroke-width:0.264583"
         x="78.069008"
         y="78.796089">2d</tspan></text>
    <path
       style="fill:none;stroke:#000000;stroke-width:0.264583px;stroke-linecap:butt;stroke-linejoin:miter;stroke-opacity:1;marker-start:url(#RoundedArrow);marker-end:url(#RoundedArrow)"
       d="M 70.492549,70.492554 H 91.659216"
       id="path5" />
    <rect
       style="fill:#c8c8c8;fill-opacity:1;stroke:#323232;stroke-width:0.1;stroke-linecap:round;stroke-dasharray:none;stroke-opacity:1"
       id="rect5"
       width="5.2916665"
       height="10.583333"
       x="123.40921"
       y="17.575886"
       ry="0.42061454" />
    <rect
       style="fill:#666666;fill-opacity:1;stroke:#323232;stroke-width:0.1;stroke-linecap:round;stroke-dasharray:none;stroke-opacity:1"
       id="rect5-3"
       width="5.2916665"
       height="10.583333"
       x="123.40921"
       y="28.109219"
       ry="0.42061454" />
    <rect
       style="fill:#666666;fill-opacity:1;stroke:#323232;stroke-width:0.1;stroke-linecap:round;stroke-dasharray:none;stroke-opacity:1"
       id="rect5-3-9"
       width="5.2916665"
       height="10.583333"
       x="123.40921"
       y="49.288189"
       ry="0.42061454" />
    <rect
       style="fill:#c8c8c8;fill-opacity:1;stroke:#323232;stroke-width:0.1;stroke-linecap:round;stroke-dasharray:none;stroke-opacity:1"
       id="rect6"
       width="5.2916665"
       height="10.583333"
       x="123.40921"
       y="38.742558"
       ry="0.42061454" />
    <rect
       style="fill:#c8c8c8;fill-opacity:1;stroke:#323232;stroke-width:0.1;stroke-linecap:round;stroke-dasharray:none;stroke-opacity:1"
       id="rect7"
       width="5.3416681"
       height="10.53882"
       x="123.35923"
       y="59.953735"
       ry="0.42061454" />
    <text
       xml:space="preserve"
       style="font-size:5.64444px;line-height:1.25;font-family:sans-serif;stroke-width:0.264583"
       x="83.424065"
       y="34.498196"
       id="text10"><tspan
         sodipodi:role="line"
         id="tspan10"
         x="83.424065"
         y="34.498196"
         style="fill:#ffffff">α<tspan
   style="font-size:65%;baseline-shift:sub;fill:#ffffff"
   id="tspan11">1</tspan></tspan></text>
    <text
       xml:space="preserve"
       style="font-size:5.64444px;line-height:1.25;font-family:sans-serif;stroke-width:0.264583"
       x="78.519974"
       y="55.597397"
       id="text10-5"><tspan
         sodipodi:role="line"
         id="tspan10-5"
         x="78.519974"
         y="55.597397"
         style="fill:#ffffff">α<tspan
   style="font-size:65%;baseline-shift:sub"
   id="tspan12">2</tspan></tspan></text>
    <text
       xml:space="preserve"
       style="font-size:5.64444px;line-height:1.25;font-family:sans-serif;stroke-width:0.264583"
       x="109.13092"
       y="11.230644"
       id="text13"><tspan
         sodipodi:role="line"
         id="tspan13"
         style="stroke-width:0.264583"
         x="109.13092"
         y="11.230644">Detector image</tspan></text>
    <g
       transform="matrix(0.73758778,0,0,0.73758778,66.277383,84.16604)"
       ns10:version="1.10.2"
       ns10:texconverter="pdflatex"
       ns10:pdfconverter="inkscape"
       ns10:text="$\\alpha_1 = 2\\cdot \\alpha_2$"
       ns10:preamble="/Users/kaestner/Library/Application Support/org.inkscape.Inkscape/config/inkscape/extensions/textext/default_packages.tex"
       ns10:scale="1.0"
       ns10:alignment="middle center"
       ns10:stroke-to-path="0"
       ns10:inkscapeversion="1.3.2"
       id="g4376"
       ns10:jacobian_sqrt="0.352778">
      <defs
         id="id-90aef6b3-e388-4a71-89ac-62b8b50956f2">
        <g
           id="id-af19acbf-d52f-493e-b4cb-bb0e05c3e00d">
          <g
             id="id-63f4e590-a431-4dc6-885e-03bf4cf33630">
            <path
               d="m 4.75,-2.359375 c 0,-1.5625 -0.921875,-2.046875 -1.65625,-2.046875 -1.375,0 -2.6875,1.421875 -2.6875,2.828125 0,0.9375 0.59375,1.6875 1.625,1.6875 0.625,0 1.34375,-0.234375 2.09375,-0.84375 0.125,0.53125 0.453125,0.84375 0.90625,0.84375 0.53125,0 0.84375,-0.546875 0.84375,-0.703125 0,-0.078125 -0.0625,-0.109375 -0.125,-0.109375 -0.0625,0 -0.09375,0.03125 -0.125,0.109375 -0.1875,0.484375 -0.546875,0.484375 -0.5625,0.484375 -0.3125,0 -0.3125,-0.78125 -0.3125,-1.015625 0,-0.203125 0,-0.234375 0.109375,-0.34375 C 5.796875,-2.65625 6,-3.8125 6,-3.8125 6,-3.84375 5.984375,-3.921875 5.875,-3.921875 c -0.09375,0 -0.09375,0.03125 -0.140625,0.21875 -0.1875,0.625 -0.515625,1.375 -0.984375,1.96875 z m -0.65625,1.375 c -0.890625,0.765625 -1.65625,0.875 -2.046875,0.875 -0.59375,0 -0.90625,-0.453125 -0.90625,-1.09375 0,-0.484375 0.265625,-1.5625 0.578125,-2.0625 C 2.1875,-4 2.734375,-4.1875 3.078125,-4.1875 c 0.984375,0 0.984375,1.3125 0.984375,2.078125 0,0.375 0,0.953125 0.03125,1.125 z m 0,0"
               id="id-e636249d-10bc-48e5-bb14-d563ca19c296" />
          </g>
          <g
             id="id-aa37ff0d-c9ce-4327-93ae-50a6f77d2ca1">
            <path
               d="m 2.328125,-4.4375 c 0,-0.1875 0,-0.1875 -0.203125,-0.1875 -0.453125,0.4375 -1.078125,0.4375 -1.359375,0.4375 v 0.25 c 0.15625,0 0.625,0 1,-0.1875 v 3.546875 c 0,0.234375 0,0.328125 -0.6875,0.328125 H 0.8125 V 0 c 0.125,0 0.984375,-0.03125 1.234375,-0.03125 0.21875,0 1.09375,0.03125 1.25,0.03125 V -0.25 H 3.03125 c -0.703125,0 -0.703125,-0.09375 -0.703125,-0.328125 z m 0,0"
               id="id-81dd4803-8a48-4be3-96e0-1620a3b2e689" />
          </g>
          <g
             id="id-888c6630-0f23-4ccf-97ac-cd75bf712023">
            <path
               d="M 3.515625,-1.265625 H 3.28125 c -0.015625,0.15625 -0.09375,0.5625 -0.1875,0.625 C 3.046875,-0.59375 2.515625,-0.59375 2.40625,-0.59375 H 1.125 c 0.734375,-0.640625 0.984375,-0.84375 1.390625,-1.171875 0.515625,-0.40625 1,-0.84375 1,-1.5 0,-0.84375 -0.734375,-1.359375 -1.625,-1.359375 -0.859375,0 -1.453125,0.609375 -1.453125,1.25 0,0.34375 0.296875,0.390625 0.375,0.390625 0.15625,0 0.359375,-0.125 0.359375,-0.375 0,-0.125 -0.046875,-0.375 -0.40625,-0.375 C 0.984375,-4.21875 1.453125,-4.375 1.78125,-4.375 c 0.703125,0 1.0625,0.546875 1.0625,1.109375 0,0.609375 -0.4375,1.078125 -0.65625,1.328125 L 0.515625,-0.265625 C 0.4375,-0.203125 0.4375,-0.1875 0.4375,0 h 2.875 z m 0,0"
               id="id-90db51a4-28c1-4d7e-846f-1205f409f6c6" />
          </g>
          <g
             id="id-02a97674-349e-4185-965e-d08dafa484cd">
            <path
               d="m 6.84375,-3.265625 c 0.15625,0 0.34375,0 0.34375,-0.1875 C 7.1875,-3.65625 7,-3.65625 6.859375,-3.65625 h -5.96875 c -0.140625,0 -0.328125,0 -0.328125,0.203125 0,0.1875 0.1875,0.1875 0.328125,0.1875 z m 0.015625,1.9375 c 0.140625,0 0.328125,0 0.328125,-0.203125 0,-0.1875 -0.1875,-0.1875 -0.34375,-0.1875 H 0.890625 c -0.140625,0 -0.328125,0 -0.328125,0.1875 0,0.203125 0.1875,0.203125 0.328125,0.203125 z m 0,0"
               id="id-2b6e51db-4583-4b6f-b403-bc3eeb2ab458" />
          </g>
          <g
             id="id-b7960596-da9a-4328-94c1-1a71fefff3ac">
            <path
               d="m 1.265625,-0.765625 1.0625,-1.03125 c 1.546875,-1.375 2.140625,-1.90625 2.140625,-2.90625 0,-1.140625 -0.890625,-1.9375 -2.109375,-1.9375 -1.125,0 -1.859375,0.921875 -1.859375,1.8125 0,0.546875 0.5,0.546875 0.53125,0.546875 0.171875,0 0.515625,-0.109375 0.515625,-0.53125 0,-0.25 -0.1875,-0.515625 -0.53125,-0.515625 -0.078125,0 -0.09375,0 -0.125,0.015625 0.21875,-0.65625 0.765625,-1.015625 1.34375,-1.015625 0.90625,0 1.328125,0.8125 1.328125,1.625 C 3.5625,-3.90625 3.078125,-3.125 2.515625,-2.5 l -1.90625,2.125 C 0.5,-0.265625 0.5,-0.234375 0.5,0 H 4.203125 L 4.46875,-1.734375 H 4.234375 C 4.171875,-1.4375 4.109375,-1 4,-0.84375 3.9375,-0.765625 3.28125,-0.765625 3.0625,-0.765625 Z m 0,0"
               id="id-464b2caa-d7dd-4358-a8db-97b1472d6765" />
          </g>
          <g
             id="id-dcf99afa-5861-452a-95c1-2838053cc951">
            <path
               d="m 1.90625,-2.5 c 0,-0.28125 -0.234375,-0.515625 -0.515625,-0.515625 -0.296875,0 -0.53125,0.234375 -0.53125,0.515625 0,0.296875 0.234375,0.53125 0.53125,0.53125 0.28125,0 0.515625,-0.234375 0.515625,-0.53125 z m 0,0"
               id="id-9fda43db-86ae-4d7b-9f17-f9a696e76614" />
          </g>
        </g>
      </defs>
      <g
         fill="#000000"
         fill-opacity="1"
         id="id-7c56ae0b-63a6-4366-91e3-025475d6c32e"
         transform="translate(-149.118,-128.124)">
        <g
           transform="translate(148.712,134.765)"
           id="g7257">
          <path
             d="m 4.75,-2.359375 c 0,-1.5625 -0.921875,-2.046875 -1.65625,-2.046875 -1.375,0 -2.6875,1.421875 -2.6875,2.828125 0,0.9375 0.59375,1.6875 1.625,1.6875 0.625,0 1.34375,-0.234375 2.09375,-0.84375 0.125,0.53125 0.453125,0.84375 0.90625,0.84375 0.53125,0 0.84375,-0.546875 0.84375,-0.703125 0,-0.078125 -0.0625,-0.109375 -0.125,-0.109375 -0.0625,0 -0.09375,0.03125 -0.125,0.109375 -0.1875,0.484375 -0.546875,0.484375 -0.5625,0.484375 -0.3125,0 -0.3125,-0.78125 -0.3125,-1.015625 0,-0.203125 0,-0.234375 0.109375,-0.34375 C 5.796875,-2.65625 6,-3.8125 6,-3.8125 6,-3.84375 5.984375,-3.921875 5.875,-3.921875 c -0.09375,0 -0.09375,0.03125 -0.140625,0.21875 -0.1875,0.625 -0.515625,1.375 -0.984375,1.96875 z m -0.65625,1.375 c -0.890625,0.765625 -1.65625,0.875 -2.046875,0.875 -0.59375,0 -0.90625,-0.453125 -0.90625,-1.09375 0,-0.484375 0.265625,-1.5625 0.578125,-2.0625 C 2.1875,-4 2.734375,-4.1875 3.078125,-4.1875 c 0.984375,0 0.984375,1.3125 0.984375,2.078125 0,0.375 0,0.953125 0.03125,1.125 z m 0,0"
             id="id-f2c63b54-74c4-420d-b02d-4978d384d4da" />
        </g>
      </g>
      <g
         fill="#000000"
         fill-opacity="1"
         id="id-1e403d97-4da3-4511-8fd5-1c5a5dfe44b8"
         transform="translate(-149.118,-128.124)">
        <g
           transform="translate(155.085,136.259)"
           id="g4706">
          <path
             d="m 2.328125,-4.4375 c 0,-0.1875 0,-0.1875 -0.203125,-0.1875 -0.453125,0.4375 -1.078125,0.4375 -1.359375,0.4375 v 0.25 c 0.15625,0 0.625,0 1,-0.1875 v 3.546875 c 0,0.234375 0,0.328125 -0.6875,0.328125 H 0.8125 V 0 c 0.125,0 0.984375,-0.03125 1.234375,-0.03125 0.21875,0 1.09375,0.03125 1.25,0.03125 V -0.25 H 3.03125 c -0.703125,0 -0.703125,-0.09375 -0.703125,-0.328125 z m 0,0"
             id="id-6994caba-6380-4c7a-817b-3ddafe4163ce" />
        </g>
      </g>
      <g
         fill="#000000"
         fill-opacity="1"
         id="id-fb2060ef-44b7-425a-8ff9-81b531218563"
         transform="translate(-149.118,-128.124)">
        <g
           transform="translate(162.322,134.765)"
           id="g9723">
          <path
             d="m 6.84375,-3.265625 c 0.15625,0 0.34375,0 0.34375,-0.1875 C 7.1875,-3.65625 7,-3.65625 6.859375,-3.65625 h -5.96875 c -0.140625,0 -0.328125,0 -0.328125,0.203125 0,0.1875 0.1875,0.1875 0.328125,0.1875 z m 0.015625,1.9375 c 0.140625,0 0.328125,0 0.328125,-0.203125 0,-0.1875 -0.1875,-0.1875 -0.34375,-0.1875 H 0.890625 c -0.140625,0 -0.328125,0 -0.328125,0.1875 0,0.203125 0.1875,0.203125 0.328125,0.203125 z m 0,0"
             id="id-a97d56b4-41b5-40ef-b434-8ca1c905b611" />
        </g>
      </g>
      <g
         fill="#000000"
         fill-opacity="1"
         id="id-022244ce-130e-4dc8-823f-c973f188c137"
         transform="translate(-149.118,-128.124)">
        <g
           transform="translate(172.841,134.765)"
           id="g1324">
          <path
             d="m 1.265625,-0.765625 1.0625,-1.03125 c 1.546875,-1.375 2.140625,-1.90625 2.140625,-2.90625 0,-1.140625 -0.890625,-1.9375 -2.109375,-1.9375 -1.125,0 -1.859375,0.921875 -1.859375,1.8125 0,0.546875 0.5,0.546875 0.53125,0.546875 0.171875,0 0.515625,-0.109375 0.515625,-0.53125 0,-0.25 -0.1875,-0.515625 -0.53125,-0.515625 -0.078125,0 -0.09375,0 -0.125,0.015625 0.21875,-0.65625 0.765625,-1.015625 1.34375,-1.015625 0.90625,0 1.328125,0.8125 1.328125,1.625 C 3.5625,-3.90625 3.078125,-3.125 2.515625,-2.5 l -1.90625,2.125 C 0.5,-0.265625 0.5,-0.234375 0.5,0 H 4.203125 L 4.46875,-1.734375 H 4.234375 C 4.171875,-1.4375 4.109375,-1 4,-0.84375 3.9375,-0.765625 3.28125,-0.765625 3.0625,-0.765625 Z m 0,0"
             id="id-8e186a4b-1c87-4018-adcd-d3b830bc983e" />
        </g>
      </g>
      <g
         fill="#000000"
         fill-opacity="1"
         id="id-c156b836-8868-44b6-bc01-d3ad75616186"
         transform="translate(-149.118,-128.124)">
        <g
           transform="translate(180.033,134.765)"
           id="g5560">
          <path
             d="m 1.90625,-2.5 c 0,-0.28125 -0.234375,-0.515625 -0.515625,-0.515625 -0.296875,0 -0.53125,0.234375 -0.53125,0.515625 0,0.296875 0.234375,0.53125 0.53125,0.53125 0.28125,0 0.515625,-0.234375 0.515625,-0.53125 z m 0,0"
             id="id-eae85ebe-8de3-4472-8d9d-790a716512de" />
        </g>
      </g>
      <g
         fill="#000000"
         fill-opacity="1"
         id="id-e858a0ec-dcf9-4f4d-a91d-c18648ecf70e"
         transform="translate(-149.118,-128.124)">
        <g
           transform="translate(185.015,134.765)"
           id="g8655">
          <path
             d="m 4.75,-2.359375 c 0,-1.5625 -0.921875,-2.046875 -1.65625,-2.046875 -1.375,0 -2.6875,1.421875 -2.6875,2.828125 0,0.9375 0.59375,1.6875 1.625,1.6875 0.625,0 1.34375,-0.234375 2.09375,-0.84375 0.125,0.53125 0.453125,0.84375 0.90625,0.84375 0.53125,0 0.84375,-0.546875 0.84375,-0.703125 0,-0.078125 -0.0625,-0.109375 -0.125,-0.109375 -0.0625,0 -0.09375,0.03125 -0.125,0.109375 -0.1875,0.484375 -0.546875,0.484375 -0.5625,0.484375 -0.3125,0 -0.3125,-0.78125 -0.3125,-1.015625 0,-0.203125 0,-0.234375 0.109375,-0.34375 C 5.796875,-2.65625 6,-3.8125 6,-3.8125 6,-3.84375 5.984375,-3.921875 5.875,-3.921875 c -0.09375,0 -0.09375,0.03125 -0.140625,0.21875 -0.1875,0.625 -0.515625,1.375 -0.984375,1.96875 z m -0.65625,1.375 c -0.890625,0.765625 -1.65625,0.875 -2.046875,0.875 -0.59375,0 -0.90625,-0.453125 -0.90625,-1.09375 0,-0.484375 0.265625,-1.5625 0.578125,-2.0625 C 2.1875,-4 2.734375,-4.1875 3.078125,-4.1875 c 0.984375,0 0.984375,1.3125 0.984375,2.078125 0,0.375 0,0.953125 0.03125,1.125 z m 0,0"
             id="id-b5b2d3a4-f079-45e0-94d6-db9f2612cf04" />
        </g>
      </g>
      <g
         fill="#000000"
         fill-opacity="1"
         id="id-2ce2dee7-60a1-486b-bdd9-4b9725fdc597"
         transform="translate(-149.118,-128.124)">
        <g
           transform="translate(191.388,136.259)"
           id="g6695">
          <path
             d="M 3.515625,-1.265625 H 3.28125 c -0.015625,0.15625 -0.09375,0.5625 -0.1875,0.625 C 3.046875,-0.59375 2.515625,-0.59375 2.40625,-0.59375 H 1.125 c 0.734375,-0.640625 0.984375,-0.84375 1.390625,-1.171875 0.515625,-0.40625 1,-0.84375 1,-1.5 0,-0.84375 -0.734375,-1.359375 -1.625,-1.359375 -0.859375,0 -1.453125,0.609375 -1.453125,1.25 0,0.34375 0.296875,0.390625 0.375,0.390625 0.15625,0 0.359375,-0.125 0.359375,-0.375 0,-0.125 -0.046875,-0.375 -0.40625,-0.375 C 0.984375,-4.21875 1.453125,-4.375 1.78125,-4.375 c 0.703125,0 1.0625,0.546875 1.0625,1.109375 0,0.609375 -0.4375,1.078125 -0.65625,1.328125 L 0.515625,-0.265625 C 0.4375,-0.203125 0.4375,-0.1875 0.4375,0 h 2.875 z m 0,0"
             id="id-4410123d-b8f4-41a7-8b91-df2ed93ef637" />
        </g>
      </g>
    </g>
    <path
       id="rect17"
       style="fill:#dde9af;stroke:#323232;stroke-width:0.093517;stroke-linecap:round"
       d="m 12.920805,35.78214 h 32.551192 l -0.25714,-3.704167 7.408333,11.906249 -7.408333,11.906249 0.25714,-3.175 H 12.920805 v -8.731249 z"
       sodipodi:nodetypes="ccccccccc" />
    <text
       xml:space="preserve"
       style="font-size:5.64444px;line-height:1.25;font-family:sans-serif;stroke-width:0.264583"
       x="18.504484"
       y="45.993404"
       id="text17"><tspan
         sodipodi:role="line"
         id="tspan17"
         style="stroke-width:0.264583"
         x="18.504484"
         y="45.993404">Beam (<tspan
   style="font-style:italic;font-variant:normal;font-weight:normal;font-stretch:normal;font-family:sans-serif;-inkscape-font-specification:'sans-serif Italic'"
   id="tspan19">I</tspan><tspan
   style="font-style:italic;font-variant:normal;font-weight:normal;font-stretch:normal;font-size:65%;font-family:sans-serif;-inkscape-font-specification:'sans-serif Italic';baseline-shift:sub"
   id="tspan18">0</tspan>)</tspan></text>
    <g
       transform="matrix(0.59439,0,0,0.59439,136.77788,32.359386)"
       ns10:version="1.10.2"
       ns10:texconverter="pdflatex"
       ns10:pdfconverter="inkscape"
       ns10:text="$I_1=I_0\\,e^{-\\alpha_1\\cdot d}$"
       ns10:preamble="/Users/kaestner/Library/Application Support/org.inkscape.Inkscape/config/inkscape/extensions/textext/default_packages.tex"
       ns10:scale="1.6848852252691495"
       ns10:alignment="middle center"
       ns10:stroke-to-path="0"
       ns10:inkscapeversion="1.3.2"
       id="g8732"
       ns10:jacobian_sqrt="0.59439">
      <defs
         id="id-4acebd2e-6c68-46dc-a943-4336177af09d">
        <g
           id="id-e68964d1-eae9-417b-9e83-cb0e26a74f57">
          <g
             id="id-61fd7cb3-dced-44f9-ae80-03897f1bed0a">
            <path
               d="M 3.734375,-6.046875 C 3.8125,-6.40625 3.84375,-6.5 4.640625,-6.5 c 0.234375,0 0.3125,0 0.3125,-0.1875 0,-0.125 -0.109375,-0.125 -0.140625,-0.125 -0.296875,0 -1.03125,0.03125 -1.328125,0.03125 -0.296875,0 -1.015625,-0.03125 -1.328125,-0.03125 -0.0625,0 -0.1875,0 -0.1875,0.203125 C 1.96875,-6.5 2.046875,-6.5 2.25,-6.5 c 0.40625,0 0.6875,0 0.6875,0.1875 0,0.046875 0,0.078125 -0.03125,0.15625 l -1.34375,5.375 c -0.09375,0.375 -0.109375,0.46875 -0.90625,0.46875 -0.234375,0 -0.3125,0 -0.3125,0.203125 C 0.34375,0 0.453125,0 0.484375,0 0.78125,0 1.5,-0.03125 1.796875,-0.03125 2.09375,-0.03125 2.828125,0 3.125,0 c 0.078125,0 0.203125,0 0.203125,-0.1875 0,-0.125 -0.078125,-0.125 -0.296875,-0.125 -0.1875,0 -0.234375,0 -0.421875,-0.015625 -0.21875,-0.015625 -0.25,-0.0625 -0.25,-0.171875 0,-0.078125 0.015625,-0.15625 0.03125,-0.234375 z m 0,0"
               id="id-08b29aae-7bb4-41d1-9c17-d5aa1d9b5820" />
          </g>
          <g
             id="id-ea395a42-8abb-4926-b1f2-f31b12b81c43">
            <path
               d="m 1.859375,-2.296875 c 0.296875,0 1.03125,-0.03125 1.53125,-0.234375 0.703125,-0.296875 0.75,-0.890625 0.75,-1.03125 0,-0.4375 -0.375,-0.84375 -1.0625,-0.84375 -1.109375,0 -2.625,0.96875 -2.625,2.71875 0,1.015625 0.59375,1.796875 1.578125,1.796875 1.421875,0 2.25,-1.0625 2.25,-1.171875 0,-0.0625 -0.046875,-0.140625 -0.109375,-0.140625 -0.0625,0 -0.078125,0.03125 -0.140625,0.109375 -0.78125,0.984375 -1.875,0.984375 -1.984375,0.984375 -0.78125,0 -0.875,-0.84375 -0.875,-1.15625 0,-0.125 0.015625,-0.421875 0.15625,-1.03125 z m -0.46875,-0.21875 C 1.78125,-4.03125 2.8125,-4.1875 3.078125,-4.1875 c 0.453125,0 0.734375,0.296875 0.734375,0.625 0,1.046875 -1.59375,1.046875 -2.015625,1.046875 z m 0,0"
               id="id-4775fa3f-e10e-4433-99b8-0a177b7c5bfb" />
          </g>
          <g
             id="id-dd6e328e-4de2-4da9-aab7-de37e9f5b90e">
            <path
               d="m 2.328125,-4.4375 c 0,-0.1875 0,-0.1875 -0.203125,-0.1875 -0.453125,0.4375 -1.078125,0.4375 -1.359375,0.4375 v 0.25 c 0.15625,0 0.625,0 1,-0.1875 v 3.546875 c 0,0.234375 0,0.328125 -0.6875,0.328125 H 0.8125 V 0 c 0.125,0 0.984375,-0.03125 1.234375,-0.03125 0.21875,0 1.09375,0.03125 1.25,0.03125 V -0.25 H 3.03125 c -0.703125,0 -0.703125,-0.09375 -0.703125,-0.328125 z m 0,0"
               id="id-e09bac96-008c-43ad-80d2-3a393564b567" />
          </g>
          <g
             id="id-05260db8-3bb8-4f76-823c-393e13c1d1db">
            <path
               d="M 3.59375,-2.21875 C 3.59375,-2.984375 3.5,-3.546875 3.1875,-4.03125 2.96875,-4.34375 2.53125,-4.625 1.984375,-4.625 c -1.625,0 -1.625,1.90625 -1.625,2.40625 0,0.5 0,2.359375 1.625,2.359375 1.609375,0 1.609375,-1.859375 1.609375,-2.359375 z M 1.984375,-0.0625 c -0.328125,0 -0.75,-0.1875 -0.890625,-0.75 C 1,-1.21875 1,-1.796875 1,-2.3125 1,-2.828125 1,-3.359375 1.09375,-3.734375 1.25,-4.28125 1.6875,-4.4375 1.984375,-4.4375 c 0.375,0 0.734375,0.234375 0.859375,0.640625 0.109375,0.375 0.125,0.875 0.125,1.484375 0,0.515625 0,1.03125 -0.09375,1.46875 -0.140625,0.640625 -0.609375,0.78125 -0.890625,0.78125 z m 0,0"
               id="id-91c81de1-1c61-4467-a5f2-23046696756f" />
          </g>
          <g
             id="id-3968337b-d2b4-4704-8d6a-2d9344bdad16">
            <path
               d="m 6.84375,-3.265625 c 0.15625,0 0.34375,0 0.34375,-0.1875 C 7.1875,-3.65625 7,-3.65625 6.859375,-3.65625 h -5.96875 c -0.140625,0 -0.328125,0 -0.328125,0.203125 0,0.1875 0.1875,0.1875 0.328125,0.1875 z m 0.015625,1.9375 c 0.140625,0 0.328125,0 0.328125,-0.203125 0,-0.1875 -0.1875,-0.1875 -0.34375,-0.1875 H 0.890625 c -0.140625,0 -0.328125,0 -0.328125,0.1875 0,0.203125 0.1875,0.203125 0.328125,0.203125 z m 0,0"
               id="id-fd2e7981-7297-4830-905a-70bd01a6767e" />
          </g>
          <g
             id="id-1fcd6da6-067e-4e8a-aeab-ec7855a41920">
            <path
               d="m 5.1875,-1.578125 c 0.109375,0 0.28125,0 0.28125,-0.15625 0,-0.1875 -0.171875,-0.1875 -0.28125,-0.1875 H 1.03125 c -0.109375,0 -0.28125,0 -0.28125,0.171875 0,0.171875 0.15625,0.171875 0.28125,0.171875 z m 0,0"
               id="id-ac559c23-11b8-4d4f-8249-f25b0e19d05d" />
          </g>
          <g
             id="id-08a90182-3977-47cf-9bc2-97b667905e23">
            <path
               d="M 1.578125,-1.734375 C 1.578125,-2 1.375,-2.140625 1.1875,-2.140625 c -0.234375,0 -0.40625,0.1875 -0.40625,0.390625 0,0.25 0.203125,0.40625 0.390625,0.40625 0.234375,0 0.40625,-0.1875 0.40625,-0.390625 z m 0,0"
               id="id-578664fe-d905-4cbd-a24d-e97c189b710d" />
          </g>
          <g
             id="id-7ad8f930-4d8d-4f50-bee3-67092b68a3bb">
            <path
               d="m 3.8125,-0.984375 c 0.640625,-0.65625 0.890625,-1.59375 0.890625,-1.65625 0,-0.09375 -0.078125,-0.09375 -0.109375,-0.09375 C 4.5,-2.734375 4.5,-2.71875 4.453125,-2.5625 4.328125,-2.109375 4.09375,-1.671875 3.796875,-1.296875 3.796875,-1.40625 3.78125,-1.875 3.765625,-1.9375 3.65625,-2.625 3.140625,-3.078125 2.4375,-3.078125 c -1.015625,0 -2,0.953125 -2,1.9375 0,0.640625 0.46875,1.203125 1.265625,1.203125 0.640625,0 1.21875,-0.28125 1.609375,-0.578125 0.171875,0.5 0.515625,0.578125 0.734375,0.578125 0.40625,0 0.65625,-0.328125 0.65625,-0.484375 C 4.703125,-0.5 4.609375,-0.5 4.578125,-0.5 c -0.09375,0 -0.109375,0.03125 -0.125,0.0625 -0.09375,0.265625 -0.3125,0.3125 -0.390625,0.3125 -0.09375,0 -0.21875,0 -0.25,-0.859375 z M 3.265625,-0.75 C 2.578125,-0.1875 2,-0.125 1.734375,-0.125 c -0.46875,0 -0.71875,-0.3125 -0.71875,-0.78125 0,-0.1875 0.09375,-0.953125 0.453125,-1.4375 C 1.796875,-2.765625 2.1875,-2.875 2.4375,-2.875 c 0.546875,0 0.71875,0.53125 0.765625,0.96875 0.046875,0.296875 0.03125,0.796875 0.0625,1.15625 z m 0,0"
               id="id-b5008e09-dd2e-4888-98dd-b8e35ada5ae6" />
          </g>
          <g
             id="id-38899e8d-514f-485e-b6b9-64ba0196922b">
            <path
               d="M 3.984375,-4.625 C 3.984375,-4.640625 4,-4.734375 4,-4.734375 4,-4.78125 3.984375,-4.84375 3.890625,-4.84375 3.75,-4.84375 3.171875,-4.78125 3,-4.765625 c -0.046875,0 -0.15625,0.015625 -0.15625,0.15625 0,0.09375 0.109375,0.09375 0.1875,0.09375 0.328125,0 0.328125,0.0625 0.328125,0.109375 0,0.046875 0,0.09375 -0.015625,0.15625 L 2.9375,-2.65625 c -0.140625,-0.234375 -0.375,-0.421875 -0.71875,-0.421875 -0.890625,0 -1.796875,0.984375 -1.796875,1.984375 0,0.6875 0.453125,1.15625 1.0625,1.15625 0.375,0 0.703125,-0.203125 0.984375,-0.484375 C 2.59375,0 3,0.0625 3.1875,0.0625 c 0.25,0 0.421875,-0.140625 0.546875,-0.359375 0.15625,-0.28125 0.25,-0.671875 0.25,-0.703125 0,-0.09375 -0.09375,-0.09375 -0.109375,-0.09375 -0.109375,0 -0.109375,0.03125 -0.15625,0.21875 C 3.625,-0.53125 3.5,-0.125 3.203125,-0.125 3.03125,-0.125 2.96875,-0.28125 2.96875,-0.46875 c 0,-0.125 0.015625,-0.1875 0.046875,-0.28125 z M 2.5,-0.875 C 2.453125,-0.671875 2.296875,-0.53125 2.140625,-0.40625 2.078125,-0.34375 1.796875,-0.125 1.5,-0.125 c -0.265625,0 -0.515625,-0.1875 -0.515625,-0.671875 0,-0.375 0.203125,-1.140625 0.375,-1.421875 0.3125,-0.5625 0.671875,-0.65625 0.859375,-0.65625 0.484375,0 0.625,0.53125 0.625,0.609375 0,0.015625 -0.015625,0.078125 -0.015625,0.09375 z m 0,0"
               id="id-7cf3b0ee-7547-462c-bc27-82ff5d0faa2d" />
          </g>
          <g
             id="id-e18a0181-63ba-425b-b6df-707876e4495b">
            <path
               d="M 1.984375,-3.171875 C 1.984375,-3.3125 1.96875,-3.3125 1.796875,-3.3125 1.453125,-3 0.890625,-3 0.796875,-3 H 0.71875 v 0.21875 h 0.078125 c 0.109375,0 0.4375,-0.015625 0.734375,-0.140625 v 2.5 c 0,0.140625 0,0.203125 -0.53125,0.203125 H 0.75 V 0 c 0.265625,-0.015625 0.71875,-0.015625 1,-0.015625 0.296875,0 0.734375,0 1.015625,0.015625 v -0.21875 h -0.25 c -0.53125,0 -0.53125,-0.0625 -0.53125,-0.203125 z m 0,0"
               id="id-e62d5d7c-8d4c-42bf-98f8-08f99d9101a9" />
          </g>
        </g>
      </defs>
      <g
         fill="#000000"
         fill-opacity="1"
         id="id-bbbf1517-d8b2-4947-ab47-8b89a82f515e"
         transform="translate(-149.056,-126.305)">
        <g
           transform="translate(148.712,134.765)"
           id="g6733">
          <path
             d="M 3.734375,-6.046875 C 3.8125,-6.40625 3.84375,-6.5 4.640625,-6.5 c 0.234375,0 0.3125,0 0.3125,-0.1875 0,-0.125 -0.109375,-0.125 -0.140625,-0.125 -0.296875,0 -1.03125,0.03125 -1.328125,0.03125 -0.296875,0 -1.015625,-0.03125 -1.328125,-0.03125 -0.0625,0 -0.1875,0 -0.1875,0.203125 C 1.96875,-6.5 2.046875,-6.5 2.25,-6.5 c 0.40625,0 0.6875,0 0.6875,0.1875 0,0.046875 0,0.078125 -0.03125,0.15625 l -1.34375,5.375 c -0.09375,0.375 -0.109375,0.46875 -0.90625,0.46875 -0.234375,0 -0.3125,0 -0.3125,0.203125 C 0.34375,0 0.453125,0 0.484375,0 0.78125,0 1.5,-0.03125 1.796875,-0.03125 2.09375,-0.03125 2.828125,0 3.125,0 c 0.078125,0 0.203125,0 0.203125,-0.1875 0,-0.125 -0.078125,-0.125 -0.296875,-0.125 -0.1875,0 -0.234375,0 -0.421875,-0.015625 -0.21875,-0.015625 -0.25,-0.0625 -0.25,-0.171875 0,-0.078125 0.015625,-0.15625 0.03125,-0.234375 z m 0,0"
             id="id-c40c8df8-74ea-42aa-9e50-2fc9956a44e0" />
        </g>
      </g>
      <g
         fill="#000000"
         fill-opacity="1"
         id="id-3474ac65-831d-4d98-b064-831d2803ef12"
         transform="translate(-149.056,-126.305)">
        <g
           transform="translate(153.092,136.259)"
           id="g6640">
          <path
             d="m 2.328125,-4.4375 c 0,-0.1875 0,-0.1875 -0.203125,-0.1875 -0.453125,0.4375 -1.078125,0.4375 -1.359375,0.4375 v 0.25 c 0.15625,0 0.625,0 1,-0.1875 v 3.546875 c 0,0.234375 0,0.328125 -0.6875,0.328125 H 0.8125 V 0 c 0.125,0 0.984375,-0.03125 1.234375,-0.03125 0.21875,0 1.09375,0.03125 1.25,0.03125 V -0.25 H 3.03125 c -0.703125,0 -0.703125,-0.09375 -0.703125,-0.328125 z m 0,0"
             id="id-2930fda4-fc4b-47b2-8618-3c0024f45bcc" />
        </g>
      </g>
      <g
         fill="#000000"
         fill-opacity="1"
         id="id-1ce0f63c-e5ff-491a-a92a-01c4c149a490"
         transform="translate(-149.056,-126.305)">
        <g
           transform="translate(160.328,134.765)"
           id="g9570">
          <path
             d="m 6.84375,-3.265625 c 0.15625,0 0.34375,0 0.34375,-0.1875 C 7.1875,-3.65625 7,-3.65625 6.859375,-3.65625 h -5.96875 c -0.140625,0 -0.328125,0 -0.328125,0.203125 0,0.1875 0.1875,0.1875 0.328125,0.1875 z m 0.015625,1.9375 c 0.140625,0 0.328125,0 0.328125,-0.203125 0,-0.1875 -0.1875,-0.1875 -0.34375,-0.1875 H 0.890625 c -0.140625,0 -0.328125,0 -0.328125,0.1875 0,0.203125 0.1875,0.203125 0.328125,0.203125 z m 0,0"
             id="id-1adbbb2a-5427-4071-88d4-425f131512aa" />
        </g>
      </g>
      <g
         fill="#000000"
         fill-opacity="1"
         id="id-5db62480-03e6-414c-b8e6-84c724e4b069"
         transform="translate(-149.056,-126.305)">
        <g
           transform="translate(170.845,134.765)"
           id="g2837">
          <path
             d="M 3.734375,-6.046875 C 3.8125,-6.40625 3.84375,-6.5 4.640625,-6.5 c 0.234375,0 0.3125,0 0.3125,-0.1875 0,-0.125 -0.109375,-0.125 -0.140625,-0.125 -0.296875,0 -1.03125,0.03125 -1.328125,0.03125 -0.296875,0 -1.015625,-0.03125 -1.328125,-0.03125 -0.0625,0 -0.1875,0 -0.1875,0.203125 C 1.96875,-6.5 2.046875,-6.5 2.25,-6.5 c 0.40625,0 0.6875,0 0.6875,0.1875 0,0.046875 0,0.078125 -0.03125,0.15625 l -1.34375,5.375 c -0.09375,0.375 -0.109375,0.46875 -0.90625,0.46875 -0.234375,0 -0.3125,0 -0.3125,0.203125 C 0.34375,0 0.453125,0 0.484375,0 0.78125,0 1.5,-0.03125 1.796875,-0.03125 2.09375,-0.03125 2.828125,0 3.125,0 c 0.078125,0 0.203125,0 0.203125,-0.1875 0,-0.125 -0.078125,-0.125 -0.296875,-0.125 -0.1875,0 -0.234375,0 -0.421875,-0.015625 -0.21875,-0.015625 -0.25,-0.0625 -0.25,-0.171875 0,-0.078125 0.015625,-0.15625 0.03125,-0.234375 z m 0,0"
             id="id-71fddcc3-dc98-433a-9aaa-b7495ca827dc" />
        </g>
      </g>
      <g
         fill="#000000"
         fill-opacity="1"
         id="id-f367b5ff-f68e-4e17-ae86-8fd8b7ed2fa9"
         transform="translate(-149.056,-126.305)">
        <g
           transform="translate(175.224,136.259)"
           id="g4623">
          <path
             d="M 3.59375,-2.21875 C 3.59375,-2.984375 3.5,-3.546875 3.1875,-4.03125 2.96875,-4.34375 2.53125,-4.625 1.984375,-4.625 c -1.625,0 -1.625,1.90625 -1.625,2.40625 0,0.5 0,2.359375 1.625,2.359375 1.609375,0 1.609375,-1.859375 1.609375,-2.359375 z M 1.984375,-0.0625 c -0.328125,0 -0.75,-0.1875 -0.890625,-0.75 C 1,-1.21875 1,-1.796875 1,-2.3125 1,-2.828125 1,-3.359375 1.09375,-3.734375 1.25,-4.28125 1.6875,-4.4375 1.984375,-4.4375 c 0.375,0 0.734375,0.234375 0.859375,0.640625 0.109375,0.375 0.125,0.875 0.125,1.484375 0,0.515625 0,1.03125 -0.09375,1.46875 -0.140625,0.640625 -0.609375,0.78125 -0.890625,0.78125 z m 0,0"
             id="id-be90379f-c85a-47c2-8d0d-fea720e03176" />
        </g>
      </g>
      <g
         fill="#000000"
         fill-opacity="1"
         id="id-08690c9d-8bfa-48e9-b1b5-0debcf48a5bf"
         transform="translate(-149.056,-126.305)">
        <g
           transform="translate(181.354,134.765)"
           id="g4672">
          <path
             d="m 1.859375,-2.296875 c 0.296875,0 1.03125,-0.03125 1.53125,-0.234375 0.703125,-0.296875 0.75,-0.890625 0.75,-1.03125 0,-0.4375 -0.375,-0.84375 -1.0625,-0.84375 -1.109375,0 -2.625,0.96875 -2.625,2.71875 0,1.015625 0.59375,1.796875 1.578125,1.796875 1.421875,0 2.25,-1.0625 2.25,-1.171875 0,-0.0625 -0.046875,-0.140625 -0.109375,-0.140625 -0.0625,0 -0.078125,0.03125 -0.140625,0.109375 -0.78125,0.984375 -1.875,0.984375 -1.984375,0.984375 -0.78125,0 -0.875,-0.84375 -0.875,-1.15625 0,-0.125 0.015625,-0.421875 0.15625,-1.03125 z m -0.46875,-0.21875 C 1.78125,-4.03125 2.8125,-4.1875 3.078125,-4.1875 c 0.453125,0 0.734375,0.296875 0.734375,0.625 0,1.046875 -1.59375,1.046875 -2.015625,1.046875 z m 0,0"
             id="id-1d66e6b7-ca8f-441a-b013-fbc1b1a9ff10" />
        </g>
      </g>
      <g
         fill="#000000"
         fill-opacity="1"
         id="id-c9b15468-f6c3-49b2-9147-d3c1ede64f56"
         transform="translate(-149.056,-126.305)">
        <g
           transform="translate(185.993,131.149)"
           id="g949">
          <path
             d="m 5.1875,-1.578125 c 0.109375,0 0.28125,0 0.28125,-0.15625 0,-0.1875 -0.171875,-0.1875 -0.28125,-0.1875 H 1.03125 c -0.109375,0 -0.28125,0 -0.28125,0.171875 0,0.171875 0.15625,0.171875 0.28125,0.171875 z m 0,0"
             id="id-32bd1729-8762-48b7-9b55-20135bf7bc68" />
        </g>
      </g>
      <g
         fill="#000000"
         fill-opacity="1"
         id="id-76cbec34-5c9f-4a69-8c09-73ac6b314774"
         transform="translate(-149.056,-126.305)">
        <g
           transform="translate(192.219,131.149)"
           id="g1864">
          <path
             d="m 3.8125,-0.984375 c 0.640625,-0.65625 0.890625,-1.59375 0.890625,-1.65625 0,-0.09375 -0.078125,-0.09375 -0.109375,-0.09375 C 4.5,-2.734375 4.5,-2.71875 4.453125,-2.5625 4.328125,-2.109375 4.09375,-1.671875 3.796875,-1.296875 3.796875,-1.40625 3.78125,-1.875 3.765625,-1.9375 3.65625,-2.625 3.140625,-3.078125 2.4375,-3.078125 c -1.015625,0 -2,0.953125 -2,1.9375 0,0.640625 0.46875,1.203125 1.265625,1.203125 0.640625,0 1.21875,-0.28125 1.609375,-0.578125 0.171875,0.5 0.515625,0.578125 0.734375,0.578125 0.40625,0 0.65625,-0.328125 0.65625,-0.484375 C 4.703125,-0.5 4.609375,-0.5 4.578125,-0.5 c -0.09375,0 -0.109375,0.03125 -0.125,0.0625 -0.09375,0.265625 -0.3125,0.3125 -0.390625,0.3125 -0.09375,0 -0.21875,0 -0.25,-0.859375 z M 3.265625,-0.75 C 2.578125,-0.1875 2,-0.125 1.734375,-0.125 c -0.46875,0 -0.71875,-0.3125 -0.71875,-0.78125 0,-0.1875 0.09375,-0.953125 0.453125,-1.4375 C 1.796875,-2.765625 2.1875,-2.875 2.4375,-2.875 c 0.546875,0 0.71875,0.53125 0.765625,0.96875 0.046875,0.296875 0.03125,0.796875 0.0625,1.15625 z m 0,0"
             id="id-7d8f19d2-a380-4b8e-8a64-e5ed80437dc4" />
        </g>
      </g>
      <g
         fill="#000000"
         fill-opacity="1"
         id="id-9d25e8c6-1025-4cc6-9181-6947c6c74a92"
         transform="translate(-149.056,-126.305)">
        <g
           transform="translate(197.399,132.146)"
           id="g970">
          <path
             d="M 1.984375,-3.171875 C 1.984375,-3.3125 1.96875,-3.3125 1.796875,-3.3125 1.453125,-3 0.890625,-3 0.796875,-3 H 0.71875 v 0.21875 h 0.078125 c 0.109375,0 0.4375,-0.015625 0.734375,-0.140625 v 2.5 c 0,0.140625 0,0.203125 -0.53125,0.203125 H 0.75 V 0 c 0.265625,-0.015625 0.71875,-0.015625 1,-0.015625 0.296875,0 0.734375,0 1.015625,0.015625 v -0.21875 h -0.25 c -0.53125,0 -0.53125,-0.0625 -0.53125,-0.203125 z m 0,0"
             id="id-c6362b23-af74-442f-b3df-5cc1258ddf79" />
        </g>
      </g>
      <g
         fill="#000000"
         fill-opacity="1"
         id="id-47dbcc58-f523-4a83-b774-c85e9395f148"
         transform="translate(-149.056,-126.305)">
        <g
           transform="translate(201.287,131.149)"
           id="g1463">
          <path
             d="M 1.578125,-1.734375 C 1.578125,-2 1.375,-2.140625 1.1875,-2.140625 c -0.234375,0 -0.40625,0.1875 -0.40625,0.390625 0,0.25 0.203125,0.40625 0.390625,0.40625 0.234375,0 0.40625,-0.1875 0.40625,-0.390625 z m 0,0"
             id="id-435e1cc5-7890-4e69-a593-643cc4f6c15d" />
        </g>
      </g>
      <g
         fill="#000000"
         fill-opacity="1"
         id="id-c0a7484a-0962-4b2c-9692-6b32a8bfc508"
         transform="translate(-149.056,-126.305)">
        <g
           transform="translate(203.653,131.149)"
           id="g2984">
          <path
             d="M 3.984375,-4.625 C 3.984375,-4.640625 4,-4.734375 4,-4.734375 4,-4.78125 3.984375,-4.84375 3.890625,-4.84375 3.75,-4.84375 3.171875,-4.78125 3,-4.765625 c -0.046875,0 -0.15625,0.015625 -0.15625,0.15625 0,0.09375 0.109375,0.09375 0.1875,0.09375 0.328125,0 0.328125,0.0625 0.328125,0.109375 0,0.046875 0,0.09375 -0.015625,0.15625 L 2.9375,-2.65625 c -0.140625,-0.234375 -0.375,-0.421875 -0.71875,-0.421875 -0.890625,0 -1.796875,0.984375 -1.796875,1.984375 0,0.6875 0.453125,1.15625 1.0625,1.15625 0.375,0 0.703125,-0.203125 0.984375,-0.484375 C 2.59375,0 3,0.0625 3.1875,0.0625 c 0.25,0 0.421875,-0.140625 0.546875,-0.359375 0.15625,-0.28125 0.25,-0.671875 0.25,-0.703125 0,-0.09375 -0.09375,-0.09375 -0.109375,-0.09375 -0.109375,0 -0.109375,0.03125 -0.15625,0.21875 C 3.625,-0.53125 3.5,-0.125 3.203125,-0.125 3.03125,-0.125 2.96875,-0.28125 2.96875,-0.46875 c 0,-0.125 0.015625,-0.1875 0.046875,-0.28125 z M 2.5,-0.875 C 2.453125,-0.671875 2.296875,-0.53125 2.140625,-0.40625 2.078125,-0.34375 1.796875,-0.125 1.5,-0.125 c -0.265625,0 -0.515625,-0.1875 -0.515625,-0.671875 0,-0.375 0.203125,-1.140625 0.375,-1.421875 0.3125,-0.5625 0.671875,-0.65625 0.859375,-0.65625 0.484375,0 0.625,0.53125 0.625,0.609375 0,0.015625 -0.015625,0.078125 -0.015625,0.09375 z m 0,0"
             id="id-eaf8a54a-efb2-4469-b9ba-1aabcc7f1fe5" />
        </g>
      </g>
    </g>
    <g
       transform="matrix(0.59439,0,0,0.59439,136.66788,51.762386)"
       ns10:version="1.10.2"
       ns10:texconverter="pdflatex"
       ns10:pdfconverter="inkscape"
       ns10:text="$I_2=I_0\\,e^{-\\alpha_2\\cdot 2d}$"
       ns10:preamble="/Users/kaestner/Library/Application Support/org.inkscape.Inkscape/config/inkscape/extensions/textext/default_packages.tex"
       ns10:scale="1.0014800711695804"
       ns10:alignment="middle center"
       ns10:stroke-to-path="0"
       ns10:inkscapeversion="1.3.2"
       id="g9119"
       ns10:jacobian_sqrt="0.59439">
      <defs
         id="id-18b95588-82db-4e17-84bf-2126aacb23cd">
        <g
           id="id-d9914a11-98e3-4180-a4b6-835e8e7dc247">
          <g
             id="id-118b5b50-b6be-4583-ab59-ab290ac91dba">
            <path
               d="M 3.734375,-6.046875 C 3.8125,-6.40625 3.84375,-6.5 4.640625,-6.5 c 0.234375,0 0.3125,0 0.3125,-0.1875 0,-0.125 -0.109375,-0.125 -0.140625,-0.125 -0.296875,0 -1.03125,0.03125 -1.328125,0.03125 -0.296875,0 -1.015625,-0.03125 -1.328125,-0.03125 -0.0625,0 -0.1875,0 -0.1875,0.203125 C 1.96875,-6.5 2.046875,-6.5 2.25,-6.5 c 0.40625,0 0.6875,0 0.6875,0.1875 0,0.046875 0,0.078125 -0.03125,0.15625 l -1.34375,5.375 c -0.09375,0.375 -0.109375,0.46875 -0.90625,0.46875 -0.234375,0 -0.3125,0 -0.3125,0.203125 C 0.34375,0 0.453125,0 0.484375,0 0.78125,0 1.5,-0.03125 1.796875,-0.03125 2.09375,-0.03125 2.828125,0 3.125,0 c 0.078125,0 0.203125,0 0.203125,-0.1875 0,-0.125 -0.078125,-0.125 -0.296875,-0.125 -0.1875,0 -0.234375,0 -0.421875,-0.015625 -0.21875,-0.015625 -0.25,-0.0625 -0.25,-0.171875 0,-0.078125 0.015625,-0.15625 0.03125,-0.234375 z m 0,0"
               id="id-a95f58ca-6d90-42d1-9252-2fda1bca7a3e" />
          </g>
          <g
             id="id-bca24004-a53b-4a7a-b943-d62539a2617b">
            <path
               d="m 1.859375,-2.296875 c 0.296875,0 1.03125,-0.03125 1.53125,-0.234375 0.703125,-0.296875 0.75,-0.890625 0.75,-1.03125 0,-0.4375 -0.375,-0.84375 -1.0625,-0.84375 -1.109375,0 -2.625,0.96875 -2.625,2.71875 0,1.015625 0.59375,1.796875 1.578125,1.796875 1.421875,0 2.25,-1.0625 2.25,-1.171875 0,-0.0625 -0.046875,-0.140625 -0.109375,-0.140625 -0.0625,0 -0.078125,0.03125 -0.140625,0.109375 -0.78125,0.984375 -1.875,0.984375 -1.984375,0.984375 -0.78125,0 -0.875,-0.84375 -0.875,-1.15625 0,-0.125 0.015625,-0.421875 0.15625,-1.03125 z m -0.46875,-0.21875 C 1.78125,-4.03125 2.8125,-4.1875 3.078125,-4.1875 c 0.453125,0 0.734375,0.296875 0.734375,0.625 0,1.046875 -1.59375,1.046875 -2.015625,1.046875 z m 0,0"
               id="id-e2ea6bef-476d-4d68-a1e9-9ba47488b4a0" />
          </g>
          <g
             id="id-878696c6-1590-4ef3-970d-f2215b0fe651">
            <path
               d="M 3.515625,-1.265625 H 3.28125 c -0.015625,0.15625 -0.09375,0.5625 -0.1875,0.625 C 3.046875,-0.59375 2.515625,-0.59375 2.40625,-0.59375 H 1.125 c 0.734375,-0.640625 0.984375,-0.84375 1.390625,-1.171875 0.515625,-0.40625 1,-0.84375 1,-1.5 0,-0.84375 -0.734375,-1.359375 -1.625,-1.359375 -0.859375,0 -1.453125,0.609375 -1.453125,1.25 0,0.34375 0.296875,0.390625 0.375,0.390625 0.15625,0 0.359375,-0.125 0.359375,-0.375 0,-0.125 -0.046875,-0.375 -0.40625,-0.375 C 0.984375,-4.21875 1.453125,-4.375 1.78125,-4.375 c 0.703125,0 1.0625,0.546875 1.0625,1.109375 0,0.609375 -0.4375,1.078125 -0.65625,1.328125 L 0.515625,-0.265625 C 0.4375,-0.203125 0.4375,-0.1875 0.4375,0 h 2.875 z m 0,0"
               id="id-87112739-1f5f-4864-8702-72ba1bf54c13" />
          </g>
          <g
             id="id-80a35826-d1da-4a1d-b688-ec60fb290981">
            <path
               d="M 3.59375,-2.21875 C 3.59375,-2.984375 3.5,-3.546875 3.1875,-4.03125 2.96875,-4.34375 2.53125,-4.625 1.984375,-4.625 c -1.625,0 -1.625,1.90625 -1.625,2.40625 0,0.5 0,2.359375 1.625,2.359375 1.609375,0 1.609375,-1.859375 1.609375,-2.359375 z M 1.984375,-0.0625 c -0.328125,0 -0.75,-0.1875 -0.890625,-0.75 C 1,-1.21875 1,-1.796875 1,-2.3125 1,-2.828125 1,-3.359375 1.09375,-3.734375 1.25,-4.28125 1.6875,-4.4375 1.984375,-4.4375 c 0.375,0 0.734375,0.234375 0.859375,0.640625 0.109375,0.375 0.125,0.875 0.125,1.484375 0,0.515625 0,1.03125 -0.09375,1.46875 -0.140625,0.640625 -0.609375,0.78125 -0.890625,0.78125 z m 0,0"
               id="id-64cf79da-4043-49fb-82ff-fcf3f6bef6af" />
          </g>
          <g
             id="id-7a496652-a92f-4285-925e-f895f3bcd523">
            <path
               d="m 6.84375,-3.265625 c 0.15625,0 0.34375,0 0.34375,-0.1875 C 7.1875,-3.65625 7,-3.65625 6.859375,-3.65625 h -5.96875 c -0.140625,0 -0.328125,0 -0.328125,0.203125 0,0.1875 0.1875,0.1875 0.328125,0.1875 z m 0.015625,1.9375 c 0.140625,0 0.328125,0 0.328125,-0.203125 0,-0.1875 -0.1875,-0.1875 -0.34375,-0.1875 H 0.890625 c -0.140625,0 -0.328125,0 -0.328125,0.1875 0,0.203125 0.1875,0.203125 0.328125,0.203125 z m 0,0"
               id="id-396c4474-694a-4aa6-84b8-0ba3d11949d1" />
          </g>
          <g
             id="id-546be93f-97fa-4c65-8522-48aaeb45ceb6">
            <path
               d="m 5.1875,-1.578125 c 0.109375,0 0.28125,0 0.28125,-0.15625 0,-0.1875 -0.171875,-0.1875 -0.28125,-0.1875 H 1.03125 c -0.109375,0 -0.28125,0 -0.28125,0.171875 0,0.171875 0.15625,0.171875 0.28125,0.171875 z m 0,0"
               id="id-3447411c-f768-4f9e-b4f6-d8928ed36e38" />
          </g>
          <g
             id="id-c5190ad6-fe62-4d9e-b621-71f1d15f5310">
            <path
               d="M 1.578125,-1.734375 C 1.578125,-2 1.375,-2.140625 1.1875,-2.140625 c -0.234375,0 -0.40625,0.1875 -0.40625,0.390625 0,0.25 0.203125,0.40625 0.390625,0.40625 0.234375,0 0.40625,-0.1875 0.40625,-0.390625 z m 0,0"
               id="id-6f845233-c6ed-4b78-8139-5d84b69cd1f1" />
          </g>
          <g
             id="id-a14a5971-72e4-45f4-9553-3a3d5814e6d9">
            <path
               d="m 3.8125,-0.984375 c 0.640625,-0.65625 0.890625,-1.59375 0.890625,-1.65625 0,-0.09375 -0.078125,-0.09375 -0.109375,-0.09375 C 4.5,-2.734375 4.5,-2.71875 4.453125,-2.5625 4.328125,-2.109375 4.09375,-1.671875 3.796875,-1.296875 3.796875,-1.40625 3.78125,-1.875 3.765625,-1.9375 3.65625,-2.625 3.140625,-3.078125 2.4375,-3.078125 c -1.015625,0 -2,0.953125 -2,1.9375 0,0.640625 0.46875,1.203125 1.265625,1.203125 0.640625,0 1.21875,-0.28125 1.609375,-0.578125 0.171875,0.5 0.515625,0.578125 0.734375,0.578125 0.40625,0 0.65625,-0.328125 0.65625,-0.484375 C 4.703125,-0.5 4.609375,-0.5 4.578125,-0.5 c -0.09375,0 -0.109375,0.03125 -0.125,0.0625 -0.09375,0.265625 -0.3125,0.3125 -0.390625,0.3125 -0.09375,0 -0.21875,0 -0.25,-0.859375 z M 3.265625,-0.75 C 2.578125,-0.1875 2,-0.125 1.734375,-0.125 c -0.46875,0 -0.71875,-0.3125 -0.71875,-0.78125 0,-0.1875 0.09375,-0.953125 0.453125,-1.4375 C 1.796875,-2.765625 2.1875,-2.875 2.4375,-2.875 c 0.546875,0 0.71875,0.53125 0.765625,0.96875 0.046875,0.296875 0.03125,0.796875 0.0625,1.15625 z m 0,0"
               id="id-b795d2cb-30f4-4d01-8dc5-79fde6001aa2" />
          </g>
          <g
             id="id-53b7562c-7697-444a-a1b1-698080eeb7db">
            <path
               d="M 3.984375,-4.625 C 3.984375,-4.640625 4,-4.734375 4,-4.734375 4,-4.78125 3.984375,-4.84375 3.890625,-4.84375 3.75,-4.84375 3.171875,-4.78125 3,-4.765625 c -0.046875,0 -0.15625,0.015625 -0.15625,0.15625 0,0.09375 0.109375,0.09375 0.1875,0.09375 0.328125,0 0.328125,0.0625 0.328125,0.109375 0,0.046875 0,0.09375 -0.015625,0.15625 L 2.9375,-2.65625 c -0.140625,-0.234375 -0.375,-0.421875 -0.71875,-0.421875 -0.890625,0 -1.796875,0.984375 -1.796875,1.984375 0,0.6875 0.453125,1.15625 1.0625,1.15625 0.375,0 0.703125,-0.203125 0.984375,-0.484375 C 2.59375,0 3,0.0625 3.1875,0.0625 c 0.25,0 0.421875,-0.140625 0.546875,-0.359375 0.15625,-0.28125 0.25,-0.671875 0.25,-0.703125 0,-0.09375 -0.09375,-0.09375 -0.109375,-0.09375 -0.109375,0 -0.109375,0.03125 -0.15625,0.21875 C 3.625,-0.53125 3.5,-0.125 3.203125,-0.125 3.03125,-0.125 2.96875,-0.28125 2.96875,-0.46875 c 0,-0.125 0.015625,-0.1875 0.046875,-0.28125 z M 2.5,-0.875 C 2.453125,-0.671875 2.296875,-0.53125 2.140625,-0.40625 2.078125,-0.34375 1.796875,-0.125 1.5,-0.125 c -0.265625,0 -0.515625,-0.1875 -0.515625,-0.671875 0,-0.375 0.203125,-1.140625 0.375,-1.421875 0.3125,-0.5625 0.671875,-0.65625 0.859375,-0.65625 0.484375,0 0.625,0.53125 0.625,0.609375 0,0.015625 -0.015625,0.078125 -0.015625,0.09375 z m 0,0"
               id="id-e1114363-7c4c-4db9-a6ce-bee5ea14c8fc" />
          </g>
          <g
             id="id-3109e514-9324-433a-8977-4a49d6466706">
            <path
               d="M 2.9375,-0.96875 H 2.71875 c 0,0.09375 -0.0625,0.40625 -0.140625,0.453125 -0.03125,0.03125 -0.453125,0.03125 -0.53125,0.03125 H 1.078125 C 1.40625,-0.71875 1.765625,-1 2.0625,-1.203125 c 0.453125,-0.3125 0.875,-0.59375 0.875,-1.125 0,-0.640625 -0.609375,-0.984375 -1.3125,-0.984375 -0.671875,0 -1.171875,0.375 -1.171875,0.875 0,0.25 0.21875,0.296875 0.296875,0.296875 0.125,0 0.28125,-0.09375 0.28125,-0.296875 0,-0.171875 -0.125,-0.28125 -0.28125,-0.28125 0.140625,-0.234375 0.4375,-0.375 0.765625,-0.375 0.484375,0 0.890625,0.28125 0.890625,0.765625 0,0.421875 -0.296875,0.75 -0.671875,1.0625 l -1.21875,1.03125 C 0.46875,-0.1875 0.453125,-0.1875 0.453125,-0.15625 V 0 h 2.3125 z m 0,0"
               id="id-9389ed2e-e8b0-4b17-8768-78c817257d16" />
          </g>
        </g>
      </defs>
      <g
         fill="#000000"
         fill-opacity="1"
         id="id-cc83c527-c1ef-413b-adb6-5c0a3d82cc20"
         transform="translate(-149.056,-126.305)">
        <g
           transform="translate(148.712,134.765)"
           id="g9520">
          <path
             d="M 3.734375,-6.046875 C 3.8125,-6.40625 3.84375,-6.5 4.640625,-6.5 c 0.234375,0 0.3125,0 0.3125,-0.1875 0,-0.125 -0.109375,-0.125 -0.140625,-0.125 -0.296875,0 -1.03125,0.03125 -1.328125,0.03125 -0.296875,0 -1.015625,-0.03125 -1.328125,-0.03125 -0.0625,0 -0.1875,0 -0.1875,0.203125 C 1.96875,-6.5 2.046875,-6.5 2.25,-6.5 c 0.40625,0 0.6875,0 0.6875,0.1875 0,0.046875 0,0.078125 -0.03125,0.15625 l -1.34375,5.375 c -0.09375,0.375 -0.109375,0.46875 -0.90625,0.46875 -0.234375,0 -0.3125,0 -0.3125,0.203125 C 0.34375,0 0.453125,0 0.484375,0 0.78125,0 1.5,-0.03125 1.796875,-0.03125 2.09375,-0.03125 2.828125,0 3.125,0 c 0.078125,0 0.203125,0 0.203125,-0.1875 0,-0.125 -0.078125,-0.125 -0.296875,-0.125 -0.1875,0 -0.234375,0 -0.421875,-0.015625 -0.21875,-0.015625 -0.25,-0.0625 -0.25,-0.171875 0,-0.078125 0.015625,-0.15625 0.03125,-0.234375 z m 0,0"
             id="id-2ceb167c-4cf8-4e9b-ae77-8592b9bb22e6" />
        </g>
      </g>
      <g
         fill="#000000"
         fill-opacity="1"
         id="id-567ce97d-2d42-4c93-8222-ee57d2b54801"
         transform="translate(-149.056,-126.305)">
        <g
           transform="translate(153.092,136.259)"
           id="g8538">
          <path
             d="M 3.515625,-1.265625 H 3.28125 c -0.015625,0.15625 -0.09375,0.5625 -0.1875,0.625 C 3.046875,-0.59375 2.515625,-0.59375 2.40625,-0.59375 H 1.125 c 0.734375,-0.640625 0.984375,-0.84375 1.390625,-1.171875 0.515625,-0.40625 1,-0.84375 1,-1.5 0,-0.84375 -0.734375,-1.359375 -1.625,-1.359375 -0.859375,0 -1.453125,0.609375 -1.453125,1.25 0,0.34375 0.296875,0.390625 0.375,0.390625 0.15625,0 0.359375,-0.125 0.359375,-0.375 0,-0.125 -0.046875,-0.375 -0.40625,-0.375 C 0.984375,-4.21875 1.453125,-4.375 1.78125,-4.375 c 0.703125,0 1.0625,0.546875 1.0625,1.109375 0,0.609375 -0.4375,1.078125 -0.65625,1.328125 L 0.515625,-0.265625 C 0.4375,-0.203125 0.4375,-0.1875 0.4375,0 h 2.875 z m 0,0"
             id="id-07a8d84a-ff34-477d-923f-33498d91a289" />
        </g>
      </g>
      <g
         fill="#000000"
         fill-opacity="1"
         id="id-85f9385f-6487-44a6-b958-2d70bd156a57"
         transform="translate(-149.056,-126.305)">
        <g
           transform="translate(160.328,134.765)"
           id="g6057">
          <path
             d="m 6.84375,-3.265625 c 0.15625,0 0.34375,0 0.34375,-0.1875 C 7.1875,-3.65625 7,-3.65625 6.859375,-3.65625 h -5.96875 c -0.140625,0 -0.328125,0 -0.328125,0.203125 0,0.1875 0.1875,0.1875 0.328125,0.1875 z m 0.015625,1.9375 c 0.140625,0 0.328125,0 0.328125,-0.203125 0,-0.1875 -0.1875,-0.1875 -0.34375,-0.1875 H 0.890625 c -0.140625,0 -0.328125,0 -0.328125,0.1875 0,0.203125 0.1875,0.203125 0.328125,0.203125 z m 0,0"
             id="id-8105593b-b21e-409f-a5a4-69c5d4a4b735" />
        </g>
      </g>
      <g
         fill="#000000"
         fill-opacity="1"
         id="id-71529b9f-b97f-4b21-8eec-46e75696a864"
         transform="translate(-149.056,-126.305)">
        <g
           transform="translate(170.845,134.765)"
           id="g1877">
          <path
             d="M 3.734375,-6.046875 C 3.8125,-6.40625 3.84375,-6.5 4.640625,-6.5 c 0.234375,0 0.3125,0 0.3125,-0.1875 0,-0.125 -0.109375,-0.125 -0.140625,-0.125 -0.296875,0 -1.03125,0.03125 -1.328125,0.03125 -0.296875,0 -1.015625,-0.03125 -1.328125,-0.03125 -0.0625,0 -0.1875,0 -0.1875,0.203125 C 1.96875,-6.5 2.046875,-6.5 2.25,-6.5 c 0.40625,0 0.6875,0 0.6875,0.1875 0,0.046875 0,0.078125 -0.03125,0.15625 l -1.34375,5.375 c -0.09375,0.375 -0.109375,0.46875 -0.90625,0.46875 -0.234375,0 -0.3125,0 -0.3125,0.203125 C 0.34375,0 0.453125,0 0.484375,0 0.78125,0 1.5,-0.03125 1.796875,-0.03125 2.09375,-0.03125 2.828125,0 3.125,0 c 0.078125,0 0.203125,0 0.203125,-0.1875 0,-0.125 -0.078125,-0.125 -0.296875,-0.125 -0.1875,0 -0.234375,0 -0.421875,-0.015625 -0.21875,-0.015625 -0.25,-0.0625 -0.25,-0.171875 0,-0.078125 0.015625,-0.15625 0.03125,-0.234375 z m 0,0"
             id="id-054333f5-be03-4451-a945-1a8c1ffec109" />
        </g>
      </g>
      <g
         fill="#000000"
         fill-opacity="1"
         id="id-07286dbf-7e2d-4454-a533-81fd652dd465"
         transform="translate(-149.056,-126.305)">
        <g
           transform="translate(175.224,136.259)"
           id="g1765">
          <path
             d="M 3.59375,-2.21875 C 3.59375,-2.984375 3.5,-3.546875 3.1875,-4.03125 2.96875,-4.34375 2.53125,-4.625 1.984375,-4.625 c -1.625,0 -1.625,1.90625 -1.625,2.40625 0,0.5 0,2.359375 1.625,2.359375 1.609375,0 1.609375,-1.859375 1.609375,-2.359375 z M 1.984375,-0.0625 c -0.328125,0 -0.75,-0.1875 -0.890625,-0.75 C 1,-1.21875 1,-1.796875 1,-2.3125 1,-2.828125 1,-3.359375 1.09375,-3.734375 1.25,-4.28125 1.6875,-4.4375 1.984375,-4.4375 c 0.375,0 0.734375,0.234375 0.859375,0.640625 0.109375,0.375 0.125,0.875 0.125,1.484375 0,0.515625 0,1.03125 -0.09375,1.46875 -0.140625,0.640625 -0.609375,0.78125 -0.890625,0.78125 z m 0,0"
             id="id-f4e063f2-e9c2-4372-aa82-393fda0ca338" />
        </g>
      </g>
      <g
         fill="#000000"
         fill-opacity="1"
         id="id-529c2875-4e14-4832-ab9c-ac7b576ed189"
         transform="translate(-149.056,-126.305)">
        <g
           transform="translate(181.354,134.765)"
           id="g3276">
          <path
             d="m 1.859375,-2.296875 c 0.296875,0 1.03125,-0.03125 1.53125,-0.234375 0.703125,-0.296875 0.75,-0.890625 0.75,-1.03125 0,-0.4375 -0.375,-0.84375 -1.0625,-0.84375 -1.109375,0 -2.625,0.96875 -2.625,2.71875 0,1.015625 0.59375,1.796875 1.578125,1.796875 1.421875,0 2.25,-1.0625 2.25,-1.171875 0,-0.0625 -0.046875,-0.140625 -0.109375,-0.140625 -0.0625,0 -0.078125,0.03125 -0.140625,0.109375 -0.78125,0.984375 -1.875,0.984375 -1.984375,0.984375 -0.78125,0 -0.875,-0.84375 -0.875,-1.15625 0,-0.125 0.015625,-0.421875 0.15625,-1.03125 z m -0.46875,-0.21875 C 1.78125,-4.03125 2.8125,-4.1875 3.078125,-4.1875 c 0.453125,0 0.734375,0.296875 0.734375,0.625 0,1.046875 -1.59375,1.046875 -2.015625,1.046875 z m 0,0"
             id="id-f8478cfa-f28d-4a72-8673-b210b4cf9201" />
        </g>
      </g>
      <g
         fill="#000000"
         fill-opacity="1"
         id="id-f51ed398-3228-4976-9765-a0a9b2da365f"
         transform="translate(-149.056,-126.305)">
        <g
           transform="translate(185.993,131.149)"
           id="g9257">
          <path
             d="m 5.1875,-1.578125 c 0.109375,0 0.28125,0 0.28125,-0.15625 0,-0.1875 -0.171875,-0.1875 -0.28125,-0.1875 H 1.03125 c -0.109375,0 -0.28125,0 -0.28125,0.171875 0,0.171875 0.15625,0.171875 0.28125,0.171875 z m 0,0"
             id="id-2ce2bc13-fb9b-4fff-a870-8b6065df8124" />
        </g>
      </g>
      <g
         fill="#000000"
         fill-opacity="1"
         id="id-0fbaaf30-c522-4da9-a989-46a74dbbd9f0"
         transform="translate(-149.056,-126.305)">
        <g
           transform="translate(192.219,131.149)"
           id="g8645">
          <path
             d="m 3.8125,-0.984375 c 0.640625,-0.65625 0.890625,-1.59375 0.890625,-1.65625 0,-0.09375 -0.078125,-0.09375 -0.109375,-0.09375 C 4.5,-2.734375 4.5,-2.71875 4.453125,-2.5625 4.328125,-2.109375 4.09375,-1.671875 3.796875,-1.296875 3.796875,-1.40625 3.78125,-1.875 3.765625,-1.9375 3.65625,-2.625 3.140625,-3.078125 2.4375,-3.078125 c -1.015625,0 -2,0.953125 -2,1.9375 0,0.640625 0.46875,1.203125 1.265625,1.203125 0.640625,0 1.21875,-0.28125 1.609375,-0.578125 0.171875,0.5 0.515625,0.578125 0.734375,0.578125 0.40625,0 0.65625,-0.328125 0.65625,-0.484375 C 4.703125,-0.5 4.609375,-0.5 4.578125,-0.5 c -0.09375,0 -0.109375,0.03125 -0.125,0.0625 -0.09375,0.265625 -0.3125,0.3125 -0.390625,0.3125 -0.09375,0 -0.21875,0 -0.25,-0.859375 z M 3.265625,-0.75 C 2.578125,-0.1875 2,-0.125 1.734375,-0.125 c -0.46875,0 -0.71875,-0.3125 -0.71875,-0.78125 0,-0.1875 0.09375,-0.953125 0.453125,-1.4375 C 1.796875,-2.765625 2.1875,-2.875 2.4375,-2.875 c 0.546875,0 0.71875,0.53125 0.765625,0.96875 0.046875,0.296875 0.03125,0.796875 0.0625,1.15625 z m 0,0"
             id="id-11e58f84-b3b3-4fcb-bb1f-6447f3da2fd0" />
        </g>
      </g>
      <g
         fill="#000000"
         fill-opacity="1"
         id="id-8ff6c076-8575-4ae2-8171-548f33b91eae"
         transform="translate(-149.056,-126.305)">
        <g
           transform="translate(197.399,132.146)"
           id="g4864">
          <path
             d="M 2.9375,-0.96875 H 2.71875 c 0,0.09375 -0.0625,0.40625 -0.140625,0.453125 -0.03125,0.03125 -0.453125,0.03125 -0.53125,0.03125 H 1.078125 C 1.40625,-0.71875 1.765625,-1 2.0625,-1.203125 c 0.453125,-0.3125 0.875,-0.59375 0.875,-1.125 0,-0.640625 -0.609375,-0.984375 -1.3125,-0.984375 -0.671875,0 -1.171875,0.375 -1.171875,0.875 0,0.25 0.21875,0.296875 0.296875,0.296875 0.125,0 0.28125,-0.09375 0.28125,-0.296875 0,-0.171875 -0.125,-0.28125 -0.28125,-0.28125 0.140625,-0.234375 0.4375,-0.375 0.765625,-0.375 0.484375,0 0.890625,0.28125 0.890625,0.765625 0,0.421875 -0.296875,0.75 -0.671875,1.0625 l -1.21875,1.03125 C 0.46875,-0.1875 0.453125,-0.1875 0.453125,-0.15625 V 0 h 2.3125 z m 0,0"
             id="id-168d9bda-63aa-43ae-bf15-d227684226d4" />
        </g>
      </g>
      <g
         fill="#000000"
         fill-opacity="1"
         id="id-579b8cdf-d294-45ef-bccb-1c0c9db767bb"
         transform="translate(-149.056,-126.305)">
        <g
           transform="translate(201.287,131.149)"
           id="g4206">
          <path
             d="M 1.578125,-1.734375 C 1.578125,-2 1.375,-2.140625 1.1875,-2.140625 c -0.234375,0 -0.40625,0.1875 -0.40625,0.390625 0,0.25 0.203125,0.40625 0.390625,0.40625 0.234375,0 0.40625,-0.1875 0.40625,-0.390625 z m 0,0"
             id="id-808111b3-c3c7-43a5-83bc-529e65d4c682" />
        </g>
      </g>
      <g
         fill="#000000"
         fill-opacity="1"
         id="id-739c91b9-391f-4efb-a96c-0e7a50687622"
         transform="translate(-149.056,-126.305)">
        <g
           transform="translate(203.653,131.149)"
           id="g947">
          <path
             d="M 3.515625,-1.265625 H 3.28125 c -0.015625,0.15625 -0.09375,0.5625 -0.1875,0.625 C 3.046875,-0.59375 2.515625,-0.59375 2.40625,-0.59375 H 1.125 c 0.734375,-0.640625 0.984375,-0.84375 1.390625,-1.171875 0.515625,-0.40625 1,-0.84375 1,-1.5 0,-0.84375 -0.734375,-1.359375 -1.625,-1.359375 -0.859375,0 -1.453125,0.609375 -1.453125,1.25 0,0.34375 0.296875,0.390625 0.375,0.390625 0.15625,0 0.359375,-0.125 0.359375,-0.375 0,-0.125 -0.046875,-0.375 -0.40625,-0.375 C 0.984375,-4.21875 1.453125,-4.375 1.78125,-4.375 c 0.703125,0 1.0625,0.546875 1.0625,1.109375 0,0.609375 -0.4375,1.078125 -0.65625,1.328125 L 0.515625,-0.265625 C 0.4375,-0.203125 0.4375,-0.1875 0.4375,0 h 2.875 z m 0,0"
             id="id-17a06f3b-739b-4a71-b4d0-64833e85c2f5" />
        </g>
      </g>
      <g
         fill="#000000"
         fill-opacity="1"
         id="id-abaabf84-a7de-403c-8a67-d040caa6ad45"
         transform="translate(-149.056,-126.305)">
        <g
           transform="translate(207.624,131.149)"
           id="g120">
          <path
             d="M 3.984375,-4.625 C 3.984375,-4.640625 4,-4.734375 4,-4.734375 4,-4.78125 3.984375,-4.84375 3.890625,-4.84375 3.75,-4.84375 3.171875,-4.78125 3,-4.765625 c -0.046875,0 -0.15625,0.015625 -0.15625,0.15625 0,0.09375 0.109375,0.09375 0.1875,0.09375 0.328125,0 0.328125,0.0625 0.328125,0.109375 0,0.046875 0,0.09375 -0.015625,0.15625 L 2.9375,-2.65625 c -0.140625,-0.234375 -0.375,-0.421875 -0.71875,-0.421875 -0.890625,0 -1.796875,0.984375 -1.796875,1.984375 0,0.6875 0.453125,1.15625 1.0625,1.15625 0.375,0 0.703125,-0.203125 0.984375,-0.484375 C 2.59375,0 3,0.0625 3.1875,0.0625 c 0.25,0 0.421875,-0.140625 0.546875,-0.359375 0.15625,-0.28125 0.25,-0.671875 0.25,-0.703125 0,-0.09375 -0.09375,-0.09375 -0.109375,-0.09375 -0.109375,0 -0.109375,0.03125 -0.15625,0.21875 C 3.625,-0.53125 3.5,-0.125 3.203125,-0.125 3.03125,-0.125 2.96875,-0.28125 2.96875,-0.46875 c 0,-0.125 0.015625,-0.1875 0.046875,-0.28125 z M 2.5,-0.875 C 2.453125,-0.671875 2.296875,-0.53125 2.140625,-0.40625 2.078125,-0.34375 1.796875,-0.125 1.5,-0.125 c -0.265625,0 -0.515625,-0.1875 -0.515625,-0.671875 0,-0.375 0.203125,-1.140625 0.375,-1.421875 0.3125,-0.5625 0.671875,-0.65625 0.859375,-0.65625 0.484375,0 0.625,0.53125 0.625,0.609375 0,0.015625 -0.015625,0.078125 -0.015625,0.09375 z m 0,0"
             id="id-651a9446-c757-4ec6-a11d-7a7bc2b25e1f" />
        </g>
      </g>
    </g>
    <g
       transform="matrix(0.72232589,0,0,0.72232589,138.93212,83.805917)"
       ns10:version="1.10.2"
       ns10:texconverter="pdflatex"
       ns10:pdfconverter="inkscape"
       ns10:text="$I_1=I_2$"
       ns10:preamble="/Users/kaestner/Library/Application Support/org.inkscape.Inkscape/config/inkscape/extensions/textext/default_packages.tex"
       ns10:scale="1.0014800711695804"
       ns10:alignment="middle center"
       ns10:stroke-to-path="0"
       ns10:inkscapeversion="1.3.2"
       id="g8358"
       ns10:jacobian_sqrt="0.3533">
      <defs
         id="id-ae9dc919-78ff-4031-b839-d85ea56f07e7">
        <g
           id="id-d027075a-24cb-4a93-8ff3-4e84e9234264">
          <g
             id="id-870ca545-8e20-43e5-9532-4c1192cc4334">
            <path
               d="M 3.734375,-6.046875 C 3.8125,-6.40625 3.84375,-6.5 4.640625,-6.5 c 0.234375,0 0.3125,0 0.3125,-0.1875 0,-0.125 -0.109375,-0.125 -0.140625,-0.125 -0.296875,0 -1.03125,0.03125 -1.328125,0.03125 -0.296875,0 -1.015625,-0.03125 -1.328125,-0.03125 -0.0625,0 -0.1875,0 -0.1875,0.203125 C 1.96875,-6.5 2.046875,-6.5 2.25,-6.5 c 0.40625,0 0.6875,0 0.6875,0.1875 0,0.046875 0,0.078125 -0.03125,0.15625 l -1.34375,5.375 c -0.09375,0.375 -0.109375,0.46875 -0.90625,0.46875 -0.234375,0 -0.3125,0 -0.3125,0.203125 C 0.34375,0 0.453125,0 0.484375,0 0.78125,0 1.5,-0.03125 1.796875,-0.03125 2.09375,-0.03125 2.828125,0 3.125,0 c 0.078125,0 0.203125,0 0.203125,-0.1875 0,-0.125 -0.078125,-0.125 -0.296875,-0.125 -0.1875,0 -0.234375,0 -0.421875,-0.015625 -0.21875,-0.015625 -0.25,-0.0625 -0.25,-0.171875 0,-0.078125 0.015625,-0.15625 0.03125,-0.234375 z m 0,0"
               id="id-0d7f4359-0a83-433e-9be8-e44363dede9f" />
          </g>
          <g
             id="id-41726426-d810-4adb-b890-c2aa38d97e8f">
            <path
               d="m 2.328125,-4.4375 c 0,-0.1875 0,-0.1875 -0.203125,-0.1875 -0.453125,0.4375 -1.078125,0.4375 -1.359375,0.4375 v 0.25 c 0.15625,0 0.625,0 1,-0.1875 v 3.546875 c 0,0.234375 0,0.328125 -0.6875,0.328125 H 0.8125 V 0 c 0.125,0 0.984375,-0.03125 1.234375,-0.03125 0.21875,0 1.09375,0.03125 1.25,0.03125 V -0.25 H 3.03125 c -0.703125,0 -0.703125,-0.09375 -0.703125,-0.328125 z m 0,0"
               id="id-b49516f4-f3de-49fd-adf7-4d8abab627e9" />
          </g>
          <g
             id="id-b02b35b3-de6e-43b7-b32e-8ca349f13efa">
            <path
               d="M 3.515625,-1.265625 H 3.28125 c -0.015625,0.15625 -0.09375,0.5625 -0.1875,0.625 C 3.046875,-0.59375 2.515625,-0.59375 2.40625,-0.59375 H 1.125 c 0.734375,-0.640625 0.984375,-0.84375 1.390625,-1.171875 0.515625,-0.40625 1,-0.84375 1,-1.5 0,-0.84375 -0.734375,-1.359375 -1.625,-1.359375 -0.859375,0 -1.453125,0.609375 -1.453125,1.25 0,0.34375 0.296875,0.390625 0.375,0.390625 0.15625,0 0.359375,-0.125 0.359375,-0.375 0,-0.125 -0.046875,-0.375 -0.40625,-0.375 C 0.984375,-4.21875 1.453125,-4.375 1.78125,-4.375 c 0.703125,0 1.0625,0.546875 1.0625,1.109375 0,0.609375 -0.4375,1.078125 -0.65625,1.328125 L 0.515625,-0.265625 C 0.4375,-0.203125 0.4375,-0.1875 0.4375,0 h 2.875 z m 0,0"
               id="id-f87e54cc-20ea-44c6-8c10-d2b0766734cc" />
          </g>
          <g
             id="id-ff87f949-78b3-4b34-b852-d9c7c38c4483">
            <path
               d="m 6.84375,-3.265625 c 0.15625,0 0.34375,0 0.34375,-0.1875 C 7.1875,-3.65625 7,-3.65625 6.859375,-3.65625 h -5.96875 c -0.140625,0 -0.328125,0 -0.328125,0.203125 0,0.1875 0.1875,0.1875 0.328125,0.1875 z m 0.015625,1.9375 c 0.140625,0 0.328125,0 0.328125,-0.203125 0,-0.1875 -0.1875,-0.1875 -0.34375,-0.1875 H 0.890625 c -0.140625,0 -0.328125,0 -0.328125,0.1875 0,0.203125 0.1875,0.203125 0.328125,0.203125 z m 0,0"
               id="id-27220b8e-a3fd-46f5-8c06-51cdbccb939a" />
          </g>
        </g>
      </defs>
      <g
         fill="#000000"
         fill-opacity="1"
         id="id-4cdbb521-e6f8-4ac8-a09a-5dc553eaefc5"
         transform="translate(-149.056,-127.953)">
        <g
           transform="translate(148.712,134.765)"
           id="g7461">
          <path
             d="M 3.734375,-6.046875 C 3.8125,-6.40625 3.84375,-6.5 4.640625,-6.5 c 0.234375,0 0.3125,0 0.3125,-0.1875 0,-0.125 -0.109375,-0.125 -0.140625,-0.125 -0.296875,0 -1.03125,0.03125 -1.328125,0.03125 -0.296875,0 -1.015625,-0.03125 -1.328125,-0.03125 -0.0625,0 -0.1875,0 -0.1875,0.203125 C 1.96875,-6.5 2.046875,-6.5 2.25,-6.5 c 0.40625,0 0.6875,0 0.6875,0.1875 0,0.046875 0,0.078125 -0.03125,0.15625 l -1.34375,5.375 c -0.09375,0.375 -0.109375,0.46875 -0.90625,0.46875 -0.234375,0 -0.3125,0 -0.3125,0.203125 C 0.34375,0 0.453125,0 0.484375,0 0.78125,0 1.5,-0.03125 1.796875,-0.03125 2.09375,-0.03125 2.828125,0 3.125,0 c 0.078125,0 0.203125,0 0.203125,-0.1875 0,-0.125 -0.078125,-0.125 -0.296875,-0.125 -0.1875,0 -0.234375,0 -0.421875,-0.015625 -0.21875,-0.015625 -0.25,-0.0625 -0.25,-0.171875 0,-0.078125 0.015625,-0.15625 0.03125,-0.234375 z m 0,0"
             id="id-bf99cd65-4078-46cc-97b3-48e141624c8d" />
        </g>
      </g>
      <g
         fill="#000000"
         fill-opacity="1"
         id="id-65158891-6f17-4e4a-8ea7-7d9bf2598136"
         transform="translate(-149.056,-127.953)">
        <g
           transform="translate(153.092,136.259)"
           id="g9276">
          <path
             d="m 2.328125,-4.4375 c 0,-0.1875 0,-0.1875 -0.203125,-0.1875 -0.453125,0.4375 -1.078125,0.4375 -1.359375,0.4375 v 0.25 c 0.15625,0 0.625,0 1,-0.1875 v 3.546875 c 0,0.234375 0,0.328125 -0.6875,0.328125 H 0.8125 V 0 c 0.125,0 0.984375,-0.03125 1.234375,-0.03125 0.21875,0 1.09375,0.03125 1.25,0.03125 V -0.25 H 3.03125 c -0.703125,0 -0.703125,-0.09375 -0.703125,-0.328125 z m 0,0"
             id="id-a883d118-bf96-4e55-8af0-a37aeabdc738" />
        </g>
      </g>
      <g
         fill="#000000"
         fill-opacity="1"
         id="id-ddd99cec-6044-4238-a435-4cc86e325712"
         transform="translate(-149.056,-127.953)">
        <g
           transform="translate(160.328,134.765)"
           id="g5454">
          <path
             d="m 6.84375,-3.265625 c 0.15625,0 0.34375,0 0.34375,-0.1875 C 7.1875,-3.65625 7,-3.65625 6.859375,-3.65625 h -5.96875 c -0.140625,0 -0.328125,0 -0.328125,0.203125 0,0.1875 0.1875,0.1875 0.328125,0.1875 z m 0.015625,1.9375 c 0.140625,0 0.328125,0 0.328125,-0.203125 0,-0.1875 -0.1875,-0.1875 -0.34375,-0.1875 H 0.890625 c -0.140625,0 -0.328125,0 -0.328125,0.1875 0,0.203125 0.1875,0.203125 0.328125,0.203125 z m 0,0"
             id="id-9623e962-004a-49e6-b4c5-bc83d6ca754b" />
        </g>
      </g>
      <g
         fill="#000000"
         fill-opacity="1"
         id="id-c8183dce-de4e-4b3d-bf16-2d38c1dff5a3"
         transform="translate(-149.056,-127.953)">
        <g
           transform="translate(170.845,134.765)"
           id="g2507">
          <path
             d="M 3.734375,-6.046875 C 3.8125,-6.40625 3.84375,-6.5 4.640625,-6.5 c 0.234375,0 0.3125,0 0.3125,-0.1875 0,-0.125 -0.109375,-0.125 -0.140625,-0.125 -0.296875,0 -1.03125,0.03125 -1.328125,0.03125 -0.296875,0 -1.015625,-0.03125 -1.328125,-0.03125 -0.0625,0 -0.1875,0 -0.1875,0.203125 C 1.96875,-6.5 2.046875,-6.5 2.25,-6.5 c 0.40625,0 0.6875,0 0.6875,0.1875 0,0.046875 0,0.078125 -0.03125,0.15625 l -1.34375,5.375 c -0.09375,0.375 -0.109375,0.46875 -0.90625,0.46875 -0.234375,0 -0.3125,0 -0.3125,0.203125 C 0.34375,0 0.453125,0 0.484375,0 0.78125,0 1.5,-0.03125 1.796875,-0.03125 2.09375,-0.03125 2.828125,0 3.125,0 c 0.078125,0 0.203125,0 0.203125,-0.1875 0,-0.125 -0.078125,-0.125 -0.296875,-0.125 -0.1875,0 -0.234375,0 -0.421875,-0.015625 -0.21875,-0.015625 -0.25,-0.0625 -0.25,-0.171875 0,-0.078125 0.015625,-0.15625 0.03125,-0.234375 z m 0,0"
             id="id-17d03725-e445-4454-84d6-73fa86ee725e" />
        </g>
      </g>
      <g
         fill="#000000"
         fill-opacity="1"
         id="id-d24c6426-574e-492f-8714-50acf7366b79"
         transform="translate(-149.056,-127.953)">
        <g
           transform="translate(175.224,136.259)"
           id="g6838">
          <path
             d="M 3.515625,-1.265625 H 3.28125 c -0.015625,0.15625 -0.09375,0.5625 -0.1875,0.625 C 3.046875,-0.59375 2.515625,-0.59375 2.40625,-0.59375 H 1.125 c 0.734375,-0.640625 0.984375,-0.84375 1.390625,-1.171875 0.515625,-0.40625 1,-0.84375 1,-1.5 0,-0.84375 -0.734375,-1.359375 -1.625,-1.359375 -0.859375,0 -1.453125,0.609375 -1.453125,1.25 0,0.34375 0.296875,0.390625 0.375,0.390625 0.15625,0 0.359375,-0.125 0.359375,-0.375 0,-0.125 -0.046875,-0.375 -0.40625,-0.375 C 0.984375,-4.21875 1.453125,-4.375 1.78125,-4.375 c 0.703125,0 1.0625,0.546875 1.0625,1.109375 0,0.609375 -0.4375,1.078125 -0.65625,1.328125 L 0.515625,-0.265625 C 0.4375,-0.203125 0.4375,-0.1875 0.4375,0 h 2.875 z m 0,0"
             id="id-68e8dac3-94f4-4cce-882f-b0c7a76d9a89" />
        </g>
      </g>
    </g>
  </g>
</svg>
