<?xml version="1.0" encoding="UTF-8" standalone="no"?>
<!-- Created with Inkscape (http://www.inkscape.org/) -->

<svg
   width="168.00568mm"
   height="38.175213mm"
   viewBox="0 0 168.00568 38.175213"
   version="1.1"
   id="svg5"
   inkscape:version="1.1.2 (b8e25be8, 2022-02-05)"
   sodipodi:docname="diciplined_steps.svg"
   xmlns:inkscape="http://www.inkscape.org/namespaces/inkscape"
   xmlns:sodipodi="http://sodipodi.sourceforge.net/DTD/sodipodi-0.dtd"
   xmlns="http://www.w3.org/2000/svg"
   xmlns:svg="http://www.w3.org/2000/svg">
  <sodipodi:namedview
     id="namedview7"
     pagecolor="#ffffff"
     bordercolor="#666666"
     borderopacity="1.0"
     inkscape:pageshadow="2"
     inkscape:pageopacity="0.0"
     inkscape:pagecheckerboard="0"
     inkscape:document-units="mm"
     showgrid="false"
     fit-margin-top="2"
     fit-margin-left="2"
     fit-margin-right="2"
     fit-margin-bottom="2"
     inkscape:zoom="0.5"
     inkscape:cx="348"
     inkscape:cy="3"
     inkscape:window-width="1567"
     inkscape:window-height="1053"
     inkscape:window-x="969"
     inkscape:window-y="211"
     inkscape:window-maximized="0"
     inkscape:current-layer="layer1" />
  <defs
     id="defs2" />
  <g
     inkscape:label="Layer 1"
     inkscape:groupmode="layer"
     id="layer1"
     transform="translate(-10.9789,-54.776256)">
    <g
       id="g1066"
       transform="matrix(0.35277778,0,0,0.35277778,99.788871,68.294761)">
      <g
         id="g836"
         transform="matrix(0.60921651,0,0,0.60921651,15.300337,-14.70066)">
        <path
           d="m 20,25 c -0.10156,0.60156 -0.19922,1.1992 -0.19922,1.8008 0,5 4.1016,9 9.1016,9 5,0 9,-4.1016 9,-9.1016 0,-1.5 -0.39844,-2.8984 -1.1016,-4.1016 3.3008,-1 5.3008,-2.1992 5.1992,-3.1992 -0.19922,-1.1016 -3.1992,-1.6992 -7.5,-1.6016 l -4,-7.1992 c 0,-0.10156 -0.10156,-0.10156 -0.10156,-0.19922 l -3.8984,-4.1016 C 26.39846,6.19522 26.3008,6.19522 26.19924,6.09756 l -7.3008,-3.5 C 18.5,2.39834 18.09766,2.496 17.79684,2.79678 17.49602,3.09756 17.49606,3.59756 17.69528,3.89838 l 3.1016,4.5 1,3.8984 -1.1992,7.5 c -4.1016,1.1016 -6.8008,2.5 -6.6016,3.6016 0.20312,1 2.5039,1.5 6.0039,1.6016 z"
           id="path824" />
        <path
           d="m 40.398,61 c -2,-2.1016 -3.1016,-5 -2.8984,-7.8984 l 0.39844,-6.8008 h 16 c 2,0 3.8008,-1.3008 4.1016,-3.3008 0.39844,-2.5 -1.5,-4.6016 -3.8984,-4.6016 h -29.602 c -4.1992,0 -8.1016,2 -10.602,5.3984 l -8.1992,11.203 c -1.1992,1.6016 -1.1992,3.8008 0.19922,5.3008 0.80078,0.80078 1.8008,1.1992 2.8984,1.1992 1.1992,0 2.3984,-0.60156 3.1992,-1.6016 l 8.1016,-11 0.39844,4.8008 c 0.19922,2.6992 -0.69922,5.3984 -2.3984,7.5 l -6.5,7.8008 c -0.80078,1 -0.60156,2.5 0.5,3.1992 1.5,0.89844 3.6992,2 6.3984,2.8984 l -2.8984,16.801 c -0.39844,2.3008 0.89844,4.6992 3.1016,5.3984 0.39844,0.10156 0.89844,0.19922 1.3008,0.19922 2.1992,0 4.1016,-1.6016 4.5,-3.8008 l 3,-17.102 c 0.89844,0 1.8008,-0.10156 2.6992,-0.19922 1.1992,-0.19922 2.3008,-0.39844 3.3984,-0.69922 l 1.3984,2.6992 0.80078,14.898 c 0.10156,2.3984 2.1016,4.3008 4.5,4.3008 h 0.30078 c 2.5,-0.10156 4.3984,-2.1992 4.3008,-4.6992 l -0.80078,-15.898 c 0,-0.60156 -0.19922,-1.3008 -0.5,-1.8984 l -1.3984,-2.6992 c 1.6016,-0.80078 2.8984,-1.6016 3.8984,-2.1992 1.1016,-0.69922 1.3008,-2.3008 0.39844,-3.1992 z"
           id="path826" />
        <path
           d="m 95.102,63.5 c 0,-1.8008 -1.5,-3.3008 -3.3008,-3.3008 h -37 c -1.8008,0 -3.3008,1.5 -3.3008,3.3008 0,1.8008 1.5,3.3008 3.3008,3.3008 h 1.1992 c -1,2.6016 -1.5,5.6016 -1.5,8.6016 0,12.199 3.1016,22.102 18.898,22.102 15.699,0 18.801,-9.8984 18.801,-22.102 0,-3 -0.5,-6 -1.5,-8.6016 h 1.1016 c 1.8008,0 3.3008,-1.5 3.3008,-3.3008 z M 76.399,91.898 h -0.19922 c -1,0 -1.8984,-0.80078 -2,-1.8008 -0.19922,-1.0977 0.69922,-2.0977 1.8008,-2.1992 3.8008,-0.39844 6.3008,-1.3008 6.6992,-10.102 0,-1.1016 1.1016,-2 2.1016,-1.8984 1.1016,0 2,1 1.8984,2.1016 -0.39844,9.3984 -3.3008,13.301 -10.301,13.898 z"
           id="path828" />
        <path
           d="m 73.699,37.898 c 0,5.3359 -8,5.3359 -8,0 0,-5.332 8,-5.332 8,0"
           id="path830" />
        <path
           d="m 66.699,56 c 2.6992,0 4.8008,-2.1016 4.8008,-4.8008 0,-2.6016 -2.1016,-4.8008 -4.8008,-4.8008 -2.6016,0 -4.8008,2.1016 -4.8008,4.8008 0,2.6016 2.1016,4.8008 4.8008,4.8008 z"
           id="path832" />
        <path
           d="m 79.5,50.898 c 2.5,0 4.5,-2 4.5,-4.5 0,-2.5 -2,-4.5 -4.5,-4.5 -2.5,0 -4.5,2 -4.5,4.5 0,2.5 2,4.5 4.5,4.5 z"
           id="path834" />
      </g>
      <path
         d="m 45.738046,-29.979572 c 25.234,0 45.766,20.5310004 45.766,45.766 0,25.235 -20.531,45.766 -45.766,45.766 -25.235,0 -45.76600026,-20.531 -45.76600026,-45.766 0,-25.2349996 20.53100026,-45.766 45.76600026,-45.766 z m -37.1020003,45.766 c 0,8.668 3.0000003,16.668 8.0000003,23 l 52.102,-52.133 c -6.332,-5 -14.301,-8 -23,-8 -20.465,0.03125 -37.1020003,16.668 -37.1020003,37.133 z m 74.2030003,0 c 0,-8.668 -3,-16.66800001 -8,-22.9999996 l -52.102,52.1329996 c 6.332,5 14.301,8 23,8 20.465,-0.03125 37.102,-16.668 37.102,-37.133 z"
         id="path1013"
         style="fill:#ff0000" />
    </g>
    <g
       id="g865"
       transform="matrix(0.35277778,0,0,0.35277778,142.25795,56.224836)"
       style="fill:#2ca02c">
      <path
         d="m 93.75,23.438 h -1.5625 c -0.01172,-2.3516 -1.7656,-4.332 -4.0977,-4.625 l 3.6406,-3.6406 2.0195,-2.0234 c 1.0039,-1 1.5664,-2.3594 1.5625,-3.7734 C 95.3085,7.9616 94.74599,6.6061 93.7499,5.6022 L 91.2733,3.1256 c -1,-1.0039 -2.3594,-1.5664 -3.7734,-1.5625 -1.414,0.0039 -2.7695,0.56641 -3.7734,1.5625 L 81.707,5.1412 68.102,18.7502 H 57.543 c -1.2461,-0.0039 -2.4375,0.49219 -3.3164,1.3711 -2.3633,2.2617 -6.0898,2.2617 -8.457,0 -0.87891,-0.87891 -2.0703,-1.375 -3.3164,-1.3711 h -29.953 c -2.5898,0 -4.6875,2.0977 -4.6875,4.6875 H 6.2502 c -2.5898,0 -4.6875,2.0977 -4.6875,4.6875 v 62.5 c 0.00391,4.3125 3.5,7.8086 7.8125,7.8125 h 81.25 c 4.3125,-0.0039 7.8086,-3.5 7.8125,-7.8125 v -62.5 c 0,-2.5898 -2.0977,-4.6875 -4.6875,-4.6875 z M 87.5,21.8755 c 0.41406,0 0.8125,0.16406 1.1055,0.45703 0.293,0.29297 0.45703,0.69141 0.45703,1.1055 v 62.5 c 0,0.41406 -0.16406,0.8125 -0.45703,1.1055 -0.29297,0.293 -0.69141,0.45703 -1.1055,0.45703 H 51.562 v -39.609 l 9.3164,-4.1406 h 23.496 c 0.41406,0 0.8125,-0.16406 1.1055,-0.45703 0.293,-0.29297 0.45703,-0.69141 0.45703,-1.1055 v -12.5 c 0,-0.41406 -0.16406,-0.8125 -0.45703,-1.1055 -0.29297,-0.293 -0.69141,-0.45703 -1.1055,-0.45703 h -5.6016 l 6.25,-6.25 z m -4.6875,-13.414 1.6953,1.6953 -24.352,24.348 -1.6953,-1.6914 z m -18.75,29.953 -1.6953,-1.6953 24.352,-24.352 1.6953,1.6953 z m 11.586,-7.1641 h 7.1641 v 9.375 h -16.539 z m -14.301,8.8711 -2.3438,1.043 -3.2812,-3.2891 1.043,-2.3438 z m -7,0.8125 1.5898,1.5898 -2.8594,1.2695 z m 31.59,-35.598 c 0.875,-0.83203 2.25,-0.83203 3.125,0 l 2.4766,2.4766 c 0.41406,0.41406 0.64844,0.97656 0.64844,1.5625 0,0.58594 -0.23438,1.1484 -0.64844,1.5625 l -0.91406,0.91406 -5.6016,-5.6016 z m -29.5,16.996 c 0.29297,-0.29297 0.69141,-0.45703 1.1055,-0.45703 h 7.4336 l -9.832,9.832 c -0.13281,0.13672 -0.23828,0.29297 -0.3125,0.46875 h -0.0078 l -0.01953,0.04297 -3.2422,7.2969 v -14.656 c 1.8477,-0.31641 3.5508,-1.2031 4.875,-2.5273 z m -45.5,1.1055 c 0,-0.86328 0.69922,-1.5625 1.5625,-1.5625 h 29.953 c 0.41406,0 0.8125,0.16406 1.1055,0.45703 1.3242,1.3281 3.0312,2.2109 4.8789,2.5273 v 62.641 h -35.938 c -0.86328,0 -1.5625,-0.69922 -1.5625,-1.5625 z m 84.375,67.188 c 0,2.5898 -2.0977,4.6875 -4.6875,4.6875 H 9.375 c -2.5898,0 -4.6875,-2.0977 -4.6875,-4.6875 v -62.5 c 0,-0.86328 0.69922,-1.5625 1.5625,-1.5625 h 1.5625 v 59.375 c 0,2.5898 2.0977,4.6875 4.6875,4.6875 h 75 c 2.5898,0 4.6875,-2.0977 4.6875,-4.6875 V 26.563 H 93.75 c 0.41406,0 0.8125,0.16406 1.1055,0.45703 0.293,0.29297 0.45703,0.69141 0.45703,1.1055 z"
         id="path845"
         style="fill:#2ca02c" />
      <path
         d="M 15.625,43.75 H 43.75 c 0.41406,0 0.8125,-0.16406 1.1055,-0.45703 0.293,-0.29297 0.45703,-0.69141 0.45703,-1.1055 v -12.5 c 0,-0.41406 -0.16406,-0.8125 -0.45703,-1.1055 -0.29297,-0.293 -0.69141,-0.45703 -1.1055,-0.45703 H 15.625 c -0.86328,0 -1.5625,0.69922 -1.5625,1.5625 v 12.5 c 0,0.41406 0.16406,0.8125 0.45703,1.1055 0.29297,0.293 0.69141,0.45703 1.1055,0.45703 z m 1.5625,-12.5 h 25 v 9.375 h -25 z"
         id="path847"
         style="fill:#2ca02c" />
      <path
         d="M 15.625,56.25 H 43.75 c 0.41406,0 0.8125,-0.16406 1.1055,-0.45703 0.293,-0.29297 0.45703,-0.69141 0.45703,-1.1055 v -6.25 c 0,-0.41406 -0.16406,-0.8125 -0.45703,-1.1055 -0.29297,-0.293 -0.69141,-0.45703 -1.1055,-0.45703 H 15.625 c -0.86328,0 -1.5625,0.69922 -1.5625,1.5625 v 6.25 c 0,0.41406 0.16406,0.8125 0.45703,1.1055 0.29297,0.293 0.69141,0.45703 1.1055,0.45703 z M 17.1875,50 h 25 v 3.125 h -25 z"
         id="path849"
         style="fill:#2ca02c" />
      <path
         d="M 84.375,46.875 H 56.25 c -0.86328,0 -1.5625,0.69922 -1.5625,1.5625 v 6.25 c 0,0.41406 0.16406,0.8125 0.45703,1.1055 0.29297,0.293 0.69141,0.45703 1.1055,0.45703 h 28.125 c 0.41406,0 0.8125,-0.16406 1.1055,-0.45703 0.293,-0.29297 0.45703,-0.69141 0.45703,-1.1055 v -6.25 c 0,-0.41406 -0.16406,-0.8125 -0.45703,-1.1055 -0.29297,-0.293 -0.69141,-0.45703 -1.1055,-0.45703 z m -1.5625,6.25 h -25 V 50 h 25 z"
         id="path851"
         style="fill:#2ca02c" />
      <path
         d="m 17.188,59.375 h 25 V 62.5 h -25 z"
         id="path853"
         style="fill:#2ca02c" />
      <path
         d="m 17.188,65.625 h 25 v 3.125 h -25 z"
         id="path855"
         style="fill:#2ca02c" />
      <path
         d="m 17.188,71.875 h 25 V 75 h -25 z"
         id="path857"
         style="fill:#2ca02c" />
      <path
         d="m 57.812,59.375 h 25 V 62.5 h -25 z"
         id="path859"
         style="fill:#2ca02c" />
      <path
         d="m 57.812,65.625 h 25 v 3.125 h -25 z"
         id="path861"
         style="fill:#2ca02c" />
      <path
         d="m 57.812,71.875 h 25 V 75 h -25 z"
         id="path863"
         style="fill:#2ca02c" />
    </g>
    <path
       d="m 71.246043,83.918022 c 0.282498,0 0.529167,0.246669 0.529167,0.529166 0,0.282498 -0.246669,0.529167 -0.529167,0.529167 h -7.055555 c -0.282498,0 -0.529167,-0.246669 -0.529167,-0.529167 0,-0.282497 0.246669,-0.529166 0.529167,-0.529166 z M 62.779377,76.15691 c -0.282498,0 -0.529167,0.24667 -0.529167,0.529167 0,0.282497 0.246669,0.529167 0.529167,0.529167 0.282497,0 0.529166,-0.24667 0.529166,-0.529167 0,-0.282497 -0.246669,-0.529167 -0.529166,-0.529167 z m 0,5.185481 c -0.282498,0 -0.529167,0.246669 -0.529167,0.529167 0,0.282497 0.246669,0.529166 0.529167,0.529166 0.282497,0 0.529166,-0.246669 0.529166,-0.529166 0,-0.282498 -0.246669,-0.529167 -0.529166,-0.529167 z m 0,2.57556 c -0.282498,0 -0.529167,0.246669 -0.529167,0.529167 0,0.282497 0.246669,0.529166 0.529167,0.529166 0.282497,0 0.529166,-0.246669 0.529166,-0.529166 0,-0.282498 -0.246669,-0.529167 -0.529166,-0.529167 z m 0,-5.185481 c -0.282498,0 -0.529167,0.24667 -0.529167,0.529167 0,0.282497 0.246669,0.529167 0.529167,0.529167 0.282497,0 0.529166,-0.24667 0.529166,-0.529167 0,-0.282497 -0.246669,-0.529167 -0.529166,-0.529167 z m 11.465277,6.243814 c 0.282498,0 0.529167,-0.246669 0.529167,-0.529166 0,-0.282498 -0.246669,-0.529167 -0.529167,-0.529167 -0.282497,0 -0.529166,0.246669 -0.529166,0.529167 0,0.282497 0.210841,0.529166 0.529166,0.529166 z m -1.940277,-0.529166 c 0,0.282497 0.246669,0.529166 0.529166,0.529166 0.282498,0 0.529167,-0.246669 0.529167,-0.529166 0,-0.282498 -0.246669,-0.529167 -0.529167,-0.529167 -0.282497,0 -0.529166,0.246669 -0.529166,0.529167 z m 3.810352,0.246669 c -0.282497,-0.176389 -0.565008,-0.423051 -0.811671,-0.635282 -0.106108,0.106108 -0.212217,0.246669 -0.212217,0.423051 0,0.282497 0.24667,0.529166 0.529167,0.529166 0.246669,-0.03445 0.423051,-0.14056 0.4947,-0.316949 z M 64.190488,81.342398 c -0.282498,0 -0.529167,0.246669 -0.529167,0.529167 0,0.282497 0.246669,0.529166 0.529167,0.529166 h 9.841794 c -0.176389,-0.352777 -0.352778,-0.705555 -0.458893,-1.058333 z m 0,-2.609991 c -0.282498,0 -0.529167,0.246669 -0.529167,0.529167 0,0.282497 0.246669,0.529166 0.529167,0.529166 h 9.031816 c -0.03583,-0.212217 -0.03583,-0.458893 -0.03583,-0.669713 0,-0.140561 0,-0.246669 0.03583,-0.38862 z m -0.529167,-2.046393 c 0,0.282497 0.246669,0.529166 0.529167,0.529166 h 9.242425 c 0.106108,-0.352778 0.246669,-0.705555 0.423051,-1.058333 h -9.665406 c -0.318325,0 -0.529166,0.246669 -0.529166,0.529167 z m 15.592425,9.102019 c -0.282497,0.952218 -1.164449,1.657773 -2.18694,1.657773 H 61.544584 c -1.270565,0 -2.293056,-1.022491 -2.293056,-2.293055 V 62.574974 c 0,-1.270565 1.022491,-2.293056 2.293056,-2.293056 h 15.522222 c 1.270565,0 2.293056,1.022491 2.293056,2.293056 v 9.877777 c 0.176389,0 0.352777,-0.03583 0.529166,-0.03583 0.176389,0 0.352778,0 0.529167,0.03583 v -9.877777 c 0,-1.834163 -1.517227,-3.351389 -3.351389,-3.351389 H 61.544584 c -1.834162,0 -3.351389,1.517226 -3.351389,3.351389 v 22.577777 c 0,1.834162 1.517227,3.351389 3.351389,3.351389 h 15.522222 c 1.623342,0 2.998611,-1.164449 3.281116,-2.681676 -0.140561,0 -0.31695,0.03583 -0.458894,0.03583 -0.212217,-0.03583 -0.423051,-0.03583 -0.635282,-0.07028 z m 6.456186,-6.668206 c 0,3.210843 -2.609991,5.820834 -5.820833,5.820834 -3.210842,0 -5.820833,-2.609991 -5.820833,-5.820834 0,-3.210842 2.609991,-5.820833 5.820833,-5.820833 3.209466,0 5.820833,2.611367 5.820833,5.820833 z m -1.058333,0 c 0,-2.609991 -2.152509,-4.7625 -4.7625,-4.7625 -2.609991,0 -4.7625,2.152509 -4.7625,4.7625 0,2.609992 2.152509,4.7625 4.7625,4.7625 2.609991,0 4.7625,-2.116666 4.7625,-4.7625 z M 83.769654,77.497861 C 83.522985,77.321472 83.204646,77.3573 83.028257,77.60397 l -0.38862,0.529166 c -0.212217,-0.59944 -0.565009,-1.128606 -1.094176,-1.517226 -0.669713,-0.529167 -1.517227,-0.741398 -2.363329,-0.59944 -0.846102,0.106108 -1.5875,0.565008 -2.080824,1.234722 -0.529167,0.669713 -0.741398,1.517226 -0.59944,2.363329 0.106108,0.846102 0.565009,1.5875 1.234722,2.080824 0.565009,0.423051 1.234722,0.635282 1.904436,0.635282 0.529166,0 1.058333,-0.14056 1.517226,-0.38862 0.246669,-0.14056 0.352778,-0.458893 0.212217,-0.705555 -0.140561,-0.246669 -0.458893,-0.352778 -0.705555,-0.212217 -0.741398,0.38862 -1.623343,0.352778 -2.293056,-0.176389 -0.458893,-0.352778 -0.741398,-0.846102 -0.811671,-1.411111 -0.07027,-0.565009 0.07028,-1.128607 0.423051,-1.551658 0.352778,-0.423051 0.846102,-0.741398 1.411111,-0.811671 0.565009,-0.07028 1.128607,0.07028 1.551658,0.423051 0.31695,0.246669 0.529167,0.565009 0.669713,0.917787 L 81.01628,77.95535 c -0.246669,-0.176389 -0.565009,-0.14056 -0.741397,0.106109 -0.176389,0.246669 -0.140561,0.565009 0.106108,0.741398 l 2.010551,1.517226 1.517227,-2.010551 c 0.143316,-0.318325 0.107488,-0.635282 -0.139182,-0.811671 z M 62.284782,72.875767 v -0.635283 h 0.212217 l 0.24667,-0.705555 H 61.57922 v 3.74015 h 0.352777 c -0.03583,0 -0.07028,0 -0.106108,-0.03583 -0.176389,-0.07028 -0.282497,-0.282496 -0.212217,-0.458892 z m 1.729423,-1.340838 h -0.529167 l -0.246669,0.705555 h 0.07028 v 2.328898 h -0.917786 l -0.176389,0.458894 c -0.03583,0.14056 -0.176389,0.246669 -0.31695,0.246669 h 2.080824 v -3.74015 z m 2.78638,-4.233333 h 0.458893 v -2.152509 h -2.433602 v 4.269316 H 65.3192 l 0.176389,-0.246669 v -3.315546 h 1.058333 v 1.79973 z m -1.974744,2.822222 v 5.151261 h 2.433602 v -7.267928 h -0.106109 l -0.59944,0.881945 v 5.680427 h -1.058333 v -4.445705 z m 4.409722,-3.175 0.493324,-0.705556 h -1.657773 v 1.058334 h 0.705555 v -0.352778 z m -1.164449,1.058333 v 7.267928 h 2.433602 v -8.713258 h -0.140561 l -0.529166,0.775828 v 7.231945 h -1.058334 v -6.562372 z m 5.538258,-4.832702 0.140561,0.140561 v -2.151133 h -2.433602 v 4.692297 h 0.705555 v -3.986742 h 1.058334 v 2.328898 z m -2.293055,3.38723 v 8.713259 h 2.433602 V 64.37481 l -0.705556,1.270565 v 8.924219 H 71.98603 v -8.007703 z m 5.432072,-1.90581 c 0.07028,-0.07028 0.106108,-0.176389 0.03583,-0.24667 -0.07028,-0.07028 -0.176389,-0.106108 -0.246669,-0.03583 l -1.164449,0.775829 -1.728047,-1.657773 -1.411111,2.57556 h -2.152511 l -1.022491,1.446953 h -2.152509 l -1.481384,2.116666 h -1.799731 l -1.870005,5.291667 c -0.03583,0.106108 0,0.176389 0.106109,0.212217 h 0.07028 c 0.07028,0 0.14056,-0.03583 0.176389,-0.106109 l 1.799731,-5.045075 h 1.728047 l 1.481384,-2.116666 h 2.152509 l 1.022491,-1.446954 h 2.18694 l 1.304996,-2.328897 1.623342,1.551658 z m 0.248045,8.432093 v -8.079316 h -0.458893 l -1.058334,0.705556 h 0.811671 v 7.76111 c 0.24667,-0.14056 0.457518,-0.281121 0.705556,-0.387244 z m -1.729423,1.19888 V 65.71399 L 74.561456,65.044277 V 75.06246 c 0.212217,-0.281122 0.458893,-0.529167 0.705555,-0.775829 z"
       id="path884"
       style="stroke-width:0.352778;fill:#2ca02c" />
    <g
       id="g915"
       transform="matrix(0.29998693,0,0,0.29998693,12.980048,58.865363)"
       style="fill:#2ca02c">
      <path
         d="m 12.691,62.695 c -5.1328,0 -9.7617,-3.0938 -11.727,-7.8359 -1.9653,-4.7421 -0.88281,-10.203 2.75,-13.836 3.6289,-3.6289 9.0898,-4.7148 13.832,-2.75 4.7461,1.9648 7.8359,6.5938 7.8359,11.727 -0.0078,7.0078 -5.6836,12.684 -12.691,12.695 z m 0,-22.262 c -3.8711,0 -7.3594,2.3281 -8.8398,5.9062 -1.4844,3.5742 -0.66406,7.6914 2.0742,10.43 2.7344,2.7344 6.8516,3.5547 10.426,2.0703 3.5781,-1.4805 5.9102,-4.9688 5.9062,-8.8398 -0.0039,-5.2812 -4.2852,-9.5625 -9.5664,-9.5664 z"
         id="path893"
         style="fill:#2ca02c" />
      <path
         d="m 12.691,96.629 c -5.1328,0 -9.7617,-3.0898 -11.727,-7.8359 -1.9648,-4.7422 -0.87891,-10.203 2.75,-13.832 3.6289,-3.6328 9.0898,-4.7188 13.836,-2.7539 4.7422,1.9688 7.8359,6.5977 7.832,11.73 -0.0078,7.0078 -5.6836,12.684 -12.691,12.691 z m 0,-22.262 c -3.8711,0 -7.3594,2.332 -8.8398,5.9062 -1.4805,3.5781 -0.66406,7.6914 2.0742,10.43 2.7344,2.7383 6.8516,3.5547 10.426,2.0742 3.5781,-1.4805 5.9062,-4.9688 5.9062,-8.8398 -0.0078,-5.2812 -4.2852,-9.5547 -9.5664,-9.5625 z"
         id="path895"
         style="fill:#2ca02c" />
      <path
         d="m 12.691,40.434 c -0.86328,0 -1.5625,-0.69922 -1.5625,-1.5625 v -11.684 c 0,-0.86328 0.69922,-1.5625 1.5625,-1.5625 0.86328,0 1.5625,0.69922 1.5625,1.5625 v 11.68 c 0.0039,0.41406 -0.16016,0.8125 -0.45703,1.1055 -0.29297,0.29297 -0.69141,0.46094 -1.1055,0.46094 z"
         id="path897"
         style="fill:#2ca02c" />
      <path
         d="m 12.691,74.375 c -0.86328,0 -1.5625,-0.69922 -1.5625,-1.5625 v -11.68 c 0,-0.86328 0.69922,-1.5625 1.5625,-1.5625 0.86328,0 1.5625,0.69922 1.5625,1.5625 v 11.68 c 0,0.41406 -0.16406,0.8125 -0.45703,1.1055 -0.29297,0.293 -0.69141,0.45703 -1.1055,0.45703 z"
         id="path899"
         style="fill:#2ca02c" />
      <path
         d="m 12.691,28.75 c -5.1328,0 -9.7617,-3.0938 -11.727,-7.8359 -1.9648,-4.7422 -0.87891,-10.199 2.7539,-13.832 3.6289,-3.6289 9.0859,-4.7148 13.832,-2.75 4.7422,1.9648 7.832,6.5938 7.832,11.727 -0.0078,7.0039 -5.6836,12.684 -12.691,12.691 z m 0,-22.258 c -3.8672,0 -7.3555,2.3281 -8.8398,5.9062 -1.4805,3.5742 -0.66016,7.6875 2.0742,10.426 2.7383,2.7344 6.8516,3.5547 10.426,2.0742 3.5781,-1.4844 5.9062,-4.9727 5.9062,-8.8398 C 22.249788,10.7774 17.9724,6.5 12.6912,6.4961 Z"
         id="path901"
         style="fill:#2ca02c" />
      <path
         d="M 98.438,26.844 H 30.403 c -0.86328,0 -1.5625,-0.69922 -1.5625,-1.5625 V 6.8435 c 0,-0.86328 0.69922,-1.5625 1.5625,-1.5625 h 68.035 c 0.41406,0 0.8125,0.16406 1.1055,0.45703 0.293,0.29297 0.45703,0.69141 0.45703,1.1055 v 18.438 c 0,0.41406 -0.16406,0.8125 -0.45703,1.1055 -0.29297,0.293 -0.69141,0.45703 -1.1055,0.45703 z M 31.965,23.719 h 64.91 V 8.407 h -64.91 z"
         id="path903"
         style="fill:#2ca02c" />
      <path
         d="M 98.438,60.812 H 30.403 c -0.86328,0 -1.5625,-0.69922 -1.5625,-1.5625 v -18.438 c 0,-0.86328 0.69922,-1.5625 1.5625,-1.5625 h 68.035 c 0.41406,0 0.8125,0.16406 1.1055,0.45703 0.293,0.29297 0.45703,0.69141 0.45703,1.1055 v 18.438 c 0,0.41406 -0.16406,0.8125 -0.45703,1.1055 -0.29297,0.293 -0.69141,0.45703 -1.1055,0.45703 z M 31.965,57.687 h 64.91 V 42.375 h -64.91 z"
         id="path905"
         style="fill:#2ca02c" />
      <path
         d="M 98.438,94.719 H 30.403 c -0.86328,0 -1.5625,-0.69922 -1.5625,-1.5625 v -18.438 c 0,-0.86328 0.69922,-1.5625 1.5625,-1.5625 h 68.035 c 0.41406,0 0.8125,0.16406 1.1055,0.45703 0.293,0.29297 0.45703,0.69141 0.45703,1.1055 v 18.438 c 0,0.86328 -0.69922,1.5625 -1.5625,1.5625 z M 31.965,91.594 h 64.91 V 76.282 h -64.91 z"
         id="path907"
         style="fill:#2ca02c" />
      <path
         d="M 90,17.625 H 38.07 c -0.86328,0 -1.5625,-0.69922 -1.5625,-1.5625 0,-0.86328 0.69922,-1.5625 1.5625,-1.5625 H 90 c 0.86328,0 1.5625,0.69922 1.5625,1.5625 0,0.86328 -0.69922,1.5625 -1.5625,1.5625 z"
         id="path909"
         style="fill:#2ca02c" />
      <path
         d="M 90,51.562 H 38.07 c -0.86328,0 -1.5625,-0.69922 -1.5625,-1.5625 0,-0.86328 0.69922,-1.5625 1.5625,-1.5625 H 90 c 0.86328,0 1.5625,0.69922 1.5625,1.5625 0,0.86328 -0.69922,1.5625 -1.5625,1.5625 z"
         id="path911"
         style="fill:#2ca02c" />
      <path
         d="M 90,85.5 H 38.07 c -0.86328,0 -1.5625,-0.69922 -1.5625,-1.5625 0,-0.86328 0.69922,-1.5625 1.5625,-1.5625 H 90 c 0.86328,0 1.5625,0.69922 1.5625,1.5625 0,0.86328 -0.69922,1.5625 -1.5625,1.5625 z"
         id="path913"
         style="fill:#2ca02c" />
    </g>
  </g>
</svg>
