<?xml version="1.0" encoding="UTF-8"?>
<svg width="100pt" height="100pt" version="1.1" viewBox="0 0 100 100" xmlns="http://www.w3.org/2000/svg">
 <g>
  <path d="m31.219 24.023-1.5625-2.707c0.46875-0.26953 0.94531-0.53125 1.4258-0.78516l1.4492 2.7695c-0.44531 0.23047-0.88281 0.47266-1.3125 0.72266z"/>
  <path d="m13.805 53.438-3.125-0.070312c0.023437-1.0781 0.09375-2.1641 0.20703-3.2344l3.1055 0.33203c-0.10156 0.98438-0.16406 1.9844-0.1875 2.9727zm0.63672-5.9141-3.0703-0.59375c0.20312-1.0508 0.45703-2.1133 0.75391-3.1523l3.0078 0.85547c-0.27344 0.95313-0.50391 1.9258-0.69141 2.8906zm1.625-5.7148-2.9219-1.1094c0.38281-1.0078 0.8125-2.0078 1.2852-2.9805l2.8125 1.3594c-0.42578 0.89062-0.82422 1.8086-1.1758 2.7305zm2.5859-5.3516-2.6875-1.5938c0.54688-0.92578 1.1445-1.8398 1.7734-2.7188l2.543 1.8164c-0.57812 0.80859-1.125 1.6445-1.6289 2.4961zm3.4609-4.8398-2.3789-2.0273c0.69922-0.82031 1.4414-1.6211 2.207-2.3789l2.1992 2.2227c-0.70312 0.69531-1.3867 1.4297-2.0273 2.1836zm4.2305-4.1875-2.0039-2.3984c0.82422-0.6875 1.6914-1.3516 2.5781-1.9688l1.7891 2.5625c-0.8125 0.56641-1.6094 1.1758-2.3633 1.8047z"/>
  <path d="m10.98 58.281c-0.078125-0.61719-0.14062-1.1172-0.19141-1.5938l3.1094-0.31641c0.046874 0.45312 0.10547 0.92578 0.18359 1.5156z"/>
  <path d="m86.281 59.062-3.1016-0.39453c0.0625-0.49219 0.11719-0.98828 0.15625-1.4883l3.1133 0.26562c-0.042969 0.54297-0.10156 1.082-0.16797 1.6172z"/>
  <path d="m83.465 54.148c-0.003906-1.0078-0.046875-2.0312-0.13672-3.0352l3.1133-0.27344c0.097656 1.0938 0.14453 2.2031 0.14844 3.3008zm-0.53516-6.043c-0.17578-0.99609-0.39844-1.9922-0.65625-2.9648l3.0195-0.80859c0.28516 1.0586 0.52344 2.1445 0.71875 3.2305zm-1.5742-5.8555c-0.34375-0.94141-0.73438-1.8867-1.1641-2.8008l2.832-1.3242c0.46875 1 0.89453 2.0273 1.2695 3.0547zm-2.5703-5.4922c-0.50391-0.87109-1.0547-1.7344-1.6328-2.5547l2.5547-1.7969c0.63281 0.89844 1.2305 1.8359 1.7812 2.7852zm-3.4844-4.9609c-0.65234-0.77344-1.3398-1.5273-2.0508-2.2344l2.207-2.2109c0.77344 0.77344 1.5273 1.5938 2.2344 2.4375zm-4.2891-4.2891c-0.77344-0.64844-1.582-1.2695-2.4062-1.8477l1.793-2.5586c0.89453 0.62891 1.7773 1.3047 2.6211 2.0156z"/>
  <path d="m66.047 24.027c-0.42969-0.25-0.86719-0.48828-1.3086-0.72266l1.4492-2.7695c0.48438 0.25391 0.95703 0.51562 1.4297 0.78516z"/>
  <path d="m26.148 84.812c-0.4375-0.32031-0.86719-0.65234-1.2891-0.99219l1.9609-2.4336c0.38672 0.3125 0.78516 0.61719 1.1875 0.91406z"/>
  <path d="m48.629 92.188c-0.46484 0-0.92969-0.007812-1.3906-0.023438l0.11328-3.125c0.98828 0.035157 1.9883 0.03125 2.9766-0.015624l0.14844 3.1211c-0.61328 0.027344-1.2266 0.042969-1.8477 0.042969zm-4.6172-0.27734c-1.0664-0.12891-2.1406-0.30859-3.1953-0.52734l0.64062-3.0586c0.96484 0.20312 1.9531 0.36719 2.9297 0.48438zm9.6875-0.058594-0.41406-3.0977c0.98047-0.13281 1.9648-0.30469 2.9258-0.51953l0.67969 3.0508c-1.0469 0.23438-2.1211 0.42188-3.1914 0.56641zm-16.02-1.2695c-1.0312-0.3125-2.0625-0.66797-3.0586-1.0664l1.1562-2.9023c0.91406 0.36328 1.8555 0.69141 2.8047 0.97656zm22.34-0.13281-0.9375-2.9805c0.9375-0.29688 1.8789-0.63672 2.793-1.0117l1.1875 2.8906c-0.99219 0.40625-2.0195 0.77734-3.043 1.1016zm-28.352-2.2539c-0.96484-0.48437-1.918-1.0156-2.8281-1.5742l1.6328-2.6641c0.83594 0.51172 1.7109 0.99609 2.5977 1.4414zm34.336-0.21094-1.4336-2.7773c0.875-0.45312 1.7422-0.94922 2.582-1.4727l1.6641 2.6445c-0.91016 0.57422-1.8555 1.1133-2.8125 1.6055z"/>
  <path d="m71.5 84.523-1.8867-2.4922c0.39844-0.30078 0.78906-0.60938 1.1719-0.92578l1.9922 2.4062c-0.41797 0.34766-0.84375 0.68359-1.2773 1.0117z"/>
  <path d="m62.094 29.816h-25.16c-0.86328 0-1.5625-0.69922-1.5625-1.5625v-18.879c0-0.86328 0.69922-1.5625 1.5625-1.5625h25.16c0.86328 0 1.5625 0.69922 1.5625 1.5625v18.879c0 0.86328-0.69922 1.5625-1.5625 1.5625zm-23.598-3.125h22.035v-15.754h-22.035z"/>
  <path d="m45.035 13.234-5.3906 4.3633v1.5977l5.3906 4.3633 0.83594-2.4844-3.0352-2.6797 3.0352-2.6758z"/>
  <path d="m46.23 23.848h2.7695l3.793-10.906h-2.7461z"/>
  <path d="m53.996 13.234-0.83984 2.4844 3.0391 2.6758-3.0391 2.6797 0.83984 2.4844 5.3867-4.3633v-1.5977z"/>
  <path d="m9.5312 86.246c-0.22656 0-0.45312-0.050782-0.66016-0.14844-0.37891-0.17578-0.67188-0.5-0.8125-0.89062l-6.4062-18.004c-0.28516-0.80469 0.125-1.6914 0.92578-1.9883l23.473-8.7383c0.39062-0.14453 0.82812-0.12891 1.207 0.046876 0.37891 0.17578 0.67188 0.5 0.8125 0.89062l6.4062 18.008c0.28516 0.80469-0.125 1.6914-0.92578 1.9883l-23.473 8.7383c-0.17578 0.066406-0.35938 0.097656-0.54688 0.097656zm-4.418-18.641 5.3594 15.062 20.543-7.6484-5.3594-15.062z"/>
  <path d="m13.652 76.969c-0.023438-0.035156-0.0625-0.10156-0.10938-0.22656l-0.52344-1.4336c-0.1875-0.51562-0.41016-0.89453-0.68359-1.1562-0.066407-0.066406-0.14063-0.125-0.21484-0.17969 0.023437-0.089844 0.039062-0.18359 0.046875-0.27734 0.039062-0.375-0.035157-0.80859-0.22266-1.3242l-0.51953-1.4336c-0.042969-0.12109-0.058593-0.19922-0.070312-0.22266 0.039062-0.027344 0.12891-0.082032 0.30078-0.14453l0.67578-0.24609-0.77344-2.0078-0.67578 0.24609c-0.41016 0.14844-0.73828 0.32031-1 0.52344-0.29297 0.22266-0.51172 0.48437-0.64453 0.76172-0.14453 0.29688-0.20703 0.62109-0.17969 0.96875 0.019531 0.28125 0.089844 0.58594 0.20312 0.90234l0.60938 1.6758-0.019532 0.26172s-0.019531 0.019531-0.082031 0.039062l-0.67578 0.24609 0.48828 1.3398 0.39453 0.66797 0.67578-0.24609 0.73047 1.8438c0.11719 0.31641 0.25391 0.58594 0.42188 0.82031 0.19922 0.27734 0.45703 0.49219 0.74609 0.625 0.29297 0.13672 0.63281 0.19531 1.0078 0.17578 0.32812-0.019531 0.6875-0.10156 1.1289-0.26172l0.67578-0.24609-0.73438-2.0195-0.67578 0.24609c-0.17188 0.054687-0.27344 0.058593-0.30078 0.082031z"/>
  <path d="m14.082 71.746c-0.48828 0.17578-0.71094 0.50781-0.81641 0.76172-0.13281 0.32813-0.13672 0.67578-0.019531 1.0078 0.12109 0.33203 0.35156 0.59766 0.66797 0.76172 0.33984 0.17969 0.72266 0.19531 1.1055 0.058594 0.38672-0.14063 0.66797-0.40234 0.8125-0.75781 0.13281-0.32812 0.14062-0.67969 0.019531-1.0117-0.12109-0.32812-0.34766-0.59375-0.66406-0.76172-0.23047-0.125-0.61328-0.23438-1.1055-0.058594zm1.1016 1.0664z"/>
  <path d="m17.641 70.738c-0.48828 0.17969-0.71094 0.51172-0.8125 0.75781-0.13281 0.32812-0.14062 0.67578-0.019531 1.0078 0.12109 0.33594 0.35156 0.59766 0.66797 0.76172 0.33984 0.17969 0.72266 0.19922 1.1094 0.058594 0.38672-0.14062 0.66797-0.40234 0.8125-0.75781 0.13281-0.32812 0.14062-0.67969 0.019531-1.0117-0.12109-0.32813-0.34766-0.59375-0.66406-0.76172-0.23828-0.125-0.625-0.23438-1.1133-0.054688zm1.0977 1.0625z"/>
  <path d="m22.305 69c-0.23438-0.125-0.62109-0.23438-1.1055-0.054688-0.48828 0.17969-0.71094 0.51172-0.81641 0.76172-0.13281 0.32812-0.13672 0.67578-0.019531 1.0078 0.12109 0.33203 0.35156 0.59766 0.66406 0.76172 0.33984 0.17969 0.72266 0.19922 1.1094 0.058594 0.38281-0.14062 0.66406-0.40234 0.8125-0.75781 0.13281-0.32812 0.14062-0.67578 0.019531-1.0117-0.11719-0.33203-0.34766-0.59375-0.66406-0.76562z"/>
  <path d="m26.141 67.461-0.67578 0.24609-0.35156 0.625 0.23828-0.78906-0.60937-1.6758c-0.11328-0.3125-0.25781-0.59375-0.42578-0.82422-0.20312-0.28125-0.45703-0.48828-0.75391-0.62109-0.28516-0.12891-0.62109-0.1875-0.98828-0.16797-0.33203 0.015625-0.69531 0.09375-1.1406 0.25781l-0.67578 0.24609 0.73438 2.0195 0.67578-0.24609c0.17578-0.0625 0.28516-0.066406 0.30078-0.09375 0.023438 0.03125 0.0625 0.10156 0.10938 0.23047l0.51953 1.4336c0.1875 0.51563 0.41016 0.89453 0.68359 1.1562 0.066406 0.066407 0.14062 0.125 0.21484 0.17969-0.019532 0.089844-0.035156 0.18359-0.046875 0.27734-0.039063 0.375 0.03125 0.80859 0.21875 1.3242l0.52344 1.4336c0.042969 0.12109 0.058594 0.19922 0.070313 0.22266-0.039063 0.027344-0.12891 0.082032-0.30078 0.14453l-0.67578 0.24609 0.77344 2.0078 0.67578-0.24609c0.40625-0.14844 0.73047-0.31641 0.99609-0.51172 0.30078-0.22266 0.52344-0.48828 0.66016-0.77734 0.14062-0.30078 0.19922-0.625 0.17188-0.96484-0.019531-0.28906-0.085938-0.58203-0.20312-0.89844l-0.60938-1.6758 0.023438-0.26562s0.019531-0.015625 0.078124-0.039062l0.67578-0.24609-0.48828-1.3398z"/>
  <path d="m90.121 86.195c-0.1875 0-0.37891-0.035156-0.55859-0.10547l-23.496-9.0117c-0.80469-0.30859-1.207-1.2109-0.89844-2.0195l6.7539-17.629c0.14844-0.38672 0.44531-0.69922 0.82422-0.86719s0.80859-0.17969 1.1953-0.03125l23.492 9.0117c0.80469 0.30859 1.207 1.2109 0.89844 2.0195l-6.7539 17.629c-0.14844 0.38672-0.44531 0.69922-0.82422 0.86719-0.19922 0.089844-0.41797 0.13672-0.63281 0.13672zm-21.477-11.473 20.574 7.8906 5.6367-14.711-20.574-7.8906z"/>
  <path d="m82.617 69.055-2.293 5.9844"/>
  <path d="m78.863 74.484 2.2969-5.9844 2.918 1.1172-2.2969 5.9844z"/>
  <path d="m89.336 69.102-3.1406 8.1914"/>
  <path d="m84.738 76.738 3.1406-8.1875 2.918 1.1172-3.1406 8.1875z"/>
  <path d="m75.898 69.004-1.4492 3.7812"/>
  <path d="m72.988 72.23 1.4492-3.7812 2.918 1.1172-1.4492 3.7812z"/>
 </g>
</svg>
