<?xml version="1.0" encoding="UTF-8"?>
<svg width="100pt" height="100pt" version="1.1" viewBox="0 0 100 100" xmlns="http://www.w3.org/2000/svg">
 <g>
  <path d="m70.832 50c0 2.3008 1.8672 4.168 4.168 4.168s4.168-1.8672 4.168-4.168v-20.832c0-6.9062-5.5977-12.5-12.5-12.5h-4.168l1.25-1.668c1.3789-1.8398 1.0078-4.4531-0.83203-5.832-1.8438-1.3828-4.4531-1.0078-5.8359 0.83203l-6.25 8.332c-1.1094 1.4844-1.1094 3.5195 0 5l6.25 8.3359c1.3828 1.8398 3.9922 2.2148 5.8359 0.83203 1.8398-1.3789 2.2109-3.9922 0.83203-5.832l-1.25-1.668h4.168c2.3008 0 4.1641 1.8672 4.1641 4.168z"/>
  <path d="m20.832 8.332c-6.9023 0-12.5 5.5977-12.5 12.5 0 5.4453 3.4805 10.074 8.3359 11.789v34.758c-4.8555 1.7148-8.3359 6.3438-8.3359 11.789 0 6.9023 5.5977 12.5 12.5 12.5 6.9062 0 12.5-5.5977 12.5-12.5 0-5.4453-3.4766-10.074-8.332-11.789v-34.758c4.8555-1.7148 8.332-6.3438 8.332-11.789 0-6.9023-5.5938-12.5-12.5-12.5z"/>
  <path d="m75 91.668c-2.3008 0-4.168-1.8672-4.168-4.168v-8.332h-8.332c-2.3008 0-4.168-1.8672-4.168-4.168s1.8672-4.168 4.168-4.168h8.332v-8.332c0-2.3008 1.8672-4.168 4.168-4.168s4.168 1.8672 4.168 4.168v8.332h8.332c2.3008 0 4.168 1.8672 4.168 4.168s-1.8672 4.168-4.168 4.168h-8.332v8.332c0 2.3008-1.8672 4.168-4.168 4.168z"/>
 </g>
</svg>
