<?xml version="1.0" encoding="UTF-8"?>
<svg width="100pt" height="100pt" version="1.1" viewBox="0 0 100 100" xmlns="http://www.w3.org/2000/svg">
 <g>
  <path d="m40.625 17.199h3.125c0-1.7227 1.4023-3.125 3.125-3.125s3.125 1.4023 3.125 3.125h3.125c0-3.4453-2.8047-6.25-6.25-6.25s-6.25 2.8008-6.25 6.25z"/>
  <path d="m46.875 7.8242c5.1719 0 9.375 4.2031 9.375 9.375h3.125c0-6.8906-5.6094-12.5-12.5-12.5s-12.5 5.6094-12.5 12.5h3.125c0-5.168 4.2031-9.375 9.375-9.375z"/>
  <path d="m44.531 57.824-7.0312 9.375h18.75l-7.0312-9.375z"/>
  <path d="m34.375 54.699h25c0.86328 0 1.5625-0.69922 1.5625-1.5625v-25c0-0.86328-0.69922-1.5625-1.5625-1.5625h-25c-0.86328 0-1.5625 0.69922-1.5625 1.5625v25c0 0.86328 0.69922 1.5625 1.5625 1.5625zm12.5-25c6.0312 0 10.938 4.9062 10.938 10.938s-4.9062 10.938-10.938 10.938-10.938-4.9062-10.938-10.938 4.9062-10.938 10.938-10.938z"/>
  <path d="m46.875 48.449c4.3086 0 7.8125-3.5039 7.8125-7.8125 0-4.3086-3.5039-7.8125-7.8125-7.8125s-7.8125 3.5039-7.8125 7.8125c0 4.3086 3.5039 7.8125 7.8125 7.8125zm0-12.5c2.5859 0 4.6875 2.1016 4.6875 4.6875 0 2.5859-2.1016 4.6875-4.6875 4.6875s-4.6875-2.1016-4.6875-4.6875c0-2.5859 2.1016-4.6875 4.6875-4.6875z"/>
  <path d="m48.438 40.637c0 2.082-3.125 2.082-3.125 0 0-2.0859 3.125-2.0859 3.125 0"/>
  <path d="m23.438 32.824h6.25v6.25h-6.25z"/>
  <path d="m35.938 70.324h21.875v3.125h-21.875z"/>
  <path d="m82.812 32.824h6.25v6.25h-6.25z"/>
  <path d="m55.285 20.324h-16.82l-1.5625 3.125h19.945z"/>
  <path d="m82.812 42.199h6.25v6.25h-6.25z"/>
  <path d="m23.438 42.199h6.25v6.25h-6.25z"/>
  <path d="m73.438 42.199h6.25v6.25h-6.25z"/>
  <path d="m64.062 42.199h6.25v6.25h-6.25z"/>
  <path d="m64.062 32.824h6.25v6.25h-6.25z"/>
  <path d="m73.438 32.824h6.25v6.25h-6.25z"/>
  <path d="m78.125 79.984c0 2.9492-1.3242 5.6992-3.5742 7.5508 1.4766 0.97266 3.2422 1.543 5.1367 1.543 1.4375 0 2.793-0.33594 4.0078-0.91406-1.5781-2.3086-2.4453-5.0195-2.4453-7.8203 0-1.0078-0.39062-1.9531-1.1055-2.668-1.3008-1.3008-2.0195-3.0312-2.0195-4.875v-2.3359c-1.4219 0.24219-2.7344 0.79688-3.8594 1.6016l0.99219 0.99219c1.8477 1.8477 2.8672 4.3086 2.8672 6.9258z"/>
  <path d="m29.688 82.824h18.75v6.25h-18.75z"/>
  <path d="m75 79.984c0-1.7812-0.69531-3.4531-1.9531-4.7148l-0.99219-0.99219c-1.0938 1.5312-1.7422 3.3984-1.7422 5.4219 0 2.1328 0.72266 4.0938 1.9297 5.6719 1.7266-1.25 2.7578-3.2422 2.7578-5.3867z"/>
  <path d="m84.375 80.344c0 2.1562 0.66797 4.2461 1.8828 6.0312 1.7305-1.7031 2.8047-4.0625 2.8047-6.6758 0-4.6367-3.3867-8.4844-7.8125-9.2344v2.3359c0 1.0078 0.39062 1.9531 1.1055 2.668 1.3008 1.3047 2.0195 3.0352 2.0195 4.875z"/>
  <path d="m40.625 57.824h-6.25c-2.0352 0-3.7539-1.3125-4.3984-3.125h-6.5391v6.25h14.844z"/>
  <path d="m63.773 54.699c-0.64844 1.8125-2.3672 3.125-4.3984 3.125h-6.25l2.3438 3.125h39.844v-6.25z"/>
  <path d="m60.938 68.242v8.332h-28.125v-8.332l3.125-4.168h-12.5v31.25h71.875v-31.25h-37.5zm-9.375 23.957h-25v-12.5h25zm28.125-25c6.8906 0 12.5 5.6094 12.5 12.5s-5.6094 12.5-12.5 12.5-12.5-5.6094-12.5-12.5c0-6.8945 5.6094-12.5 12.5-12.5z"/>
  <path d="m4.6875 32.824h6.25v6.25h-6.25z"/>
  <path d="m4.6875 42.199h6.25v6.25h-6.25z"/>
  <path d="m14.062 42.199h6.25v6.25h-6.25z"/>
  <path d="m14.062 32.824h6.25v6.25h-6.25z"/>
 </g>
</svg>
