<?xml version="1.0" encoding="UTF-8"?>
<svg width="100pt" height="100pt" version="1.1" viewBox="0 0 100 100" xmlns="http://www.w3.org/2000/svg">
 <path d="m45.305 19.809c16.676 0 30.191 13.52 30.191 30.191 0 1.7734-0.15625 3.5156-0.44922 5.207-2.5586 1.0117-4.8555 2.5352-6.7656 4.4492 1.25-2.9688 1.9414-6.2305 1.9414-9.6562 0-13.762-11.156-24.922-24.922-24.922-13.762 0-24.922 11.156-24.922 24.922 0 13.762 11.156 24.922 24.922 24.922 6.8828 0 13.109-2.7891 17.621-7.3008 0.26562-0.26562 0.52344-0.53516 0.77344-0.80859-0.79297 2.1484-1.2305 4.4727-1.2305 6.8945 0 0.37109 0.011718 0.74219 0.03125 1.1094-4.8789 3.3867-10.805 5.375-17.199 5.375-16.676 0-30.191-13.52-30.191-30.191 0.003906-16.676 13.523-30.191 30.199-30.191zm37.055 37.527c-9.043 0-16.371 7.3281-16.371 16.371s7.3281 16.371 16.371 16.371 16.371-7.3281 16.371-16.371-7.332-16.371-16.371-16.371zm-14.492-50.711-7.5391 2.3984c-1.0117 0.32031-1.5039 1.4609-1.0547 2.4141l3.375 7.1562c0.41406 0.875 1.457 1.25 2.3359 0.83984 0.875-0.41406 1.25-1.4609 0.83984-2.3359l-1.3125-2.7852c14.395 7.7266 22.773 23.492 21.109 39.77 1.1836 0.19531 2.3281 0.49219 3.4297 0.88672 2.0664-18.07-7.2383-35.59-23.336-43.988l3.2148-1.0234c0.92187-0.29297 1.4336-1.2773 1.1406-2.1953-0.29297-0.91797-1.2812-1.4297-2.2031-1.1367zm0.28906 81.004c-0.82812-0.84375-1.5781-1.7617-2.2461-2.7383-9.2148 5.4492-19.766 6.8359-29.508 4.6406-21.832-4.918-35.543-26.602-30.629-48.434 3.4727-15.422 15.59-27.395 30.977-30.711 4.707-1.0156 9.5078-1.1641 14.184-0.50781 0.96094 0.13281 1.8438-0.53516 1.9766-1.4961 0.13281-0.96094-0.53516-1.8438-1.4961-1.9766-5.0742-0.71484-10.289-0.55078-15.391 0.55078-16.723 3.5977-29.895 16.609-33.668 33.371-5.3438 23.723 9.5547 47.277 33.277 52.617 10.75 2.4219 22.402 0.83203 32.523-5.3164zm20.402-21.387-9.6992 9.6992-3.3086-4.1641c-0.8125-1.0234-2.3047-1.1953-3.3281-0.37891-1.0234 0.8125-1.1953 2.3047-0.37891 3.3281l4.8711 6.1289c0.84375 1.207 2.5781 1.3711 3.625 0.32031l11.574-11.578c0.92578-0.92578 0.92578-2.4297 0-3.3555-0.92969-0.92578-2.4297-0.92578-3.3555 0zm-41.496-18.723v-14.113c0-0.97266-0.78516-1.7578-1.7578-1.7578-0.97266 0-1.7578 0.78516-1.7578 1.7578v16.039l-9.5156 5.4922c-0.83984 0.48047-1.1289 1.5508-0.64453 2.3906 0.48047 0.83984 1.5508 1.1289 2.3906 0.64453l7.8594-4.5391c0.23047 0.69922 0.89062 1.2031 1.668 1.2031 0.97266 0 1.7578-0.78516 1.7578-1.7578v-1.4258l1.2188-0.70312c0.83984-0.48047 1.1289-1.5508 0.64453-2.3906-0.38672-0.66406-1.1484-0.98438-1.8633-0.83984zm-1.7578-18.922c-11.82 0-21.402 9.582-21.402 21.402s9.582 21.402 21.402 21.402c5.9102 0 11.262-2.3945 15.137-6.2695 3.8711-3.8711 6.2695-9.2266 6.2695-15.137-0.003907-11.816-9.5859-21.398-21.406-21.398z" fill-rule="evenodd"/>
</svg>
