<?xml version="1.0" encoding="UTF-8"?>
<svg width="100pt" height="100pt" version="1.1" viewBox="0 0 100 100" xmlns="http://www.w3.org/2000/svg">
 <g>
  <path d="m87.5 12.5v76h-76v-76h76m2-2h-80v80h80z"/>
  <path d="m70.199 26.5c0 6.668-10 6.668-10 0s10-6.668 10 0"/>
  <path d="m53 46.5l-2.1016-7.1992 1.9023-0.60156 1.5 5.3008 5.3008-1.5 0.5 1.8984z"/>
  <path d="m59.484 32.367l1.7539 0.96094-6.7227 12.281-1.7539-0.96094z"/>
  <path d="m75.199 50.301c0 6.6641-10 6.6641-10 0 0-6.668 10-6.668 10 0"/>
  <path d="m81.398 70.898l-7.2969-1.7969 0.39844-1.9023 5.3984 1.3008 1.3008-5.3008 1.9023 0.5z"/>
  <path d="m74.074 57.172l7.3047 11.945-1.707 1.043-7.3047-11.945z"/>
  <path d="m41.301 41c0 6.668-10 6.668-10 0s10-6.668 10 0"/>
  <path d="m23.301 30.199l-2-0.19922 0.5-7.3984 7.5 0.5-0.10156 2-5.5977-0.40234z"/>
  <path d="m23.52 23.047l9.2305 10.527-1.5039 1.3203-9.2305-10.527z"/>
  <path d="m39.801 67.801c0 6.6641-10 6.6641-10 0 0-6.668 10-6.668 10 0"/>
  <path d="m49.898 79.699l-0.89844-1.8008 5-2.5-2.5-4.7969 1.8008-0.90234 3.3008 6.6016z"/>
  <path d="m42.266 70.547l13.277 4.4336-0.63281 1.8984-13.277-4.4336z"/>
 </g>
</svg>
